<?xml version="1.0" encoding="UTF-8" standalone="no"?>
<!DOCTYPE svg PUBLIC "-//W3C//DTD SVG 1.1//EN" "http://www.w3.org/Graphics/SVG/1.1/DTD/svg11.dtd">
<svg xmlns="http://www.w3.org/2000/svg" xmlns:xlink="http://www.w3.org/1999/xlink" version="1.1" width="137pt" height="91pt" viewBox="0 0 137 91">
<g enable-background="new">
<path transform="matrix(.00359712,0,0,-.00359712,0,91)" stroke-width="110.783" stroke-linecap="butt" stroke-miterlimit="10" stroke-linejoin="miter" fill="none" stroke="#000000" d="M 1499.99 25019.6 L 1499.99 785.129 "/>
<path transform="matrix(.00359712,0,0,-.00359712,0,91)" stroke-width="110.783" stroke-linecap="butt" stroke-miterlimit="10" stroke-linejoin="miter" fill="none" stroke="#000000" d="M 253.652 2031.46 L 37920.9 2031.46 "/>
<path transform="matrix(.00359712,0,0,-.00359712,0,91)" stroke-width="110.783" stroke-linecap="butt" stroke-miterlimit="10" stroke-linejoin="miter" fill="none" stroke="#000000" d="M 392.133 23173.6 L 38059.4 23173.6 "/>
<path transform="matrix(.00359712,0,0,-.00359712,0,91)" stroke-width="110.783" stroke-linecap="butt" stroke-miterlimit="10" stroke-linejoin="miter" fill="none" stroke="#000000" d="M 36397.6 24419.9 L 36397.6 185.484 "/>
<path transform="matrix(.00359712,0,0,-.00359712,0,91)" d="M 11193.8 17472.3 C 11193.8 17663.4 11348.9 17818.5 11540 17818.5 C 11731.1 17818.5 11886.2 17663.4 11886.2 17472.3 C 11886.2 17281.2 11731.1 17126.1 11540 17126.1 C 11348.9 17126.1 11193.8 17281.2 11193.8 17472.3 Z "/>
<path transform="matrix(.00359712,0,0,-.00359712,0,91)" stroke-width="110.783" stroke-linecap="butt" stroke-miterlimit="10" stroke-linejoin="miter" fill="none" stroke="#000000" d="M 11193.8 17472.3 C 11193.8 17663.4 11348.9 17818.5 11540 17818.5 C 11731.1 17818.5 11886.2 17663.4 11886.2 17472.3 C 11886.2 17281.2 11731.1 17126.1 11540 17126.1 C 11348.9 17126.1 11193.8 17281.2 11193.8 17472.3 Z "/>
<path transform="matrix(.00359712,0,0,-.00359712,0,91)" stroke-width="110.783" stroke-linecap="butt" stroke-miterlimit="10" stroke-linejoin="miter" fill="none" stroke="#000000" d="M 10423.8 21912 C 12825.1 8340.73 20487.3 7417.05 26764.7 7232.86 "/>
<path transform="matrix(.00359712,0,0,-.00359712,0,91)" stroke-width="110.783" stroke-linecap="butt" stroke-miterlimit="10" stroke-linejoin="miter" fill="none" stroke="#000000" d="M 8116.68 18218.7 C 24734.6 15172.1 26396.4 12495.2 24457.6 3539.54 "/>
<path transform="matrix(.00359712,0,0,-.00359712,0,91)" stroke-width="415.449" stroke-linecap="butt" stroke-miterlimit="10" stroke-linejoin="miter" fill="none" stroke="#f5a623" d="M 1407.21 1985.77 C 8947.58 12402.4 29350.2 10740.6 36274.3 23111.3 "/>
<path transform="matrix(.00359712,0,0,-.00359712,0,91)" stroke-width="415.449" stroke-linecap="butt" stroke-miterlimit="10" stroke-linejoin="miter" fill="none" stroke="#9013fe" d="M 15686.1 10586.9 C 19379.5 12063.1 20764.3 12432.9 22980 13263.8 "/>
<path transform="matrix(.00359712,0,0,-.00359712,0,91)" d="M 14880.3 19886.3 C 14882.7 19795.3 14882.7 19780.9 14882.7 19709.1 C 14882.7 19455.2 14865.9 19182.1 14837.2 18921.1 C 14808.4 18660 14772.5 18449.2 14741.4 18379.8 C 14722.2 18331.9 14698.3 18319.9 14624 18319.9 C 14549.8 18319.9 14473.1 18324.7 14200.1 18346.2 L 14200.1 18307.9 C 14295.9 18295.9 14379.7 18279.2 14437.2 18262.4 C 14506.6 18245.6 14533 18214.5 14549.8 18135.5 C 14657.5 18142.6 14753.3 18169 14810.8 18207.3 C 14877.9 18250.4 14925.8 18363 14956.9 18547.4 C 15021.6 18918.7 15038.4 19167.8 15052.7 19821.6 C 15129.4 19871.9 15148.5 19886.3 15148.5 19900.7 C 15148.5 19905.5 15141.4 19915.1 15124.6 19931.8 C 15059.9 19982.1 15038.4 19996.5 14968.9 20042 C 14928.2 20003.7 14916.2 19989.3 14880.3 19941.4 L 14171.3 19941.4 C 14082.7 19941.4 14027.6 19946.2 13953.4 19960.6 L 13970.1 19871.9 C 14042 19883.9 14082.7 19886.3 14171.3 19886.3 L 14346.2 19886.3 C 14331.8 19378.5 14216.8 18918.7 14015.6 18592.9 C 13910.2 18422.9 13802.5 18300.7 13610.8 18135.5 L 13632.4 18104.3 C 13764.1 18181 13821.6 18221.7 13907.8 18303.1 C 14099.5 18480.4 14250.4 18705.5 14346.2 18964.2 C 14442 19215.7 14501.8 19551 14513.8 19886.3 L 14880.3 19886.3 Z M 13512.6 19311.5 C 13610.8 19431.2 13677.9 19524.6 13809.6 19721 C 13869.5 19742.6 13903.1 19754.6 13910.2 19761.8 C 13917.4 19766.6 13922.2 19773.7 13922.2 19778.5 C 13922.2 19788.1 13917.4 19792.9 13905.5 19804.9 C 13845.6 19862.4 13824 19879.1 13752.2 19929.4 C 13701.9 19883.9 13687.5 19869.5 13639.6 19821.6 L 13512.6 19821.6 L 13512.6 20164.2 C 13577.3 20190.5 13606.1 20207.3 13606.1 20224 C 13606.1 20245.6 13572.5 20252.8 13347.4 20281.5 C 13349.8 20252.8 13357 20176.1 13364.1 20054 L 13364.1 19821.6 L 13160.6 19821.6 C 13098.3 19821.6 13033.6 19826.4 12961.8 19840.8 L 12978.5 19749.8 C 13028.8 19757 13119.8 19766.6 13160.6 19766.6 L 13639.6 19766.6 C 13500.7 19515.1 13424 19395.3 13311.5 19251.6 C 13174.9 19076.8 13055.2 18947.4 12882.7 18789.3 L 12913.9 18760.6 C 13095.9 18885.1 13186.9 18961.8 13364.1 19146.2 L 13364.1 18734.2 C 13364.1 18549.8 13357 18257.6 13347.4 18104.3 C 13352.2 18085.2 13359.4 18078 13385.7 18078 C 13426.4 18078 13495.9 18085.2 13507.9 18092.3 C 13519.8 18097.1 13522.2 18101.9 13524.6 18116.3 C 13517.4 18348.6 13512.6 18645.6 13512.6 18734.2 L 13512.6 19072 C 13610.8 19016.9 13709 18940.2 13773.7 18870.8 C 13859.9 18775 13859.9 18775 13862.3 18772.6 C 13879.1 18748.6 13898.3 18734.2 13910.2 18734.2 C 13936.6 18734.2 13962.9 18789.3 13962.9 18849.2 C 13962.9 18904.3 13948.6 18933 13903.1 18964.2 C 13843.2 19004.9 13788.1 19031.2 13680.3 19069.6 C 13773.7 19143.8 13900.7 19251.6 13984.5 19333 C 14044.4 19345 14077.9 19352.2 14087.5 19359.4 C 14094.7 19361.8 14099.5 19371.4 14099.5 19376.1 C 14099.5 19388.1 14092.3 19395.3 14075.5 19402.5 C 14046.8 19416.9 13955.8 19450.4 13874.3 19476.7 C 13814.4 19347.4 13752.2 19244.4 13637.2 19083.9 C 13577.3 19103.1 13577.3 19103.1 13512.6 19122.3 L 13512.6 19311.5 "/>
<path transform="matrix(.00359712,0,0,-.00359712,0,91)" d="M 17242.4 18997.7 L 17242.4 18363 C 17242.4 18331.9 17232.8 18319.9 17206.4 18317.5 C 17105.8 18317.5 17105.8 18317.5 16868.7 18334.3 L 16866.3 18293.5 C 16990.9 18281.6 17046 18267.2 17086.7 18233.7 C 17120.2 18204.9 17137 18178.6 17146.5 18125.9 C 17311.8 18152.2 17354.9 18173.8 17388.5 18236 C 17402.8 18269.6 17405.2 18276.8 17407.6 18360.6 C 17407.6 18427.7 17405.2 18480.4 17405.2 18523.5 L 17402.8 18662.4 L 17402.8 20008.5 C 17460.3 20037.2 17481.9 20056.4 17481.9 20077.9 C 17481.9 20089.9 17474.7 20099.5 17455.5 20113.9 C 17395.6 20159.4 17376.5 20171.3 17311.8 20214.5 C 17273.5 20166.5 17259.1 20149.8 17220.8 20101.9 L 16868.7 20101.9 C 16784.9 20157 16758.5 20171.3 16674.7 20214.5 C 16689.1 20082.7 16689.1 20044.4 16689.1 19646.8 C 16689.1 19151 16672.3 18892.3 16624.4 18698.3 C 16571.7 18482.8 16485.5 18317.5 16322.6 18116.3 L 16360.9 18089.9 C 16519 18238.4 16593.3 18336.6 16672.3 18492.3 C 16749 18645.6 16794.5 18808.5 16816 18997.7 L 17242.4 18997.7 Z M 16840 19584.5 C 16842.4 19745 16842.4 19855.2 16842.4 19874.3 C 16842.4 19915.1 16842.4 19960.6 16840 20046.8 L 17242.4 20046.8 L 17242.4 19584.5 L 16840 19584.5 Z M 17242.4 19529.4 L 17242.4 19052.8 L 16823.2 19052.8 C 16837.6 19220.5 16837.6 19232.4 16840 19529.4 L 17242.4 19529.4 Z M 15766.9 19883.9 L 15766.9 20142.6 C 15846 20161.8 15867.5 20173.7 15867.5 20195.3 C 15867.5 20221.6 15834 20228.8 15601.7 20252.8 C 15608.9 20176.1 15613.6 20063.6 15613.6 19982.1 L 15613.6 19883.9 L 15501.1 19883.9 C 15441.2 19883.9 15398.1 19888.7 15347.8 19903.1 L 15359.8 19812.1 C 15386.1 19821.6 15386.1 19821.6 15501.1 19828.8 L 15613.6 19828.8 L 15613.6 18818.1 L 15544.2 18818.1 C 15453.2 18818.1 15419.6 18820.5 15347.8 18837.2 L 15359.8 18751 C 15400.5 18758.2 15479.5 18763 15529.8 18763 L 16588.5 18763 C 16610 18763 16614.8 18767.8 16614.8 18779.8 C 16614.8 18782.1 16612.4 18791.7 16610 18801.3 C 16547.8 18870.8 16526.2 18892.3 16463.9 18959.4 C 16416 18901.9 16401.7 18882.7 16360.9 18818.1 L 16320.2 18818.1 L 16320.2 19828.8 L 16619.6 19828.8 C 16643.6 19828.8 16650.8 19833.6 16650.8 19843.2 C 16650.8 19848 16648.4 19857.6 16641.2 19864.8 C 16574.1 19929.4 16552.5 19948.6 16483.1 20013.3 C 16437.6 19958.2 16423.2 19941.4 16375.3 19883.9 L 16320.2 19883.9 L 16320.2 20137.8 C 16389.7 20161.8 16408.8 20173.7 16408.8 20190.5 C 16408.8 20219.2 16384.9 20224 16155 20245.6 C 16162.1 20171.3 16164.5 20094.7 16164.5 20025.2 L 16164.5 19883.9 L 15766.9 19883.9 Z M 15766.9 19828.8 L 16164.5 19828.8 L 16164.5 19546.2 L 15766.9 19546.2 L 15766.9 19828.8 Z M 15766.9 19491.1 L 16164.5 19491.1 L 16164.5 19203.7 L 15766.9 19203.7 L 15766.9 19491.1 Z M 15766.9 19148.6 L 16164.5 19148.6 L 16164.5 18818.1 L 15766.9 18818.1 L 15766.9 19148.6 Z M 15362.2 18121.1 C 15556.2 18255.2 15697.5 18384.5 15829.2 18554.6 C 15901.1 18566.6 15920.2 18573.8 15920.2 18592.9 C 15920.2 18614.5 15886.7 18628.9 15699.9 18693.5 C 15668.7 18614.5 15644.8 18566.6 15584.9 18466 C 15508.3 18341.4 15450.8 18269.6 15333.4 18152.2 L 15362.2 18121.1 Z M 16044.8 18657.6 C 16092.7 18612.1 16116.6 18588.1 16143 18557 C 16183.7 18504.3 16241.2 18422.9 16255.5 18394.1 C 16296.3 18312.7 16303.5 18305.5 16327.4 18305.5 C 16358.5 18305.5 16389.7 18370.2 16389.7 18434.8 C 16389.7 18516.3 16293.9 18585.7 16063.9 18669.6 L 16044.8 18657.6 "/>
<path transform="matrix(.00359712,0,0,-.00359712,0,91)" d="M 19159.9 19455.2 L 19485.7 19455.2 L 19485.7 19383.3 C 19488.1 19361.8 19500 19354.6 19519.2 19354.6 C 19552.7 19354.6 19629.4 19366.6 19639 19371.4 C 19648.5 19378.5 19653.3 19385.7 19653.3 19397.7 C 19653.3 19400.1 19653.3 19402.5 19653.3 19404.9 C 19646.1 19639.6 19646.1 19680.3 19643.8 19994.1 C 19701.2 20027.6 19722.8 20049.2 19722.8 20063.6 C 19722.8 20073.1 19713.2 20082.7 19694 20097.1 C 19641.4 20135.4 19624.6 20147.4 19564.7 20188.1 C 19524 20145 19509.6 20130.6 19466.5 20085.1 L 18731.2 20085.1 C 18654.5 20135.4 18630.6 20149.8 18542 20190.5 C 18549.2 20092.3 18551.6 20039.6 18551.6 19965.4 C 18551.6 19828.8 18546.8 19460 18544.4 19359.4 C 18544.4 19357 18544.4 19354.6 18544.4 19352.2 C 18544.4 19337.8 18554 19333 18580.3 19333 C 18671.3 19333 18707.2 19345 18707.2 19376.1 C 18707.2 19376.1 18707.2 19380.9 18707.2 19383.3 L 18707.2 19455.2 L 19013.8 19455.2 L 19013.8 19115.1 L 18518 19115.1 C 18429.4 19115.1 18367.1 19122.3 18268.9 19146.2 L 18292.9 19043.2 C 18379.1 19057.6 18403.1 19060 18520.4 19060 L 18898.9 19060 C 18834.2 18942.6 18795.9 18882.7 18733.6 18801.3 C 18587.5 18604.9 18436.6 18454 18204.3 18267.2 L 18228.2 18240.8 C 18410.2 18339 18503.7 18406.1 18645 18533 C 18793.5 18669.6 18872.5 18763 19013.8 18966.6 L 19013.8 18691.1 C 19013.8 18662.4 19011.4 18566.6 19009 18408.5 C 19006.6 18322.3 19006.6 18322.3 19004.2 18125.9 C 19004.2 18125.9 19004.2 18123.5 19004.2 18121.1 C 19004.2 18101.9 19018.6 18092.3 19049.8 18092.3 C 19049.8 18092.3 19054.5 18092.3 19059.3 18092.3 C 19061.7 18092.3 19071.3 18092.3 19088.1 18094.7 C 19143.2 18094.7 19169.5 18106.7 19169.5 18130.7 C 19169.5 18133.1 19169.5 18135.5 19169.5 18140.2 C 19162.3 18463.6 19159.9 18604.9 19159.9 18710.3 L 19159.9 19014.5 C 19229.4 18858.8 19282.1 18772.6 19392.3 18640.8 C 19524 18482.8 19622.2 18396.5 19801.8 18284 C 19844.9 18382.2 19883.3 18415.7 19976.7 18439.6 L 19976.7 18473.2 C 19742 18533 19574.3 18621.7 19406.6 18777.4 C 19310.8 18866 19265.3 18923.5 19179.1 19060 L 19902.4 19060 C 19921.6 19060 19931.2 19064.8 19931.2 19074.4 C 19931.2 19079.1 19928.8 19083.9 19924 19091.1 C 19833 19179.7 19804.2 19206.1 19708.4 19287.5 C 19648.5 19213.3 19629.4 19191.7 19569.5 19115.1 L 19159.9 19115.1 L 19159.9 19455.2 Z M 18707.2 20030 L 19485.7 20030 L 19485.7 19510.3 L 18707.2 19510.3 L 18707.2 20030 Z M 17710.9 19028.8 C 17818.6 19136.6 17845 19172.6 17979.1 19378.5 C 17991.1 19395.3 17995.9 19404.9 18007.9 19421.7 L 18007.9 18885.1 C 18007.9 18698.3 18003.1 18442 17995.9 18135.5 C 17995.9 18133.1 17995.9 18128.3 17995.9 18128.3 C 17995.9 18104.3 18007.9 18094.7 18034.2 18094.7 C 18036.6 18094.7 18041.4 18094.7 18046.2 18094.7 C 18062.9 18097.1 18077.3 18097.1 18086.9 18097.1 C 18156.4 18101.9 18165.9 18106.7 18173.1 18133.1 C 18170.7 18329.5 18170.7 18355.8 18168.3 18885.1 L 18168.3 19397.7 C 18228.2 19421.7 18245 19431.2 18245 19448 C 18245 19472 18211.4 19481.5 18060.5 19507.9 C 18168.3 19685.1 18245 19838.4 18355.2 20094.7 C 18417.4 20101.9 18453.4 20118.6 18453.4 20140.2 C 18453.4 20149.8 18443.8 20159.4 18422.2 20171.3 C 18393.5 20183.3 18383.9 20188.1 18180.3 20248 C 18154 20075.5 18113.2 19936.6 18027 19723.4 C 17907.3 19428.8 17813.8 19249.2 17679.7 19060 L 17710.9 19028.8 "/>
<path transform="matrix(.00359712,0,0,-.00359712,0,91)" d="M 21062.1 19864.8 C 21102.8 19955.8 21122 20006.1 21160.3 20123.4 C 21268.1 20147.4 21287.3 20154.6 21287.3 20178.5 C 21287.3 20185.7 21277.7 20197.7 21270.5 20202.5 C 21249 20212 21249 20212 21004.6 20260 C 20985.5 20137.8 20952 20025.2 20884.9 19864.8 L 20408.3 19864.8 C 20310 19864.8 20269.3 19869.5 20183.1 19886.3 L 20195.1 19795.3 C 20274.1 19807.3 20319.6 19809.7 20408.3 19809.7 L 20860.9 19809.7 C 20710 19472 20472.9 19151 20163.9 18856.4 L 20180.7 18834.8 C 20398.7 18973.8 20559.1 19119.9 20738.8 19342.6 L 20738.8 18760.6 C 20738.8 18315.1 20738.8 18315.1 20734 18104.3 C 20734 18082.8 20741.2 18078 20760.3 18078 C 20801.1 18078 20863.3 18085.2 20880.1 18092.3 C 20892.1 18097.1 20896.9 18104.3 20899.3 18123.5 L 20899.3 18717.5 L 21775.9 18717.5 L 21775.9 18310.3 C 21775.9 18281.6 21763.9 18274.4 21720.8 18274.4 L 21311.2 18288.7 L 21308.8 18250.4 C 21553.1 18219.3 21553.1 18219.3 21591.5 18200.1 C 21637 18181 21653.7 18152.2 21663.3 18082.8 C 21787.9 18104.3 21847.7 18123.5 21893.3 18159.4 C 21934 18188.1 21945.9 18214.5 21948.3 18274.4 C 21943.5 18439.6 21943.5 18578.6 21943.5 18736.6 L 21943.5 19366.6 C 22025 19412.1 22032.2 19416.9 22032.2 19431.2 C 22032.2 19440.8 22025 19450.4 22003.4 19464.8 C 21936.4 19512.7 21914.8 19527 21845.3 19570.2 C 21804.6 19524.6 21792.7 19512.7 21751.9 19464.8 L 20899.3 19464.8 C 20877.7 19479.1 20870.5 19481.5 20851.4 19495.9 C 20930.4 19610.9 20975.9 19689.9 21035.8 19809.7 L 22283.7 19809.7 C 22298 19809.7 22307.6 19814.5 22307.6 19824 C 22307.6 19828.8 22302.8 19836 22295.6 19845.6 C 22199.8 19927 22168.7 19951 22068.1 20025.2 C 22003.4 19958.2 21984.3 19936.6 21919.6 19864.8 L 21062.1 19864.8 Z M 20899.3 19067.2 L 21775.9 19067.2 L 21775.9 18772.6 L 20899.3 18772.6 L 20899.3 19067.2 Z M 20899.3 19122.3 L 20899.3 19409.7 L 21775.9 19409.7 L 21775.9 19122.3 L 20899.3 19122.3 "/>
</g>
</svg>
