<?xml version="1.0" encoding="UTF-8" standalone="no"?>
<!DOCTYPE svg PUBLIC "-//W3C//DTD SVG 1.1//EN" "http://www.w3.org/Graphics/SVG/1.1/DTD/svg11.dtd">
<svg xmlns="http://www.w3.org/2000/svg" xmlns:xlink="http://www.w3.org/1999/xlink" version="1.1" width="216pt" height="158pt" viewBox="0 0 216 158">
<g enable-background="new">
<path transform="matrix(.00359712,0,0,-.00359712,0,158)" stroke-width="110.783" stroke-linecap="butt" stroke-miterlimit="10" stroke-linejoin="miter" fill="none" stroke="#000000" d="M 8074.79 5568.38 L 8074.79 40745.4 "/>
<path transform="matrix(.00359712,0,0,-.00359712,0,158)" stroke-width="88.6236" stroke-linecap="round" stroke-linejoin="round" fill="none" stroke="#000000" d="M 7631.65 40413 C 7797.83 40440.7 8047.1 40745.4 8074.79 40828.5 C 8102.48 40745.4 8351.75 40440.7 8517.92 40413 "/>
<path transform="matrix(.00359712,0,0,-.00359712,0,158)" d="M 7400.94 42136.5 L 7353.81 42136.5 C 7251.23 42136.5 7193.02 42164.2 7195.8 42216.9 C 7195.8 42225.2 7198.56 42236.3 7201.34 42247.4 L 7655.98 43847 L 7453.61 43847 L 7412.03 43716.7 C 7367.67 43844.2 7312.23 43888.5 7198.56 43888.5 C 6832.64 43888.5 6386.31 43378.5 6386.31 42957.1 C 6386.31 42760.3 6494.42 42635.5 6669.08 42635.5 C 6865.91 42635.5 6993.42 42738.1 7240.16 43090.2 L 6993.42 42277.9 C 6957.39 42167 6913.03 42144.8 6732.83 42131 L 6732.83 42086.6 L 7400.94 42086.6 L 7400.94 42136.5 Z M 7206.89 43827.6 C 7298.38 43827.6 7370.44 43752.7 7370.44 43658.5 C 7370.44 43428.4 7181.94 43034.7 6993.42 42876.7 C 6921.34 42815.7 6846.5 42782.4 6779.97 42782.4 C 6685.7 42782.4 6624.72 42865.6 6624.72 42995.9 C 6624.72 43201 6768.88 43508.8 6949.06 43691.7 C 7035 43777.7 7126.48 43827.6 7206.89 43827.6 "/>
<path transform="matrix(.00359712,0,0,-.00359712,0,158)" d="M 8531.19 43516.8 L 8002 43516.8 L 8002 43485.8 C 8122.17 43474.2 8151.25 43458.6 8151.25 43402.4 C 8151.25 43375.3 8143.5 43330.7 8129.94 43282.3 L 7891.5 42425.5 C 7856.61 42313 7843.05 42301.4 7734.5 42282 L 7734.5 42251 L 8721.16 42251 L 8833.58 42598 L 8794.81 42609.6 C 8726.97 42470 8674.63 42408 8589.34 42365.4 C 8521.5 42332.4 8442.02 42320.8 8273.38 42320.8 C 8126.06 42320.8 8077.59 42336.3 8077.59 42386.7 C 8077.59 42400.3 8087.28 42446.8 8096.98 42483.6 L 8335.41 43342.3 C 8364.48 43441.2 8414.88 43478 8531.19 43485.8 L 8531.19 43516.8 "/>
<path transform="matrix(.00359712,0,0,-.00359712,0,158)" d="M 8861.08 43026.4 C 8886.28 43032.2 8899.84 43034.1 8921.17 43034.1 C 9031.66 43034.1 9060.73 42985.7 9149.91 42652.3 C 9182.86 42526.3 9229.38 42299.5 9229.38 42266.5 C 9229.38 42235.5 9217.75 42204.5 9188.67 42169.6 C 9128.58 42090.1 9089.81 42039.7 9068.48 42016.5 C 9027.78 41973.8 9004.52 41958.3 8979.33 41958.3 C 8967.69 41958.3 8954.13 41964.1 8932.8 41979.6 C 8903.72 42002.9 8882.41 42012.6 8861.08 42012.6 C 8818.44 42012.6 8785.48 41979.6 8785.48 41937 C 8785.48 41888.5 8828.13 41851.7 8884.34 41851.7 C 9008.39 41851.7 9262.33 42142.5 9471.69 42526.3 C 9603.5 42764.7 9657.77 42904.3 9657.77 42999.2 C 9657.77 43057.4 9609.31 43105.8 9551.16 43105.8 C 9506.58 43105.8 9475.56 43076.8 9475.56 43034.1 C 9475.56 43005 9491.06 42983.7 9529.83 42958.5 C 9566.67 42937.2 9580.23 42919.8 9580.23 42892.6 C 9580.23 42815.1 9508.52 42663.9 9343.75 42390.6 L 9304.98 42615.4 C 9275.91 42786 9167.34 43105.8 9138.27 43105.8 L 9130.52 43105.8 C 9128.58 43103.9 9120.83 43103.9 9113.08 43103.9 C 9095.63 43102 9025.84 43090.3 8923.11 43071 C 8913.42 43069 8888.22 43063.2 8861.08 43059.3 L 8861.08 43026.4 "/>
<path transform="matrix(.00359712,0,0,-.00359712,0,158)" stroke-width="110.783" stroke-linecap="butt" stroke-miterlimit="10" stroke-linejoin="miter" fill="none" stroke="#000000" d="M 7444.32 6198.84 L 55230 6198.84 "/>
<path transform="matrix(.00359712,0,0,-.00359712,0,158)" stroke-width="88.6236" stroke-linecap="round" stroke-linejoin="round" fill="none" stroke="#000000" d="M 54897.7 6641.98 C 54925.4 6475.8 55230 6226.54 55313.1 6198.84 C 55230 6171.15 54925.4 5921.88 54897.7 5755.71 "/>
<path transform="matrix(.00359712,0,0,-.00359712,0,158)" d="M 57419.9 5346.5 L 57372.8 5346.5 C 57270.2 5346.5 57212 5374.23 57214.8 5426.91 C 57214.8 5435.22 57217.6 5446.31 57220.3 5457.39 L 57675 7056.97 L 57472.6 7056.97 L 57431 6926.67 C 57386.7 7054.19 57331.2 7098.55 57217.6 7098.55 C 56851.6 7098.55 56405.3 6588.47 56405.3 6167.08 C 56405.3 5970.25 56513.4 5845.5 56688.1 5845.5 C 56884.9 5845.5 57012.4 5948.08 57259.2 6300.16 L 57012.4 5487.89 C 56976.4 5377 56932 5354.83 56751.8 5340.95 L 56751.8 5296.61 L 57419.9 5296.61 L 57419.9 5346.5 Z M 57225.9 7037.56 C 57317.4 7037.56 57389.4 6962.72 57389.4 6868.45 C 57389.4 6638.36 57200.9 6244.7 57012.4 6086.69 C 56940.3 6025.7 56865.5 5992.44 56799 5992.44 C 56704.7 5992.44 56643.7 6075.59 56643.7 6205.89 C 56643.7 6411.05 56787.9 6718.75 56968.1 6901.72 C 57054 6987.66 57145.5 7037.56 57225.9 7037.56 "/>
<path transform="matrix(.00359712,0,0,-.00359712,0,158)" d="M 58550.2 6726.8 L 58021 6726.8 L 58021 6695.78 C 58141.2 6684.16 58170.3 6668.64 58170.3 6612.42 C 58170.3 6585.3 58162.5 6540.7 58148.9 6492.25 L 57910.5 5635.45 C 57875.6 5523.03 57862 5511.41 57753.5 5492.02 L 57753.5 5461 L 58740.2 5461 L 58852.6 5807.98 L 58813.8 5819.61 C 58746 5680.05 58693.6 5618.02 58608.3 5575.38 C 58540.5 5542.42 58461 5530.78 58292.4 5530.78 C 58145.1 5530.78 58096.6 5546.3 58096.6 5596.69 C 58096.6 5610.27 58106.3 5656.78 58116 5693.61 L 58354.4 6552.34 C 58383.5 6651.2 58433.9 6688.03 58550.2 6695.78 L 58550.2 6726.8 "/>
<path transform="matrix(.00359712,0,0,-.00359712,0,158)" d="M 59727.3 5676.17 C 59711.8 5658.72 59702 5647.09 59684.6 5623.83 C 59640 5565.67 59616.8 5546.3 59595.4 5546.3 C 59566.4 5546.3 59548.9 5571.48 59535.3 5625.77 C 59531.5 5641.28 59529.5 5652.91 59527.6 5658.72 C 59479.1 5854.5 59457.8 5943.67 59457.8 5972.75 C 59543.1 6122 59612.9 6207.3 59647.8 6207.3 C 59659.4 6207.3 59674.9 6201.48 59694.3 6191.78 C 59717.6 6178.22 59731.1 6174.34 59746.6 6174.34 C 59787.3 6174.34 59814.5 6203.42 59814.5 6244.13 C 59814.5 6284.83 59781.5 6315.84 59735 6315.84 C 59649.7 6315.84 59576 6246.06 59442.3 6038.66 L 59421 6145.27 C 59393.8 6277.08 59372.5 6315.84 59320.2 6315.84 C 59277.5 6315.84 59211.6 6298.41 59093.4 6259.64 L 59072.1 6251.88 L 59079.8 6222.8 C 59153.5 6240.25 59170.9 6244.13 59188.4 6244.13 C 59236.8 6244.13 59248.5 6226.69 59275.6 6110.38 L 59331.8 5871.95 L 59172.9 5645.16 C 59134.1 5587 59095.3 5552.11 59074 5552.11 C 59062.4 5552.11 59043 5557.92 59023.6 5569.55 C 58998.4 5583.13 58977.1 5588.94 58961.6 5588.94 C 58924.7 5588.94 58895.7 5559.86 58895.7 5521.09 C 58895.7 5470.69 58934.4 5439.67 58992.6 5439.67 C 59052.7 5439.67 59075.9 5457.13 59172.9 5575.38 C 59225.2 5637.39 59265.9 5689.73 59347.3 5802.17 L 59405.5 5569.55 C 59430.7 5470.69 59455.9 5439.67 59517.9 5439.67 C 59591.6 5439.67 59642 5486.2 59754.4 5660.66 L 59727.3 5676.17 "/>
<path transform="matrix(.00359712,0,0,-.00359712,0,158)" stroke-width="110.783" stroke-linecap="butt" stroke-miterlimit="10" stroke-linejoin="miter" fill="none" stroke="#000000" d="M 52835.7 37720.6 L 5050.02 37720.6 "/>
<path transform="matrix(.00359712,0,0,-.00359712,0,158)" stroke-width="88.6236" stroke-linecap="round" stroke-linejoin="round" fill="none" stroke="#000000" d="M 5382.37 37277.5 C 5354.67 37443.7 5050.02 37692.9 4966.93 37720.6 C 5050.02 37748.3 5354.67 37997.6 5382.37 38163.8 "/>
<path transform="matrix(.00359712,0,0,-.00359712,0,158)" d="M 1092.94 36868.5 L 1045.81 36868.5 C 943.234 36868.5 885.016 36896.2 887.797 36948.9 C 887.797 36957.2 890.563 36968.3 893.344 36979.4 L 1347.98 38579 L 1145.61 38579 L 1104.03 38448.7 C 1059.67 38576.2 1004.23 38620.5 890.563 38620.5 C 524.641 38620.5 78.3125 38110.5 78.3125 37689.1 C 78.3125 37492.3 186.422 37367.5 361.078 37367.5 C 557.906 37367.5 685.422 37470.1 932.156 37822.2 L 685.422 37009.9 C 649.391 36899 605.031 36876.8 424.828 36863 L 424.828 36818.6 L 1092.94 36818.6 L 1092.94 36868.5 Z M 898.891 38559.6 C 990.375 38559.6 1062.44 38484.7 1062.44 38390.5 C 1062.44 38160.4 873.938 37766.7 685.422 37608.7 C 613.344 37547.7 538.5 37514.4 471.969 37514.4 C 377.703 37514.4 316.719 37597.6 316.719 37727.9 C 316.719 37933 460.875 38240.8 641.063 38423.7 C 727 38509.7 818.484 38559.6 898.891 38559.6 "/>
<path transform="matrix(.00359712,0,0,-.00359712,0,158)" d="M 2841.55 38248.8 L 2411.22 38248.8 L 2411.22 38217.8 C 2434.48 38215.8 2455.8 38212 2463.55 38212 C 2510.08 38208.1 2529.45 38196.5 2529.45 38175.1 C 2529.45 38128.6 2422.84 38023.9 2250.33 37903.8 L 1955.69 37698.3 L 2058.42 38074.3 C 2087.5 38171.3 2139.83 38210 2254.2 38217.8 L 2254.2 38248.8 L 1725.02 38248.8 L 1725.02 38217.8 C 1845.19 38206.2 1874.27 38190.6 1874.27 38134.4 C 1874.27 38107.3 1866.52 38062.7 1852.95 38014.3 L 1614.52 37157.5 C 1579.63 37041.2 1569.94 37031.5 1455.56 37014 L 1455.56 36983 L 1936.3 36983 L 1936.3 37014 C 1814.17 37027.6 1796.73 37039.2 1796.73 37099.3 C 1796.73 37118.7 1800.61 37136.1 1812.23 37174.9 L 1823.88 37215.6 L 1944.05 37657.6 L 2178.61 37254.4 C 2225.13 37174.9 2252.27 37107.1 2252.27 37070.2 C 2252.27 37041.2 2225.13 37025.6 2163.09 37019.8 C 2153.41 37019.8 2132.08 37017.9 2106.88 37014 L 2106.88 36983 L 2639.95 36983 L 2639.95 37014 C 2517.83 37025.6 2506.2 37031.5 2451.92 37122.6 L 2114.64 37709.9 L 2696.17 38148 C 2750.44 38188.7 2795.03 38210 2841.55 38217.8 L 2841.55 38248.8 "/>
<path transform="matrix(.00359712,0,0,-.00359712,0,158)" d="M 3716.25 37198.2 C 3700.75 37180.7 3691.05 37169.1 3673.61 37145.8 C 3629.02 37087.7 3605.77 37068.3 3584.44 37068.3 C 3555.36 37068.3 3537.91 37093.5 3524.34 37147.8 C 3520.47 37163.3 3518.53 37174.9 3516.59 37180.7 C 3468.13 37376.5 3446.81 37465.7 3446.81 37494.8 C 3532.09 37644 3601.88 37729.3 3636.78 37729.3 C 3648.41 37729.3 3663.91 37723.5 3683.3 37713.8 C 3706.56 37700.2 3720.13 37696.3 3735.64 37696.3 C 3776.34 37696.3 3803.48 37725.4 3803.48 37766.1 C 3803.48 37806.8 3770.53 37837.8 3724 37837.8 C 3638.72 37837.8 3565.05 37768.1 3431.3 37560.7 L 3409.98 37667.3 C 3382.84 37799.1 3361.52 37837.8 3309.17 37837.8 C 3266.53 37837.8 3200.63 37820.4 3082.38 37781.6 L 3061.06 37773.9 L 3068.81 37744.8 C 3142.47 37762.3 3159.92 37766.1 3177.36 37766.1 C 3225.83 37766.1 3237.45 37748.7 3264.59 37632.4 L 3320.81 37394 L 3161.86 37167.2 C 3123.09 37109 3084.33 37074.1 3063 37074.1 C 3051.38 37074.1 3031.98 37079.9 3012.59 37091.5 C 2987.41 37105.1 2966.08 37110.9 2950.56 37110.9 C 2913.73 37110.9 2884.66 37081.9 2884.66 37043.1 C 2884.66 36992.7 2923.44 36961.7 2981.58 36961.7 C 3041.67 36961.7 3064.94 36979.1 3161.86 37097.4 C 3214.2 37159.4 3254.91 37211.7 3336.31 37324.2 L 3394.47 37091.5 C 3419.67 36992.7 3444.88 36961.7 3506.91 36961.7 C 3580.56 36961.7 3630.95 37008.2 3743.39 37182.7 L 3716.25 37198.2 "/>
<path transform="matrix(.00359712,0,0,-.00359712,0,158)" stroke-width="110.783" stroke-linecap="butt" stroke-miterlimit="10" stroke-linejoin="miter" fill="none" stroke="#000000" d="M 52205.3 38351.1 L 52205.3 3174.07 "/>
<path transform="matrix(.00359712,0,0,-.00359712,0,158)" stroke-width="88.6236" stroke-linecap="round" stroke-linejoin="round" fill="none" stroke="#000000" d="M 52648.4 3506.42 C 52482.2 3478.72 52232.9 3174.07 52205.3 3090.99 C 52177.6 3174.07 51928.3 3478.72 51762.1 3506.42 "/>
<path transform="matrix(.00359712,0,0,-.00359712,0,158)" d="M 51372.9 314.5 L 51325.8 314.5 C 51223.2 314.5 51165 342.234 51167.8 394.906 C 51167.8 403.219 51170.6 414.313 51173.3 425.391 L 51628 2024.97 L 51425.6 2024.97 L 51384 1894.67 C 51339.7 2022.19 51284.2 2066.55 51170.6 2066.55 C 50804.6 2066.55 50358.3 1556.47 50358.3 1135.08 C 50358.3 938.25 50466.4 813.5 50641.1 813.5 C 50837.9 813.5 50965.4 916.078 51212.2 1268.16 L 50965.4 455.891 C 50929.4 345 50885 322.828 50704.8 308.953 L 50704.8 264.609 L 51372.9 264.609 L 51372.9 314.5 Z M 51178.9 2005.56 C 51270.4 2005.56 51342.4 1930.72 51342.4 1836.45 C 51342.4 1606.36 51153.9 1212.7 50965.4 1054.69 C 50893.3 993.703 50818.5 960.438 50752 960.438 C 50657.7 960.438 50596.7 1043.59 50596.7 1173.89 C 50596.7 1379.05 50740.9 1686.75 50921.1 1869.72 C 51007 1955.66 51098.5 2005.56 51178.9 2005.56 "/>
<path transform="matrix(.00359712,0,0,-.00359712,0,158)" d="M 53121.5 1694.8 L 52691.2 1694.8 L 52691.2 1663.78 C 52714.5 1661.84 52735.8 1657.97 52743.5 1657.97 C 52790.1 1654.09 52809.5 1642.45 52809.5 1621.14 C 52809.5 1574.61 52702.8 1469.94 52530.3 1349.75 L 52235.7 1144.28 L 52338.4 1520.34 C 52367.5 1617.27 52419.8 1656.03 52534.2 1663.78 L 52534.2 1694.8 L 52005 1694.8 L 52005 1663.78 C 52125.2 1652.16 52154.3 1636.64 52154.3 1580.42 C 52154.3 1553.3 52146.5 1508.7 52133 1460.25 L 51894.5 603.453 C 51859.6 487.156 51849.9 477.453 51735.6 460.016 L 51735.6 429 L 52216.3 429 L 52216.3 460.016 C 52094.2 473.578 52076.7 485.219 52076.7 545.313 C 52076.7 564.688 52080.6 582.141 52092.2 620.906 L 52103.9 661.609 L 52224 1103.58 L 52458.6 700.375 C 52505.1 620.906 52532.3 553.063 52532.3 516.234 C 52532.3 487.156 52505.1 471.641 52443.1 465.828 C 52433.4 465.828 52412.1 463.891 52386.9 460.016 L 52386.9 429 L 52920 429 L 52920 460.016 C 52797.8 471.641 52786.2 477.453 52731.9 568.563 L 52394.6 1155.91 L 52976.2 1594 C 53030.4 1634.7 53075 1656.03 53121.5 1663.78 L 53121.5 1694.8 "/>
<path transform="matrix(.00359712,0,0,-.00359712,0,158)" d="M 53149.1 1204.38 C 53174.3 1210.19 53187.8 1212.13 53209.2 1212.13 C 53319.7 1212.13 53348.7 1163.67 53437.9 830.25 C 53470.9 704.25 53517.4 477.453 53517.4 444.5 C 53517.4 413.5 53505.8 382.484 53476.7 347.578 C 53416.6 268.109 53377.8 217.703 53356.5 194.453 C 53315.8 151.797 53292.5 136.297 53267.3 136.297 C 53255.7 136.297 53242.1 142.109 53220.8 157.625 C 53191.7 180.875 53170.4 190.578 53149.1 190.578 C 53106.4 190.578 53073.5 157.625 53073.5 114.969 C 53073.5 66.5156 53116.1 29.6875 53172.3 29.6875 C 53296.4 29.6875 53550.3 320.453 53759.7 704.25 C 53891.5 942.688 53945.8 1082.25 53945.8 1177.23 C 53945.8 1235.39 53897.3 1283.84 53839.2 1283.84 C 53794.6 1283.84 53763.6 1254.77 53763.6 1212.13 C 53763.6 1183.05 53779.1 1161.73 53817.8 1136.53 C 53854.7 1115.2 53868.2 1097.77 53868.2 1070.63 C 53868.2 993.078 53796.5 841.891 53631.8 568.563 L 53593 793.422 C 53563.9 964 53455.3 1283.84 53426.3 1283.84 L 53418.5 1283.84 C 53416.6 1281.91 53408.8 1281.91 53401.1 1281.91 C 53383.6 1279.97 53313.8 1268.34 53211.1 1248.95 C 53201.4 1247.02 53176.2 1241.2 53149.1 1237.33 L 53149.1 1204.38 "/>
<path transform="matrix(.00359712,0,0,-.00359712,0,158)" d="M 5140.03 5257.3 C 4907.17 5257.3 4657.67 5146.41 4435.89 4944.05 C 4155.89 4686.22 3992.33 4348.02 3992.33 4023.66 C 3992.33 3635.55 4244.61 3361.09 4596.67 3361.09 C 5173.3 3361.09 5733.3 3943.27 5763.78 4569.8 C 5783.19 4960.67 5511.52 5257.3 5140.03 5257.3 Z M 5115.08 5165.81 C 5334.09 5165.81 5472.7 5005.03 5472.7 4744.44 C 5472.7 4445.05 5342.41 4040.3 5162.22 3779.7 C 5009.73 3560.7 4837.86 3452.58 4643.81 3452.58 C 4410.94 3452.58 4283.42 3621.69 4283.42 3921.09 C 4283.42 4181.67 4422.03 4594.73 4588.36 4835.92 C 4743.61 5060.47 4912.72 5165.81 5115.08 5165.81 "/>
<path transform="matrix(.00359712,0,0,-.00359712,0,158)" d="M 6655.19 4260.8 L 6126 4260.8 L 6126 4229.78 C 6246.17 4218.16 6275.25 4202.64 6275.25 4146.42 C 6275.25 4119.3 6267.5 4074.7 6253.94 4026.25 L 6015.5 3169.45 C 5980.61 3057.03 5967.05 3045.41 5858.5 3026.02 L 5858.5 2995 L 6845.16 2995 L 6957.58 3341.98 L 6918.81 3353.61 C 6850.97 3214.05 6798.63 3152.02 6713.34 3109.38 C 6645.5 3076.42 6566.02 3064.78 6397.38 3064.78 C 6250.06 3064.78 6201.59 3080.3 6201.59 3130.69 C 6201.59 3144.27 6211.28 3190.78 6220.98 3227.61 L 6459.41 4086.34 C 6488.48 4185.2 6538.88 4222.03 6655.19 4229.78 L 6655.19 4260.8 "/>
<path transform="matrix(.00359712,0,0,-.00359712,0,158)" d="M 54500 40962.3 C 54267.2 40962.3 54017.7 40851.4 53795.9 40649 C 53515.9 40391.2 53352.3 40053 53352.3 39728.7 C 53352.3 39340.5 53604.6 39066.1 53956.7 39066.1 C 54533.3 39066.1 55093.3 39648.3 55123.8 40274.8 C 55143.2 40665.7 54871.5 40962.3 54500 40962.3 Z M 54475.1 40870.8 C 54694.1 40870.8 54832.7 40710 54832.7 40449.4 C 54832.7 40150 54702.4 39745.3 54522.2 39484.7 C 54369.7 39265.7 54197.9 39157.6 54003.8 39157.6 C 53770.9 39157.6 53643.4 39326.7 53643.4 39626.1 C 53643.4 39886.7 53782 40299.7 53948.4 40540.9 C 54103.6 40765.5 54272.7 40870.8 54475.1 40870.8 "/>
<path transform="matrix(.00359712,0,0,-.00359712,0,158)" d="M 56633.5 39966.8 L 56203.2 39966.8 L 56203.2 39935.8 C 56226.5 39933.8 56247.8 39930 56255.5 39930 C 56302.1 39926.1 56321.5 39914.5 56321.5 39893.1 C 56321.5 39846.6 56214.8 39741.9 56042.3 39621.8 L 55747.7 39416.3 L 55850.4 39792.3 C 55879.5 39889.3 55931.8 39928 56046.2 39935.8 L 56046.2 39966.8 L 55517 39966.8 L 55517 39935.8 C 55637.2 39924.2 55666.3 39908.6 55666.3 39852.4 C 55666.3 39825.3 55658.5 39780.7 55645 39732.3 L 55406.5 38875.5 C 55371.6 38759.2 55361.9 38749.5 55247.6 38732 L 55247.6 38701 L 55728.3 38701 L 55728.3 38732 C 55606.2 38745.6 55588.7 38757.2 55588.7 38817.3 C 55588.7 38836.7 55592.6 38854.1 55604.2 38892.9 L 55615.9 38933.6 L 55736 39375.6 L 55970.6 38972.4 C 56017.1 38892.9 56044.3 38825.1 56044.3 38788.2 C 56044.3 38759.2 56017.1 38743.6 55955.1 38737.8 C 55945.4 38737.8 55924.1 38735.9 55898.9 38732 L 55898.9 38701 L 56432 38701 L 56432 38732 C 56309.8 38743.6 56298.2 38749.5 56243.9 38840.6 L 55906.6 39427.9 L 56488.2 39866 C 56542.4 39906.7 56587 39928 56633.5 39935.8 L 56633.5 39966.8 "/>
<path transform="matrix(.00359712,0,0,-.00359712,0,158)" d="M 17846.6 32354.3 L 16468.8 32354.3 L 16468.8 32309.9 C 16640.7 32293.3 16682.3 32271.1 16682.3 32196.3 C 16682.3 32165.8 16665.6 32068.7 16651.8 32018.8 L 16310.8 30793.5 C 16263.7 30635.5 16241.5 30616.1 16086.2 30588.4 L 16086.2 30544 L 17491.8 30544 L 17663.6 30993.1 L 17619.3 31015.3 C 17489 30837.9 17416.9 30765.8 17297.7 30710.3 C 17195.1 30663.2 17006.6 30635.5 16798.7 30635.5 C 16643.4 30635.5 16576.9 30663.2 16576.9 30729.7 C 16576.9 30760.2 16607.4 30890.5 16676.7 31134.5 C 16712.8 31256.5 16737.7 31347.9 16765.4 31453.3 C 16862.5 31447.8 16948.4 31445 16981.7 31445 C 17089.8 31447.8 17167.4 31431.1 17197.9 31403.4 C 17211.8 31389.5 17217.3 31364.6 17217.3 31317.5 C 17217.3 31270.3 17211.8 31234.3 17197.9 31173.3 L 17253.3 31159.4 L 17441.8 31802.6 L 17391.9 31813.7 C 17286.6 31578 17261.7 31561.4 17009.4 31550.3 C 16976.1 31550.3 16887.4 31547.5 16790.4 31544.8 L 16973.3 32190.7 C 16990 32251.7 17020.5 32262.8 17175.7 32262.8 C 17611 32262.8 17708 32226.7 17708 32060.4 C 17708 32024.4 17705.2 31982.8 17702.4 31935.7 L 17760.7 31930.1 L 17846.6 32354.3 "/>
<path transform="matrix(.00359712,0,0,-.00359712,0,158)" stroke-width="110.783" stroke-linecap="butt" stroke-dasharray="110.783,553.929" stroke-miterlimit="10" stroke-linejoin="miter" fill="none" stroke="#000000" d="M 15041.4 29565.8 L 15041.4 6198.84 L 55359.9 6198.84 "/>
<path transform="matrix(.00359712,0,0,-.00359712,0,158)" stroke-width="110.783" stroke-linecap="butt" stroke-dasharray="110.783,553.929" stroke-miterlimit="10" stroke-linejoin="miter" fill="none" stroke="#000000" d="M 15041.4 29565.8 L 8074.79 29565.8 L 8074.79 40874.6 "/>
<path transform="matrix(.00359712,0,0,-.00359712,0,158)" stroke-width="110.783" stroke-linecap="butt" stroke-dasharray="110.783,553.929" stroke-miterlimit="10" stroke-linejoin="miter" fill="none" stroke="#000000" d="M 15041.4 29565.8 L 15041.4 37722.6 L 4922.45 37722.6 "/>
<path transform="matrix(.00359712,0,0,-.00359712,0,158)" stroke-width="110.783" stroke-linecap="butt" stroke-dasharray="110.783,553.929" stroke-miterlimit="10" stroke-linejoin="miter" fill="none" stroke="#000000" d="M 15041.4 29565.8 L 52207.7 29565.8 L 52207.7 3046.51 "/>
<path transform="matrix(.00359712,0,0,-.00359712,0,158)" stroke-width="110.783" stroke-linecap="butt" stroke-miterlimit="10" stroke-linejoin="miter" fill="none" stroke="#000000" d="M 8074.79 29563.4 C 7659.34 29355.7 7382.38 28871 7382.38 28178.6 L 7382.38 19265.9 C 7382.38 18573.5 7105.42 18088.8 6689.96 17881.1 C 7105.42 17673.4 7382.38 17188.7 7382.38 16496.3 L 7382.38 7583.67 C 7382.38 6891.26 7659.34 6406.56 8074.79 6198.84 "/>
<path transform="matrix(.00359712,0,0,-.00359712,0,158)" d="M 3446.45 17978.2 C 3246.86 17814.6 3160.92 17770.3 3041.72 17770.3 C 2883.69 17770.3 2781.13 17870.1 2781.13 18019.8 C 2781.13 18061.3 2786.67 18102.9 2808.84 18191.6 L 2886.47 18202.7 C 3302.3 18260.9 3596.16 18471.6 3596.16 18710 C 3596.16 18826.5 3512.98 18898.5 3374.38 18898.5 C 2975.17 18898.5 2539.94 18441.1 2539.94 18025.3 C 2539.94 17800.8 2689.64 17645.5 2905.88 17645.5 C 3102.7 17645.5 3316.16 17759.2 3479.72 17944.9 L 3446.45 17978.2 Z M 2875.38 18374.6 C 2969.64 18621.3 3174.78 18834.8 3316.16 18834.8 C 3374.38 18834.8 3413.19 18790.4 3413.19 18726.7 C 3413.19 18640.7 3360.52 18540.9 3274.58 18457.8 C 3172 18360.7 3066.66 18310.8 2828.25 18252.6 L 2875.38 18374.6 "/>
<path transform="matrix(.00359712,0,0,-.00359712,0,158)" d="M 4513.19 18526.8 L 3984 18526.8 L 3984 18495.8 C 4104.17 18484.2 4133.25 18468.6 4133.25 18412.4 C 4133.25 18385.3 4125.5 18340.7 4111.94 18292.3 L 3873.5 17435.5 C 3838.61 17323 3825.05 17311.4 3716.5 17292 L 3716.5 17261 L 4703.16 17261 L 4815.58 17608 L 4776.81 17619.6 C 4708.97 17480 4656.63 17418 4571.34 17375.4 C 4503.5 17342.4 4424.02 17330.8 4255.38 17330.8 C 4108.06 17330.8 4059.59 17346.3 4059.59 17396.7 C 4059.59 17410.3 4069.28 17456.8 4078.98 17493.6 L 4317.41 18352.3 C 4346.48 18451.2 4396.88 18488 4513.19 18495.8 L 4513.19 18526.8 "/>
<path transform="matrix(.00359712,0,0,-.00359712,0,158)" d="M 4843.08 18036.4 C 4868.28 18042.2 4881.84 18044.1 4903.17 18044.1 C 5013.66 18044.1 5042.73 17995.7 5131.91 17662.3 C 5164.86 17536.3 5211.38 17309.5 5211.38 17276.5 C 5211.38 17245.5 5199.75 17214.5 5170.67 17179.6 C 5110.58 17100.1 5071.81 17049.7 5050.48 17026.5 C 5009.78 16983.8 4986.52 16968.3 4961.33 16968.3 C 4949.69 16968.3 4936.13 16974.1 4914.8 16989.6 C 4885.72 17012.9 4864.41 17022.6 4843.08 17022.6 C 4800.44 17022.6 4767.48 16989.6 4767.48 16947 C 4767.48 16898.5 4810.13 16861.7 4866.34 16861.7 C 4990.39 16861.7 5244.33 17152.5 5453.69 17536.3 C 5585.5 17774.7 5639.77 17914.3 5639.77 18009.2 C 5639.77 18067.4 5591.31 18115.8 5533.16 18115.8 C 5488.58 18115.8 5457.56 18086.8 5457.56 18044.1 C 5457.56 18015 5473.06 17993.7 5511.83 17968.5 C 5548.67 17947.2 5562.23 17929.8 5562.23 17902.6 C 5562.23 17825.1 5490.52 17673.9 5325.75 17400.6 L 5286.98 17625.4 C 5257.91 17796 5149.34 18115.8 5120.27 18115.8 L 5112.52 18115.8 C 5110.58 18113.9 5102.83 18113.9 5095.08 18113.9 C 5077.63 18112 5007.84 18100.3 4905.11 18081 C 4895.42 18079 4870.22 18073.2 4843.08 18069.3 L 4843.08 18036.4 "/>
<path transform="matrix(.00359712,0,0,-.00359712,0,158)" stroke-width="110.783" stroke-linecap="butt" stroke-miterlimit="10" stroke-linejoin="miter" fill="none" stroke="#000000" d="M 15033.9 6198.84 C 14826.2 5783.39 14341.5 5506.43 13649.1 5506.43 L 12939.2 5506.43 C 12246.8 5506.43 11762.1 5229.47 11554.4 4814.02 C 11346.6 5229.47 10861.9 5506.43 10169.5 5506.43 L 9459.61 5506.43 C 8767.2 5506.43 8282.5 5783.39 8074.79 6198.84 "/>
<path transform="matrix(.00359712,0,0,-.00359712,0,158)" d="M 10814.5 2952.17 C 10614.9 2788.61 10528.9 2744.25 10409.7 2744.25 C 10251.7 2744.25 10149.1 2844.06 10149.1 2993.75 C 10149.1 3035.34 10154.7 3076.92 10176.8 3165.64 L 10254.5 3176.72 C 10670.3 3234.94 10964.2 3445.63 10964.2 3684.05 C 10964.2 3800.47 10881 3872.55 10742.4 3872.55 C 10343.2 3872.55 9907.94 3415.14 9907.94 2999.3 C 9907.94 2774.75 10057.6 2619.5 10273.9 2619.5 C 10470.7 2619.5 10684.2 2733.17 10847.7 2918.91 L 10814.5 2952.17 Z M 10243.4 3348.59 C 10337.6 3595.33 10542.8 3808.8 10684.2 3808.8 C 10742.4 3808.8 10781.2 3764.44 10781.2 3700.67 C 10781.2 3614.73 10728.5 3514.94 10642.6 3431.77 C 10540 3334.73 10434.7 3284.84 10196.3 3226.63 L 10243.4 3348.59 "/>
<path transform="matrix(.00359712,0,0,-.00359712,0,158)" d="M 11882.2 3499.8 L 11353 3499.8 L 11353 3468.78 C 11473.2 3457.16 11502.3 3441.64 11502.3 3385.42 C 11502.3 3358.3 11494.5 3313.7 11480.9 3265.25 L 11242.5 2408.45 C 11207.6 2296.03 11194 2284.41 11085.5 2265.02 L 11085.5 2234 L 12072.2 2234 L 12184.6 2580.98 L 12145.8 2592.61 C 12078 2453.05 12025.6 2391.02 11940.3 2348.38 C 11872.5 2315.42 11793 2303.78 11624.4 2303.78 C 11477.1 2303.78 11428.6 2319.3 11428.6 2369.69 C 11428.6 2383.27 11438.3 2429.78 11448 2466.61 L 11686.4 3325.34 C 11715.5 3424.2 11765.9 3461.03 11882.2 3468.78 L 11882.2 3499.8 "/>
<path transform="matrix(.00359712,0,0,-.00359712,0,158)" d="M 13058.3 2449.17 C 13042.8 2431.72 13033 2420.09 13015.6 2396.83 C 12971 2338.67 12947.8 2319.3 12926.4 2319.3 C 12897.4 2319.3 12879.9 2344.48 12866.3 2398.77 C 12862.5 2414.28 12860.5 2425.91 12858.6 2431.72 C 12810.1 2627.5 12788.8 2716.67 12788.8 2745.75 C 12874.1 2895 12943.9 2980.3 12978.8 2980.3 C 12990.4 2980.3 13005.9 2974.48 13025.3 2964.78 C 13048.6 2951.22 13062.1 2947.34 13077.6 2947.34 C 13118.3 2947.34 13145.5 2976.42 13145.5 3017.13 C 13145.5 3057.83 13112.5 3088.84 13066 3088.84 C 12980.7 3088.84 12907 3019.06 12773.3 2811.66 L 12752 2918.27 C 12724.8 3050.08 12703.5 3088.84 12651.2 3088.84 C 12608.5 3088.84 12542.6 3071.41 12424.4 3032.64 L 12403.1 3024.88 L 12410.8 2995.8 C 12484.5 3013.25 12501.9 3017.13 12519.4 3017.13 C 12567.8 3017.13 12579.5 2999.69 12606.6 2883.38 L 12662.8 2644.95 L 12503.9 2418.16 C 12465.1 2360 12426.3 2325.11 12405 2325.11 C 12393.4 2325.11 12374 2330.92 12354.6 2342.55 C 12329.4 2356.13 12308.1 2361.94 12292.6 2361.94 C 12255.7 2361.94 12226.7 2332.86 12226.7 2294.09 C 12226.7 2243.69 12265.4 2212.67 12323.6 2212.67 C 12383.7 2212.67 12406.9 2230.13 12503.9 2348.38 C 12556.2 2410.39 12596.9 2462.73 12678.3 2575.17 L 12736.5 2342.55 C 12761.7 2243.69 12786.9 2212.67 12848.9 2212.67 C 12922.6 2212.67 12973 2259.2 13085.4 2433.66 L 13058.3 2449.17 "/>
<path transform="matrix(.00359712,0,0,-.00359712,0,158)" stroke-width="110.783" stroke-linecap="butt" stroke-miterlimit="10" stroke-linejoin="miter" fill="none" stroke="#000000" d="M 52207.6 29563.4 C 52623 29771.1 52900 30255.8 52900 30948.2 L 52900 32258 C 52900 32950.4 53177 33435.1 53592.4 33642.8 C 53177 33850.5 52900 34335.3 52900 35027.6 L 52900 36337.4 C 52900 37029.9 52623 37514.5 52207.6 37722.3 "/>
<path transform="matrix(.00359712,0,0,-.00359712,0,158)" d="M 55301.5 33740.2 C 55101.9 33576.6 55015.9 33532.3 54896.7 33532.3 C 54738.7 33532.3 54636.1 33632.1 54636.1 33781.8 C 54636.1 33823.3 54641.7 33864.9 54663.8 33953.6 L 54741.5 33964.7 C 55157.3 34022.9 55451.2 34233.6 55451.2 34472 C 55451.2 34588.5 55368 34660.5 55229.4 34660.5 C 54830.2 34660.5 54394.9 34203.1 54394.9 33787.3 C 54394.9 33562.8 54544.6 33407.5 54760.9 33407.5 C 54957.7 33407.5 55171.2 33521.2 55334.7 33706.9 L 55301.5 33740.2 Z M 54730.4 34136.6 C 54824.6 34383.3 55029.8 34596.8 55171.2 34596.8 C 55229.4 34596.8 55268.2 34552.4 55268.2 34488.7 C 55268.2 34402.7 55215.5 34302.9 55129.6 34219.8 C 55027 34122.7 54921.7 34072.8 54683.3 34014.6 L 54730.4 34136.6 "/>
<path transform="matrix(.00359712,0,0,-.00359712,0,158)" d="M 56986.5 34288.8 L 56556.2 34288.8 L 56556.2 34257.8 C 56579.5 34255.8 56600.8 34252 56608.5 34252 C 56655.1 34248.1 56674.5 34236.5 56674.5 34215.1 C 56674.5 34168.6 56567.8 34063.9 56395.3 33943.8 L 56100.7 33738.3 L 56203.4 34114.3 C 56232.5 34211.3 56284.8 34250 56399.2 34257.8 L 56399.2 34288.8 L 55870 34288.8 L 55870 34257.8 C 55990.2 34246.2 56019.3 34230.6 56019.3 34174.4 C 56019.3 34147.3 56011.5 34102.7 55998 34054.3 L 55759.5 33197.5 C 55724.6 33081.2 55714.9 33071.5 55600.6 33054 L 55600.6 33023 L 56081.3 33023 L 56081.3 33054 C 55959.2 33067.6 55941.7 33079.2 55941.7 33139.3 C 55941.7 33158.7 55945.6 33176.1 55957.2 33214.9 L 55968.9 33255.6 L 56089 33697.6 L 56323.6 33294.4 C 56370.1 33214.9 56397.3 33147.1 56397.3 33110.2 C 56397.3 33081.2 56370.1 33065.6 56308.1 33059.8 C 56298.4 33059.8 56277.1 33057.9 56251.9 33054 L 56251.9 33023 L 56785 33023 L 56785 33054 C 56662.8 33065.6 56651.2 33071.5 56596.9 33162.6 L 56259.6 33749.9 L 56841.2 34188 C 56895.4 34228.7 56940 34250 56986.5 34257.8 L 56986.5 34288.8 "/>
<path transform="matrix(.00359712,0,0,-.00359712,0,158)" d="M 57014.1 33798.4 C 57039.3 33804.2 57052.8 33806.1 57074.2 33806.1 C 57184.7 33806.1 57213.7 33757.7 57302.9 33424.3 C 57335.9 33298.3 57382.4 33071.5 57382.4 33038.5 C 57382.4 33007.5 57370.8 32976.5 57341.7 32941.6 C 57281.6 32862.1 57242.8 32811.7 57221.5 32788.5 C 57180.8 32745.8 57157.5 32730.3 57132.3 32730.3 C 57120.7 32730.3 57107.1 32736.1 57085.8 32751.6 C 57056.7 32774.9 57035.4 32784.6 57014.1 32784.6 C 56971.4 32784.6 56938.5 32751.6 56938.5 32709 C 56938.5 32660.5 56981.1 32623.7 57037.3 32623.7 C 57161.4 32623.7 57415.3 32914.5 57624.7 33298.3 C 57756.5 33536.7 57810.8 33676.3 57810.8 33771.2 C 57810.8 33829.4 57762.3 33877.8 57704.2 33877.8 C 57659.6 33877.8 57628.6 33848.8 57628.6 33806.1 C 57628.6 33777 57644.1 33755.7 57682.8 33730.5 C 57719.7 33709.2 57733.2 33691.8 57733.2 33664.6 C 57733.2 33587.1 57661.5 33435.9 57496.8 33162.6 L 57458 33387.4 C 57428.9 33558 57320.3 33877.8 57291.3 33877.8 L 57283.5 33877.8 C 57281.6 33875.9 57273.8 33875.9 57266.1 33875.9 C 57248.6 33874 57178.8 33862.3 57076.1 33843 C 57066.4 33841 57041.2 33835.2 57014.1 33831.3 L 57014.1 33798.4 "/>
<path transform="matrix(.00359712,0,0,-.00359712,0,158)" stroke-width="110.783" stroke-linecap="butt" stroke-miterlimit="10" stroke-linejoin="miter" fill="none" stroke="#000000" d="M 15033.9 37722.3 C 15241.6 38137.7 15726.3 38414.7 16418.8 38414.7 L 32235.9 38414.7 C 32928.3 38414.7 33413 38691.7 33620.8 39107.1 C 33828.5 38691.7 34313.2 38414.7 35005.6 38414.7 L 50822.8 38414.7 C 51515.2 38414.7 51999.9 38137.7 52207.6 37722.3 "/>
<path transform="matrix(.00359712,0,0,-.00359712,0,158)" d="M 32723.5 40779.2 C 32523.9 40615.6 32437.9 40571.3 32318.7 40571.3 C 32160.7 40571.3 32058.1 40671.1 32058.1 40820.8 C 32058.1 40862.3 32063.7 40903.9 32085.8 40992.6 L 32163.5 41003.7 C 32579.3 41061.9 32873.2 41272.6 32873.2 41511 C 32873.2 41627.5 32790 41699.5 32651.4 41699.5 C 32252.2 41699.5 31816.9 41242.1 31816.9 40826.3 C 31816.9 40601.8 31966.6 40446.5 32182.9 40446.5 C 32379.7 40446.5 32593.2 40560.2 32756.7 40745.9 L 32723.5 40779.2 Z M 32152.4 41175.6 C 32246.6 41422.3 32451.8 41635.8 32593.2 41635.8 C 32651.4 41635.8 32690.2 41591.4 32690.2 41527.7 C 32690.2 41441.7 32637.5 41341.9 32551.6 41258.8 C 32449 41161.7 32343.7 41111.8 32105.3 41053.6 L 32152.4 41175.6 "/>
<path transform="matrix(.00359712,0,0,-.00359712,0,158)" d="M 34408.5 41327.8 L 33978.2 41327.8 L 33978.2 41296.8 C 34001.5 41294.8 34022.8 41291 34030.5 41291 C 34077.1 41287.1 34096.5 41275.5 34096.5 41254.1 C 34096.5 41207.6 33989.8 41102.9 33817.3 40982.8 L 33522.7 40777.3 L 33625.4 41153.3 C 33654.5 41250.3 33706.8 41289 33821.2 41296.8 L 33821.2 41327.8 L 33292 41327.8 L 33292 41296.8 C 33412.2 41285.2 33441.3 41269.6 33441.3 41213.4 C 33441.3 41186.3 33433.5 41141.7 33420 41093.3 L 33181.5 40236.5 C 33146.6 40120.2 33136.9 40110.5 33022.6 40093 L 33022.6 40062 L 33503.3 40062 L 33503.3 40093 C 33381.2 40106.6 33363.7 40118.2 33363.7 40178.3 C 33363.7 40197.7 33367.6 40215.1 33379.2 40253.9 L 33390.9 40294.6 L 33511 40736.6 L 33745.6 40333.4 C 33792.1 40253.9 33819.3 40186.1 33819.3 40149.2 C 33819.3 40120.2 33792.1 40104.6 33730.1 40098.8 C 33720.4 40098.8 33699.1 40096.9 33673.9 40093 L 33673.9 40062 L 34207 40062 L 34207 40093 C 34084.8 40104.6 34073.2 40110.5 34018.9 40201.6 L 33681.6 40788.9 L 34263.2 41227 C 34317.4 41267.7 34362 41289 34408.5 41296.8 L 34408.5 41327.8 "/>
<path transform="matrix(.00359712,0,0,-.00359712,0,158)" d="M 35283.3 40277.2 C 35267.8 40259.7 35258 40248.1 35240.6 40224.8 C 35196 40166.7 35172.8 40147.3 35151.4 40147.3 C 35122.4 40147.3 35104.9 40172.5 35091.3 40226.8 C 35087.5 40242.3 35085.5 40253.9 35083.6 40259.7 C 35035.1 40455.5 35013.8 40544.7 35013.8 40573.8 C 35099.1 40723 35168.9 40808.3 35203.8 40808.3 C 35215.4 40808.3 35230.9 40802.5 35250.3 40792.8 C 35273.6 40779.2 35287.1 40775.3 35302.6 40775.3 C 35343.3 40775.3 35370.5 40804.4 35370.5 40845.1 C 35370.5 40885.8 35337.5 40916.8 35291 40916.8 C 35205.7 40916.8 35132 40847.1 34998.3 40639.7 L 34977 40746.3 C 34949.8 40878.1 34928.5 40916.8 34876.2 40916.8 C 34833.5 40916.8 34767.6 40899.4 34649.4 40860.6 L 34628.1 40852.9 L 34635.8 40823.8 C 34709.5 40841.3 34726.9 40845.1 34744.4 40845.1 C 34792.8 40845.1 34804.5 40827.7 34831.6 40711.4 L 34887.8 40473 L 34728.9 40246.2 C 34690.1 40188 34651.3 40153.1 34630 40153.1 C 34618.4 40153.1 34599 40158.9 34579.6 40170.5 C 34554.4 40184.1 34533.1 40189.9 34517.6 40189.9 C 34480.7 40189.9 34451.7 40160.9 34451.7 40122.1 C 34451.7 40071.7 34490.4 40040.7 34548.6 40040.7 C 34608.7 40040.7 34631.9 40058.1 34728.9 40176.4 C 34781.2 40238.4 34821.9 40290.7 34903.3 40403.2 L 34961.5 40170.5 C 34986.7 40071.7 35011.9 40040.7 35073.9 40040.7 C 35147.6 40040.7 35198 40087.2 35310.4 40261.7 L 35283.3 40277.2 "/>
<path transform="matrix(.00359712,0,0,-.00359712,0,158)" d="M 33922.7 25111.9 C 33922.7 25460.1 33640.4 25742.4 33292.2 25742.4 C 32944 25742.4 32661.7 25460.1 32661.7 25111.9 C 32661.7 24763.7 32944 24481.4 33292.2 24481.4 C 33640.4 24481.4 33922.7 24763.7 33922.7 25111.9 Z M 33292.2 25111.9 "/>
<path transform="matrix(.00359712,0,0,-.00359712,0,158)" d="M 36228.2 26142.7 C 36103.4 26151 36075.7 26178.7 35978.7 26383.9 L 35288.4 27958.5 L 35233 27958.5 L 34656.3 26597.3 C 34478.9 26192.6 34445.7 26148.2 34312.6 26142.7 L 34312.6 26090 L 34861.5 26090 L 34861.5 26142.7 C 34728.4 26142.7 34673 26178.7 34673 26256.3 C 34673 26289.6 34681.3 26328.4 34695.2 26364.5 L 34822.7 26688.8 L 35549 26688.8 L 35662.7 26422.7 C 35695.9 26347.8 35715.3 26275.7 35715.3 26236.9 C 35715.3 26167.6 35668.2 26145.4 35521.3 26142.7 L 35521.3 26090 L 36228.2 26090 L 36228.2 26142.7 Z M 34869.8 26802.5 L 35188.6 27564.8 L 35510.2 26802.5 L 34869.8 26802.5 Z "/>
<path transform="matrix(.00359712,0,0,-.00359712,0,158)" stroke-width="110.783" stroke-linecap="butt" stroke-dasharray="110.783,553.929" stroke-miterlimit="10" stroke-linejoin="miter" fill="none" stroke="#000000" d="M 33292.2 25111.9 L 8074.79 25111.9 "/>
<path transform="matrix(.00359712,0,0,-.00359712,0,158)" d="M 4728.22 26414.7 C 4681.08 26309.3 4645.05 26276.1 4581.28 26276.1 C 4539.7 26276.1 4487.03 26292.7 4434.36 26317.7 L 4367.83 26350.9 C 4304.06 26384.2 4234.75 26400.8 4173.77 26400.8 C 4035.16 26400.8 3935.36 26301 3893.77 26120.8 L 3974.17 26120.8 C 4004.66 26206.8 4051.78 26248.3 4115.55 26248.3 C 4148.81 26248.3 4187.63 26237.3 4229.22 26217.8 L 4292.97 26187.4 C 4406.64 26131.9 4448.22 26120.8 4517.52 26120.8 C 4670 26120.8 4750.39 26204 4808.61 26414.7 L 4728.22 26414.7 "/>
<path transform="matrix(.00359712,0,0,-.00359712,0,158)" d="M 4663.94 24116.5 L 4616.81 24116.5 C 4514.23 24116.5 4456.02 24144.2 4458.8 24196.9 C 4458.8 24205.2 4461.56 24216.3 4464.34 24227.4 L 4918.98 25827 L 4716.61 25827 L 4675.03 25696.7 C 4630.67 25824.2 4575.23 25868.5 4461.56 25868.5 C 4095.64 25868.5 3649.31 25358.5 3649.31 24937.1 C 3649.31 24740.3 3757.42 24615.5 3932.08 24615.5 C 4128.91 24615.5 4256.42 24718.1 4503.16 25070.2 L 4256.42 24257.9 C 4220.39 24147 4176.03 24124.8 3995.83 24111 L 3995.83 24066.6 L 4663.94 24066.6 L 4663.94 24116.5 Z M 4469.89 25807.6 C 4561.38 25807.6 4633.44 25732.7 4633.44 25638.5 C 4633.44 25408.4 4444.94 25014.7 4256.42 24856.7 C 4184.34 24795.7 4109.5 24762.4 4042.97 24762.4 C 3948.7 24762.4 3887.72 24845.6 3887.72 24975.9 C 3887.72 25181 4031.88 25488.8 4212.06 25671.7 C 4298 25757.7 4389.48 25807.6 4469.89 25807.6 "/>
<path transform="matrix(.00359712,0,0,-.00359712,0,158)" d="M 5794.19 25496.8 L 5265 25496.8 L 5265 25465.8 C 5385.17 25454.2 5414.25 25438.6 5414.25 25382.4 C 5414.25 25355.3 5406.5 25310.7 5392.94 25262.3 L 5154.5 24405.5 C 5119.61 24293 5106.05 24281.4 4997.5 24262 L 4997.5 24231 L 5984.16 24231 L 6096.58 24578 L 6057.81 24589.6 C 5989.97 24450 5937.63 24388 5852.34 24345.4 C 5784.5 24312.4 5705.02 24300.8 5536.38 24300.8 C 5389.06 24300.8 5340.59 24316.3 5340.59 24366.7 C 5340.59 24380.3 5350.28 24426.8 5359.98 24463.6 L 5598.41 25322.3 C 5627.48 25421.2 5677.88 25458 5794.19 25465.8 L 5794.19 25496.8 "/>
<path transform="matrix(.00359712,0,0,-.00359712,0,158)" d="M 6124.08 25006.4 C 6149.28 25012.2 6162.84 25014.1 6184.17 25014.1 C 6294.66 25014.1 6323.73 24965.7 6412.91 24632.3 C 6445.86 24506.3 6492.38 24279.5 6492.38 24246.5 C 6492.38 24215.5 6480.75 24184.5 6451.67 24149.6 C 6391.58 24070.1 6352.81 24019.7 6331.48 23996.5 C 6290.78 23953.8 6267.52 23938.3 6242.33 23938.3 C 6230.69 23938.3 6217.13 23944.1 6195.8 23959.6 C 6166.72 23982.9 6145.41 23992.6 6124.08 23992.6 C 6081.44 23992.6 6048.48 23959.6 6048.48 23917 C 6048.48 23868.5 6091.13 23831.7 6147.34 23831.7 C 6271.39 23831.7 6525.33 24122.5 6734.69 24506.3 C 6866.5 24744.7 6920.77 24884.3 6920.77 24979.2 C 6920.77 25037.4 6872.31 25085.8 6814.16 25085.8 C 6769.58 25085.8 6738.56 25056.8 6738.56 25014.1 C 6738.56 24985 6754.06 24963.7 6792.83 24938.5 C 6829.67 24917.2 6843.23 24899.8 6843.23 24872.6 C 6843.23 24795.1 6771.52 24643.9 6606.75 24370.6 L 6567.98 24595.4 C 6538.91 24766 6430.34 25085.8 6401.27 25085.8 L 6393.52 25085.8 C 6391.58 25083.9 6383.83 25083.9 6376.08 25083.9 C 6358.63 25082 6288.84 25070.3 6186.11 25051 C 6176.42 25049 6151.22 25043.2 6124.08 25039.3 L 6124.08 25006.4 "/>
<path transform="matrix(.00359712,0,0,-.00359712,0,158)" stroke-width="110.783" stroke-linecap="butt" stroke-dasharray="110.783,553.929" stroke-miterlimit="10" stroke-linejoin="miter" fill="none" stroke="#000000" d="M 33292.2 25111.9 L 33292.2 6198.84 "/>
<path transform="matrix(.00359712,0,0,-.00359712,0,158)" d="M 32631.2 5242.67 C 32584.1 5137.33 32548 5104.06 32484.3 5104.06 C 32442.7 5104.06 32390 5120.7 32337.4 5145.66 L 32270.8 5178.92 C 32207.1 5212.19 32137.8 5228.81 32076.8 5228.81 C 31938.2 5228.81 31838.4 5129.02 31796.8 4948.83 L 31877.2 4948.83 C 31907.7 5034.77 31954.8 5076.34 32018.5 5076.34 C 32051.8 5076.34 32090.6 5065.25 32132.2 5045.84 L 32196 5015.36 C 32309.6 4959.91 32351.2 4948.83 32420.5 4948.83 C 32573 4948.83 32653.4 5031.98 32711.6 5242.67 L 32631.2 5242.67 "/>
<path transform="matrix(.00359712,0,0,-.00359712,0,158)" d="M 32566.9 2944.5 L 32519.8 2944.5 C 32417.2 2944.5 32359 2972.23 32361.8 3024.91 C 32361.8 3033.22 32364.6 3044.31 32367.3 3055.39 L 32822 4654.97 L 32619.6 4654.97 L 32578 4524.67 C 32533.7 4652.19 32478.2 4696.55 32364.6 4696.55 C 31998.6 4696.55 31552.3 4186.47 31552.3 3765.08 C 31552.3 3568.25 31660.4 3443.5 31835.1 3443.5 C 32031.9 3443.5 32159.4 3546.08 32406.2 3898.16 L 32159.4 3085.89 C 32123.4 2975 32079 2952.83 31898.8 2938.95 L 31898.8 2894.61 L 32566.9 2894.61 L 32566.9 2944.5 Z M 32372.9 4635.56 C 32464.4 4635.56 32536.4 4560.72 32536.4 4466.45 C 32536.4 4236.36 32347.9 3842.7 32159.4 3684.69 C 32087.3 3623.7 32012.5 3590.44 31946 3590.44 C 31851.7 3590.44 31790.7 3673.59 31790.7 3803.89 C 31790.7 4009.05 31934.9 4316.75 32115.1 4499.72 C 32201 4585.66 32292.5 4635.56 32372.9 4635.56 "/>
<path transform="matrix(.00359712,0,0,-.00359712,0,158)" d="M 33697.2 4324.8 L 33168 4324.8 L 33168 4293.78 C 33288.2 4282.16 33317.3 4266.64 33317.3 4210.42 C 33317.3 4183.3 33309.5 4138.7 33295.9 4090.25 L 33057.5 3233.45 C 33022.6 3121.03 33009 3109.41 32900.5 3090.02 L 32900.5 3059 L 33887.2 3059 L 33999.6 3405.98 L 33960.8 3417.61 C 33893 3278.05 33840.6 3216.02 33755.3 3173.38 C 33687.5 3140.42 33608 3128.78 33439.4 3128.78 C 33292.1 3128.78 33243.6 3144.3 33243.6 3194.69 C 33243.6 3208.27 33253.3 3254.78 33263 3291.61 L 33501.4 4150.34 C 33530.5 4249.2 33580.9 4286.03 33697.2 4293.78 L 33697.2 4324.8 "/>
<path transform="matrix(.00359712,0,0,-.00359712,0,158)" d="M 34874.3 3274.17 C 34858.8 3256.72 34849 3245.09 34831.6 3221.83 C 34787 3163.67 34763.8 3144.3 34742.4 3144.3 C 34713.4 3144.3 34695.9 3169.48 34682.3 3223.77 C 34678.5 3239.28 34676.5 3250.91 34674.6 3256.72 C 34626.1 3452.5 34604.8 3541.67 34604.8 3570.75 C 34690.1 3720 34759.9 3805.3 34794.8 3805.3 C 34806.4 3805.3 34821.9 3799.48 34841.3 3789.78 C 34864.6 3776.22 34878.1 3772.34 34893.6 3772.34 C 34934.3 3772.34 34961.5 3801.42 34961.5 3842.13 C 34961.5 3882.83 34928.5 3913.84 34882 3913.84 C 34796.7 3913.84 34723 3844.06 34589.3 3636.66 L 34568 3743.27 C 34540.8 3875.08 34519.5 3913.84 34467.2 3913.84 C 34424.5 3913.84 34358.6 3896.41 34240.4 3857.64 L 34219.1 3849.88 L 34226.8 3820.8 C 34300.5 3838.25 34317.9 3842.13 34335.4 3842.13 C 34383.8 3842.13 34395.5 3824.69 34422.6 3708.38 L 34478.8 3469.95 L 34319.9 3243.16 C 34281.1 3185 34242.3 3150.11 34221 3150.11 C 34209.4 3150.11 34190 3155.92 34170.6 3167.55 C 34145.4 3181.13 34124.1 3186.94 34108.6 3186.94 C 34071.7 3186.94 34042.7 3157.86 34042.7 3119.09 C 34042.7 3068.69 34081.4 3037.67 34139.6 3037.67 C 34199.7 3037.67 34222.9 3055.13 34319.9 3173.38 C 34372.2 3235.39 34412.9 3287.73 34494.3 3400.17 L 34552.5 3167.55 C 34577.7 3068.69 34602.9 3037.67 34664.9 3037.67 C 34738.6 3037.67 34789 3084.2 34901.4 3258.66 L 34874.3 3274.17 "/>
</g>
</svg>
