<?xml version="1.0" encoding="UTF-8" standalone="no"?>
<!DOCTYPE svg PUBLIC "-//W3C//DTD SVG 1.1//EN" "http://www.w3.org/Graphics/SVG/1.1/DTD/svg11.dtd">
<svg xmlns="http://www.w3.org/2000/svg" xmlns:xlink="http://www.w3.org/1999/xlink" version="1.1" width="161pt" height="155pt" viewBox="0 0 161 155">
<g enable-background="new">
<path transform="matrix(.00359712,0,0,-.00359712,0,155)" stroke-width="221.569" stroke-linecap="butt" stroke-miterlimit="10" stroke-linejoin="miter" fill="none" stroke="#000000" d="M 2969.04 3632.63 L 2969.04 42838 "/>
<path transform="matrix(.00359712,0,0,-.00359712,0,155)" stroke-width="177.253" stroke-linecap="round" stroke-linejoin="round" fill="none" stroke="#000000" d="M 2392.97 42406 C 2609 42442 2933.04 42838.1 2969.04 42946.1 C 3005.04 42838.1 3329.08 42442 3545.11 42406 "/>
<path transform="matrix(.00359712,0,0,-.00359712,0,155)" stroke-width="221.569" stroke-linecap="butt" stroke-miterlimit="10" stroke-linejoin="miter" fill="none" stroke="#000000" d="M 2969.04 3632.63 L 42174.5 3632.63 "/>
<path transform="matrix(.00359712,0,0,-.00359712,0,155)" stroke-width="177.253" stroke-linecap="round" stroke-linejoin="round" fill="none" stroke="#000000" d="M 41742.4 4208.7 C 41778.4 3992.67 42174.5 3668.63 42282.5 3632.63 C 42174.5 3596.63 41778.4 3272.58 41742.4 3056.55 "/>
<path transform="matrix(.00359712,0,0,-.00359712,0,155)" d="M 44488.9 2780.5 L 44441.8 2780.5 C 44339.2 2780.5 44281 2808.23 44283.8 2860.91 C 44283.8 2869.22 44286.6 2880.31 44289.3 2891.39 L 44744 4490.97 L 44541.6 4490.97 L 44500 4360.67 C 44455.7 4488.19 44400.2 4532.55 44286.6 4532.55 C 43920.6 4532.55 43474.3 4022.47 43474.3 3601.08 C 43474.3 3404.25 43582.4 3279.5 43757.1 3279.5 C 43953.9 3279.5 44081.4 3382.08 44328.2 3734.16 L 44081.4 2921.89 C 44045.4 2811 44001 2788.83 43820.8 2774.95 L 43820.8 2730.61 L 44488.9 2730.61 L 44488.9 2780.5 Z M 44294.9 4471.56 C 44386.4 4471.56 44458.4 4396.72 44458.4 4302.45 C 44458.4 4072.36 44269.9 3678.7 44081.4 3520.69 C 44009.3 3459.7 43934.5 3426.44 43868 3426.44 C 43773.7 3426.44 43712.7 3509.59 43712.7 3639.89 C 43712.7 3845.05 43856.9 4152.75 44037.1 4335.72 C 44123 4421.66 44214.5 4471.56 44294.9 4471.56 "/>
<path transform="matrix(.00359712,0,0,-.00359712,0,155)" stroke-width="332.357" stroke-linecap="butt" stroke-miterlimit="10" stroke-linejoin="miter" fill="none" stroke="#2e67b5" d="M 6909.48 35154.4 L 26610.5 7573.07 "/>
<path transform="matrix(.00359712,0,0,-.00359712,0,155)" d="M 27758.2 8020.2 C 27788.7 8022.98 27810.9 8022.98 27841.4 8022.98 C 27949.5 8022.98 27977.2 7975.84 28016 7720.81 C 28043.8 7529.52 28077 7110.92 28077 6950.13 C 28077 6872.5 28082.6 6853.09 28102 6853.09 C 28171.3 6853.09 28429.1 7146.95 28711.9 7540.61 C 28808.9 7679.22 28881 7859.42 28881 7961.98 C 28881 8050.7 28808.9 8125.55 28725.7 8125.55 C 28664.7 8125.55 28623.2 8089.52 28623.2 8031.3 C 28623.2 7986.94 28639.8 7953.67 28689.7 7909.31 C 28725.7 7876.05 28739.6 7853.88 28739.6 7826.16 C 28739.6 7698.63 28556.6 7390.91 28359.8 7185.77 L 28273.8 7097.06 C 28254.4 7487.94 28237.8 7632.09 28201.8 7837.23 C 28146.3 8120 28146.3 8125.55 28121.4 8125.55 C 28107.5 8125.55 28088.1 8122.78 28065.9 8114.47 C 28016 8100.59 27863.6 8072.88 27758.2 8056.25 L 27758.2 8020.2 " fill="#2e67b5"/>
<path transform="matrix(.00359712,0,0,-.00359712,0,155)" d="M 29505.7 8705.7 C 29505.7 8773.55 29435.9 8820.06 29373.9 8820.06 C 29302.2 8820.06 29267.3 8750.28 29247.9 8692.13 L 29046.3 8104.78 C 29040.5 8089.28 29026.9 8054.38 29026.9 8036.94 C 29026.9 8019.48 29038.5 7996.23 29057.9 7996.23 C 29087 7996.23 29120 8036.94 29133.5 8058.27 L 29451.4 8560.31 C 29478.6 8601.02 29505.7 8655.3 29505.7 8705.7 " fill="#2e67b5"/>
<path transform="matrix(.00359712,0,0,-.00359712,0,155)" d="M 30558.8 8777.02 C 30353.7 8643.95 30270.5 8571.88 30167.9 8444.36 C 29971.1 8203.17 29874.1 7925.95 29874.1 7601.59 C 29874.1 7249.53 29976.6 6977.84 30220.6 6695.08 C 30334.3 6562.02 30406.3 6501.03 30550.5 6412.31 L 30583.8 6456.67 C 30362 6631.33 30284.4 6728.34 30209.5 6936.27 C 30143 7122 30112.5 7332.69 30112.5 7609.92 C 30112.5 7901 30148.5 8128.33 30223.4 8300.2 C 30301 8472.08 30384.2 8571.88 30583.8 8732.67 L 30558.8 8777.02 " fill="#2e67b5"/>
<path transform="matrix(.00359712,0,0,-.00359712,0,155)" d="M 31746.9 6373.5 L 31699.8 6373.5 C 31597.2 6373.5 31539 6401.23 31541.8 6453.91 C 31541.8 6462.22 31544.6 6473.31 31547.3 6484.39 L 32002 8083.97 L 31799.6 8083.97 L 31758 7953.67 C 31713.7 8081.19 31658.2 8125.55 31544.6 8125.55 C 31178.6 8125.55 30732.3 7615.47 30732.3 7194.08 C 30732.3 6997.25 30840.4 6872.5 31015.1 6872.5 C 31211.9 6872.5 31339.4 6975.08 31586.2 7327.16 L 31339.4 6514.89 C 31303.4 6404 31259 6381.83 31078.8 6367.95 L 31078.8 6323.61 L 31746.9 6323.61 L 31746.9 6373.5 Z M 31552.9 8064.56 C 31644.4 8064.56 31716.4 7989.72 31716.4 7895.45 C 31716.4 7665.36 31527.9 7271.7 31339.4 7113.69 C 31267.3 7052.7 31192.5 7019.44 31126 7019.44 C 31031.7 7019.44 30970.7 7102.59 30970.7 7232.89 C 30970.7 7438.05 31114.9 7745.75 31295.1 7928.72 C 31381 8014.66 31472.5 8064.56 31552.9 8064.56 " fill="#2e67b5"/>
<path transform="matrix(.00359712,0,0,-.00359712,0,155)" d="M 32153.3 6412.31 C 32358.5 6545.39 32441.7 6617.45 32544.2 6744.98 C 32741.1 6986.17 32838.1 7263.39 32838.1 7587.73 C 32838.1 7942.58 32735.5 8211.48 32491.6 8494.25 C 32377.9 8627.33 32305.8 8688.31 32161.7 8777.02 L 32128.4 8732.67 C 32350.2 8558.02 32425 8460.98 32502.6 8253.08 C 32569.2 8067.33 32599.7 7856.64 32599.7 7579.42 C 32599.7 7291.11 32563.6 7061.02 32488.8 6891.91 C 32411.2 6717.27 32328 6617.45 32128.4 6456.67 L 32153.3 6412.31 " fill="#2e67b5"/>
<path transform="matrix(.00359712,0,0,-.00359712,0,155)" stroke-width="332.357" stroke-linecap="butt" stroke-miterlimit="10" stroke-linejoin="miter" fill="none" stroke="#2e67b5" d="M 6909.48 7573.07 L 26610.5 27274.1 "/>
<path transform="matrix(.00359712,0,0,-.00359712,0,155)" d="M 29438.5 27893.1 L 29541.1 28444.8 L 29482.8 28444.8 C 29460.7 28400.4 29433 28383.8 29377.5 28383.8 C 29355.3 28383.8 29322.1 28389.3 29263.8 28403.2 C 29139.1 28433.7 29028.2 28450.3 28939.5 28450.3 C 28349 28450.3 27814 27893.1 27814 27277.7 C 27814 26853.5 28113.4 26554.1 28537.5 26554.1 C 28823.1 26554.1 29044.8 26676.1 29294.3 26967.2 L 29247.2 27006 C 28997.7 26762 28836.9 26678.8 28609.6 26678.8 C 28301.9 26678.8 28124.5 26889.5 28124.5 27247.2 C 28124.5 27577 28257.5 27912.5 28473.8 28137 C 28606.8 28272.9 28781.5 28350.5 28964.4 28350.5 C 29219.5 28350.5 29360.9 28200.8 29388.6 27901.4 L 29438.5 27893.1 " fill="#2e67b5"/>
<path transform="matrix(.00359712,0,0,-.00359712,0,155)" d="M 30183.7 28406.7 C 30183.7 28474.5 30113.9 28521.1 30051.9 28521.1 C 29980.2 28521.1 29945.3 28451.3 29925.9 28393.1 L 29724.3 27805.8 C 29718.5 27790.3 29704.9 27755.4 29704.9 27737.9 C 29704.9 27720.5 29716.5 27697.2 29735.9 27697.2 C 29765 27697.2 29798 27737.9 29811.5 27759.3 L 30129.4 28261.3 C 30156.6 28302 30183.7 28356.3 30183.7 28406.7 " fill="#2e67b5"/>
<path transform="matrix(.00359712,0,0,-.00359712,0,155)" d="M 31236.8 28478 C 31031.7 28345 30948.5 28272.9 30845.9 28145.4 C 30649.1 27904.2 30552.1 27627 30552.1 27302.6 C 30552.1 26950.5 30654.6 26678.8 30898.6 26396.1 C 31012.3 26263 31084.3 26202 31228.5 26113.3 L 31261.8 26157.7 C 31040 26332.3 30962.4 26429.3 30887.5 26637.3 C 30821 26823 30790.5 27033.7 30790.5 27310.9 C 30790.5 27602 30826.5 27829.3 30901.4 28001.2 C 30979 28173.1 31062.2 28272.9 31261.8 28433.7 L 31236.8 28478 " fill="#2e67b5"/>
<path transform="matrix(.00359712,0,0,-.00359712,0,155)" d="M 32424.9 26074.5 L 32377.8 26074.5 C 32275.2 26074.5 32217 26102.2 32219.8 26154.9 C 32219.8 26163.2 32222.6 26174.3 32225.3 26185.4 L 32680 27785 L 32477.6 27785 L 32436 27654.7 C 32391.7 27782.2 32336.2 27826.5 32222.6 27826.5 C 31856.6 27826.5 31410.3 27316.5 31410.3 26895.1 C 31410.3 26698.3 31518.4 26573.5 31693.1 26573.5 C 31889.9 26573.5 32017.4 26676.1 32264.2 27028.2 L 32017.4 26215.9 C 31981.4 26105 31937 26082.8 31756.8 26069 L 31756.8 26024.6 L 32424.9 26024.6 L 32424.9 26074.5 Z M 32230.9 27765.6 C 32322.4 27765.6 32394.4 27690.7 32394.4 27596.5 C 32394.4 27366.4 32205.9 26972.7 32017.4 26814.7 C 31945.3 26753.7 31870.5 26720.4 31804 26720.4 C 31709.7 26720.4 31648.7 26803.6 31648.7 26933.9 C 31648.7 27139 31792.9 27446.8 31973.1 27629.7 C 32059 27715.7 32150.5 27765.6 32230.9 27765.6 " fill="#2e67b5"/>
<path transform="matrix(.00359712,0,0,-.00359712,0,155)" d="M 32831.3 26113.3 C 33036.5 26246.4 33119.7 26318.5 33222.2 26446 C 33419.1 26687.2 33516.1 26964.4 33516.1 27288.7 C 33516.1 27643.6 33413.5 27912.5 33169.6 28195.3 C 33055.9 28328.3 32983.8 28389.3 32839.7 28478 L 32806.4 28433.7 C 33028.2 28259 33103 28162 33180.6 27954.1 C 33247.2 27768.3 33277.7 27557.6 33277.7 27280.4 C 33277.7 26992.1 33241.6 26762 33166.8 26592.9 C 33089.2 26418.3 33006 26318.5 32806.4 26157.7 L 32831.3 26113.3 " fill="#2e67b5"/>
<path transform="matrix(.00359712,0,0,-.00359712,0,155)" stroke-width="332.357" stroke-linecap="butt" stroke-miterlimit="10" stroke-linejoin="miter" fill="none" stroke="#610b0b" d="M 6909.48 15453.4 L 26610.5 35154.4 "/>
<path transform="matrix(.00359712,0,0,-.00359712,0,155)" d="M 28997.4 35733.4 L 29108.3 36285.1 L 29044.5 36285.1 C 29005.7 36226.9 28980.8 36213 28919.8 36213 C 28886.5 36213 28856 36221.3 28792.3 36243.5 C 28731.3 36268.4 28642.6 36282.3 28556.6 36282.3 C 28268.3 36282.3 28063.2 36091 28063.2 35819.3 C 28063.2 35669.6 28104.8 35589.3 28271.1 35411.8 C 28296 35386.9 28332.1 35348.1 28379.2 35295.4 C 28429.1 35242.7 28467.9 35201.1 28487.3 35179 C 28617.6 35043.1 28653.6 34971 28653.6 34851.8 C 28653.6 34643.9 28498.4 34483.1 28296 34483.1 C 28065.9 34483.1 27891.3 34680 27891.3 34943.3 C 27891.3 34965.5 27894.1 34987.7 27896.8 35007.1 L 27841.4 35012.6 L 27747.1 34394.4 L 27797 34394.4 C 27816.4 34458.2 27846.9 34485.9 27902.4 34485.9 C 27932.9 34485.9 27974.5 34474.8 28046.5 34449.9 C 28174 34402.7 28248.9 34386.1 28334.8 34386.1 C 28653.6 34386.1 28894.8 34627.3 28894.8 34940.5 C 28894.8 35120.7 28831.1 35228.9 28581.6 35481.1 C 28332.1 35733.4 28307.1 35772.2 28307.1 35908 C 28307.1 36082.7 28423.5 36190.8 28612.1 36190.8 C 28714.6 36190.8 28800.6 36154.8 28858.8 36088.3 C 28919.8 36018.9 28942 35924.7 28947.5 35741.7 L 28997.4 35733.4 " fill="#610b0b"/>
<path transform="matrix(.00359712,0,0,-.00359712,0,155)" d="M 30892.5 35725.1 L 30995.1 36276.8 L 30936.8 36276.8 C 30914.7 36232.4 30887 36215.8 30831.5 36215.8 C 30809.3 36215.8 30776.1 36221.3 30717.8 36235.2 C 30593.1 36265.7 30482.2 36282.3 30393.5 36282.3 C 29803 36282.3 29268 35725.1 29268 35109.7 C 29268 34685.5 29567.4 34386.1 29991.5 34386.1 C 30277.1 34386.1 30498.8 34508.1 30748.3 34799.2 L 30701.2 34838 C 30451.7 34594 30290.9 34510.8 30063.6 34510.8 C 29755.9 34510.8 29578.5 34721.5 29578.5 35079.2 C 29578.5 35409 29711.5 35744.5 29927.8 35969 C 30060.8 36104.9 30235.5 36182.5 30418.4 36182.5 C 30673.5 36182.5 30814.9 36032.8 30842.6 35733.4 L 30892.5 35725.1 " fill="#610b0b"/>
<path transform="matrix(.00359712,0,0,-.00359712,0,155)" d="M 31507.7 36335.7 C 31507.7 36403.5 31437.9 36450.1 31375.9 36450.1 C 31304.2 36450.1 31269.3 36380.3 31249.9 36322.1 L 31048.3 35734.8 C 31042.5 35719.3 31028.9 35684.4 31028.9 35666.9 C 31028.9 35649.5 31040.5 35626.2 31059.9 35626.2 C 31089 35626.2 31122 35666.9 31135.5 35688.3 L 31453.4 36190.3 C 31480.6 36231 31507.7 36285.3 31507.7 36335.7 " fill="#610b0b"/>
<path transform="matrix(.00359712,0,0,-.00359712,0,155)" d="M 32560.8 36310 C 32355.7 36177 32272.5 36104.9 32169.9 35977.4 C 31973.1 35736.2 31876.1 35459 31876.1 35134.6 C 31876.1 34782.5 31978.6 34510.8 32222.6 34228.1 C 32336.3 34095 32408.3 34034 32552.5 33945.3 L 32585.8 33989.7 C 32364 34164.3 32286.4 34261.3 32211.5 34469.3 C 32145 34655 32114.5 34865.7 32114.5 35142.9 C 32114.5 35434 32150.5 35661.3 32225.4 35833.2 C 32303 36005.1 32386.2 36104.9 32585.8 36265.7 L 32560.8 36310 " fill="#610b0b"/>
<path transform="matrix(.00359712,0,0,-.00359712,0,155)" d="M 33749.9 33906.5 L 33702.8 33906.5 C 33600.2 33906.5 33542 33934.2 33544.8 33986.9 C 33544.8 33995.2 33547.6 34006.3 33550.3 34017.4 L 34005 35617 L 33802.6 35617 L 33761 35486.7 C 33716.7 35614.2 33661.2 35658.5 33547.6 35658.5 C 33181.6 35658.5 32735.3 35148.5 32735.3 34727.1 C 32735.3 34530.3 32843.4 34405.5 33018.1 34405.5 C 33214.9 34405.5 33342.4 34508.1 33589.2 34860.2 L 33342.4 34047.9 C 33306.4 33937 33262 33914.8 33081.8 33901 L 33081.8 33856.6 L 33749.9 33856.6 L 33749.9 33906.5 Z M 33555.9 35597.6 C 33647.4 35597.6 33719.4 35522.7 33719.4 35428.5 C 33719.4 35198.4 33530.9 34804.7 33342.4 34646.7 C 33270.3 34585.7 33195.5 34552.4 33129 34552.4 C 33034.7 34552.4 32973.7 34635.6 32973.7 34765.9 C 32973.7 34971 33117.9 35278.8 33298.1 35461.7 C 33384 35547.7 33475.5 35597.6 33555.9 35597.6 " fill="#610b0b"/>
<path transform="matrix(.00359712,0,0,-.00359712,0,155)" d="M 34155.3 33945.3 C 34360.5 34078.4 34443.7 34150.5 34546.2 34278 C 34743.1 34519.2 34840.1 34796.4 34840.1 35120.7 C 34840.1 35475.6 34737.5 35744.5 34493.6 36027.3 C 34379.9 36160.3 34307.8 36221.3 34163.7 36310 L 34130.4 36265.7 C 34352.2 36091 34427 35994 34504.6 35786.1 C 34571.2 35600.3 34601.7 35389.6 34601.7 35112.4 C 34601.7 34824.1 34565.6 34594 34490.8 34424.9 C 34413.2 34250.3 34330 34150.5 34130.4 33989.7 L 34155.3 33945.3 " fill="#610b0b"/>
<path transform="matrix(.00359712,0,0,-.00359712,0,155)" d="M 37179.3 35070.8 L 37179.3 35226.1 L 36547.2 35226.1 L 36547.2 35852.6 L 36391.9 35852.6 L 36391.9 35226.1 L 35759.9 35226.1 L 35759.9 35070.8 L 36391.9 35070.8 L 36391.9 34436 L 36547.2 34436 L 36547.2 35070.8 L 37179.3 35070.8 " fill="#610b0b"/>
<path transform="matrix(.00359712,0,0,-.00359712,0,155)" d="M 39703.5 35725.1 L 39806.1 36276.8 L 39747.8 36276.8 C 39725.7 36232.4 39698 36215.8 39642.5 36215.8 C 39620.3 36215.8 39587.1 36221.3 39528.8 36235.2 C 39404.1 36265.7 39293.2 36282.3 39204.5 36282.3 C 38614 36282.3 38079 35725.1 38079 35109.7 C 38079 34685.5 38378.4 34386.1 38802.5 34386.1 C 39088.1 34386.1 39309.8 34508.1 39559.3 34799.2 L 39512.2 34838 C 39262.7 34594 39101.9 34510.8 38874.6 34510.8 C 38566.9 34510.8 38389.5 34721.5 38389.5 35079.2 C 38389.5 35409 38522.5 35744.5 38738.8 35969 C 38871.8 36104.9 39046.5 36182.5 39229.4 36182.5 C 39484.5 36182.5 39625.9 36032.8 39653.6 35733.4 L 39703.5 35725.1 " fill="#610b0b"/>
<path transform="matrix(.00359712,0,0,-.00359712,0,155)" d="M 40448.7 36237.7 C 40448.7 36305.5 40378.9 36352.1 40316.9 36352.1 C 40245.2 36352.1 40210.3 36282.3 40190.9 36224.1 L 39989.3 35636.8 C 39983.5 35621.3 39969.9 35586.4 39969.9 35568.9 C 39969.9 35551.5 39981.5 35528.2 40000.9 35528.2 C 40030 35528.2 40063 35568.9 40076.5 35590.3 L 40394.4 36092.3 C 40421.6 36133 40448.7 36187.3 40448.7 36237.7 " fill="#610b0b"/>
<path transform="matrix(.00359712,0,0,-.00359712,0,155)" d="M 41501.8 36310 C 41296.7 36177 41213.5 36104.9 41110.9 35977.4 C 40914.1 35736.2 40817.1 35459 40817.1 35134.6 C 40817.1 34782.5 40919.6 34510.8 41163.6 34228.1 C 41277.3 34095 41349.3 34034 41493.5 33945.3 L 41526.8 33989.7 C 41305 34164.3 41227.4 34261.3 41152.5 34469.3 C 41086 34655 41055.5 34865.7 41055.5 35142.9 C 41055.5 35434 41091.5 35661.3 41166.4 35833.2 C 41244 36005.1 41327.2 36104.9 41526.8 36265.7 L 41501.8 36310 " fill="#610b0b"/>
<path transform="matrix(.00359712,0,0,-.00359712,0,155)" d="M 42690.9 33906.5 L 42643.8 33906.5 C 42541.2 33906.5 42483 33934.2 42485.8 33986.9 C 42485.8 33995.2 42488.6 34006.3 42491.3 34017.4 L 42946 35617 L 42743.6 35617 L 42702 35486.7 C 42657.7 35614.2 42602.2 35658.5 42488.6 35658.5 C 42122.6 35658.5 41676.3 35148.5 41676.3 34727.1 C 41676.3 34530.3 41784.4 34405.5 41959.1 34405.5 C 42155.9 34405.5 42283.4 34508.1 42530.2 34860.2 L 42283.4 34047.9 C 42247.4 33937 42203 33914.8 42022.8 33901 L 42022.8 33856.6 L 42690.9 33856.6 L 42690.9 33906.5 Z M 42496.9 35597.6 C 42588.4 35597.6 42660.4 35522.7 42660.4 35428.5 C 42660.4 35198.4 42471.9 34804.7 42283.4 34646.7 C 42211.3 34585.7 42136.5 34552.4 42070 34552.4 C 41975.7 34552.4 41914.7 34635.6 41914.7 34765.9 C 41914.7 34971 42058.9 35278.8 42239.1 35461.7 C 42325 35547.7 42416.5 35597.6 42496.9 35597.6 " fill="#610b0b"/>
<path transform="matrix(.00359712,0,0,-.00359712,0,155)" d="M 43097.3 33945.3 C 43302.5 34078.4 43385.7 34150.5 43488.2 34278 C 43685.1 34519.2 43782.1 34796.4 43782.1 35120.7 C 43782.1 35475.6 43679.5 35744.5 43435.6 36027.3 C 43321.9 36160.3 43249.8 36221.3 43105.7 36310 L 43072.4 36265.7 C 43294.2 36091 43369 35994 43446.6 35786.1 C 43513.2 35600.3 43543.7 35389.6 43543.7 35112.4 C 43543.7 34824.1 43507.6 34594 43432.8 34424.9 C 43355.2 34250.3 43272 34150.5 43072.4 33989.7 L 43097.3 33945.3 " fill="#610b0b"/>
<path transform="matrix(.00359712,0,0,-.00359712,0,155)" stroke-width="332.357" stroke-linecap="butt" stroke-dasharray="332.357,553.929" stroke-miterlimit="10" stroke-linejoin="miter" fill="none" stroke="#000000" d="M 18335.8 18999.4 L 2969.04 18999.4 "/>
<path transform="matrix(.00359712,0,0,-.00359712,0,155)" d="M 650.25 19793 L 714 19793 C 714 19793 719.547 19793 722.328 19795.8 C 758.359 19812.4 830.438 19759.7 830.438 19718.1 C 830.438 19693.2 730.641 19299.5 633.609 18933.6 C 558.766 18656.4 492.234 18393 472.828 18312.6 C 442.328 18185.1 406.281 18151.8 287.078 18149 L 287.078 18104.7 L 855.391 18104.7 L 855.391 18146.3 C 725.094 18146.3 677.969 18171.2 677.969 18229.4 C 677.969 18268.3 725.094 18484.5 780.547 18689.6 C 849.844 18653.6 899.75 18642.5 963.5 18642.5 C 1368.25 18642.5 1795.17 19108.2 1795.17 19549 C 1795.17 19765.3 1673.19 19895.5 1476.38 19895.5 C 1296.17 19895.5 1163.11 19806.8 1002.31 19582.3 L 1082.72 19859.5 L 1091.03 19884.5 C 1091.03 19884.5 1088.25 19887.2 1085.48 19892.8 L 1079.94 19895.5 C 1079.94 19898.3 1077.17 19898.3 1077.17 19898.3 L 1071.63 19895.5 L 644.703 19834.6 L 650.25 19793 Z M 1373.8 19776.3 C 1493 19770.8 1545.67 19698.7 1545.67 19537.9 C 1545.67 19355 1465.28 19116.6 1346.08 18944.7 C 1229.64 18781.1 1096.58 18695.2 952.422 18695.2 C 874.797 18695.2 819.344 18736.8 819.344 18797.8 C 819.344 18892 919.156 19255.2 999.547 19460.3 C 1074.39 19648.8 1235.19 19784.7 1373.8 19776.3 "/>
<path transform="matrix(.00359712,0,0,-.00359712,0,155)" stroke-width="332.357" stroke-linecap="butt" stroke-dasharray="332.357,553.929" stroke-miterlimit="10" stroke-linejoin="miter" fill="none" stroke="#000000" d="M 18335.8 18999.4 L 18335.8 3632.63 "/>
<path transform="matrix(.00359712,0,0,-.00359712,0,155)" d="M 18726.9 789.5 L 18679.8 789.5 C 18577.2 789.5 18519 817.234 18521.8 869.906 C 18521.8 878.219 18524.6 889.313 18527.3 900.391 L 18982 2499.97 L 18779.6 2499.97 L 18738 2369.67 C 18693.7 2497.19 18638.2 2541.55 18524.6 2541.55 C 18158.6 2541.55 17712.3 2031.47 17712.3 1610.08 C 17712.3 1413.25 17820.4 1288.5 17995.1 1288.5 C 18191.9 1288.5 18319.4 1391.08 18566.2 1743.16 L 18319.4 930.891 C 18283.4 820 18239 797.828 18058.8 783.953 L 18058.8 739.609 L 18726.9 739.609 L 18726.9 789.5 Z M 18532.9 2480.56 C 18624.4 2480.56 18696.4 2405.72 18696.4 2311.45 C 18696.4 2081.36 18507.9 1687.7 18319.4 1529.69 C 18247.3 1468.7 18172.5 1435.44 18106 1435.44 C 18011.7 1435.44 17950.7 1518.59 17950.7 1648.89 C 17950.7 1854.05 18094.9 2161.75 18275.1 2344.72 C 18361 2430.66 18452.5 2480.56 18532.9 2480.56 "/>
<path transform="matrix(.00359712,0,0,-.00359712,0,155)" stroke-width="332.357" stroke-linecap="butt" stroke-dasharray="332.357,553.929" stroke-miterlimit="10" stroke-linejoin="miter" fill="none" stroke="#000000" d="M 15183.6 23727.5 L 15183.6 3632.63 "/>
<path transform="matrix(.00359712,0,0,-.00359712,0,155)" d="M 15048.9 141.5 L 15001.8 141.5 C 14899.2 141.5 14841 169.234 14843.8 221.906 C 14843.8 230.219 14846.6 241.313 14849.3 252.391 L 15304 1851.97 L 15101.6 1851.97 L 15060 1721.67 C 15015.7 1849.19 14960.2 1893.55 14846.6 1893.55 C 14480.6 1893.55 14034.3 1383.47 14034.3 962.078 C 14034.3 765.25 14142.4 640.5 14317.1 640.5 C 14513.9 640.5 14641.4 743.078 14888.2 1095.16 L 14641.4 282.891 C 14605.4 172 14561 149.828 14380.8 135.953 L 14380.8 91.6094 L 15048.9 91.6094 L 15048.9 141.5 Z M 14854.9 1832.56 C 14946.4 1832.56 15018.4 1757.72 15018.4 1663.45 C 15018.4 1433.36 14829.9 1039.7 14641.4 881.688 C 14569.3 820.703 14494.5 787.438 14428 787.438 C 14333.7 787.438 14272.7 870.594 14272.7 1000.89 C 14272.7 1206.05 14416.9 1513.75 14597.1 1696.72 C 14683 1782.66 14774.5 1832.56 14854.9 1832.56 "/>
<path transform="matrix(.00359712,0,0,-.00359712,0,155)" d="M 16142.8 2324.44 C 16142.8 2357.39 16115.7 2392.28 16080.8 2392.28 C 16036.2 2392.28 15877.3 2233.33 15821 2200.38 C 15821 2308.92 15875.3 2417.48 15875.3 2483.39 C 15875.3 2524.09 15848.2 2549.3 15807.5 2549.3 C 15768.7 2549.3 15745.4 2522.16 15745.4 2483.39 C 15745.4 2407.78 15792 2305.05 15792 2200.38 C 15729.9 2237.2 15578.7 2400.03 15538 2400.03 C 15503.1 2400.03 15472.1 2367.08 15472.1 2332.19 C 15472.1 2264.34 15700.9 2217.83 15776.5 2175.17 C 15695 2128.66 15543.8 2105.39 15505.1 2080.19 C 15485.7 2066.63 15470.2 2049.17 15470.2 2023.98 C 15470.2 1989.09 15497.3 1958.08 15532.2 1958.08 C 15576.8 1958.08 15733.8 2115.08 15792 2148.05 C 15792 2041.42 15737.7 1932.88 15737.7 1865.03 C 15737.7 1826.27 15766.8 1799.13 15805.5 1799.13 C 15844.3 1799.13 15867.6 1828.2 15867.6 1865.03 C 15867.6 1944.5 15823 2045.3 15823 2148.05 C 15883.1 2113.14 16036.2 1950.31 16075 1950.31 C 16109.9 1950.31 16140.9 1983.27 16140.9 2018.17 C 16140.9 2043.36 16123.4 2060.81 16104 2072.44 C 16053.7 2105.39 15919.9 2126.72 15836.5 2175.17 C 15927.7 2229.45 16051.7 2237.2 16107.9 2270.16 C 16129.3 2281.8 16142.8 2299.23 16142.8 2324.44 "/>
</g>
</svg>
