<?xml version="1.0" encoding="UTF-8" standalone="no"?>
<!DOCTYPE svg PUBLIC "-//W3C//DTD SVG 1.1//EN" "http://www.w3.org/Graphics/SVG/1.1/DTD/svg11.dtd">
<svg xmlns="http://www.w3.org/2000/svg" xmlns:xlink="http://www.w3.org/1999/xlink" version="1.1" width="115pt" height="115pt" viewBox="0 0 115 115">
<g enable-background="new">
<path transform="matrix(.00359712,0,0,-.00359712,0,115)" stroke-width="110.783" stroke-linecap="butt" stroke-miterlimit="10" stroke-linejoin="miter" fill="none" stroke="#000000" d="M 253.535 170.414 L 31775.2 170.414 "/>
<path transform="matrix(.00359712,0,0,-.00359712,0,115)" stroke-width="110.783" stroke-linecap="butt" stroke-miterlimit="10" stroke-linejoin="miter" fill="none" stroke="#000000" d="M 253.535 170.414 L 253.535 31692.1 "/>
<path transform="matrix(.00359712,0,0,-.00359712,0,115)" stroke-width="332.357" stroke-linecap="butt" stroke-miterlimit="10" stroke-linejoin="miter" fill="none" stroke="#000000" d="M 23894.8 15931.2 C 23894.8 20283.5 20366.6 23811.7 16014.4 23811.7 C 11662.1 23811.7 8133.95 20283.5 8133.95 15931.2 C 8133.95 11578.9 11662.1 8050.82 16014.4 8050.82 C 20366.6 8050.82 23894.8 11578.9 23894.8 15931.2 Z M 16014.4 15931.2 "/>
<path transform="matrix(.00359712,0,0,-.00359712,0,115)" stroke-width="332.357" stroke-linecap="butt" stroke-miterlimit="10" stroke-linejoin="miter" fill="none" stroke="#000000" d="M 27835 15931.2 C 27835 22459.7 22542.8 27751.9 16014.4 27751.9 C 9485.93 27751.9 4193.74 22459.7 4193.74 15931.2 C 4193.74 9402.81 9485.93 4110.62 16014.4 4110.62 C 22542.8 4110.62 27835 9402.81 27835 15931.2 Z M 16014.4 15931.2 "/>
<path transform="matrix(.00359712,0,0,-.00359712,0,115)" d="M 16408.4 15931.2 C 16408.4 16148.9 16232 16325.3 16014.4 16325.3 C 15796.7 16325.3 15620.3 16148.9 15620.3 15931.2 C 15620.3 15713.6 15796.7 15537.2 16014.4 15537.2 C 16232 15537.2 16408.4 15713.6 16408.4 15931.2 Z M 16014.4 15931.2 "/>
<path transform="matrix(.00359712,0,0,-.00359712,0,115)" d="M 16972.2 16962.7 C 16847.4 16971 16819.7 16998.7 16722.7 17203.9 L 16032.4 18778.5 L 15977 18778.5 L 15400.3 17417.3 C 15222.9 17012.6 15189.7 16968.2 15056.6 16962.7 L 15056.6 16910 L 15605.5 16910 L 15605.5 16962.7 C 15472.4 16962.7 15417 16998.7 15417 17076.3 C 15417 17109.6 15425.3 17148.4 15439.2 17184.5 L 15566.7 17508.8 L 16293 17508.8 L 16406.7 17242.7 C 16439.9 17167.8 16459.3 17095.7 16459.3 17056.9 C 16459.3 16987.6 16412.2 16965.4 16265.3 16962.7 L 16265.3 16910 L 16972.2 16910 L 16972.2 16962.7 Z M 15613.8 17622.5 L 15932.6 18384.8 L 16254.2 17622.5 L 15613.8 17622.5 Z "/>
</g>
</svg>
