<?xml version="1.0" encoding="UTF-8" standalone="no"?>
<!DOCTYPE svg PUBLIC "-//W3C//DTD SVG 1.1//EN" "http://www.w3.org/Graphics/SVG/1.1/DTD/svg11.dtd">
<svg xmlns="http://www.w3.org/2000/svg" xmlns:xlink="http://www.w3.org/1999/xlink" version="1.1" width="225pt" height="184pt" viewBox="0 0 225 184">
<g enable-background="new">
<path transform="matrix(.00359712,0,0,-.00359712,0,184)" stroke-width="110.783" stroke-linecap="butt" stroke-miterlimit="10" stroke-linejoin="miter" fill="none" stroke="#000000" d="M 2858.12 3691.56 L 2858.12 50974.1 "/>
<path transform="matrix(.00359712,0,0,-.00359712,0,184)" stroke-width="110.783" stroke-linecap="butt" stroke-miterlimit="10" stroke-linejoin="miter" fill="none" stroke="#000000" d="M 2858.12 3691.56 L 50140.6 3691.56 "/>
<path transform="matrix(.00359712,0,0,-.00359712,0,184)" d="M 52566.6 3533.16 C 52577.3 3533.16 52588 3541.16 52588 3549.16 C 52588 3554.48 52585.3 3559.81 52580 3565.14 C 52494.7 3642.45 52468 3663.78 52377.4 3738.44 C 52329.4 3677.13 52313.4 3658.45 52265.4 3594.47 L 51862.8 3594.47 C 51892.1 3647.8 51894.8 3653.13 51929.5 3714.44 C 52001.5 3725.11 52022.8 3735.77 52022.8 3759.77 C 52022.8 3778.42 51985.5 3789.09 51793.5 3831.75 C 51766.8 3762.44 51742.8 3706.44 51689.5 3594.47 L 51524.2 3594.47 C 51417.6 3594.47 51340.3 3602.47 51247 3621.13 L 51265.6 3522.48 C 51361.6 3530.48 51409.6 3533.16 51526.9 3533.16 L 51660.2 3533.16 C 51628.2 3471.84 51604.2 3429.19 51534.9 3306.55 C 51494.9 3239.89 51486.9 3226.56 51422.9 3117.25 C 51422.9 3114.59 51422.9 3111.92 51422.9 3109.27 C 51422.9 3095.92 51449.6 3087.94 51502.9 3087.94 C 51572.2 3087.94 51588.2 3093.27 51604.2 3130.59 C 51628.2 3170.58 51644.2 3197.23 51654.9 3218.56 C 51793.5 3162.58 51852.2 3135.92 51961.5 3071.94 C 51790.8 2879.98 51604.2 2768.02 51265.6 2653.38 L 51281.6 2618.72 C 51524.2 2661.38 51649.5 2704.03 51798.8 2781.34 C 51910.8 2842.66 51996.1 2906.64 52084.1 2997.28 C 52166.7 2941.3 52206.7 2909.31 52260 2853.33 C 52286.7 2826.66 52300 2818.66 52313.4 2818.66 C 52332 2818.66 52345.4 2855.98 52345.4 2906.64 C 52345.4 2959.97 52332 3005.28 52308 3031.94 C 52286.7 3058.61 52260 3071.94 52174.7 3106.59 C 52273.4 3242.56 52313.4 3327.88 52377.4 3533.16 L 52566.6 3533.16 Z M 52201.4 3533.16 C 52150.8 3357.2 52116.1 3282.55 52030.8 3159.91 C 51929.5 3194.58 51862.8 3215.91 51684.2 3269.22 C 51753.5 3397.19 51801.5 3485.17 51828.2 3533.16 L 52201.4 3533.16 Z M 52161.4 2613.38 C 52457.3 2717.36 52609.3 2797.34 52779.9 2933.3 C 52870.6 3005.28 52937.2 3069.27 53011.9 3162.58 C 53158.5 2949.3 53321.1 2786.67 53534.4 2642.7 C 53577.1 2752.02 53614.4 2776.02 53750.3 2781.34 L 53755.7 2816 C 53451.8 2951.97 53257.1 3090.59 53097.2 3282.55 C 53198.5 3439.84 53278.5 3626.47 53342.5 3842.41 C 53387.8 3997.05 53409.1 4095.69 53433.1 4300.97 L 53710.4 4300.97 C 53715.7 4300.97 53721 4308.97 53721 4316.95 C 53721 4322.3 53718.4 4330.3 53710.4 4338.28 C 53593.1 4436.94 53593.1 4436.94 53489.1 4527.58 C 53425.1 4455.59 53406.4 4434.27 53339.8 4362.28 L 52830.6 4362.28 C 52929.2 4604.89 52969.2 4716.86 53014.5 4868.83 C 53105.2 4887.48 53129.2 4898.16 53129.2 4919.48 C 53129.2 4948.81 53118.5 4951.47 52838.6 5020.78 C 52833.3 4932.81 52806.6 4796.84 52753.3 4591.56 C 52678.6 4298.3 52598.6 4090.34 52430.7 3749.09 L 52462.7 3725.11 C 52572 3871.73 52617.3 3938.39 52684 4055.69 C 52742.6 3719.78 52795.9 3546.48 52923.9 3306.55 C 52867.9 3218.56 52819.9 3154.58 52755.9 3082.59 C 52598.6 2906.64 52454.7 2802.67 52145.4 2648.05 L 52161.4 2613.38 Z M 53238.5 4300.97 C 53203.8 3951.72 53131.8 3701.11 52993.2 3429.19 C 52857.2 3645.13 52793.3 3818.42 52723.9 4130.34 C 52755.9 4194.33 52774.6 4231.66 52806.6 4300.97 L 53238.5 4300.97 Z M 52052.1 4410.27 L 52622.6 4410.27 C 52636 4410.27 52646.6 4418.27 52646.6 4426.27 C 52646.6 4431.59 52641.3 4442.27 52633.3 4450.27 C 52550.6 4519.58 52524 4543.58 52436 4612.89 C 52390.7 4551.56 52377.4 4532.91 52337.4 4471.59 L 52052.1 4471.59 C 52049.4 4754.19 52049.4 4754.19 52049.4 4770.19 C 52049.4 4804.84 52049.4 4836.83 52049.4 4890.16 C 52065.4 4898.16 52078.8 4903.48 52089.4 4906.16 C 52113.4 4914.14 52129.4 4922.14 52140.1 4927.48 C 52145.4 4932.81 52150.8 4940.81 52150.8 4946.14 C 52150.8 4975.47 52121.4 4980.8 51881.5 5004.8 C 51889.5 4927.48 51894.8 4812.84 51894.8 4740.86 L 51894.8 4471.59 L 51508.2 4471.59 C 51420.3 4471.59 51369.6 4474.25 51257.6 4487.58 L 51273.6 4396.94 C 51388.3 4407.61 51444.3 4410.27 51505.6 4410.27 L 51798.8 4410.27 C 51742.8 4314.3 51721.5 4282.3 51654.9 4196.98 C 51518.9 4023.7 51425.6 3930.39 51257.6 3794.42 L 51273.6 3767.77 C 51398.9 3831.75 51465.6 3877.06 51609.5 3999.7 C 51726.8 4098.34 51796.2 4167.67 51894.8 4287.64 L 51894.8 4183.66 C 51894.8 4106.34 51892.1 4042.36 51886.8 3903.73 C 51886.8 3898.39 51886.8 3895.73 51886.8 3890.41 C 51886.8 3874.41 51902.8 3863.73 51929.5 3863.73 C 51929.5 3863.73 51932.1 3863.73 51934.8 3863.73 C 51948.1 3863.73 51958.8 3866.41 51964.1 3866.41 C 52030.8 3869.08 52046.8 3877.06 52052.1 3903.73 C 52052.1 4138.34 52052.1 4143.67 52052.1 4236.98 C 52140.1 4194.33 52233.4 4117.02 52321.4 4015.7 C 52385.4 3935.72 52390.7 3933.06 52417.3 3933.06 C 52446.7 3933.06 52462.7 3962.38 52462.7 4013.03 C 52462.7 4063.69 52446.7 4119.67 52422.7 4146.34 C 52396 4175.66 52300 4218.31 52180.1 4250.31 C 52073.4 4282.3 52073.4 4282.3 52052.1 4287.64 L 52052.1 4410.27 Z M 51414.9 4911.48 C 51500.2 4807.5 51561.6 4698.2 51596.2 4591.56 C 51614.9 4530.23 51630.9 4506.25 51652.2 4506.25 C 51686.9 4506.25 51742.8 4594.22 51742.8 4644.88 C 51742.8 4719.53 51665.5 4794.17 51441.6 4935.47 L 51414.9 4911.48 Z M 52193.4 4508.91 C 52270.7 4586.23 52270.7 4586.23 52345.4 4668.88 C 52444 4780.84 52444 4780.84 52476 4815.5 C 52489.3 4818.17 52502.7 4820.84 52524 4820.84 C 52548 4823.5 52561.3 4826.17 52566.6 4828.83 C 52574.6 4834.17 52580 4839.5 52580 4847.5 C 52580 4868.83 52542.7 4890.16 52449.3 4922.14 C 52425.3 4930.14 52385.4 4943.47 52334.7 4962.14 C 52308 4836.83 52252 4703.53 52156.1 4527.58 L 52193.4 4508.91 "/>
<path transform="matrix(.00359712,0,0,-.00359712,0,184)" d="M 55181 3258.56 L 55730.2 3258.56 L 55730.2 3231.89 C 55732.9 3213.23 55738.2 3207.91 55754.2 3207.91 C 55794.2 3207.91 55874.2 3218.56 55890.1 3223.89 C 55903.5 3229.23 55908.8 3239.89 55908.8 3250.56 C 55908.8 3253.22 55908.8 3253.22 55908.8 3255.89 C 55906.1 3394.52 55906.1 3437.17 55906.1 3583.81 L 55906.1 3783.77 C 55967.5 3823.75 55983.5 3837.08 55983.5 3855.73 C 55983.5 3863.73 55975.5 3874.41 55954.1 3890.41 C 55908.8 3925.06 55858.2 3959.72 55807.5 3997.05 C 55762.2 3951.72 55751.5 3935.72 55708.9 3890.41 L 54522.5 3890.41 C 54445.2 3938.39 54421.2 3951.72 54338.5 3997.05 C 54343.9 3901.06 54346.5 3834.41 54346.5 3714.44 C 54346.5 3517.16 54343.9 3346.53 54338.5 3178.58 C 54338.5 3157.25 54343.9 3151.92 54367.9 3151.92 C 54415.8 3151.92 54471.8 3157.25 54490.5 3162.58 C 54506.5 3167.91 54511.8 3175.91 54511.8 3194.58 L 54511.8 3258.56 L 55018.4 3258.56 L 55018.4 3061.27 L 54415.8 3061.27 C 54285.2 3061.27 54247.9 3063.94 54157.2 3085.27 L 54173.2 2983.95 C 54255.9 2997.28 54311.9 2999.95 54415.8 2999.95 L 55018.4 2999.95 L 55018.4 2776.02 L 54207.9 2776.02 C 54079.9 2776.02 54023.9 2781.34 53920 2802.67 L 53938.6 2696.03 C 54015.9 2709.36 54085.3 2714.69 54207.9 2714.69 L 56340.7 2714.69 C 56356.7 2714.69 56364.7 2720.02 56364.7 2728.02 C 56364.7 2733.36 56362 2738.69 56354 2746.69 C 56250.1 2826.66 56215.4 2853.33 56108.8 2935.97 L 55954.1 2776.02 L 55181 2776.02 L 55181 2999.95 L 56124.8 2999.95 C 56140.8 2999.95 56151.4 3005.28 56151.4 3015.95 C 56151.4 3018.61 56148.8 3023.95 56138.1 3034.61 C 56047.4 3109.27 56020.8 3130.59 55927.5 3202.56 C 55868.8 3143.92 55847.5 3122.59 55788.8 3061.27 L 55181 3061.27 L 55181 3258.56 Z M 55181 3319.88 L 55181 3551.81 L 55730.2 3551.81 L 55730.2 3319.88 L 55181 3319.88 Z M 55018.4 3319.88 L 54511.8 3319.88 L 54511.8 3551.81 L 55018.4 3551.81 L 55018.4 3319.88 Z M 55181 3613.14 L 55181 3829.08 L 55730.2 3829.08 L 55730.2 3613.14 L 55181 3613.14 Z M 55018.4 3613.14 L 54511.8 3613.14 L 54511.8 3829.08 L 55018.4 3829.08 L 55018.4 3613.14 Z M 54498.5 4311.63 L 55762.2 4311.63 L 55762.2 4250.31 C 55762.2 4247.64 55762.2 4242.31 55762.2 4242.31 C 55762.2 4223.66 55767.5 4220.98 55799.5 4220.98 C 55892.8 4220.98 55932.8 4231.66 55932.8 4252.98 C 55932.8 4255.64 55932.8 4258.31 55932.8 4258.31 C 55927.5 4391.61 55927.5 4450.27 55927.5 4530.23 L 55930.1 4802.17 C 56007.5 4850.16 56020.8 4860.83 56020.8 4876.83 C 56020.8 4882.16 56015.5 4890.16 55999.5 4906.16 C 55932.8 4956.8 55911.5 4972.8 55842.2 5020.78 C 55807.5 4983.47 55772.8 4943.47 55740.8 4906.16 L 54522.5 4906.16 C 54437.2 4959.47 54407.8 4975.47 54319.9 5020.78 C 54327.9 4778.19 54327.9 4772.84 54327.9 4658.2 C 54327.9 4554.23 54327.9 4543.58 54322.5 4244.98 C 54322.5 4242.31 54322.5 4239.64 54322.5 4239.64 C 54322.5 4212.98 54327.9 4210.33 54365.2 4210.33 C 54469.2 4210.33 54498.5 4218.31 54498.5 4244.98 C 54498.5 4244.98 54498.5 4247.64 54498.5 4250.31 L 54498.5 4311.63 Z M 55762.2 4644.88 L 54498.5 4644.88 L 54498.5 4844.83 L 55762.2 4844.83 L 55762.2 4644.88 Z M 55762.2 4583.56 L 55762.2 4372.95 L 54498.5 4372.95 L 54498.5 4583.56 L 55762.2 4583.56 Z M 53941.3 4047.69 C 54023.9 4063.69 54069.3 4066.36 54175.9 4066.36 L 56324.7 4066.36 C 56343.4 4066.36 56351.4 4069.02 56351.4 4077.02 C 56351.4 4082.36 56348.7 4090.34 56343.4 4095.69 C 56242.1 4186.33 56210.1 4212.98 56103.4 4300.97 C 56039.4 4228.98 56018.1 4204.98 55948.8 4127.67 L 54175.9 4127.67 C 54047.9 4127.67 54007.9 4130.34 53928 4151.67 L 53941.3 4047.69 "/>
<path transform="matrix(.00359712,0,0,-.00359712,0,184)" d="M 58198.9 2278.5 L 58151.8 2278.5 C 58049.2 2278.5 57991 2306.23 57993.8 2358.91 C 57993.8 2367.22 57996.6 2378.31 57999.3 2389.39 L 58454 3988.97 L 58251.6 3988.97 L 58210 3858.67 C 58165.7 3986.19 58110.2 4030.55 57996.6 4030.55 C 57630.6 4030.55 57184.3 3520.47 57184.3 3099.08 C 57184.3 2902.25 57292.4 2777.5 57467.1 2777.5 C 57663.9 2777.5 57791.4 2880.08 58038.2 3232.16 L 57791.4 2419.89 C 57755.4 2309 57711 2286.83 57530.8 2272.95 L 57530.8 2228.61 L 58198.9 2228.61 L 58198.9 2278.5 Z M 58004.9 3969.56 C 58096.4 3969.56 58168.4 3894.72 58168.4 3800.45 C 58168.4 3570.36 57979.9 3176.7 57791.4 3018.69 C 57719.3 2957.7 57644.5 2924.44 57578 2924.44 C 57483.7 2924.44 57422.7 3007.59 57422.7 3137.89 C 57422.7 3343.05 57566.9 3650.75 57747.1 3833.72 C 57833 3919.66 57924.5 3969.56 58004.9 3969.56 "/>
<path transform="matrix(.00359712,0,0,-.00359712,0,184)" stroke-width="332.357" stroke-linecap="butt" stroke-miterlimit="10" stroke-linejoin="miter" fill="none" stroke="#000000" d="M 4434.18 43093.6 C 6201.11 22898.1 22295.1 11152 42260.2 7631.77 "/>
<path transform="matrix(.00359712,0,0,-.00359712,0,184)" d="M 43407.2 7865.2 C 43437.7 7867.98 43459.9 7867.98 43490.4 7867.98 C 43598.5 7867.98 43626.2 7820.84 43665 7565.81 C 43692.8 7374.52 43726 6955.92 43726 6795.13 C 43726 6717.5 43731.6 6698.09 43751 6698.09 C 43820.3 6698.09 44078.1 6991.95 44360.9 7385.61 C 44457.9 7524.22 44530 7704.42 44530 7806.98 C 44530 7895.7 44457.9 7970.55 44374.7 7970.55 C 44313.7 7970.55 44272.2 7934.52 44272.2 7876.3 C 44272.2 7831.94 44288.8 7798.67 44338.7 7754.31 C 44374.7 7721.05 44388.6 7698.88 44388.6 7671.16 C 44388.6 7543.63 44205.6 7235.91 44008.8 7030.77 L 43922.8 6942.06 C 43903.4 7332.94 43886.8 7477.09 43850.8 7682.23 C 43795.3 7965 43795.3 7970.55 43770.4 7970.55 C 43756.5 7970.55 43737.1 7967.78 43714.9 7959.47 C 43665 7945.59 43512.6 7917.88 43407.2 7901.25 L 43407.2 7865.2 "/>
<path transform="matrix(.00359712,0,0,-.00359712,0,184)" d="M 45154.7 8550.7 C 45154.7 8618.55 45084.9 8665.06 45022.9 8665.06 C 44951.2 8665.06 44916.3 8595.28 44896.9 8537.13 L 44695.3 7949.78 C 44689.5 7934.28 44675.9 7899.38 44675.9 7881.94 C 44675.9 7864.48 44687.5 7841.23 44706.9 7841.23 C 44736 7841.23 44769 7881.94 44782.5 7903.27 L 45100.4 8405.31 C 45127.6 8446.02 45154.7 8500.3 45154.7 8550.7 "/>
<path transform="matrix(.00359712,0,0,-.00359712,0,184)" d="M 46207.8 8622.02 C 46002.7 8488.95 45919.5 8416.88 45816.9 8289.36 C 45620.1 8048.17 45523.1 7770.95 45523.1 7446.59 C 45523.1 7094.53 45625.6 6822.84 45869.6 6540.08 C 45983.3 6407.02 46055.3 6346.03 46199.5 6257.31 L 46232.8 6301.67 C 46011 6476.33 45933.4 6573.34 45858.5 6781.27 C 45792 6967 45761.5 7177.69 45761.5 7454.92 C 45761.5 7746 45797.5 7973.33 45872.4 8145.2 C 45950 8317.08 46033.2 8416.88 46232.8 8577.67 L 46207.8 8622.02 "/>
<path transform="matrix(.00359712,0,0,-.00359712,0,184)" d="M 47396.9 6218.5 L 47349.8 6218.5 C 47247.2 6218.5 47189 6246.23 47191.8 6298.91 C 47191.8 6307.22 47194.6 6318.31 47197.3 6329.39 L 47652 7928.97 L 47449.6 7928.97 L 47408 7798.67 C 47363.7 7926.19 47308.2 7970.55 47194.6 7970.55 C 46828.6 7970.55 46382.3 7460.47 46382.3 7039.08 C 46382.3 6842.25 46490.4 6717.5 46665.1 6717.5 C 46861.9 6717.5 46989.4 6820.08 47236.2 7172.16 L 46989.4 6359.89 C 46953.4 6249 46909 6226.83 46728.8 6212.95 L 46728.8 6168.61 L 47396.9 6168.61 L 47396.9 6218.5 Z M 47202.9 7909.56 C 47294.4 7909.56 47366.4 7834.72 47366.4 7740.45 C 47366.4 7510.36 47177.9 7116.7 46989.4 6958.69 C 46917.3 6897.7 46842.5 6864.44 46776 6864.44 C 46681.7 6864.44 46620.7 6947.59 46620.7 7077.89 C 46620.7 7283.05 46764.9 7590.75 46945.1 7773.72 C 47031 7859.66 47122.5 7909.56 47202.9 7909.56 "/>
<path transform="matrix(.00359712,0,0,-.00359712,0,184)" d="M 47802.3 6257.31 C 48007.5 6390.39 48090.7 6462.45 48193.2 6589.98 C 48390.1 6831.17 48487.1 7108.39 48487.1 7432.73 C 48487.1 7787.58 48384.5 8056.48 48140.6 8339.25 C 48026.9 8472.33 47954.8 8533.31 47810.7 8622.02 L 47777.4 8577.67 C 47999.2 8403.02 48074 8305.98 48151.6 8098.08 C 48218.2 7912.33 48248.7 7701.64 48248.7 7424.42 C 48248.7 7136.11 48212.6 6906.02 48137.8 6736.91 C 48060.2 6562.27 47977 6462.45 47777.4 6301.67 L 47802.3 6257.31 "/>
<path transform="matrix(.00359712,0,0,-.00359712,0,184)" d="M 50980.3 7662.83 L 50980.3 7818.08 L 49560.9 7818.08 L 49560.9 7662.83 L 50980.3 7662.83 Z M 50980.3 7100.08 L 50980.3 7255.31 L 49560.9 7255.31 L 49560.9 7100.08 L 50980.3 7100.08 "/>
<path transform="matrix(.00359712,0,0,-.00359712,0,184)" d="M 53040.7 8560.89 L 52256.9 8560.89 C 52256.9 8608.88 52256.9 8622.2 52251.6 8675.53 L 52211.6 8675.53 C 52190.2 8560.89 52176.9 8515.56 52150.3 8456.91 C 52118.3 8395.59 52064.9 8336.94 52017 8310.28 C 51977 8288.95 51966.3 8272.95 51966.3 8238.3 C 51966.3 8208.97 51979.6 8150.33 51993 8118.33 C 52003.6 8091.67 52025 8075.67 52046.3 8075.67 C 52086.3 8075.67 52131.6 8113 52168.9 8176.98 C 52208.9 8243.63 52238.2 8360.94 52254.2 8499.56 L 53040.7 8499.56 L 53040.7 8320.94 C 53040.7 8152.98 53035.4 8003.69 53030 7862.39 C 53030 7838.39 53043.4 7830.41 53075.4 7830.41 C 53206 7838.39 53216.7 7841.06 53222 7883.72 C 53214 8123.66 53214 8206.31 53214 8352.94 L 53214 8499.56 L 54059.1 8499.56 C 54048.5 8398.27 54043.1 8360.94 54016.5 8232.97 L 54043.1 8224.97 C 54107.1 8294.28 54107.1 8294.28 54232.4 8440.92 C 54349.7 8456.91 54349.7 8456.91 54371 8470.23 C 54376.4 8472.91 54381.7 8480.91 54381.7 8486.23 C 54381.7 8494.23 54373.7 8504.91 54355 8518.23 C 54261.7 8595.55 54232.4 8616.88 54133.8 8691.52 C 54080.4 8635.53 54064.4 8616.88 54016.5 8560.89 L 53214 8560.89 L 53214 8774.17 L 54075.1 8774.17 C 54085.8 8774.17 54104.4 8790.16 54104.4 8800.83 C 54104.4 8803.5 54096.4 8814.16 54088.4 8824.83 C 53981.8 8910.14 53949.8 8934.13 53848.5 9014.11 C 53776.5 8936.8 53755.2 8912.8 53688.5 8835.48 L 52510.2 8835.48 C 52395.5 8835.48 52310.2 8840.81 52203.6 8854.14 L 52216.9 8763.5 C 52379.5 8774.17 52403.5 8774.17 52510.2 8774.17 L 53040.7 8774.17 L 53040.7 8560.89 Z M 54307 7662.44 C 54320.4 7662.44 54339 7673.11 54339 7683.77 C 54339 7689.09 54333.7 7699.77 54325.7 7707.77 C 54227.1 7790.41 54195.1 7814.41 54093.8 7886.39 C 54029.8 7819.73 54011.1 7795.73 53944.5 7723.77 L 52312.9 7723.77 C 52158.3 7723.77 52064.9 7729.09 51963.6 7742.42 L 51977 7649.11 C 52009 7651.78 52120.9 7657.11 52312.9 7662.44 L 53000.7 7662.44 C 52976.7 7574.47 52960.7 7534.47 52907.4 7449.16 L 52448.8 7449.16 C 52358.2 7502.48 52328.9 7518.47 52235.6 7563.8 C 52243.6 7491.81 52248.9 7313.19 52248.9 7097.25 C 52248.9 6915.95 52246.2 6673.36 52240.9 6590.7 C 52246.2 6569.38 52259.6 6558.72 52283.5 6558.72 C 52318.2 6558.72 52384.9 6566.72 52398.2 6574.7 C 52411.5 6580.05 52416.9 6588.05 52419.5 6606.7 L 52419.5 7387.84 L 52768.8 7387.84 L 52768.8 7097.25 C 52766.1 6756 52766.1 6756 52763.4 6638.69 C 52771.4 6620.03 52782.1 6614.7 52814.1 6614.7 C 52910.1 6614.7 52936.7 6622.7 52942.1 6654.69 C 52939.4 6785.33 52939.4 6785.33 52939.4 7115.91 L 52939.4 7387.84 L 53286 7387.84 L 53286 7123.91 C 53286 6958.61 53283.3 6772 53278 6641.36 C 53283.3 6620.03 53294 6614.7 53320.6 6614.7 C 53413.9 6614.7 53443.3 6625.36 53451.3 6657.36 C 53448.6 6745.33 53448.6 6745.33 53445.9 7134.58 L 53445.9 7387.84 L 53859.2 7387.84 L 53859.2 6814.66 C 53859.2 6793.33 53853.8 6787.98 53827.2 6785.33 C 53688.5 6790.66 53643.2 6790.66 53531.3 6798.66 L 53531.3 6766.66 C 53707.2 6721.34 53757.9 6684.02 53779.2 6585.38 C 53976.5 6614.7 54024.5 6652.03 54037.8 6785.33 C 54035.1 6907.95 54035.1 6966.61 54035.1 7051.92 L 54035.1 7350.52 C 54096.4 7382.52 54115.1 7395.84 54115.1 7417.17 C 54115.1 7427.83 54107.1 7435.83 54088.4 7449.16 C 54024.5 7499.81 54003.1 7515.81 53931.1 7563.8 C 53885.8 7515.81 53872.5 7499.81 53827.2 7449.16 L 52976.7 7449.16 C 53062 7502.48 53070 7507.81 53240.7 7662.44 L 54307 7662.44 Z M 52315.5 8214.3 C 52379.5 8222.3 52408.9 8224.97 52464.8 8224.97 L 52907.4 8224.97 C 52920.7 8224.97 52934.1 8235.63 52934.1 8246.3 C 52934.1 8248.97 52928.7 8262.3 52923.4 8270.3 C 52848.8 8339.61 52824.8 8360.94 52755.4 8422.25 C 52694.1 8366.27 52675.5 8347.61 52619.5 8286.28 L 52464.8 8286.28 C 52424.8 8286.28 52376.9 8291.63 52302.2 8302.28 L 52315.5 8214.3 Z M 53312.6 8216.97 C 53382 8222.3 53413.9 8224.97 53461.9 8224.97 L 53949.8 8224.97 C 53965.8 8224.97 53979.1 8232.97 53979.1 8243.63 C 53979.1 8248.97 53973.8 8259.63 53965.8 8267.63 C 53893.8 8339.61 53869.8 8360.94 53792.5 8424.92 C 53736.5 8366.27 53720.5 8347.61 53667.2 8286.28 L 53461.9 8286.28 C 53405.9 8286.28 53405.9 8286.28 53302 8302.28 L 53312.6 8216.97 Z M 53315.3 7931.7 C 53411.3 7937.05 53440.6 7939.7 53475.3 7939.7 L 54035.1 7939.7 C 54059.1 7939.7 54075.1 7947.7 54075.1 7961.03 C 54075.1 7966.36 54069.8 7971.7 54061.8 7982.36 C 53973.8 8057.02 53944.5 8078.34 53859.2 8147.66 C 53805.8 8086.34 53787.2 8065.02 53736.5 8001.03 L 53475.3 8001.03 C 53403.3 8001.03 53403.3 8001.03 53352.6 8009.02 C 53342 8009.02 53323.3 8011.69 53302 8014.36 L 53315.3 7931.7 Z M 52211.6 7931.7 C 52280.9 7939.7 52307.5 7939.7 52379.5 7939.7 L 52912.7 7939.7 C 52944.7 7939.7 52955.4 7945.03 52955.4 7955.7 C 52955.4 7961.03 52950 7971.7 52939.4 7982.36 C 52864.7 8054.34 52840.8 8075.67 52768.8 8139.66 C 52704.8 8078.34 52683.5 8059.67 52622.1 8001.03 L 52379.5 8001.03 C 52310.2 8001.03 52251.6 8006.36 52195.6 8019.69 L 52211.6 7931.7 "/>
<path transform="matrix(.00359712,0,0,-.00359712,0,184)" d="M 57012 7478.48 C 57028 7478.48 57038.7 7483.81 57038.7 7494.48 C 57038.7 7499.81 57033.4 7507.81 57022.7 7521.14 C 56929.4 7606.45 56897.4 7633.11 56793.4 7715.77 C 56721.5 7643.78 56700.1 7622.45 56628.1 7539.8 L 55583.1 7539.8 C 55623 7598.45 55636.4 7619.78 55692.4 7707.77 C 55775 7718.42 55801.7 7729.09 55801.7 7747.75 C 55801.7 7763.75 55780.3 7774.41 55564.4 7838.39 C 55535.1 7766.42 55497.8 7702.44 55388.4 7539.8 L 54828.6 7539.8 C 54711.3 7539.8 54671.3 7545.14 54591.3 7569.13 L 54607.3 7465.16 C 54655.3 7475.83 54655.3 7475.83 54825.9 7478.48 L 55345.8 7478.48 C 55252.5 7347.86 55201.8 7283.88 55036.5 7081.25 C 55009.9 7049.27 55007.2 7046.59 55007.2 7038.59 C 55007.2 7035.92 55009.9 7030.59 55015.2 7027.94 C 55028.5 7019.94 55121.8 7001.27 55148.5 7001.27 C 55161.8 7001.27 55172.5 7006.61 55185.8 7022.59 C 55231.1 7073.25 55244.5 7089.25 55276.5 7126.58 C 55473.8 7094.58 55551.1 7075.92 55743 7017.27 C 55615 6918.63 55492.4 6846.64 55348.5 6785.33 C 55143.2 6700.02 54967.2 6657.36 54626 6606.7 L 54626 6561.38 C 54916.6 6566.72 55108.5 6596.03 55359.1 6673.36 C 55577.7 6740 55732.4 6822.64 55905.7 6963.95 C 56164.3 6867.97 56318.9 6793.33 56529.5 6662.69 C 56684.1 6566.72 56694.8 6558.72 56713.5 6558.72 C 56740.1 6558.72 56758.8 6585.38 56758.8 6622.7 C 56758.8 6700.02 56697.5 6803.98 56625.5 6846.64 C 56548.2 6891.97 56286.9 6977.28 56007 7051.92 C 56153.6 7193.22 56217.6 7275.88 56334.9 7478.48 L 57012 7478.48 Z M 56132.3 7478.48 C 56039 7302.53 55975 7222.55 55833.7 7091.92 C 55692.4 7118.58 55599.1 7134.58 55313.8 7171.89 C 55399.1 7278.53 55447.1 7345.19 55540.4 7478.48 L 56132.3 7478.48 Z M 56150.9 8763.5 L 56985.4 8763.5 C 56996 8763.5 57004 8771.5 57004 8779.5 C 57004 8784.83 56996 8795.5 56988 8806.16 C 56886.7 8888.81 56854.8 8915.47 56750.8 8992.78 C 56684.1 8923.47 56662.8 8902.14 56593.5 8824.83 L 54868.6 8824.83 C 54761.9 8824.83 54703.3 8832.81 54636.6 8851.48 L 54652.6 8747.5 C 54716.6 8758.17 54788.6 8763.5 54841.9 8763.5 L 55436.4 8763.5 L 55436.4 8424.92 L 55071.2 8424.92 C 54975.2 8472.91 54945.9 8488.91 54855.2 8526.23 C 54855.2 8472.91 54855.2 8419.59 54857.9 8363.59 C 54860.6 8192.98 54860.6 8192.98 54860.6 8110.33 C 54860.6 8011.69 54860.6 7929.05 54855.2 7766.42 C 54855.2 7745.09 54865.9 7737.09 54889.9 7737.09 C 55007.2 7737.09 55028.5 7745.09 55028.5 7779.75 L 55028.5 7851.73 L 56572.2 7851.73 L 56572.2 7766.42 C 56572.2 7742.42 56582.8 7731.75 56609.5 7731.75 C 56724.1 7731.75 56756.1 7739.75 56756.1 7771.75 C 56756.1 7771.75 56756.1 7777.08 56756.1 7779.75 C 56745.4 7931.7 56745.4 7931.7 56742.8 8323.61 C 56814.8 8366.27 56822.8 8374.27 56822.8 8390.27 C 56822.8 8398.27 56817.4 8406.25 56796.1 8424.92 C 56732.1 8475.58 56713.5 8491.56 56649.5 8539.56 C 56604.1 8491.56 56588.1 8475.58 56542.8 8424.92 L 56150.9 8424.92 L 56150.9 8763.5 Z M 55985.6 8763.5 L 55985.6 8424.92 L 55599.1 8424.92 L 55599.1 8763.5 L 55985.6 8763.5 Z M 55436.4 8363.59 L 55436.4 7913.05 L 55028.5 7913.05 L 55028.5 8363.59 L 55436.4 8363.59 Z M 55599.1 8363.59 L 55985.6 8363.59 L 55985.6 7913.05 L 55599.1 7913.05 L 55599.1 8363.59 Z M 56150.9 8363.59 L 56572.2 8363.59 L 56572.2 7913.05 L 56150.9 7913.05 L 56150.9 8363.59 "/>
<path transform="matrix(.00359712,0,0,-.00359712,0,184)" d="M 59298.5 6732 L 59298.5 6593.38 C 59301.1 6566.72 59311.8 6561.38 59354.5 6561.38 C 59466.4 6561.38 59495.8 6572.05 59498.4 6614.7 C 59485.1 6878.64 59477.1 7395.84 59477.1 7867.72 L 59477.1 8208.97 C 59557.1 8251.63 59586.4 8275.63 59586.4 8296.95 C 59586.4 8307.61 59578.4 8318.28 59557.1 8336.94 C 59479.8 8392.92 59455.8 8411.59 59375.8 8464.91 C 59327.8 8411.59 59311.8 8395.59 59263.8 8336.94 L 58847.9 8336.94 L 58847.9 8800.83 C 58922.6 8824.83 58951.9 8843.48 58951.9 8867.48 C 58951.9 8872.81 58946.6 8880.81 58938.6 8886.14 C 58914.6 8902.14 58914.6 8902.14 58642.6 8936.8 C 58658.6 8832.81 58658.6 8808.83 58658.6 8632.88 L 58658.6 8336.94 L 58229.4 8336.94 L 58229.4 8800.83 C 58306.7 8819.48 58341.4 8840.81 58341.4 8867.48 C 58341.4 8894.14 58269.4 8910.14 58034.8 8931.47 C 58045.4 8819.48 58048.1 8766.17 58048.1 8664.86 L 58048.1 8336.94 L 57640.2 8336.94 C 57554.9 8398.27 57528.2 8414.25 57434.9 8464.91 C 57442.9 8336.94 57448.3 7979.7 57448.3 7606.45 C 57448.3 7246.55 57440.3 6827.98 57429.6 6585.38 C 57432.3 6556.05 57445.6 6545.39 57482.9 6545.39 C 57485.6 6545.39 57488.3 6545.39 57490.9 6545.39 C 57501.6 6545.39 57514.9 6548.05 57533.6 6548.05 C 57608.2 6548.05 57629.5 6558.72 57640.2 6593.38 L 57640.2 6732 L 59298.5 6732 Z M 59298.5 6793.33 L 58847.9 6793.33 L 58847.9 7537.14 L 59298.5 7537.14 L 59298.5 6793.33 Z M 59298.5 7598.45 L 58847.9 7598.45 L 58847.9 8275.63 L 59298.5 8275.63 L 59298.5 7598.45 Z M 58658.6 6793.33 L 58229.4 6793.33 L 58229.4 7537.14 L 58658.6 7537.14 L 58658.6 6793.33 Z M 58658.6 7598.45 L 58229.4 7598.45 L 58229.4 8275.63 L 58658.6 8275.63 L 58658.6 7598.45 Z M 58048.1 6793.33 L 57640.2 6793.33 L 57640.2 7537.14 L 58048.1 7537.14 L 58048.1 6793.33 Z M 58048.1 7598.45 L 57640.2 7598.45 L 57640.2 8275.63 L 58048.1 8275.63 L 58048.1 7598.45 "/>
<path transform="matrix(.00359712,0,0,-.00359712,0,184)" d="M 60350.5 7182.56 C 60350.5 7033.27 60345.2 6803.98 60334.5 6572.05 C 60337.2 6548.05 60345.2 6537.39 60371.9 6537.39 C 60414.5 6537.39 60481.2 6548.05 60497.2 6556.05 C 60510.5 6564.05 60515.8 6572.05 60515.8 6593.38 C 60510.5 6859.97 60510.5 6867.97 60510.5 7211.89 L 60510.5 7747.75 C 60638.5 7774.41 60638.5 7774.41 60753.1 7801.08 C 60771.8 7742.42 60782.4 7707.77 60793.1 7662.44 C 60801.1 7627.78 60814.4 7611.78 60833.1 7611.78 C 60875.7 7611.78 60923.7 7702.44 60923.7 7782.41 C 60923.7 7822.41 60905.1 7865.06 60865.1 7910.38 C 60790.4 7995.69 60713.1 8067.67 60622.5 8136.98 L 60595.8 8110.33 C 60670.5 7995.69 60697.1 7947.7 60737.1 7849.06 C 60563.8 7833.06 60553.2 7833.06 60265.2 7819.73 C 60491.8 8091.67 60593.1 8222.3 60793.1 8507.56 C 60883.7 8510.23 60910.4 8520.89 60910.4 8544.89 C 60910.4 8571.55 60867.7 8592.88 60651.8 8670.19 C 60603.8 8534.22 60518.5 8355.61 60406.5 8155.66 C 60337.2 8035.69 60291.9 7961.03 60190.6 7817.06 C 60086.6 7814.41 60086.6 7814.41 60062.6 7814.41 C 60025.3 7814.41 59998.6 7817.06 59940 7822.41 C 59977.3 7619.78 59990.6 7579.8 60017.3 7579.8 C 60035.9 7579.8 60046.6 7598.45 60067.9 7675.77 C 60265.2 7705.09 60265.2 7705.09 60350.5 7721.09 L 60350.5 7182.56 Z M 59958.6 8534.22 C 60070.6 8408.92 60145.3 8294.28 60185.2 8195.64 C 60222.6 8089 60225.2 8086.34 60251.9 8086.34 C 60289.2 8086.34 60329.2 8171.66 60329.2 8248.97 C 60329.2 8310.28 60299.9 8350.27 60195.9 8424.92 C 60315.9 8566.22 60361.2 8627.53 60505.2 8848.81 C 60515.8 8846.16 60531.8 8846.16 60534.5 8846.16 C 60606.5 8846.16 60635.8 8856.81 60635.8 8878.14 C 60635.8 8907.47 60635.8 8907.47 60350.5 9008.78 C 60331.9 8888.81 60251.9 8659.53 60155.9 8454.25 C 60091.9 8499.56 60067.9 8515.56 59985.3 8566.22 L 59958.6 8534.22 Z M 61443.6 8712.84 C 61523.6 8776.83 61544.9 8795.5 61627.5 8886.14 C 61715.5 8891.47 61736.9 8899.47 61736.9 8923.47 C 61736.9 8947.45 61707.5 8958.13 61470.3 9024.77 C 61454.3 8926.13 61419.6 8803.5 61379.6 8712.84 L 61206.3 8712.84 C 61129 8763.5 61102.3 8779.5 61017 8827.48 C 61022.4 8720.84 61025 8475.58 61025 8267.63 C 61025 8118.33 61025 8118.33 61017 7801.08 C 61019.7 7777.08 61027.7 7771.75 61049 7771.75 C 61083.7 7771.75 61142.3 7779.75 61161 7787.75 C 61177 7793.08 61182.3 7801.08 61182.3 7822.41 L 61182.3 7894.39 L 61470.3 7894.39 L 61470.3 6806.66 C 61470.3 6779.98 61464.9 6772 61438.3 6772 C 61275.6 6777.33 61219.7 6779.98 61041 6795.98 L 61041 6756 C 61254.3 6705.34 61254.3 6705.34 61283.6 6689.34 C 61339.6 6660.02 61361 6630.7 61369 6566.72 C 61595.6 6612.03 61640.9 6644.03 61640.9 6756 C 61632.9 6950.61 61632.9 7035.92 61630.2 7123.91 C 61630.2 7217.22 61630.2 7278.53 61627.5 7297.2 L 61614.2 7723.77 C 61670.2 7483.81 61726.2 7345.19 61838.2 7158.56 C 61955.5 6966.61 62059.4 6851.97 62254.1 6697.34 C 62291.4 6785.33 62334 6819.98 62424.7 6835.98 L 62435.4 6875.97 C 62302 6929.28 62206.1 6985.28 62072.8 7094.58 C 61971.5 7174.56 61904.8 7243.88 61838.2 7342.52 C 62008.8 7425.17 62064.8 7462.48 62203.4 7571.8 C 62222.1 7569.13 62240.7 7569.13 62246.1 7569.13 C 62307.4 7569.13 62328.7 7577.13 62328.7 7595.8 C 62328.7 7622.45 62307.4 7633.11 62096.8 7742.42 C 62008.8 7595.8 61923.5 7491.81 61808.8 7387.84 C 61699.5 7566.47 61662.2 7670.44 61630.2 7894.39 L 61918.1 7894.39 L 61918.1 7809.08 C 61918.1 7785.08 61928.8 7777.08 61952.8 7777.08 C 62051.5 7777.08 62096.8 7793.08 62096.8 7825.06 C 62096.8 7827.73 62096.8 7830.41 62096.8 7833.06 C 62086.1 8041.02 62083.4 8126.33 62083.4 8280.95 L 62086.1 8608.88 C 62147.4 8640.86 62171.4 8659.53 62171.4 8678.19 C 62171.4 8691.52 62160.8 8704.84 62136.8 8726.17 C 62080.8 8768.83 62062.1 8782.17 61998.1 8827.48 C 61950.1 8779.5 61936.8 8763.5 61891.5 8712.84 L 61443.6 8712.84 Z M 61182.3 8350.27 L 61182.3 8651.53 L 61918.1 8651.53 L 61918.1 8350.27 L 61182.3 8350.27 Z M 61918.1 8288.95 L 61918.1 7955.7 L 61182.3 7955.7 L 61182.3 8288.95 L 61918.1 8288.95 Z M 59929.3 6654.69 C 60059.9 6873.3 60139.9 7078.58 60209.2 7385.17 C 60281.2 7395.84 60299.9 7406.5 60299.9 7427.83 C 60299.9 7454.5 60267.9 7465.16 60065.3 7515.81 C 60062.6 7417.17 60054.6 7347.86 60022.6 7174.56 C 59988 6985.28 59961.3 6878.64 59889.3 6670.69 L 59929.3 6654.69 Z M 60579.8 7529.14 C 60651.8 7355.84 60681.1 7257.2 60710.4 7075.92 C 60723.8 6993.27 60729.1 6982.61 60747.8 6982.61 C 60787.8 6982.61 60851.8 7089.25 60851.8 7155.91 C 60851.8 7233.22 60766.4 7369.19 60609.1 7539.8 L 60579.8 7529.14 Z M 60974.4 7539.8 C 60921.1 7539.8 60889.1 7542.47 60817.1 7558.47 L 60833.1 7462.48 C 60875.7 7473.16 60931.7 7478.48 60990.4 7478.48 L 61185 7478.48 C 61129 7310.53 61083.7 7219.89 60979.7 7070.59 C 60875.7 6915.95 60795.8 6830.64 60651.8 6710.67 L 60678.5 6670.69 C 60838.4 6772 60926.4 6843.97 61035.7 6963.95 C 61171.7 7105.25 61251.6 7230.55 61347.6 7433.17 C 61395.6 7446.5 61419.6 7459.83 61419.6 7473.16 C 61419.6 7483.81 61414.3 7491.81 61387.6 7521.14 C 61334.3 7571.8 61315.6 7585.13 61259.6 7630.45 C 61222.3 7593.13 61209 7582.45 61174.3 7539.8 L 60974.4 7539.8 "/>
<path transform="matrix(.00359712,0,0,-.00359712,0,184)" stroke-width="110.783" stroke-linecap="butt" stroke-dasharray="110.783,553.929" stroke-miterlimit="10" stroke-linejoin="miter" fill="none" stroke="#000000" d="M 16254.8 19452.4 L 2858.12 19452.4 "/>
<path transform="matrix(.00359712,0,0,-.00359712,0,184)" d="M 650.25 20246 L 714 20246 C 714 20246 719.547 20246 722.328 20248.8 C 758.359 20265.4 830.438 20212.7 830.438 20171.1 C 830.438 20146.2 730.641 19752.5 633.609 19386.6 C 558.766 19109.4 492.234 18846 472.828 18765.6 C 442.328 18638.1 406.281 18604.8 287.078 18602 L 287.078 18557.7 L 855.391 18557.7 L 855.391 18599.3 C 725.094 18599.3 677.969 18624.2 677.969 18682.4 C 677.969 18721.3 725.094 18937.5 780.547 19142.6 C 849.844 19106.6 899.75 19095.5 963.5 19095.5 C 1368.25 19095.5 1795.17 19561.2 1795.17 20002 C 1795.17 20218.3 1673.19 20348.5 1476.38 20348.5 C 1296.17 20348.5 1163.11 20259.8 1002.31 20035.3 L 1082.72 20312.5 L 1091.03 20337.5 C 1091.03 20337.5 1088.25 20340.2 1085.48 20345.8 L 1079.94 20348.5 C 1079.94 20351.3 1077.17 20351.3 1077.17 20351.3 L 1071.63 20348.5 L 644.703 20287.6 L 650.25 20246 Z M 1373.8 20229.3 C 1493 20223.8 1545.67 20151.7 1545.67 19990.9 C 1545.67 19808 1465.28 19569.6 1346.08 19397.7 C 1229.64 19234.1 1096.58 19148.2 952.422 19148.2 C 874.797 19148.2 819.344 19189.8 819.344 19250.8 C 819.344 19345 919.156 19708.2 999.547 19913.3 C 1074.39 20101.8 1235.19 20237.7 1373.8 20229.3 "/>
<path transform="matrix(.00359712,0,0,-.00359712,0,184)" stroke-width="110.783" stroke-linecap="butt" stroke-dasharray="110.783,553.929" stroke-miterlimit="10" stroke-linejoin="miter" fill="none" stroke="#000000" d="M 16254.8 19452.4 L 16254.8 3691.56 "/>
<path transform="matrix(.00359712,0,0,-.00359712,0,184)" d="M 16119.9 311.5 L 16072.8 311.5 C 15970.2 311.5 15912 339.234 15914.8 391.906 C 15914.8 400.219 15917.6 411.313 15920.3 422.391 L 16375 2021.97 L 16172.6 2021.97 L 16131 1891.67 C 16086.7 2019.19 16031.2 2063.55 15917.6 2063.55 C 15551.6 2063.55 15105.3 1553.47 15105.3 1132.08 C 15105.3 935.25 15213.4 810.5 15388.1 810.5 C 15584.9 810.5 15712.4 913.078 15959.2 1265.16 L 15712.4 452.891 C 15676.4 342 15632 319.828 15451.8 305.953 L 15451.8 261.609 L 16119.9 261.609 L 16119.9 311.5 Z M 15925.9 2002.56 C 16017.4 2002.56 16089.4 1927.72 16089.4 1833.45 C 16089.4 1603.36 15900.9 1209.7 15712.4 1051.69 C 15640.3 990.703 15565.5 957.438 15499 957.438 C 15404.7 957.438 15343.7 1040.59 15343.7 1170.89 C 15343.7 1376.05 15487.9 1683.75 15668.1 1866.72 C 15754 1952.66 15845.5 2002.56 15925.9 2002.56 "/>
<path transform="matrix(.00359712,0,0,-.00359712,0,184)" d="M 17213.8 2493.44 C 17213.8 2526.39 17186.7 2561.28 17151.8 2561.28 C 17107.2 2561.28 16948.3 2402.33 16892 2369.38 C 16892 2477.92 16946.3 2586.48 16946.3 2652.39 C 16946.3 2693.09 16919.2 2718.3 16878.5 2718.3 C 16839.7 2718.3 16816.4 2691.16 16816.4 2652.39 C 16816.4 2576.78 16863 2474.05 16863 2369.38 C 16800.9 2406.2 16649.7 2569.03 16609 2569.03 C 16574.1 2569.03 16543.1 2536.08 16543.1 2501.19 C 16543.1 2433.34 16771.9 2386.83 16847.5 2344.17 C 16766 2297.66 16614.8 2274.39 16576.1 2249.19 C 16556.7 2235.63 16541.2 2218.17 16541.2 2192.98 C 16541.2 2158.09 16568.3 2127.08 16603.2 2127.08 C 16647.8 2127.08 16804.8 2284.08 16863 2317.05 C 16863 2210.42 16808.7 2101.88 16808.7 2034.03 C 16808.7 1995.27 16837.8 1968.13 16876.5 1968.13 C 16915.3 1968.13 16938.6 1997.2 16938.6 2034.03 C 16938.6 2113.5 16894 2214.3 16894 2317.05 C 16954.1 2282.14 17107.2 2119.31 17146 2119.31 C 17180.9 2119.31 17211.9 2152.27 17211.9 2187.17 C 17211.9 2212.36 17194.4 2229.81 17175 2241.44 C 17124.7 2274.39 16990.9 2295.72 16907.5 2344.17 C 16998.7 2398.45 17122.7 2406.2 17178.9 2439.16 C 17200.3 2450.8 17213.8 2468.23 17213.8 2493.44 "/>
<path transform="matrix(.00359712,0,0,-.00359712,0,184)" d="M 16885.2 19452.4 C 16885.2 19800.6 16603 20082.8 16254.8 20082.8 C 15906.6 20082.8 15624.3 19800.6 15624.3 19452.4 C 15624.3 19104.2 15906.6 18821.9 16254.8 18821.9 C 16603 18821.9 16885.2 19104.2 16885.2 19452.4 Z M 16254.8 19452.4 "/>
</g>
</svg>
