<?xml version="1.0" encoding="UTF-8" standalone="no"?>
<!DOCTYPE svg PUBLIC "-//W3C//DTD SVG 1.1//EN" "http://www.w3.org/Graphics/SVG/1.1/DTD/svg11.dtd">
<svg xmlns="http://www.w3.org/2000/svg" xmlns:xlink="http://www.w3.org/1999/xlink" version="1.1" width="115pt" height="115pt" viewBox="0 0 115 115">
<g enable-background="new">
<path transform="matrix(.00359712,0,0,-.00359712,0,115)" stroke-width="110.783" stroke-linecap="butt" stroke-miterlimit="10" stroke-linejoin="miter" fill="none" stroke="#000000" d="M 364.18 170.414 L 31885.8 170.414 "/>
<path transform="matrix(.00359712,0,0,-.00359712,0,115)" stroke-width="110.783" stroke-linecap="butt" stroke-miterlimit="10" stroke-linejoin="miter" fill="none" stroke="#000000" d="M 364.18 170.414 L 364.18 31692.1 "/>
<path transform="matrix(.00359712,0,0,-.00359712,0,115)" stroke-width="332.357" stroke-linecap="butt" stroke-miterlimit="10" stroke-linejoin="miter" fill="none" stroke="#000000" d="M 6668.53 27751.9 C 7746.52 21638.1 9371.13 17956.8 13760.9 13567.1 C 18150.6 9177.37 21831.9 7552.75 27945.6 6474.77 "/>
<path transform="matrix(.00359712,0,0,-.00359712,0,115)" stroke-width="332.357" stroke-linecap="butt" stroke-miterlimit="10" stroke-linejoin="miter" fill="none" stroke="#000000" d="M 4304.38 27751.9 C 5502.14 20958.8 7307.34 16868.5 12184.8 11991 C 17062.3 7113.57 21152.6 5308.38 27945.6 4110.62 "/>
<path transform="matrix(.00359712,0,0,-.00359712,0,115)" stroke-width="332.357" stroke-linecap="butt" stroke-miterlimit="10" stroke-linejoin="miter" fill="none" stroke="#000000" d="M 1940.24 27751.9 C 3282.5 20139.3 4354.77 15092.8 9820.65 9626.88 C 15286.5 4161 20333.1 3088.73 27945.6 1746.47 "/>
<path transform="matrix(.00359712,0,0,-.00359712,0,115)" stroke-width="332.357" stroke-linecap="butt" stroke-miterlimit="10" stroke-linejoin="miter" fill="none" stroke="#000000" d="M 24005.4 170.414 L 364.18 23811.7 "/>
<path transform="matrix(.00359712,0,0,-.00359712,0,115)" stroke-width="110.783" stroke-linecap="butt" stroke-dasharray="110.783,553.929" stroke-miterlimit="10" stroke-linejoin="miter" fill="none" stroke="#000000" d="M 12184.8 11991 L 12184.8 170.414 "/>
<path transform="matrix(.00359712,0,0,-.00359712,0,115)" stroke-width="110.783" stroke-linecap="butt" stroke-dasharray="110.783,553.929" stroke-miterlimit="10" stroke-linejoin="miter" fill="none" stroke="#000000" d="M 12184.8 11991 L 364.18 11991 "/>
<path transform="matrix(.00359712,0,0,-.00359712,0,115)" stroke-width="332.357" stroke-linecap="butt" stroke-miterlimit="10" stroke-linejoin="miter" fill="none" stroke="#000000" d="M 19277.1 170.414 L 364.18 19083.4 "/>
<path transform="matrix(.00359712,0,0,-.00359712,0,115)" stroke-width="110.783" stroke-linecap="butt" stroke-dasharray="110.783,553.929" stroke-miterlimit="10" stroke-linejoin="miter" fill="none" stroke="#000000" d="M 9820.65 9626.88 L 9820.65 170.414 "/>
<path transform="matrix(.00359712,0,0,-.00359712,0,115)" stroke-width="110.783" stroke-linecap="butt" stroke-dasharray="110.783,553.929" stroke-miterlimit="10" stroke-linejoin="miter" fill="none" stroke="#000000" d="M 9820.65 9626.88 L 364.18 9626.88 "/>
<path transform="matrix(.00359712,0,0,-.00359712,0,115)" stroke-width="332.357" stroke-linecap="butt" stroke-miterlimit="10" stroke-linejoin="miter" fill="none" stroke="#000000" d="M 27157.5 170.414 L 364.18 26963.8 "/>
<path transform="matrix(.00359712,0,0,-.00359712,0,115)" stroke-width="110.783" stroke-linecap="butt" stroke-dasharray="110.783,553.929" stroke-miterlimit="10" stroke-linejoin="miter" fill="none" stroke="#000000" d="M 13760.9 13567.1 L 13760.9 170.414 "/>
<path transform="matrix(.00359712,0,0,-.00359712,0,115)" stroke-width="110.783" stroke-linecap="butt" stroke-dasharray="110.783,553.929" stroke-miterlimit="10" stroke-linejoin="miter" fill="none" stroke="#000000" d="M 13760.9 13567.1 L 364.18 13567.1 "/>
</g>
</svg>
