<?xml version="1.0" encoding="UTF-8" standalone="no"?>
<!DOCTYPE svg PUBLIC "-//W3C//DTD SVG 1.1//EN" "http://www.w3.org/Graphics/SVG/1.1/DTD/svg11.dtd">
<svg xmlns="http://www.w3.org/2000/svg" xmlns:xlink="http://www.w3.org/1999/xlink" version="1.1" width="194pt" height="138pt" viewBox="0 0 194 138">
<g enable-background="new">
<path transform="matrix(.00359712,0,0,-.00359712,0,138)" stroke-width="110.783" stroke-linecap="butt" stroke-miterlimit="10" stroke-linejoin="miter" fill="none" stroke="#000000" d="M 4796.61 2694.69 L 4796.61 37871.7 "/>
<path transform="matrix(.00359712,0,0,-.00359712,0,138)" stroke-width="88.6236" stroke-linecap="round" stroke-linejoin="round" fill="none" stroke="#000000" d="M 4353.48 37539.3 C 4519.65 37567 4768.92 37871.7 4796.61 37954.8 C 4824.3 37871.7 5073.57 37567 5239.75 37539.3 "/>
<path transform="matrix(.00359712,0,0,-.00359712,0,138)" stroke-width="110.783" stroke-linecap="butt" stroke-miterlimit="10" stroke-linejoin="miter" fill="none" stroke="#000000" d="M 4166.14 3325.16 L 51951.9 3325.16 "/>
<path transform="matrix(.00359712,0,0,-.00359712,0,138)" stroke-width="88.6236" stroke-linecap="round" stroke-linejoin="round" fill="none" stroke="#000000" d="M 51619.5 3768.29 C 51647.2 3602.12 51951.9 3352.85 52034.9 3325.16 C 51951.9 3297.46 51647.2 3048.2 51619.5 2882.02 "/>
<path transform="matrix(.00359712,0,0,-.00359712,0,138)" stroke-width="110.783" stroke-linecap="butt" stroke-miterlimit="10" stroke-linejoin="miter" fill="none" stroke="#000000" d="M 49557.6 34846.9 L 1771.84 34846.9 "/>
<path transform="matrix(.00359712,0,0,-.00359712,0,138)" stroke-width="88.6236" stroke-linecap="round" stroke-linejoin="round" fill="none" stroke="#000000" d="M 2104.19 34403.8 C 2076.49 34570 1771.84 34819.2 1688.75 34846.9 C 1771.84 34874.6 2076.49 35123.9 2104.19 35290.1 "/>
<path transform="matrix(.00359712,0,0,-.00359712,0,138)" stroke-width="110.783" stroke-linecap="butt" stroke-miterlimit="10" stroke-linejoin="miter" fill="none" stroke="#000000" d="M 48927.1 35477.4 L 48927.1 300.387 "/>
<path transform="matrix(.00359712,0,0,-.00359712,0,138)" stroke-width="88.6236" stroke-linecap="round" stroke-linejoin="round" fill="none" stroke="#000000" d="M 49370.2 632.738 C 49204 605.035 48954.8 300.383 48927.1 217.301 C 48899.4 300.383 48650.1 605.035 48483.9 632.738 "/>
<path transform="matrix(.00359712,0,0,-.00359712,0,138)" stroke-width="110.783" stroke-linecap="butt" stroke-miterlimit="10" stroke-linejoin="miter" fill="none" stroke="#ec008c" d="M 13964.5 38003.9 L 14569.4 35855.1 L 15174.4 33959.2 L 15779.4 32274.2 L 16384.4 30761.6 L 16989.4 29399.8 L 17594.3 28168.8 L 18199.3 27044.7 L 18804.3 26020.7 L 19409.3 25082.8 L 20014.3 24214.9 L 20619.3 23417.8 L 21224.2 22676.9 L 21829.2 21990.6 L 22434.2 21350.4 L 23039.2 20750.3 L 23644.2 20190.2 L 24249.1 19665.4 L 24854.1 19176.2 L 25459.1 18712.2 L 26064.1 18273.7 L 26669.1 17860.5 L 27274.1 17466.6 L 27879 17098.8 L 28484 16745.6 L 29089 16412.4 L 29694 16094.7 L 30299 15792.4 L 30903.9 15500 L 31508.9 15227.6 L 32113.9 14959.9 L 32718.9 14708.3 L 33323.9 14465.9 L 33928.8 14239 L 34533.8 14016.6 L 35138.8 13800.4 L 35743.8 13598 L 36348.8 13401.9 L 36953.8 13210.2 L 37558.7 13028.7 L 38163.7 12851.7 L 38768.7 12680.1 L 39373.7 12519.4 L 39978.7 12357.7 L 40583.7 12206.2 L 41188.6 12060 L 41793.6 11918.4 L 42398.6 11777.7 L 43003.6 11646.8 L 43608.6 11515.3 L 44213.5 11389.1 L 44818.5 11268.3 L 45423.5 11147.5 L 46028.5 11036 L 46633.5 10920.6 L 47238.5 10814.4 L 47843.4 10708.2 L 48448.4 10607.4 L 49053.4 10506.6 L 49658.4 10410.4 L 50263.3 10315 L 50868.3 10224.3 L 51473.3 10133.5 L 52078.3 10048.1 "/>
<path transform="matrix(.00359712,0,0,-.00359712,0,138)" stroke-width="110.783" stroke-linecap="butt" stroke-miterlimit="10" stroke-linejoin="miter" fill="none" stroke="#ec008c" d="M 5942.89 37999.2 L 6675.14 24483.1 L 7407.39 18548.9 L 8139.64 15215.2 L 8871.89 13078.2 L 9604.14 11592.5 L 10336.4 10499.7 L 11068.6 9661.64 L 11800.9 9000.38 L 12533.1 8463.12 L 13265.4 8019.18 L 13997.6 7645.26 L 14729.9 7326.84 L 15462.1 7051.91 L 16194.4 6812.86 L 16926.6 6602.29 L 17658.9 6415.57 L 18391.1 6249.15 L 19123.4 6099.66 L 19855.6 5964.7 L 20587.9 5842.43 L 21320.1 5730.84 L 22052.4 5628.68 L 22784.6 5534.7 L 23516.9 5448.31 L 24249.1 5368.18 L 24981.4 5294.4 L 25713.6 5225.04 L 26445.9 5161.36 L 27178.1 5100.85 L 27910.4 5044.67 L 28642.6 4991.76 L 29374.9 4942.61 L 30107.1 4895.27 L 30839.4 4851.12 L 31571.6 4809.47 L 32303.9 4769.74 L 33036.2 4732.61 L 33768.4 4697.3 L 34500.6 4663.25 L 35232.9 4631.02 L 35965.1 4600.14 L 36697.4 4571.09 L 37429.6 4542.81 L 38161.9 4516.26 L 38894.1 4490.39 L 39626.4 4466.43 L 40358.7 4442.48 L 41090.9 4420.45 L 41823.2 4398.32 L 42555.4 4377.55 L 43287.7 4357.34 L 44019.9 4338.49 L 44752.1 4319.54 L 45484.4 4301.84 L 46216.6 4284.81 L 46948.9 4267.79 L 47681.1 4252.11 L 48413.4 4236.33 L 49145.6 4221.13 L 49877.9 4206.7 L 50610.2 4192.75 L 51342.4 4178.9 L 52074.7 4165.72 "/>
<path transform="matrix(.00359712,0,0,-.00359712,0,138)" stroke-width="110.783" stroke-linecap="butt" stroke-dasharray="830.895,830.895" stroke-miterlimit="10" stroke-linejoin="miter" fill="none" stroke="#0000ff" d="M 1644.44 22887.5 L 2305.61 22803 L 2966.76 22718.3 L 3627.92 22630.3 L 4289.09 22538.8 L 4950.23 22447.4 L 5611.39 22352.8 L 6272.55 22254.2 L 6933.71 22156.4 L 7594.88 22055.6 L 8256.04 21951.1 L 8917.2 21847.5 L 9578.36 21736.5 L 10239.5 21626.4 L 10900.7 21513.7 L 11561.8 21393.3 L 12223 21273.9 L 12884.2 21148.5 L 13545.3 21023.6 L 14206.5 20892.2 L 14867.6 20757.9 L 15528.8 20618.2 L 16190 20475.6 L 16851.1 20327.2 L 17512.3 20176.3 L 18173.4 20019.8 L 18834.6 19857.9 L 19495.8 19686.9 L 20156.9 19514.5 L 20818.1 19337.3 L 21479.2 19151.6 L 22140.4 18957.8 L 22801.6 18756.7 L 23462.7 18550.9 L 24123.9 18335.4 L 24785.1 18109.5 L 25446.2 17876.8 L 26107.4 17632.2 L 26768.5 17375.4 L 27429.7 17110.4 L 28090.9 16831.2 L 28752 16538.8 L 29413.2 16230.6 L 30074.3 15905.1 L 30735.5 15565.5 L 31396.7 15204.3 L 32057.8 14823 L 32719 14419.5 L 33380.2 13988.2 L 34041.3 13530.3 L 34702.5 13042.5 L 35363.6 12515 L 36024.8 11950.5 L 36685.9 11340 L 37347.1 10678.3 L 38008.3 9958.69 L 38669.4 9169.4 L 39330.6 8298.14 L 39991.7 7333.87 L 40652.9 6255.02 L 41314.1 5038.8 L 41975.2 3654.53 L 42636.4 2060.37 L 43297.6 187.801 "/>
<path transform="matrix(.00359712,0,0,-.00359712,0,138)" stroke-width="110.783" stroke-linecap="butt" stroke-dasharray="830.895,830.895" stroke-miterlimit="10" stroke-linejoin="miter" fill="none" stroke="#0000ff" d="M 1644.44 16430.9 L 2183.24 16328 L 2722.04 16218.2 L 3260.84 16109.1 L 3799.63 15994.5 L 4338.43 15886.7 L 4877.22 15766.4 L 5416.02 15653.8 L 5954.82 15527.8 L 6493.61 15409.7 L 7032.41 15285.2 L 7571.21 15155.7 L 8110.01 15027 L 8648.81 14893.3 L 9187.61 14759.6 L 9726.4 14620.9 L 10265.2 14483.2 L 10804 14339.8 L 11342.8 14191.7 L 11881.6 14043.9 L 12420.4 13891.4 L 12959.2 13734.6 L 13498 13572.5 L 14036.8 13411.6 L 14575.6 13240.3 L 15114.4 13070.3 L 15653.2 12895.5 L 16192 12716.8 L 16730.8 12528.1 L 17269.6 12340.2 L 17808.4 12148.7 L 18347.2 11947.9 L 18886 11743.6 L 19424.8 11535.5 L 19963.6 11317.6 L 20502.4 11097.6 L 21041.2 10868.2 L 21580 10630.6 L 22118.8 10389.8 L 22657.6 10141.9 L 23196.4 9880.1 L 23735.2 9616.43 L 24274 9341.11 L 24812.8 9058.1 L 25351.6 8764.03 L 25890.4 8463.6 L 26429.2 8147.02 L 26968 7824.86 L 27506.7 7483.74 L 28045.6 7132.04 L 28584.3 6767.55 L 29123.1 6389.21 L 29661.9 5994.42 L 30200.7 5582.99 L 30739.5 5151.16 L 31278.3 4700.38 L 31817.1 4231.52 L 32355.9 3737.26 L 32894.7 3218.29 L 33433.5 2671.41 L 33972.3 2099.24 L 34511.1 1491.55 L 35049.9 853 L 35588.7 171.348 "/>
<path transform="matrix(.00359712,0,0,-.00359712,0,138)" d="M 1323.03 2383.3 C 1090.17 2383.3 840.672 2272.41 618.891 2070.05 C 338.891 1812.22 175.328 1474.02 175.328 1149.66 C 175.328 761.547 427.609 487.094 779.672 487.094 C 1356.3 487.094 1916.3 1069.27 1946.78 1695.8 C 1966.19 2086.67 1694.52 2383.3 1323.03 2383.3 Z M 1298.08 2291.81 C 1517.09 2291.81 1655.7 2131.03 1655.7 1870.44 C 1655.7 1571.05 1525.41 1166.3 1345.22 905.703 C 1192.73 686.703 1020.86 578.578 826.813 578.578 C 593.938 578.578 466.422 747.688 466.422 1047.09 C 466.422 1307.67 605.031 1720.73 771.359 1961.92 C 926.609 2186.47 1095.72 2291.81 1298.08 2291.81 " fill="#ec008c"/>
<path transform="matrix(.00359712,0,0,-.00359712,0,138)" d="M 2838.19 1386.8 L 2309 1386.8 L 2309 1355.78 C 2429.17 1344.16 2458.25 1328.64 2458.25 1272.42 C 2458.25 1245.3 2450.5 1200.7 2436.94 1152.25 L 2198.5 295.453 C 2163.61 183.031 2150.05 171.406 2041.5 152.016 L 2041.5 121 L 3028.16 121 L 3140.58 467.984 L 3101.81 479.609 C 3033.97 340.047 2981.63 278.016 2896.34 235.375 C 2828.5 202.422 2749.02 190.781 2580.38 190.781 C 2433.06 190.781 2384.59 206.297 2384.59 256.688 C 2384.59 270.266 2394.28 316.781 2403.98 353.609 L 2642.41 1212.34 C 2671.48 1311.2 2721.88 1348.03 2838.19 1355.78 L 2838.19 1386.8 " fill="#ec008c"/>
<path transform="matrix(.00359712,0,0,-.00359712,0,138)" d="M 51603 38089.3 C 51370.2 38089.3 51120.7 37978.4 50898.9 37776 C 50618.9 37518.2 50455.3 37180 50455.3 36855.7 C 50455.3 36467.5 50707.6 36193.1 51059.7 36193.1 C 51636.3 36193.1 52196.3 36775.3 52226.8 37401.8 C 52246.2 37792.7 51974.5 38089.3 51603 38089.3 Z M 51578.1 37997.8 C 51797.1 37997.8 51935.7 37837 51935.7 37576.4 C 51935.7 37277 51805.4 36872.3 51625.2 36611.7 C 51472.7 36392.7 51300.9 36284.6 51106.8 36284.6 C 50873.9 36284.6 50746.4 36453.7 50746.4 36753.1 C 50746.4 37013.7 50885 37426.7 51051.4 37667.9 C 51206.6 37892.5 51375.7 37997.8 51578.1 37997.8 " fill="#0000ff"/>
<path transform="matrix(.00359712,0,0,-.00359712,0,138)" d="M 53736.5 37092.8 L 53306.2 37092.8 L 53306.2 37061.8 C 53329.5 37059.8 53350.8 37056 53358.5 37056 C 53405.1 37052.1 53424.5 37040.5 53424.5 37019.1 C 53424.5 36972.6 53317.8 36867.9 53145.3 36747.8 L 52850.7 36542.3 L 52953.4 36918.3 C 52982.5 37015.3 53034.8 37054 53149.2 37061.8 L 53149.2 37092.8 L 52620 37092.8 L 52620 37061.8 C 52740.2 37050.2 52769.3 37034.6 52769.3 36978.4 C 52769.3 36951.3 52761.5 36906.7 52748 36858.3 L 52509.5 36001.5 C 52474.6 35885.2 52464.9 35875.5 52350.6 35858 L 52350.6 35827 L 52831.3 35827 L 52831.3 35858 C 52709.2 35871.6 52691.7 35883.2 52691.7 35943.3 C 52691.7 35962.7 52695.6 35980.1 52707.2 36018.9 L 52718.9 36059.6 L 52839 36501.6 L 53073.6 36098.4 C 53120.1 36018.9 53147.3 35951.1 53147.3 35914.2 C 53147.3 35885.2 53120.1 35869.6 53058.1 35863.8 C 53048.4 35863.8 53027.1 35861.9 53001.9 35858 L 53001.9 35827 L 53535 35827 L 53535 35858 C 53412.8 35869.6 53401.2 35875.5 53346.9 35966.6 L 53009.6 36553.9 L 53591.2 36992 C 53645.4 37032.7 53690 37054 53736.5 37061.8 L 53736.5 37092.8 " fill="#0000ff"/>
<path transform="matrix(.00359712,0,0,-.00359712,0,138)" d="M 1070.58 37506.9 C 1106.63 37515.2 1126.03 37518 1156.52 37518 C 1314.55 37518 1356.13 37448.7 1483.64 36971.8 C 1530.77 36791.7 1597.31 36467.3 1597.31 36420.2 C 1597.31 36375.8 1580.67 36331.5 1539.09 36281.6 C 1453.16 36167.9 1397.7 36095.8 1367.22 36062.6 C 1309 36001.6 1275.73 35979.4 1239.69 35979.4 C 1223.06 35979.4 1203.66 35987.7 1173.16 36009.9 C 1131.58 36043.2 1101.08 36057 1070.58 36057 C 1009.59 36057 962.469 36009.9 962.469 35948.9 C 962.469 35879.6 1023.45 35826.9 1103.84 35826.9 C 1281.27 35826.9 1644.44 36242.8 1943.83 36791.7 C 2132.34 37132.6 2209.97 37332.2 2209.97 37468.1 C 2209.97 37551.3 2140.66 37620.5 2057.5 37620.5 C 1993.73 37620.5 1949.38 37579 1949.38 37518 C 1949.38 37476.4 1971.56 37445.9 2027 37409.9 C 2079.67 37379.4 2099.08 37354.4 2099.08 37315.6 C 2099.08 37204.7 1996.5 36988.5 1760.86 36597.6 L 1705.42 36919.2 C 1663.84 37163.1 1508.59 37620.5 1467.02 37620.5 L 1455.92 37620.5 C 1453.16 37617.8 1442.06 37617.8 1430.97 37617.8 C 1406.02 37615 1306.22 37598.4 1159.3 37570.7 C 1145.44 37567.9 1109.39 37559.6 1070.58 37554 L 1070.58 37506.9 "/>
<path transform="matrix(.00359712,0,0,-.00359712,0,138)" d="M 52646.4 1430.72 C 52624.3 1405.77 52610.4 1389.14 52585.4 1355.86 C 52521.7 1272.7 52488.4 1244.98 52457.9 1244.98 C 52416.3 1244.98 52391.4 1281.02 52372 1358.64 C 52366.4 1380.81 52363.7 1397.45 52360.9 1405.77 C 52291.6 1685.77 52261.1 1813.28 52261.1 1854.86 C 52383.1 2068.33 52482.9 2190.31 52532.8 2190.31 C 52549.4 2190.31 52571.6 2181.98 52599.3 2168.13 C 52632.6 2148.72 52652 2143.17 52674.2 2143.17 C 52732.4 2143.17 52771.2 2184.77 52771.2 2242.98 C 52771.2 2301.19 52724.1 2345.55 52657.5 2345.55 C 52535.5 2345.55 52430.2 2245.75 52238.9 1949.13 L 52208.4 2101.59 C 52169.6 2290.11 52139.1 2345.55 52064.3 2345.55 C 52003.3 2345.55 51909 2320.59 51739.9 2265.16 L 51709.4 2254.06 L 51720.5 2212.48 C 51825.9 2237.44 51850.8 2242.98 51875.8 2242.98 C 51945.1 2242.98 51961.7 2218.03 52000.5 2051.69 L 52080.9 1710.72 L 51853.6 1386.36 C 51798.1 1303.19 51742.7 1253.3 51712.2 1253.3 C 51695.6 1253.3 51667.8 1261.61 51640.1 1278.25 C 51604.1 1297.66 51573.6 1305.97 51551.4 1305.97 C 51498.7 1305.97 51457.2 1264.39 51457.2 1208.94 C 51457.2 1136.86 51512.6 1092.5 51595.8 1092.5 C 51681.7 1092.5 51715 1117.45 51853.6 1286.56 C 51928.4 1375.27 51986.6 1450.13 52103.1 1610.91 L 52186.3 1278.25 C 52222.3 1136.86 52258.3 1092.5 52347 1092.5 C 52452.4 1092.5 52524.5 1159.03 52685.3 1408.55 L 52646.4 1430.72 "/>
<path transform="matrix(.00359712,0,0,-.00359712,0,138)" d="M 8894.49 14673 C 8894.49 15021.2 8612.22 15303.5 8264.02 15303.5 C 7915.82 15303.5 7633.55 15021.2 7633.55 14673 C 7633.55 14324.8 7915.82 14042.5 8264.02 14042.5 C 8612.22 14042.5 8894.49 14324.8 8894.49 14673 Z M 8264.02 14673 "/>
<path transform="matrix(.00359712,0,0,-.00359712,0,138)" d="M 11200.2 15703.7 C 11075.4 15712 11047.7 15739.7 10950.7 15944.9 L 10260.4 17519.5 L 10205 17519.5 L 9628.34 16158.3 C 9450.92 15753.6 9417.66 15709.2 9284.58 15703.7 L 9284.58 15651 L 9833.48 15651 L 9833.48 15703.7 C 9700.42 15703.7 9644.97 15739.7 9644.97 15817.3 C 9644.97 15850.6 9653.3 15889.4 9667.16 15925.5 L 9794.67 16249.8 L 10521 16249.8 L 10634.7 15983.7 C 10667.9 15908.8 10687.3 15836.7 10687.3 15797.9 C 10687.3 15728.6 10640.2 15706.4 10493.3 15703.7 L 10493.3 15651 L 11200.2 15651 L 11200.2 15703.7 Z M 9841.8 16363.5 L 10160.6 17125.8 L 10482.2 16363.5 L 9841.8 16363.5 Z "/>
<path transform="matrix(.00359712,0,0,-.00359712,0,138)" d="M 16774.9 9629.51 C 16774.9 9977.71 16492.7 10260 16144.5 10260 C 15796.3 10260 15514 9977.71 15514 9629.51 C 15514 9281.3 15796.3 8999.04 16144.5 8999.04 C 16492.7 8999.04 16774.9 9281.3 16774.9 9629.51 Z M 16144.5 9629.51 "/>
<path transform="matrix(.00359712,0,0,-.00359712,0,138)" d="M 18841.8 11892.5 L 18816.8 12519 L 18758.6 12519 C 18742 12460.8 18697.6 12427.5 18642.2 12427.5 C 18617.2 12427.5 18575.6 12435.9 18534.1 12452.5 C 18398.2 12496.8 18259.6 12519 18129.3 12519 C 17902 12519 17671.9 12433.1 17500 12280.6 C 17306 12108.7 17200.6 11850.9 17200.6 11546 C 17200.6 11288.2 17283.8 11049.8 17425.2 10891.7 C 17591.5 10711.5 17846.5 10606.2 18121 10606.2 C 18434.3 10606.2 18708.7 10733.7 18877.8 10958.3 L 18827.9 11008.2 C 18622.8 10811.3 18439.8 10728.2 18209.7 10728.2 C 18035.1 10728.2 17879.8 10783.6 17760.6 10889 C 17608.1 11024.8 17522.2 11274.3 17522.2 11582 C 17522.2 12083.8 17780 12408.1 18182 12408.1 C 18340 12408.1 18484.2 12349.9 18595 12239 C 18683.8 12150.3 18725.3 12072.7 18778 11892.5 L 18841.8 11892.5 "/>
<path transform="matrix(.00359712,0,0,-.00359712,0,138)" d="M 29383.7 16564.3 C 29383.7 16912.5 29101.4 17194.8 28753.2 17194.8 C 28405 17194.8 28122.7 16912.5 28122.7 16564.3 C 28122.7 16216.1 28405 15933.9 28753.2 15933.9 C 29101.4 15933.9 29383.7 16216.1 29383.7 16564.3 Z M 28753.2 16564.3 "/>
<path transform="matrix(.00359712,0,0,-.00359712,0,138)" d="M 29779.1 19378.2 L 29779.1 19325.5 C 30012 19311.7 30045.3 19281.2 30045.3 19076 L 30045.3 17845.2 C 30045.3 17640 30009.2 17604 29779.1 17595.7 L 29779.1 17543 L 30705 17543 C 30921.3 17543 31118.1 17601.2 31220.7 17695.5 C 31320.5 17784.2 31375.9 17908.9 31375.9 18042 C 31375.9 18164 31326 18274.9 31240.1 18355.3 C 31156.9 18430.1 31082.1 18463.4 30901.9 18507.7 C 31046 18543.8 31104.3 18571.5 31170.8 18629.7 C 31240.1 18690.7 31281.7 18793.3 31281.7 18906.9 C 31281.7 19217.4 31034.9 19378.2 30555.3 19378.2 L 29779.1 19378.2 Z M 30328 18446.8 C 30596.9 18446.8 30724.5 18432.9 30824.3 18391.3 C 30982.3 18324.8 31057.1 18213.9 31057.1 18039.2 C 31057.1 17889.5 30998.9 17781.4 30888 17717.7 C 30799.3 17667.8 30685.6 17645.6 30502.7 17645.6 C 30366.8 17645.6 30328 17670.5 30328 17759.2 L 30328 18446.8 Z M 30328 18557.6 L 30328 19192.5 C 30328 19250.7 30347.4 19275.6 30389 19275.6 L 30511 19275.6 C 30829.8 19275.6 30998.9 19142.6 30998.9 18895.8 C 30998.9 18679.6 30852 18557.6 30591.4 18557.6 L 30328 18557.6 "/>
</g>
</svg>
