<?xml version="1.0" encoding="UTF-8" standalone="no"?>
<!DOCTYPE svg PUBLIC "-//W3C//DTD SVG 1.1//EN" "http://www.w3.org/Graphics/SVG/1.1/DTD/svg11.dtd">
<svg xmlns="http://www.w3.org/2000/svg" xmlns:xlink="http://www.w3.org/1999/xlink" version="1.1" width="108pt" height="105pt" viewBox="0 0 108 105">
<g enable-background="new">
<path transform="matrix(.00359712,0,0,-.00359712,0,105)" stroke-width="110.783" stroke-linecap="butt" stroke-miterlimit="10" stroke-linejoin="miter" fill="none" stroke="#000000" d="M 1201.24 921.293 L 26418.7 921.293 "/>
<path transform="matrix(.00359712,0,0,-.00359712,0,105)" d="M 28480.9 69.5 L 28433.8 69.5 C 28331.2 69.5 28273 97.2344 28275.8 149.906 C 28275.8 158.219 28278.6 169.313 28281.3 180.391 L 28736 1779.97 L 28533.6 1779.97 L 28492 1649.67 C 28447.7 1777.19 28392.2 1821.55 28278.6 1821.55 C 27912.6 1821.55 27466.3 1311.47 27466.3 890.078 C 27466.3 693.25 27574.4 568.5 27749.1 568.5 C 27945.9 568.5 28073.4 671.078 28320.2 1023.16 L 28073.4 210.891 C 28037.4 100 27993 77.8281 27812.8 63.9531 L 27812.8 19.6094 L 28480.9 19.6094 L 28480.9 69.5 Z M 28286.9 1760.56 C 28378.4 1760.56 28450.4 1685.72 28450.4 1591.45 C 28450.4 1361.36 28261.9 967.703 28073.4 809.688 C 28001.3 748.703 27926.5 715.438 27860 715.438 C 27765.7 715.438 27704.7 798.594 27704.7 928.891 C 27704.7 1134.05 27848.9 1441.75 28029.1 1624.72 C 28115 1710.66 28206.5 1760.56 28286.9 1760.56 "/>
<path transform="matrix(.00359712,0,0,-.00359712,0,105)" d="M 29658.3 398.172 C 29642.8 380.719 29633 369.094 29615.6 345.828 C 29571 287.672 29547.8 268.297 29526.4 268.297 C 29497.4 268.297 29479.9 293.484 29466.3 347.766 C 29462.5 363.281 29460.5 374.906 29458.6 380.719 C 29410.1 576.5 29388.8 665.672 29388.8 694.75 C 29474.1 844 29543.9 929.297 29578.8 929.297 C 29590.4 929.297 29605.9 923.484 29625.3 913.781 C 29648.6 900.219 29662.1 896.344 29677.6 896.344 C 29718.3 896.344 29745.5 925.422 29745.5 966.125 C 29745.5 1006.83 29712.5 1037.84 29666 1037.84 C 29580.7 1037.84 29507 968.063 29373.3 760.656 L 29352 867.266 C 29324.8 999.078 29303.5 1037.84 29251.2 1037.84 C 29208.5 1037.84 29142.6 1020.41 29024.4 981.641 L 29003.1 973.875 L 29010.8 944.797 C 29084.5 962.25 29101.9 966.125 29119.4 966.125 C 29167.8 966.125 29179.5 948.688 29206.6 832.375 L 29262.8 593.953 L 29103.9 367.156 C 29065.1 309 29026.3 274.109 29005 274.109 C 28993.4 274.109 28974 279.922 28954.6 291.547 C 28929.4 305.125 28908.1 310.938 28892.6 310.938 C 28855.7 310.938 28826.7 281.859 28826.7 243.094 C 28826.7 192.688 28865.4 161.672 28923.6 161.672 C 28983.7 161.672 29006.9 179.125 29103.9 297.375 C 29156.2 359.391 29196.9 411.734 29278.3 524.172 L 29336.5 291.547 C 29361.7 192.688 29386.9 161.672 29448.9 161.672 C 29522.6 161.672 29573 208.203 29685.4 382.656 L 29658.3 398.172 "/>
<path transform="matrix(.00359712,0,0,-.00359712,0,105)" stroke-width="110.783" stroke-linecap="butt" stroke-miterlimit="10" stroke-linejoin="miter" fill="none" stroke="#000000" d="M 1201.24 921.293 L 1201.24 26138.7 "/>
<path transform="matrix(.00359712,0,0,-.00359712,0,105)" d="M 1092.94 27402.5 L 1045.81 27402.5 C 943.234 27402.5 885.016 27430.2 887.797 27482.9 C 887.797 27491.2 890.563 27502.3 893.344 27513.4 L 1347.98 29113 L 1145.61 29113 L 1104.03 28982.7 C 1059.67 29110.2 1004.23 29154.5 890.563 29154.5 C 524.641 29154.5 78.3125 28644.5 78.3125 28223.1 C 78.3125 28026.3 186.422 27901.5 361.078 27901.5 C 557.906 27901.5 685.422 28004.1 932.156 28356.2 L 685.422 27543.9 C 649.391 27433 605.031 27410.8 424.828 27397 L 424.828 27352.6 L 1092.94 27352.6 L 1092.94 27402.5 Z M 898.891 29093.6 C 990.375 29093.6 1062.44 29018.7 1062.44 28924.5 C 1062.44 28694.4 873.938 28300.7 685.422 28142.7 C 613.344 28081.7 538.5 28048.4 471.969 28048.4 C 377.703 28048.4 316.719 28131.6 316.719 28261.9 C 316.719 28467 460.875 28774.8 641.063 28957.7 C 727 29043.7 818.484 29093.6 898.891 29093.6 "/>
<path transform="matrix(.00359712,0,0,-.00359712,0,105)" d="M 1423.08 28292.4 C 1448.28 28298.2 1461.84 28300.1 1483.17 28300.1 C 1593.66 28300.1 1622.73 28251.7 1711.91 27918.3 C 1744.86 27792.3 1791.38 27565.5 1791.38 27532.5 C 1791.38 27501.5 1779.75 27470.5 1750.67 27435.6 C 1690.58 27356.1 1651.81 27305.7 1630.48 27282.5 C 1589.78 27239.8 1566.52 27224.3 1541.33 27224.3 C 1529.69 27224.3 1516.13 27230.1 1494.8 27245.6 C 1465.72 27268.9 1444.41 27278.6 1423.08 27278.6 C 1380.44 27278.6 1347.48 27245.6 1347.48 27203 C 1347.48 27154.5 1390.13 27117.7 1446.34 27117.7 C 1570.39 27117.7 1824.33 27408.5 2033.69 27792.3 C 2165.5 28030.7 2219.77 28170.3 2219.77 28265.2 C 2219.77 28323.4 2171.31 28371.8 2113.16 28371.8 C 2068.58 28371.8 2037.56 28342.8 2037.56 28300.1 C 2037.56 28271 2053.06 28249.7 2091.83 28224.5 C 2128.67 28203.2 2142.23 28185.8 2142.23 28158.6 C 2142.23 28081.1 2070.52 27929.9 1905.75 27656.6 L 1866.98 27881.4 C 1837.91 28052 1729.34 28371.8 1700.27 28371.8 L 1692.52 28371.8 C 1690.58 28369.9 1682.83 28369.9 1675.08 28369.9 C 1657.63 28368 1587.84 28356.3 1485.11 28337 C 1475.42 28335 1450.22 28329.2 1423.08 28325.3 L 1423.08 28292.4 "/>
<path transform="matrix(.00359712,0,0,-.00359712,0,105)" stroke-width="332.357" stroke-linecap="butt" stroke-miterlimit="10" stroke-linejoin="miter" fill="none" stroke="#000000" d="M 3092.55 22986.5 C 4138.79 17052.9 4758.27 12999.1 9018.67 8738.72 C 13279.1 4478.32 17332.8 3858.84 23266.5 2812.61 "/>
<path transform="matrix(.00359712,0,0,-.00359712,0,105)" stroke-width="332.357" stroke-linecap="butt" stroke-miterlimit="10" stroke-linejoin="miter" fill="none" stroke="#000000" d="M 4353.41 22986.5 C 5311.62 17552.1 6755.79 14279.8 10657.8 10377.8 C 14559.7 6475.84 17832 5031.67 23266.5 4073.47 "/>
<path transform="matrix(.00359712,0,0,-.00359712,0,105)" stroke-width="332.357" stroke-linecap="butt" stroke-miterlimit="10" stroke-linejoin="miter" fill="none" stroke="#000000" d="M 20114.3 921.293 L 1201.24 19834.4 "/>
<path transform="matrix(.00359712,0,0,-.00359712,0,105)" stroke-width="110.783" stroke-linecap="butt" stroke-dasharray="110.783,553.929" stroke-miterlimit="10" stroke-linejoin="miter" fill="none" stroke="#000000" d="M 10657.8 10377.8 L 10657.8 921.293 "/>
<path transform="matrix(.00359712,0,0,-.00359712,0,105)" stroke-width="110.783" stroke-linecap="butt" stroke-dasharray="110.783,553.929" stroke-miterlimit="10" stroke-linejoin="miter" fill="none" stroke="#000000" d="M 10657.8 10377.8 L 1201.24 10377.8 "/>
<path transform="matrix(.00359712,0,0,-.00359712,0,105)" stroke-width="332.357" stroke-linecap="butt" stroke-miterlimit="10" stroke-linejoin="miter" fill="none" stroke="#000000" d="M 13809.9 921.293 L 1201.24 19834.4 "/>
<path transform="matrix(.00359712,0,0,-.00359712,0,105)" stroke-width="110.783" stroke-linecap="butt" stroke-dasharray="110.783,553.929" stroke-miterlimit="10" stroke-linejoin="miter" fill="none" stroke="#000000" d="M 6812.11 11638.7 L 6812.11 921.293 "/>
<path transform="matrix(.00359712,0,0,-.00359712,0,105)" stroke-width="110.783" stroke-linecap="butt" stroke-dasharray="110.783,553.929" stroke-miterlimit="10" stroke-linejoin="miter" fill="none" stroke="#000000" d="M 6812.11 11638.7 L 1201.24 11638.7 "/>
</g>
</svg>
