<?xml version="1.0" encoding="UTF-8" standalone="no"?>
<!DOCTYPE svg PUBLIC "-//W3C//DTD SVG 1.1//EN" "http://www.w3.org/Graphics/SVG/1.1/DTD/svg11.dtd">
<svg xmlns="http://www.w3.org/2000/svg" xmlns:xlink="http://www.w3.org/1999/xlink" version="1.1" width="249pt" height="148pt" viewBox="0 0 249 148">
<g enable-background="new">
<path transform="matrix(.00359712,0,0,-.00359712,0,148)" stroke-width="110.783" stroke-linecap="butt" stroke-miterlimit="10" stroke-linejoin="miter" fill="none" stroke="#000000" d="M 7722.01 4368.77 L 7722.01 37339.4 "/>
<path transform="matrix(.00359712,0,0,-.00359712,0,148)" stroke-width="88.6236" stroke-linecap="round" stroke-linejoin="round" fill="none" stroke="#000000" d="M 7278.87 37007.1 C 7445.05 37034.8 7694.32 37339.4 7722.01 37422.5 C 7749.7 37339.4 7998.96 37034.8 8165.14 37007.1 "/>
<path transform="matrix(.00359712,0,0,-.00359712,0,148)" d="M 7275.13 38775.7 L 7275.13 38645 C 7275.13 38642.4 7275.13 38637 7275.13 38637 C 7275.13 38618.4 7285.78 38607.7 7309.78 38607.7 C 7421.75 38615.7 7435.08 38615.7 7448.41 38623.7 C 7461.73 38629 7469.73 38642.4 7469.73 38655.7 C 7469.73 38661 7469.73 38666.4 7467.08 38674.4 C 7461.73 39114.3 7459.08 39404.8 7459.08 39548.8 L 7459.08 40023.4 C 7536.39 40074 7549.72 40084.7 7549.72 40098 C 7549.72 40106 7544.39 40114 7525.72 40132.7 C 7461.73 40188.7 7440.41 40204.6 7360.44 40258 C 7312.44 40204.6 7299.11 40186 7253.8 40132.7 L 6963.2 40132.7 L 6963.2 40647.2 L 7635.03 40647.2 C 7640.36 40647.2 7651.03 40655.2 7651.03 40663.2 C 7651.03 40671.2 7645.69 40679.2 7635.03 40689.9 C 7536.39 40785.8 7504.39 40815.2 7387.09 40908.5 C 7317.78 40825.8 7296.45 40799.2 7227.13 40708.5 L 6072.75 40708.5 C 5982.11 40708.5 5910.13 40716.5 5840.81 40735.2 L 5859.47 40631.2 C 5952.78 40644.5 5995.44 40647.2 6072.75 40647.2 L 6328.69 40647.2 L 6328.69 40132.7 L 6072.75 40132.7 C 5982.11 40191.3 5952.78 40210 5859.47 40260.6 C 5870.13 40103.3 5872.8 39980.7 5872.8 39772.8 C 5872.8 39458.2 5867.47 38965 5859.47 38618.4 C 5859.47 38615.7 5859.47 38613 5859.47 38613 C 5859.47 38594.4 5872.8 38583.7 5899.45 38583.7 C 5931.45 38583.7 5995.44 38589 6014.09 38594.4 C 6035.42 38602.4 6040.75 38607.7 6040.75 38631.7 C 6043.42 38634.4 6043.42 38639.7 6043.42 38645 L 6043.42 38775.7 L 7275.13 38775.7 Z M 6800.56 38837 L 6501.98 38837 L 6501.98 40071.3 L 6800.56 40071.3 L 6800.56 38837 Z M 6963.2 38837 L 6963.2 40071.3 L 7275.13 40071.3 L 7275.13 38837 L 6963.2 38837 Z M 6043.42 38837 L 6043.42 40071.3 L 6328.69 40071.3 L 6328.69 38837 L 6043.42 38837 Z M 6501.98 40647.2 L 6800.56 40647.2 L 6800.56 40132.7 L 6501.98 40132.7 L 6501.98 40647.2 Z M 5142.31 39596.8 C 5270.28 39751.4 5318.27 39818.1 5448.91 40042 L 5448.91 39500.8 C 5448.91 39407.5 5440.91 38898.3 5435.58 38610.4 C 5435.58 38581 5446.23 38573 5478.23 38573 C 5566.2 38573 5619.53 38586.4 5619.53 38613 C 5619.53 38615.7 5619.53 38621 5616.86 38623.7 L 5616.86 40018 C 5664.84 40042 5688.84 40060.7 5688.84 40074 C 5688.84 40098 5638.19 40111.3 5499.56 40130 C 5619.53 40343.3 5678.19 40471.3 5819.48 40831.2 C 5899.45 40836.5 5926.13 40847.2 5926.13 40871.1 C 5926.13 40879.1 5915.45 40889.8 5907.45 40895.1 C 5888.8 40905.8 5870.13 40913.8 5763.5 40940.5 C 5734.17 40948.5 5686.17 40961.8 5627.53 40977.8 C 5616.86 40831.2 5558.2 40612.5 5454.23 40340.6 C 5347.59 40058 5243.63 39847.4 5099.66 39623.5 L 5142.31 39596.8 "/>
<path transform="matrix(.00359712,0,0,-.00359712,0,148)" d="M 9190.97 40609.9 C 9233.63 40687.2 9233.63 40687.2 9313.61 40836.5 C 9398.92 40844.5 9433.58 40857.8 9433.58 40881.8 C 9433.58 40900.5 9401.58 40913.8 9268.28 40951.1 C 9238.95 40956.5 9193.64 40969.8 9137.66 40985.8 C 9113.66 40868.5 9057.67 40708.5 8977.69 40527.2 C 8879.05 40303.3 8783.08 40135.3 8668.44 39986 L 8692.42 39964.7 C 8857.72 40103.3 8967.03 40234 9108.33 40460.6 C 9180.31 40287.3 9254.95 40162 9380.25 40012.7 C 9286.95 39919.4 9206.97 39842.1 9113.66 39767.4 C 8959.03 39636.8 8884.38 39588.8 8553.8 39402.2 L 8572.45 39370.2 C 8721.75 39431.5 8785.73 39458.2 8881.72 39503.5 C 8887.05 39284.9 8887.05 39284.9 8887.05 39191.6 C 8887.05 39090.3 8887.05 38981 8881.72 38599.7 C 8881.72 38575.7 8889.72 38567.7 8921.7 38567.7 C 9036.34 38567.7 9057.67 38573 9060.34 38607.7 L 9060.34 38719.7 L 9788.16 38719.7 L 9788.16 38597 C 9788.16 38575.7 9796.16 38573 9830.81 38573 C 9873.47 38573 9934.78 38578.4 9953.45 38583.7 C 9964.11 38589 9969.44 38594.4 9969.44 38610.4 C 9961.45 38951.6 9961.45 39020.9 9961.45 39122.3 C 9961.45 39178.2 9961.45 39242.2 9961.45 39338.2 C 10017.4 39372.8 10033.4 39386.2 10033.4 39402.2 C 10033.4 39410.2 10022.8 39423.5 9996.11 39444.8 C 9937.45 39487.5 9918.8 39498.2 9857.47 39540.8 C 9820.16 39500.8 9809.48 39487.5 9772.16 39444.8 L 9060.34 39444.8 C 8999.02 39484.8 8983.02 39495.5 8932.38 39527.5 C 9126.98 39623.5 9305.61 39743.4 9484.23 39898 C 9668.19 39711.4 9849.47 39591.5 10166.7 39444.8 C 10212 39556.8 10241.4 39586.1 10345.4 39623.5 L 10345.4 39663.4 C 10014.8 39708.8 9809.48 39791.4 9569.55 39975.4 C 9708.17 40111.3 9798.83 40228.6 9961.45 40481.9 C 10068.1 40495.2 10097.4 40503.2 10097.4 40527.2 C 10097.4 40535.2 10089.4 40545.9 10070.8 40567.2 C 9996.11 40636.5 9974.78 40660.5 9897.47 40729.8 C 9844.14 40681.9 9828.14 40665.9 9777.5 40609.9 L 9190.97 40609.9 Z M 9764.16 40548.6 C 9646.86 40335.3 9577.55 40236.6 9444.23 40084.7 C 9313.61 40210 9238.95 40311.3 9132.31 40505.9 C 9145.66 40527.2 9145.66 40527.2 9158.98 40548.6 L 9764.16 40548.6 Z M 9060.34 39383.5 L 9788.16 39383.5 L 9788.16 38781 L 9060.34 38781 L 9060.34 39383.5 Z M 8393.83 40391.3 L 8393.83 40868.5 C 8500.47 40908.5 8516.47 40919.1 8516.47 40937.8 C 8516.47 40967.1 8460.48 40977.8 8209.88 40999.1 C 8217.88 40903.1 8220.55 40855.2 8220.55 40665.9 L 8220.55 40391.3 L 8007.27 40391.3 C 7937.95 40391.3 7892.63 40396.6 7833.97 40409.9 L 7849.97 40314 C 7913.95 40327.3 7943.28 40330 8007.27 40330 L 8201.88 40330 C 8089.91 39820.7 8009.92 39586.1 7804.64 39170.2 L 7839.3 39151.6 C 8020.59 39415.5 8137.89 39655.5 8241.88 39986 L 8225.88 39631.5 C 8220.55 39540.8 8215.22 39066.3 8212.55 38586.4 C 8212.55 38562.4 8223.2 38554.4 8247.2 38554.4 C 8361.84 38554.4 8396.5 38562.4 8396.5 38594.4 C 8393.83 38813 8393.83 38813 8393.83 40039.4 C 8463.16 39967.4 8524.47 39868.7 8577.78 39743.4 C 8612.45 39663.4 8623.11 39644.8 8647.11 39644.8 C 8681.77 39644.8 8727.08 39740.8 8727.08 39812.7 C 8727.08 39871.4 8687.09 39916.7 8572.45 39991.4 C 8500.47 40036.7 8449.83 40063.3 8393.83 40095.3 L 8393.83 40330 L 8812.39 40330 C 8820.39 40330 8828.39 40335.3 8828.39 40340.6 C 8828.39 40345.9 8825.73 40351.3 8820.39 40359.3 C 8740.42 40441.9 8716.42 40468.6 8631.11 40548.6 C 8580.45 40481.9 8564.45 40460.6 8513.8 40391.3 L 8393.83 40391.3 "/>
<path transform="matrix(.00359712,0,0,-.00359712,0,148)" stroke-width="110.783" stroke-linecap="butt" stroke-miterlimit="10" stroke-linejoin="miter" fill="none" stroke="#000000" d="M 7722.01 4368.77 L 62757.5 4368.77 "/>
<path transform="matrix(.00359712,0,0,-.00359712,0,148)" stroke-width="88.6236" stroke-linecap="round" stroke-linejoin="round" fill="none" stroke="#000000" d="M 62425.1 4811.91 C 62452.8 4645.73 62757.5 4396.46 62840.6 4368.77 C 62757.5 4341.08 62452.8 4091.81 62425.1 3925.64 "/>
<path transform="matrix(.00359712,0,0,-.00359712,0,148)" d="M 65310.6 4081.16 C 65321.3 4081.16 65332 4089.16 65332 4097.16 C 65332 4102.48 65329.3 4107.81 65324 4113.14 C 65238.7 4190.45 65212 4211.78 65121.4 4286.44 C 65073.4 4225.13 65057.4 4206.45 65009.4 4142.47 L 64606.8 4142.47 C 64636.1 4195.8 64638.8 4201.13 64673.5 4262.44 C 64745.5 4273.11 64766.8 4283.77 64766.8 4307.77 C 64766.8 4326.42 64729.5 4337.09 64537.5 4379.75 C 64510.8 4310.44 64486.8 4254.44 64433.5 4142.47 L 64268.2 4142.47 C 64161.6 4142.47 64084.3 4150.47 63991 4169.13 L 64009.6 4070.48 C 64105.6 4078.48 64153.6 4081.16 64270.9 4081.16 L 64404.2 4081.16 C 64372.2 4019.84 64348.2 3977.19 64278.9 3854.55 C 64238.9 3787.89 64230.9 3774.56 64166.9 3665.25 C 64166.9 3662.59 64166.9 3659.92 64166.9 3657.27 C 64166.9 3643.92 64193.6 3635.94 64246.9 3635.94 C 64316.2 3635.94 64332.2 3641.27 64348.2 3678.59 C 64372.2 3718.58 64388.2 3745.23 64398.9 3766.56 C 64537.5 3710.58 64596.2 3683.92 64705.5 3619.94 C 64534.8 3427.98 64348.2 3316.02 64009.6 3201.38 L 64025.6 3166.72 C 64268.2 3209.38 64393.5 3252.03 64542.8 3329.34 C 64654.8 3390.66 64740.1 3454.64 64828.1 3545.28 C 64910.7 3489.3 64950.7 3457.31 65004 3401.33 C 65030.7 3374.66 65044 3366.66 65057.4 3366.66 C 65076 3366.66 65089.4 3403.98 65089.4 3454.64 C 65089.4 3507.97 65076 3553.28 65052 3579.94 C 65030.7 3606.61 65004 3619.94 64918.7 3654.59 C 65017.4 3790.56 65057.4 3875.88 65121.4 4081.16 L 65310.6 4081.16 Z M 64945.4 4081.16 C 64894.8 3905.2 64860.1 3830.55 64774.8 3707.91 C 64673.5 3742.58 64606.8 3763.91 64428.2 3817.22 C 64497.5 3945.19 64545.5 4033.17 64572.2 4081.16 L 64945.4 4081.16 Z M 64905.4 3161.38 C 65201.3 3265.36 65353.3 3345.34 65523.9 3481.3 C 65614.6 3553.28 65681.2 3617.27 65755.9 3710.58 C 65902.5 3497.3 66065.1 3334.67 66278.4 3190.7 C 66321.1 3300.02 66358.4 3324.02 66494.3 3329.34 L 66499.7 3364 C 66195.8 3499.97 66001.1 3638.59 65841.2 3830.55 C 65942.5 3987.84 66022.5 4174.47 66086.5 4390.41 C 66131.8 4545.05 66153.1 4643.69 66177.1 4848.97 L 66454.4 4848.97 C 66459.7 4848.97 66465 4856.97 66465 4864.95 C 66465 4870.3 66462.4 4878.3 66454.4 4886.28 C 66337.1 4984.94 66337.1 4984.94 66233.1 5075.58 C 66169.1 5003.59 66150.4 4982.27 66083.8 4910.28 L 65574.6 4910.28 C 65673.2 5152.89 65713.2 5264.86 65758.5 5416.83 C 65849.2 5435.48 65873.2 5446.16 65873.2 5467.48 C 65873.2 5496.81 65862.5 5499.47 65582.6 5568.78 C 65577.3 5480.81 65550.6 5344.84 65497.3 5139.56 C 65422.6 4846.3 65342.6 4638.34 65174.7 4297.09 L 65206.7 4273.11 C 65316 4419.73 65361.3 4486.39 65428 4603.69 C 65486.6 4267.78 65539.9 4094.48 65667.9 3854.55 C 65611.9 3766.56 65563.9 3702.58 65499.9 3630.59 C 65342.6 3454.64 65198.7 3350.67 64889.4 3196.05 L 64905.4 3161.38 Z M 65982.5 4848.97 C 65947.8 4499.72 65875.8 4249.11 65737.2 3977.19 C 65601.2 4193.13 65537.3 4366.42 65467.9 4678.34 C 65499.9 4742.33 65518.6 4779.66 65550.6 4848.97 L 65982.5 4848.97 Z M 64796.1 4958.27 L 65366.6 4958.27 C 65380 4958.27 65390.6 4966.27 65390.6 4974.27 C 65390.6 4979.59 65385.3 4990.27 65377.3 4998.27 C 65294.6 5067.58 65268 5091.58 65180 5160.89 C 65134.7 5099.56 65121.4 5080.91 65081.4 5019.59 L 64796.1 5019.59 C 64793.4 5302.19 64793.4 5302.19 64793.4 5318.19 C 64793.4 5352.84 64793.4 5384.83 64793.4 5438.16 C 64809.4 5446.16 64822.8 5451.48 64833.4 5454.16 C 64857.4 5462.14 64873.4 5470.14 64884.1 5475.48 C 64889.4 5480.81 64894.8 5488.81 64894.8 5494.14 C 64894.8 5523.47 64865.4 5528.8 64625.5 5552.8 C 64633.5 5475.48 64638.8 5360.84 64638.8 5288.86 L 64638.8 5019.59 L 64252.2 5019.59 C 64164.3 5019.59 64113.6 5022.25 64001.6 5035.58 L 64017.6 4944.94 C 64132.3 4955.61 64188.3 4958.27 64249.6 4958.27 L 64542.8 4958.27 C 64486.8 4862.3 64465.5 4830.3 64398.9 4744.98 C 64262.9 4571.7 64169.6 4478.39 64001.6 4342.42 L 64017.6 4315.77 C 64142.9 4379.75 64209.6 4425.06 64353.5 4547.7 C 64470.8 4646.34 64540.2 4715.67 64638.8 4835.64 L 64638.8 4731.66 C 64638.8 4654.34 64636.1 4590.36 64630.8 4451.73 C 64630.8 4446.39 64630.8 4443.73 64630.8 4438.41 C 64630.8 4422.41 64646.8 4411.73 64673.5 4411.73 C 64673.5 4411.73 64676.1 4411.73 64678.8 4411.73 C 64692.1 4411.73 64702.8 4414.41 64708.1 4414.41 C 64774.8 4417.08 64790.8 4425.06 64796.1 4451.73 C 64796.1 4686.34 64796.1 4691.67 64796.1 4784.98 C 64884.1 4742.33 64977.4 4665.02 65065.4 4563.7 C 65129.4 4483.72 65134.7 4481.06 65161.3 4481.06 C 65190.7 4481.06 65206.7 4510.38 65206.7 4561.03 C 65206.7 4611.69 65190.7 4667.67 65166.7 4694.34 C 65140 4723.66 65044 4766.31 64924.1 4798.31 C 64817.4 4830.3 64817.4 4830.3 64796.1 4835.64 L 64796.1 4958.27 Z M 64158.9 5459.48 C 64244.2 5355.5 64305.6 5246.2 64340.2 5139.56 C 64358.9 5078.23 64374.9 5054.25 64396.2 5054.25 C 64430.9 5054.25 64486.8 5142.22 64486.8 5192.88 C 64486.8 5267.53 64409.5 5342.17 64185.6 5483.47 L 64158.9 5459.48 Z M 64937.4 5056.91 C 65014.7 5134.23 65014.7 5134.23 65089.4 5216.88 C 65188 5328.84 65188 5328.84 65220 5363.5 C 65233.3 5366.17 65246.7 5368.84 65268 5368.84 C 65292 5371.5 65305.3 5374.17 65310.6 5376.83 C 65318.6 5382.17 65324 5387.5 65324 5395.5 C 65324 5416.83 65286.7 5438.16 65193.3 5470.14 C 65169.3 5478.14 65129.4 5491.47 65078.7 5510.14 C 65052 5384.83 64996 5251.53 64900.1 5075.58 L 64937.4 5056.91 "/>
<path transform="matrix(.00359712,0,0,-.00359712,0,148)" d="M 67925 3806.56 L 68474.2 3806.56 L 68474.2 3779.89 C 68476.9 3761.23 68482.2 3755.91 68498.2 3755.91 C 68538.2 3755.91 68618.2 3766.56 68634.1 3771.89 C 68647.5 3777.23 68652.8 3787.89 68652.8 3798.56 C 68652.8 3801.22 68652.8 3801.22 68652.8 3803.89 C 68650.1 3942.52 68650.1 3985.17 68650.1 4131.81 L 68650.1 4331.77 C 68711.5 4371.75 68727.5 4385.08 68727.5 4403.73 C 68727.5 4411.73 68719.5 4422.41 68698.1 4438.41 C 68652.8 4473.06 68602.2 4507.72 68551.5 4545.05 C 68506.2 4499.72 68495.5 4483.72 68452.9 4438.41 L 67266.5 4438.41 C 67189.2 4486.39 67165.2 4499.72 67082.5 4545.05 C 67087.9 4449.06 67090.5 4382.41 67090.5 4262.44 C 67090.5 4065.16 67087.9 3894.53 67082.5 3726.58 C 67082.5 3705.25 67087.9 3699.92 67111.9 3699.92 C 67159.8 3699.92 67215.8 3705.25 67234.5 3710.58 C 67250.5 3715.91 67255.8 3723.91 67255.8 3742.58 L 67255.8 3806.56 L 67762.4 3806.56 L 67762.4 3609.27 L 67159.8 3609.27 C 67029.2 3609.27 66991.9 3611.94 66901.2 3633.27 L 66917.2 3531.95 C 66999.9 3545.28 67055.9 3547.95 67159.8 3547.95 L 67762.4 3547.95 L 67762.4 3324.02 L 66951.9 3324.02 C 66823.9 3324.02 66767.9 3329.34 66664 3350.67 L 66682.6 3244.03 C 66759.9 3257.36 66829.3 3262.69 66951.9 3262.69 L 69084.7 3262.69 C 69100.7 3262.69 69108.7 3268.02 69108.7 3276.02 C 69108.7 3281.36 69106 3286.69 69098 3294.69 C 68994.1 3374.66 68959.4 3401.33 68852.8 3483.97 L 68698.1 3324.02 L 67925 3324.02 L 67925 3547.95 L 68868.8 3547.95 C 68884.8 3547.95 68895.4 3553.28 68895.4 3563.95 C 68895.4 3566.61 68892.8 3571.95 68882.1 3582.61 C 68791.4 3657.27 68764.8 3678.59 68671.5 3750.56 C 68612.8 3691.92 68591.5 3670.59 68532.8 3609.27 L 67925 3609.27 L 67925 3806.56 Z M 67925 3867.88 L 67925 4099.81 L 68474.2 4099.81 L 68474.2 3867.88 L 67925 3867.88 Z M 67762.4 3867.88 L 67255.8 3867.88 L 67255.8 4099.81 L 67762.4 4099.81 L 67762.4 3867.88 Z M 67925 4161.14 L 67925 4377.08 L 68474.2 4377.08 L 68474.2 4161.14 L 67925 4161.14 Z M 67762.4 4161.14 L 67255.8 4161.14 L 67255.8 4377.08 L 67762.4 4377.08 L 67762.4 4161.14 Z M 67242.5 4859.63 L 68506.2 4859.63 L 68506.2 4798.31 C 68506.2 4795.64 68506.2 4790.31 68506.2 4790.31 C 68506.2 4771.66 68511.5 4768.98 68543.5 4768.98 C 68636.8 4768.98 68676.8 4779.66 68676.8 4800.98 C 68676.8 4803.64 68676.8 4806.31 68676.8 4806.31 C 68671.5 4939.61 68671.5 4998.27 68671.5 5078.23 L 68674.1 5350.17 C 68751.5 5398.16 68764.8 5408.83 68764.8 5424.83 C 68764.8 5430.16 68759.5 5438.16 68743.5 5454.16 C 68676.8 5504.8 68655.5 5520.8 68586.2 5568.78 C 68551.5 5531.47 68516.8 5491.47 68484.8 5454.16 L 67266.5 5454.16 C 67181.2 5507.47 67151.8 5523.47 67063.9 5568.78 C 67071.9 5326.19 67071.9 5320.84 67071.9 5206.2 C 67071.9 5102.23 67071.9 5091.58 67066.5 4792.98 C 67066.5 4790.31 67066.5 4787.64 67066.5 4787.64 C 67066.5 4760.98 67071.9 4758.33 67109.2 4758.33 C 67213.2 4758.33 67242.5 4766.31 67242.5 4792.98 C 67242.5 4792.98 67242.5 4795.64 67242.5 4798.31 L 67242.5 4859.63 Z M 68506.2 5192.88 L 67242.5 5192.88 L 67242.5 5392.83 L 68506.2 5392.83 L 68506.2 5192.88 Z M 68506.2 5131.56 L 68506.2 4920.95 L 67242.5 4920.95 L 67242.5 5131.56 L 68506.2 5131.56 Z M 66685.3 4595.69 C 66767.9 4611.69 66813.3 4614.36 66919.9 4614.36 L 69068.7 4614.36 C 69087.4 4614.36 69095.4 4617.02 69095.4 4625.02 C 69095.4 4630.36 69092.7 4638.34 69087.4 4643.69 C 68986.1 4734.33 68954.1 4760.98 68847.4 4848.97 C 68783.4 4776.98 68762.1 4752.98 68692.8 4675.67 L 66919.9 4675.67 C 66791.9 4675.67 66751.9 4678.34 66672 4699.67 L 66685.3 4595.69 "/>
<path transform="matrix(.00359712,0,0,-.00359712,0,148)" stroke-width="332.357" stroke-linecap="butt" stroke-miterlimit="10" stroke-linejoin="miter" fill="none" stroke="#000000" d="M 7722.01 9885.38 L 46335.8 31950.2 "/>
<path transform="matrix(.00359712,0,0,-.00359712,0,148)" d="M 49432.5 31713.8 L 49432.5 32417.6 L 49920.4 32417.6 C 49933.7 32417.6 49944.4 32425.6 49944.4 32433.6 C 49944.4 32439 49939 32447 49931 32455 C 49835.1 32534.9 49835.1 32534.9 49699.1 32649.6 C 49637.8 32574.9 49621.8 32553.6 49563.1 32479 L 49432.5 32479 L 49432.5 32972.2 C 49496.5 32985.5 49539.1 33006.8 49539.1 33030.8 C 49539.1 33060.1 49472.5 33076.1 49227.2 33102.8 C 49237.9 33022.8 49243.2 32985.5 49243.2 32929.5 L 49243.2 32479 L 48744.7 32479 L 48744.7 32974.8 C 48824.7 32996.2 48854 33009.5 48854 33030.8 C 48854 33060.1 48808.7 33070.8 48544.7 33102.8 C 48555.4 33014.8 48558 32974.8 48558 32900.2 L 48558 32479 L 48371.4 32479 C 48318.1 32479 48238.1 32489.6 48174.1 32505.6 L 48198.1 32401.6 C 48280.8 32415 48318.1 32417.6 48371.4 32417.6 L 48558 32417.6 L 48558 31713.8 L 48259.5 31713.8 C 48206.1 31713.8 48142.2 31724.5 48075.5 31740.5 L 48099.5 31633.8 C 48176.8 31647.2 48214.1 31652.5 48259.5 31652.5 L 49984.4 31652.5 C 50008.4 31652.5 50019 31657.8 50019 31671.2 C 50019 31676.5 50011 31689.8 49997.7 31700.5 C 49896.4 31783.1 49864.4 31807.1 49757.8 31887.1 C 49696.4 31812.5 49677.8 31788.5 49616.5 31713.8 L 49432.5 31713.8 Z M 49243.2 31713.8 L 48744.7 31713.8 L 48744.7 32417.6 L 49243.2 32417.6 L 49243.2 31713.8 Z M 47513 31780.5 C 47641 31916.4 47683.6 31969.8 47819.6 32183 L 47819.6 31612.5 C 47819.6 31361.9 47814.2 31090 47808.9 30791.4 C 47808.9 30762 47819.6 30756.7 47867.6 30756.7 C 47896.9 30756.7 47939.5 30762 47971.5 30767.4 C 47995.5 30772.7 48000.9 30780.7 48003.5 30802 C 48000.9 31058 48000.9 31058 48000.9 31639.2 L 48000.9 32212.4 C 48070.2 32236.3 48083.5 32241.7 48083.5 32260.3 C 48083.5 32281.7 48067.5 32287 47955.5 32303 C 47942.2 32305.7 47942.2 32305.7 47896.9 32311 C 48024.9 32521.6 48072.8 32620.3 48222.1 32974.8 C 48320.8 32990.8 48352.8 33004.2 48352.8 33025.5 C 48352.8 33052.1 48339.4 33057.5 48174.1 33102.8 C 48144.8 33110.8 48099.5 33124.1 48040.8 33140.1 C 48022.2 33006.8 47982.2 32873.5 47888.9 32622.9 C 47752.9 32263 47648.9 32063.1 47475.7 31817.8 L 47513 31780.5 Z M 48112.8 30759.4 C 48363.4 30898 48584.7 31095.3 48800.7 31367.2 C 48910 31372.6 48936.6 31380.6 48936.6 31409.9 C 48936.6 31433.9 48923.3 31439.2 48656.7 31540.5 C 48619.4 31449.9 48584.7 31388.6 48499.4 31263.3 C 48363.4 31063.3 48246.1 30930 48086.2 30794 L 48112.8 30759.4 Z M 49160.6 31495.2 C 49360.5 31311.2 49547.1 31084.6 49659.1 30884.7 C 49712.4 30788.7 49715.1 30786 49741.8 30786 C 49784.4 30786 49813.8 30858 49813.8 30972.7 C 49813.8 31047.3 49797.8 31082 49736.4 31138 C 49589.8 31273.9 49416.5 31396.5 49184.6 31524.5 L 49160.6 31495.2 "/>
<path transform="matrix(.00359712,0,0,-.00359712,0,148)" d="M 50452.6 32020.4 C 50431.3 32017.7 50417.9 32017.7 50412.6 32017.7 C 50364.6 32015.1 50335.3 32015.1 50324.6 32015.1 C 50316.6 32015.1 50276.6 32017.7 50236.6 32020.4 C 50290 31780.5 50292.6 31764.5 50316.6 31764.5 C 50337.9 31764.5 50351.3 31791.1 50367.3 31863.1 C 50484.6 31879.1 50516.6 31887.1 50665.9 31921.8 L 50665.9 31327.2 C 50665.9 31140.6 50663.2 30927.3 50657.9 30759.4 C 50657.9 30756.7 50657.9 30754 50657.9 30751.4 C 50657.9 30732.7 50671.2 30722 50697.8 30722 C 50724.5 30722 50799.2 30727.4 50812.5 30730 C 50833.8 30735.4 50839.1 30743.4 50839.1 30764.7 C 50836.5 30919.3 50836.5 30919.3 50833.8 31351.2 L 50833.8 31961.8 C 50964.5 31993.7 50964.5 31993.7 51039.1 32012.4 C 51052.4 31975.1 51060.4 31951.1 51065.8 31921.8 C 51108.4 31753.8 51108.4 31751.1 51129.8 31751.1 C 51169.7 31751.1 51223 31844.4 51223 31913.8 C 51223 31972.4 51201.7 32015.1 51127.1 32108.4 C 51023.1 32236.3 51007.1 32252.3 50940.5 32316.3 L 50911.1 32300.3 C 50964.5 32209.7 50985.8 32161.7 51020.4 32065.7 C 50748.5 32028.4 50748.5 32028.4 50569.9 32023.1 C 50753.8 32217.7 50873.8 32367 51116.4 32702.9 C 51201.7 32713.6 51231 32726.9 51231 32750.9 C 51231 32774.9 51231 32774.9 50967.1 32865.5 C 50847.1 32558.9 50756.5 32399 50492.6 32020.4 L 50452.6 32020.4 Z M 50260.6 32748.2 C 50377.9 32604.3 50465.9 32473.6 50527.2 32348.3 C 50548.5 32303 50561.9 32287 50577.9 32287 C 50609.9 32287 50649.9 32372.3 50649.9 32436.3 C 50649.9 32492.3 50628.5 32518.9 50500.6 32609.6 C 50697.8 32830.9 50719.2 32860.2 50823.2 33028.2 C 50905.8 33033.5 50940.5 33046.8 50940.5 33073.5 C 50940.5 33100.1 50919.1 33108.1 50665.9 33166.8 C 50636.5 33020.2 50561.9 32825.5 50460.6 32638.9 C 50361.9 32708.2 50300.6 32750.9 50276.6 32766.9 L 50260.6 32748.2 Z M 50266 30839.4 C 50399.3 31124.6 50452.6 31273.9 50521.9 31583.2 C 50588.5 31596.5 50615.2 31609.8 50615.2 31628.5 C 50615.2 31655.2 50561.9 31671.2 50356.6 31703.1 L 50356.6 31652.5 C 50356.6 31569.8 50348.6 31492.5 50329.9 31340.6 C 50306 31154 50284.6 31055.3 50223.3 30860.7 L 50266 30839.4 Z M 50940.5 31724.5 C 50983.1 31569.8 51012.4 31367.2 51025.8 31146 C 51031.1 31092.6 51041.8 31068.6 51060.4 31068.6 C 51071.1 31068.6 51095.1 31087.3 51113.8 31111.3 C 51151.1 31154 51177.7 31223.3 51177.7 31273.9 C 51177.7 31321.9 51156.4 31388.6 51105.8 31497.9 C 51055.1 31607.2 51031.1 31649.8 50967.1 31735.1 L 50940.5 31724.5 Z M 51188.4 32111 C 51353.7 32249.7 51441.7 32340.3 51551 32481.6 C 51697.6 32670.9 51774.9 32793.5 51868.2 32990.8 C 51980.2 32729.6 52033.5 32633.6 52124.2 32513.6 C 52241.5 32356.3 52353.4 32252.3 52558.7 32111 C 52598.7 32215 52628 32241.7 52729.3 32279 L 52729.3 32305.7 C 52497.4 32388.3 52382.8 32452.3 52241.5 32577.6 C 52078.8 32724.2 51993.5 32836.2 51913.5 33017.5 C 51982.9 33036.2 52004.2 33049.5 52004.2 33068.1 C 52004.2 33092.1 52004.2 33092.1 51702.9 33164.1 C 51647 32942.8 51529.6 32689.6 51359 32412.3 C 51281.7 32292.3 51247 32247 51159.1 32151 L 51188.4 32111 Z M 51497.7 31732.5 C 51417.7 31793.8 51393.7 31809.8 51305.7 31863.1 C 51313.7 31705.8 51316.4 31543.2 51316.4 31308.6 C 51316.4 31124.6 51313.7 31007.3 51305.7 30770 C 51308.4 30748.7 51319 30743.4 51351 30743.4 C 51391 30743.4 51444.3 30748.7 51457.7 30751.4 C 51476.3 30756.7 51481.7 30764.7 51481.7 30788.7 L 51481.7 30916.7 L 52204.1 30916.7 L 52204.1 30791.4 C 52204.1 30762 52212.1 30754 52238.8 30754 C 52297.5 30754 52358.8 30762 52374.8 30772.7 C 52382.8 30780.7 52385.4 30791.4 52385.4 30812.7 C 52382.8 30956.7 52380.1 31140.6 52380.1 31449.9 L 52380.1 31639.2 C 52438.8 31671.2 52454.8 31684.5 52454.8 31703.1 C 52454.8 31711.1 52446.8 31721.8 52430.8 31735.1 C 52372.1 31791.1 52350.8 31807.1 52286.8 31863.1 C 52238.8 31807.1 52225.5 31791.1 52180.2 31732.5 L 51497.7 31732.5 Z M 51481.7 31671.2 L 52204.1 31671.2 L 52204.1 30978 L 51481.7 30978 L 51481.7 31671.2 Z M 51585.6 32172.4 C 51503 32172.4 51460.3 32177.7 51391 32191 L 51409.7 32095 C 51463 32105.7 51513.7 32111 51585.6 32111 L 52308.1 32111 C 52332.1 32111 52342.8 32116.4 52342.8 32127 C 52342.8 32132.4 52340.1 32140.4 52332.1 32148.4 C 52252.1 32231 52228.1 32255 52140.2 32332.3 C 52081.5 32268.3 52062.8 32247 52006.9 32172.4 L 51585.6 32172.4 "/>
<path transform="matrix(.00359712,0,0,-.00359712,0,148)" d="M 54906.5 30922 L 54906.5 30783.4 C 54909.1 30756.7 54919.8 30751.4 54962.5 30751.4 C 55074.4 30751.4 55103.8 30762 55106.4 30804.7 C 55093.1 31068.6 55085.1 31585.8 55085.1 32057.7 L 55085.1 32399 C 55165.1 32441.6 55194.4 32465.6 55194.4 32487 C 55194.4 32497.6 55186.4 32508.3 55165.1 32526.9 C 55087.8 32582.9 55063.8 32601.6 54983.8 32654.9 C 54935.8 32601.6 54919.8 32585.6 54871.8 32526.9 L 54455.9 32526.9 L 54455.9 32990.8 C 54530.6 33014.8 54559.9 33033.5 54559.9 33057.5 C 54559.9 33062.8 54554.6 33070.8 54546.6 33076.1 C 54522.6 33092.1 54522.6 33092.1 54250.6 33126.8 C 54266.6 33022.8 54266.6 32998.8 54266.6 32822.9 L 54266.6 32526.9 L 53837.4 32526.9 L 53837.4 32990.8 C 53914.7 33009.5 53949.4 33030.8 53949.4 33057.5 C 53949.4 33084.1 53877.4 33100.1 53642.8 33121.5 C 53653.4 33009.5 53656.1 32956.2 53656.1 32854.9 L 53656.1 32526.9 L 53248.2 32526.9 C 53162.9 32588.3 53136.2 32604.3 53042.9 32654.9 C 53050.9 32526.9 53056.3 32169.7 53056.3 31796.5 C 53056.3 31436.5 53048.3 31018 53037.6 30775.4 C 53040.3 30746 53053.6 30735.4 53090.9 30735.4 C 53093.6 30735.4 53096.3 30735.4 53098.9 30735.4 C 53109.6 30735.4 53122.9 30738 53141.6 30738 C 53216.2 30738 53237.5 30748.7 53248.2 30783.4 L 53248.2 30922 L 54906.5 30922 Z M 54906.5 30983.3 L 54455.9 30983.3 L 54455.9 31727.1 L 54906.5 31727.1 L 54906.5 30983.3 Z M 54906.5 31788.5 L 54455.9 31788.5 L 54455.9 32465.6 L 54906.5 32465.6 L 54906.5 31788.5 Z M 54266.6 30983.3 L 53837.4 30983.3 L 53837.4 31727.1 L 54266.6 31727.1 L 54266.6 30983.3 Z M 54266.6 31788.5 L 53837.4 31788.5 L 53837.4 32465.6 L 54266.6 32465.6 L 54266.6 31788.5 Z M 53656.1 30983.3 L 53248.2 30983.3 L 53248.2 31727.1 L 53656.1 31727.1 L 53656.1 30983.3 Z M 53656.1 31788.5 L 53248.2 31788.5 L 53248.2 32465.6 L 53656.1 32465.6 L 53656.1 31788.5 "/>
<path transform="matrix(.00359712,0,0,-.00359712,0,148)" d="M 55958.5 31372.6 C 55958.5 31223.3 55953.2 30994 55942.5 30762 C 55945.2 30738 55953.2 30727.4 55979.9 30727.4 C 56022.5 30727.4 56089.2 30738 56105.2 30746 C 56118.5 30754 56123.8 30762 56123.8 30783.4 C 56118.5 31050 56118.5 31058 56118.5 31401.9 L 56118.5 31937.8 C 56246.5 31964.4 56246.5 31964.4 56361.1 31991.1 C 56379.8 31932.4 56390.4 31897.8 56401.1 31852.4 C 56409.1 31817.8 56422.4 31801.8 56441.1 31801.8 C 56483.7 31801.8 56531.7 31892.4 56531.7 31972.4 C 56531.7 32012.4 56513.1 32055.1 56473.1 32100.4 C 56398.4 32185.7 56321.1 32257.7 56230.5 32327 L 56203.8 32300.3 C 56278.5 32185.7 56305.1 32137.7 56345.1 32039.1 C 56171.8 32023.1 56161.2 32023.1 55873.2 32009.7 C 56099.8 32281.7 56201.1 32412.3 56401.1 32697.6 C 56491.7 32700.2 56518.4 32710.9 56518.4 32734.9 C 56518.4 32761.5 56475.7 32782.9 56259.8 32860.2 C 56211.8 32724.2 56126.5 32545.6 56014.5 32345.7 C 55945.2 32225.7 55899.9 32151 55798.6 32007.1 C 55694.6 32004.4 55694.6 32004.4 55670.6 32004.4 C 55633.3 32004.4 55606.6 32007.1 55548 32012.4 C 55585.3 31809.8 55598.6 31769.8 55625.3 31769.8 C 55643.9 31769.8 55654.6 31788.5 55675.9 31865.8 C 55873.2 31895.1 55873.2 31895.1 55958.5 31911.1 L 55958.5 31372.6 Z M 55566.6 32724.2 C 55678.6 32598.9 55753.3 32484.3 55793.2 32385.6 C 55830.6 32279 55833.2 32276.3 55859.9 32276.3 C 55897.2 32276.3 55937.2 32361.7 55937.2 32439 C 55937.2 32500.3 55907.9 32540.3 55803.9 32614.9 C 55923.9 32756.2 55969.2 32817.5 56113.2 33038.8 C 56123.8 33036.2 56139.8 33036.2 56142.5 33036.2 C 56214.5 33036.2 56243.8 33046.8 56243.8 33068.1 C 56243.8 33097.5 56243.8 33097.5 55958.5 33198.8 C 55939.9 33078.8 55859.9 32849.5 55763.9 32644.3 C 55699.9 32689.6 55675.9 32705.6 55593.3 32756.2 L 55566.6 32724.2 Z M 57051.6 32902.8 C 57131.6 32966.8 57152.9 32985.5 57235.5 33076.1 C 57323.5 33081.5 57344.9 33089.5 57344.9 33113.5 C 57344.9 33137.5 57315.5 33148.1 57078.3 33214.8 C 57062.3 33116.1 57027.6 32993.5 56987.6 32902.8 L 56814.3 32902.8 C 56737 32953.5 56710.3 32969.5 56625 33017.5 C 56630.4 32910.8 56633 32665.6 56633 32457.6 C 56633 32308.3 56633 32308.3 56625 31991.1 C 56627.7 31967.1 56635.7 31961.8 56657 31961.8 C 56691.7 31961.8 56750.3 31969.8 56769 31977.8 C 56785 31983.1 56790.3 31991.1 56790.3 32012.4 L 56790.3 32084.4 L 57078.3 32084.4 L 57078.3 30996.7 C 57078.3 30970 57072.9 30962 57046.3 30962 C 56883.6 30967.3 56827.7 30970 56649 30986 L 56649 30946 C 56862.3 30895.3 56862.3 30895.3 56891.6 30879.3 C 56947.6 30850 56969 30820.7 56977 30756.7 C 57203.6 30802 57248.9 30834 57248.9 30946 C 57240.9 31140.6 57240.9 31225.9 57238.2 31313.9 C 57238.2 31407.2 57238.2 31468.5 57235.5 31487.2 L 57222.2 31913.8 C 57278.2 31673.8 57334.2 31535.2 57446.2 31348.6 C 57563.5 31156.6 57667.4 31042 57862.1 30887.3 C 57899.4 30975.3 57942 31010 58032.7 31026 L 58043.4 31066 C 57910 31119.3 57814.1 31175.3 57680.8 31284.6 C 57579.5 31364.6 57512.8 31433.9 57446.2 31532.5 C 57616.8 31615.2 57672.8 31652.5 57811.4 31761.8 C 57830.1 31759.1 57848.7 31759.1 57854.1 31759.1 C 57915.4 31759.1 57936.7 31767.1 57936.7 31785.8 C 57936.7 31812.5 57915.4 31823.1 57704.8 31932.4 C 57616.8 31785.8 57531.5 31681.8 57416.8 31577.8 C 57307.5 31756.5 57270.2 31860.4 57238.2 32084.4 L 57526.1 32084.4 L 57526.1 31999.1 C 57526.1 31975.1 57536.8 31967.1 57560.8 31967.1 C 57659.5 31967.1 57704.8 31983.1 57704.8 32015.1 C 57704.8 32017.7 57704.8 32020.4 57704.8 32023.1 C 57694.1 32231 57691.4 32316.3 57691.4 32471 L 57694.1 32798.9 C 57755.4 32830.9 57779.4 32849.5 57779.4 32868.2 C 57779.4 32881.5 57768.8 32894.8 57744.8 32916.2 C 57688.8 32958.8 57670.1 32972.2 57606.1 33017.5 C 57558.1 32969.5 57544.8 32953.5 57499.5 32902.8 L 57051.6 32902.8 Z M 56790.3 32540.3 L 56790.3 32841.5 L 57526.1 32841.5 L 57526.1 32540.3 L 56790.3 32540.3 Z M 57526.1 32479 L 57526.1 32145.7 L 56790.3 32145.7 L 56790.3 32479 L 57526.1 32479 Z M 55537.3 30844.7 C 55667.9 31063.3 55747.9 31268.6 55817.2 31575.2 C 55889.2 31585.8 55907.9 31596.5 55907.9 31617.8 C 55907.9 31644.5 55875.9 31655.2 55673.3 31705.8 C 55670.6 31607.2 55662.6 31537.9 55630.6 31364.6 C 55596 31175.3 55569.3 31068.6 55497.3 30860.7 L 55537.3 30844.7 Z M 56187.8 31719.1 C 56259.8 31545.8 56289.1 31447.2 56318.4 31265.9 C 56331.8 31183.3 56337.1 31172.6 56355.8 31172.6 C 56395.8 31172.6 56459.8 31279.3 56459.8 31345.9 C 56459.8 31423.2 56374.4 31559.2 56217.1 31729.8 L 56187.8 31719.1 Z M 56582.4 31729.8 C 56529.1 31729.8 56497.1 31732.5 56425.1 31748.5 L 56441.1 31652.5 C 56483.7 31663.2 56539.7 31668.5 56598.4 31668.5 L 56793 31668.5 C 56737 31500.5 56691.7 31409.9 56587.7 31260.6 C 56483.7 31106 56403.8 31020.6 56259.8 30900.7 L 56286.5 30860.7 C 56446.4 30962 56534.4 31034 56643.7 31154 C 56779.7 31295.3 56859.6 31420.5 56955.6 31623.2 C 57003.6 31636.5 57027.6 31649.8 57027.6 31663.2 C 57027.6 31673.8 57022.3 31681.8 56995.6 31711.1 C 56942.3 31761.8 56923.6 31775.1 56867.6 31820.5 C 56830.3 31783.1 56817 31772.5 56782.3 31729.8 L 56582.4 31729.8 "/>
<path transform="matrix(.00359712,0,0,-.00359712,0,148)" stroke-width="332.357" stroke-linecap="butt" stroke-miterlimit="10" stroke-linejoin="miter" fill="none" stroke="#000000" d="M 7722.01 31950.2 L 46335.8 9885.38 "/>
<path transform="matrix(.00359712,0,0,-.00359712,0,148)" d="M 48648.7 10685.9 L 47864.9 10685.9 C 47864.9 10733.9 47864.9 10747.2 47859.6 10800.5 L 47819.6 10800.5 C 47798.2 10685.9 47784.9 10640.6 47758.3 10581.9 C 47726.3 10520.6 47672.9 10461.9 47625 10435.3 C 47585 10414 47574.3 10398 47574.3 10363.3 C 47574.3 10334 47587.6 10275.3 47601 10243.3 C 47611.6 10216.7 47633 10200.7 47654.3 10200.7 C 47694.3 10200.7 47739.6 10238 47776.9 10302 C 47816.9 10368.6 47846.2 10485.9 47862.2 10624.6 L 48648.7 10624.6 L 48648.7 10445.9 C 48648.7 10278 48643.4 10128.7 48638 9987.39 C 48638 9963.39 48651.4 9955.41 48683.4 9955.41 C 48814 9963.39 48824.7 9966.06 48830 10008.7 C 48822 10248.7 48822 10331.3 48822 10477.9 L 48822 10624.6 L 49667.1 10624.6 C 49656.5 10523.3 49651.1 10485.9 49624.5 10358 L 49651.1 10350 C 49715.1 10419.3 49715.1 10419.3 49840.4 10565.9 C 49957.7 10581.9 49957.7 10581.9 49979 10595.2 C 49984.4 10597.9 49989.7 10605.9 49989.7 10611.2 C 49989.7 10619.2 49981.7 10629.9 49963 10643.2 C 49869.7 10720.5 49840.4 10741.9 49741.8 10816.5 C 49688.4 10760.5 49672.4 10741.9 49624.5 10685.9 L 48822 10685.9 L 48822 10899.2 L 49683.1 10899.2 C 49693.8 10899.2 49712.4 10915.2 49712.4 10925.8 C 49712.4 10928.5 49704.4 10939.2 49696.4 10949.8 C 49589.8 11035.1 49557.8 11059.1 49456.5 11139.1 C 49384.5 11061.8 49363.2 11037.8 49296.5 10960.5 L 48118.2 10960.5 C 48003.5 10960.5 47918.2 10965.8 47811.6 10979.1 L 47824.9 10888.5 C 47987.5 10899.2 48011.5 10899.2 48118.2 10899.2 L 48648.7 10899.2 L 48648.7 10685.9 Z M 49915 9787.44 C 49928.4 9787.44 49947 9798.11 49947 9808.77 C 49947 9814.09 49941.7 9824.77 49933.7 9832.77 C 49835.1 9915.41 49803.1 9939.41 49701.8 10011.4 C 49637.8 9944.73 49619.1 9920.73 49552.5 9848.77 L 47920.9 9848.77 C 47766.3 9848.77 47672.9 9854.09 47571.6 9867.42 L 47585 9774.11 C 47617 9776.78 47728.9 9782.11 47920.9 9787.44 L 48608.7 9787.44 C 48584.7 9699.47 48568.7 9659.47 48515.4 9574.16 L 48056.8 9574.16 C 47966.2 9627.48 47936.9 9643.47 47843.6 9688.8 C 47851.6 9616.81 47856.9 9438.19 47856.9 9222.25 C 47856.9 9040.95 47854.2 8798.36 47848.9 8715.7 C 47854.2 8694.38 47867.6 8683.72 47891.5 8683.72 C 47926.2 8683.72 47992.9 8691.72 48006.2 8699.7 C 48019.5 8705.05 48024.9 8713.05 48027.5 8731.7 L 48027.5 9512.84 L 48376.8 9512.84 L 48376.8 9222.25 C 48374.1 8881 48374.1 8881 48371.4 8763.69 C 48379.4 8745.03 48390.1 8739.7 48422.1 8739.7 C 48518.1 8739.7 48544.7 8747.7 48550.1 8779.69 C 48547.4 8910.33 48547.4 8910.33 48547.4 9240.91 L 48547.4 9512.84 L 48894 9512.84 L 48894 9248.91 C 48894 9083.61 48891.3 8897 48886 8766.36 C 48891.3 8745.03 48902 8739.7 48928.6 8739.7 C 49021.9 8739.7 49051.3 8750.36 49059.3 8782.36 C 49056.6 8870.33 49056.6 8870.33 49053.9 9259.58 L 49053.9 9512.84 L 49467.2 9512.84 L 49467.2 8939.66 C 49467.2 8918.33 49461.8 8912.98 49435.2 8910.33 C 49296.5 8915.66 49251.2 8915.66 49139.3 8923.66 L 49139.3 8891.66 C 49315.2 8846.34 49365.9 8809.02 49387.2 8710.38 C 49584.5 8739.7 49632.5 8777.03 49645.8 8910.33 C 49643.1 9032.95 49643.1 9091.61 49643.1 9176.92 L 49643.1 9475.52 C 49704.4 9507.52 49723.1 9520.84 49723.1 9542.17 C 49723.1 9552.83 49715.1 9560.83 49696.4 9574.16 C 49632.5 9624.81 49611.1 9640.81 49539.1 9688.8 C 49493.8 9640.81 49480.5 9624.81 49435.2 9574.16 L 48584.7 9574.16 C 48670 9627.48 48678 9632.81 48848.7 9787.44 L 49915 9787.44 Z M 47923.5 10339.3 C 47987.5 10347.3 48016.9 10350 48072.8 10350 L 48515.4 10350 C 48528.7 10350 48542.1 10360.6 48542.1 10371.3 C 48542.1 10374 48536.7 10387.3 48531.4 10395.3 C 48456.8 10464.6 48432.8 10485.9 48363.4 10547.3 C 48302.1 10491.3 48283.5 10472.6 48227.5 10411.3 L 48072.8 10411.3 C 48032.8 10411.3 47984.9 10416.6 47910.2 10427.3 L 47923.5 10339.3 Z M 48920.6 10342 C 48990 10347.3 49021.9 10350 49069.9 10350 L 49557.8 10350 C 49573.8 10350 49587.1 10358 49587.1 10368.6 C 49587.1 10374 49581.8 10384.6 49573.8 10392.6 C 49501.8 10464.6 49477.8 10485.9 49400.5 10549.9 C 49344.5 10491.3 49328.5 10472.6 49275.2 10411.3 L 49069.9 10411.3 C 49013.9 10411.3 49013.9 10411.3 48910 10427.3 L 48920.6 10342 Z M 48923.3 10056.7 C 49019.3 10062 49048.6 10064.7 49083.3 10064.7 L 49643.1 10064.7 C 49667.1 10064.7 49683.1 10072.7 49683.1 10086 C 49683.1 10091.4 49677.8 10096.7 49669.8 10107.4 C 49581.8 10182 49552.5 10203.3 49467.2 10272.7 C 49413.8 10211.3 49395.2 10190 49344.5 10126 L 49083.3 10126 C 49011.3 10126 49011.3 10126 48960.6 10134 C 48950 10134 48931.3 10136.7 48910 10139.4 L 48923.3 10056.7 Z M 47819.6 10056.7 C 47888.9 10064.7 47915.5 10064.7 47987.5 10064.7 L 48520.7 10064.7 C 48552.7 10064.7 48563.4 10070 48563.4 10080.7 C 48563.4 10086 48558 10096.7 48547.4 10107.4 C 48472.7 10179.3 48448.8 10200.7 48376.8 10264.7 C 48312.8 10203.3 48291.5 10184.7 48230.1 10126 L 47987.5 10126 C 47918.2 10126 47859.6 10131.4 47803.6 10144.7 L 47819.6 10056.7 "/>
<path transform="matrix(.00359712,0,0,-.00359712,0,148)" d="M 52620 9603.48 C 52636 9603.48 52646.7 9608.81 52646.7 9619.48 C 52646.7 9624.81 52641.4 9632.81 52630.7 9646.14 C 52537.4 9731.45 52505.4 9758.11 52401.4 9840.77 C 52329.5 9768.78 52308.1 9747.45 52236.1 9664.8 L 51191.1 9664.8 C 51231 9723.45 51244.4 9744.78 51300.4 9832.77 C 51383 9843.42 51409.7 9854.09 51409.7 9872.75 C 51409.7 9888.75 51388.3 9899.41 51172.4 9963.39 C 51143.1 9891.42 51105.8 9827.44 50996.4 9664.8 L 50436.6 9664.8 C 50319.3 9664.8 50279.3 9670.14 50199.3 9694.13 L 50215.3 9590.16 C 50263.3 9600.83 50263.3 9600.83 50433.9 9603.48 L 50953.8 9603.48 C 50860.5 9472.86 50809.8 9408.88 50644.5 9206.25 C 50617.9 9174.27 50615.2 9171.59 50615.2 9163.59 C 50615.2 9160.92 50617.9 9155.59 50623.2 9152.94 C 50636.5 9144.94 50729.8 9126.27 50756.5 9126.27 C 50769.8 9126.27 50780.5 9131.61 50793.8 9147.59 C 50839.1 9198.25 50852.5 9214.25 50884.5 9251.58 C 51081.8 9219.58 51159.1 9200.92 51351 9142.27 C 51223 9043.63 51100.4 8971.64 50956.5 8910.33 C 50751.2 8825.02 50575.2 8782.36 50234 8731.7 L 50234 8686.38 C 50524.6 8691.72 50716.5 8721.03 50967.1 8798.36 C 51185.7 8865 51340.4 8947.64 51513.7 9088.95 C 51772.3 8992.97 51926.9 8918.33 52137.5 8787.69 C 52292.1 8691.72 52302.8 8683.72 52321.5 8683.72 C 52348.1 8683.72 52366.8 8710.38 52366.8 8747.7 C 52366.8 8825.02 52305.5 8928.98 52233.5 8971.64 C 52156.2 9016.97 51894.9 9102.28 51615 9176.92 C 51761.6 9318.22 51825.6 9400.88 51942.9 9603.48 L 52620 9603.48 Z M 51740.3 9603.48 C 51647 9427.53 51583 9347.55 51441.7 9216.92 C 51300.4 9243.58 51207.1 9259.58 50921.8 9296.89 C 51007.1 9403.53 51055.1 9470.19 51148.4 9603.48 L 51740.3 9603.48 Z M 51758.9 10888.5 L 52593.4 10888.5 C 52604 10888.5 52612 10896.5 52612 10904.5 C 52612 10909.8 52604 10920.5 52596 10931.2 C 52494.7 11013.8 52462.8 11040.5 52358.8 11117.8 C 52292.1 11048.5 52270.8 11027.1 52201.5 10949.8 L 50476.6 10949.8 C 50369.9 10949.8 50311.3 10957.8 50244.6 10976.5 L 50260.6 10872.5 C 50324.6 10883.2 50396.6 10888.5 50449.9 10888.5 L 51044.4 10888.5 L 51044.4 10549.9 L 50679.2 10549.9 C 50583.2 10597.9 50553.9 10613.9 50463.2 10651.2 C 50463.2 10597.9 50463.2 10544.6 50465.9 10488.6 C 50468.6 10318 50468.6 10318 50468.6 10235.3 C 50468.6 10136.7 50468.6 10054 50463.2 9891.42 C 50463.2 9870.09 50473.9 9862.09 50497.9 9862.09 C 50615.2 9862.09 50636.5 9870.09 50636.5 9904.75 L 50636.5 9976.73 L 52180.2 9976.73 L 52180.2 9891.42 C 52180.2 9867.42 52190.8 9856.75 52217.5 9856.75 C 52332.1 9856.75 52364.1 9864.75 52364.1 9896.75 C 52364.1 9896.75 52364.1 9902.08 52364.1 9904.75 C 52353.4 10056.7 52353.4 10056.7 52350.8 10448.6 C 52422.8 10491.3 52430.8 10499.3 52430.8 10515.3 C 52430.8 10523.3 52425.4 10531.3 52404.1 10549.9 C 52340.1 10600.6 52321.5 10616.6 52257.5 10664.6 C 52212.1 10616.6 52196.1 10600.6 52150.8 10549.9 L 51758.9 10549.9 L 51758.9 10888.5 Z M 51593.6 10888.5 L 51593.6 10549.9 L 51207.1 10549.9 L 51207.1 10888.5 L 51593.6 10888.5 Z M 51044.4 10488.6 L 51044.4 10038 L 50636.5 10038 L 50636.5 10488.6 L 51044.4 10488.6 Z M 51207.1 10488.6 L 51593.6 10488.6 L 51593.6 10038 L 51207.1 10038 L 51207.1 10488.6 Z M 51758.9 10488.6 L 52180.2 10488.6 L 52180.2 10038 L 51758.9 10038 L 51758.9 10488.6 "/>
<path transform="matrix(.00359712,0,0,-.00359712,0,148)" d="M 54906.5 8857 L 54906.5 8718.38 C 54909.1 8691.72 54919.8 8686.38 54962.5 8686.38 C 55074.4 8686.38 55103.8 8697.05 55106.4 8739.7 C 55093.1 9003.64 55085.1 9520.84 55085.1 9992.72 L 55085.1 10334 C 55165.1 10376.6 55194.4 10400.6 55194.4 10422 C 55194.4 10432.6 55186.4 10443.3 55165.1 10461.9 C 55087.8 10517.9 55063.8 10536.6 54983.8 10589.9 C 54935.8 10536.6 54919.8 10520.6 54871.8 10461.9 L 54455.9 10461.9 L 54455.9 10925.8 C 54530.6 10949.8 54559.9 10968.5 54559.9 10992.5 C 54559.9 10997.8 54554.6 11005.8 54546.6 11011.1 C 54522.6 11027.1 54522.6 11027.1 54250.6 11061.8 C 54266.6 10957.8 54266.6 10933.8 54266.6 10757.9 L 54266.6 10461.9 L 53837.4 10461.9 L 53837.4 10925.8 C 53914.7 10944.5 53949.4 10965.8 53949.4 10992.5 C 53949.4 11019.1 53877.4 11035.1 53642.8 11056.5 C 53653.4 10944.5 53656.1 10891.2 53656.1 10789.9 L 53656.1 10461.9 L 53248.2 10461.9 C 53162.9 10523.3 53136.2 10539.3 53042.9 10589.9 C 53050.9 10461.9 53056.3 10104.7 53056.3 9731.45 C 53056.3 9371.55 53048.3 8952.98 53037.6 8710.38 C 53040.3 8681.05 53053.6 8670.39 53090.9 8670.39 C 53093.6 8670.39 53096.3 8670.39 53098.9 8670.39 C 53109.6 8670.39 53122.9 8673.05 53141.6 8673.05 C 53216.2 8673.05 53237.5 8683.72 53248.2 8718.38 L 53248.2 8857 L 54906.5 8857 Z M 54906.5 8918.33 L 54455.9 8918.33 L 54455.9 9662.14 L 54906.5 9662.14 L 54906.5 8918.33 Z M 54906.5 9723.45 L 54455.9 9723.45 L 54455.9 10400.6 L 54906.5 10400.6 L 54906.5 9723.45 Z M 54266.6 8918.33 L 53837.4 8918.33 L 53837.4 9662.14 L 54266.6 9662.14 L 54266.6 8918.33 Z M 54266.6 9723.45 L 53837.4 9723.45 L 53837.4 10400.6 L 54266.6 10400.6 L 54266.6 9723.45 Z M 53656.1 8918.33 L 53248.2 8918.33 L 53248.2 9662.14 L 53656.1 9662.14 L 53656.1 8918.33 Z M 53656.1 9723.45 L 53248.2 9723.45 L 53248.2 10400.6 L 53656.1 10400.6 L 53656.1 9723.45 "/>
<path transform="matrix(.00359712,0,0,-.00359712,0,148)" d="M 55958.5 9307.56 C 55958.5 9158.27 55953.2 8928.98 55942.5 8697.05 C 55945.2 8673.05 55953.2 8662.39 55979.9 8662.39 C 56022.5 8662.39 56089.2 8673.05 56105.2 8681.05 C 56118.5 8689.05 56123.8 8697.05 56123.8 8718.38 C 56118.5 8984.97 56118.5 8992.97 56118.5 9336.89 L 56118.5 9872.75 C 56246.5 9899.41 56246.5 9899.41 56361.1 9926.08 C 56379.8 9867.42 56390.4 9832.77 56401.1 9787.44 C 56409.1 9752.78 56422.4 9736.78 56441.1 9736.78 C 56483.7 9736.78 56531.7 9827.44 56531.7 9907.41 C 56531.7 9947.41 56513.1 9990.06 56473.1 10035.4 C 56398.4 10120.7 56321.1 10192.7 56230.5 10262 L 56203.8 10235.3 C 56278.5 10120.7 56305.1 10072.7 56345.1 9974.06 C 56171.8 9958.06 56161.2 9958.06 55873.2 9944.73 C 56099.8 10216.7 56201.1 10347.3 56401.1 10632.6 C 56491.7 10635.2 56518.4 10645.9 56518.4 10669.9 C 56518.4 10696.5 56475.7 10717.9 56259.8 10795.2 C 56211.8 10659.2 56126.5 10480.6 56014.5 10280.7 C 55945.2 10160.7 55899.9 10086 55798.6 9942.06 C 55694.6 9939.41 55694.6 9939.41 55670.6 9939.41 C 55633.3 9939.41 55606.6 9942.06 55548 9947.41 C 55585.3 9744.78 55598.6 9704.8 55625.3 9704.8 C 55643.9 9704.8 55654.6 9723.45 55675.9 9800.77 C 55873.2 9830.09 55873.2 9830.09 55958.5 9846.09 L 55958.5 9307.56 Z M 55566.6 10659.2 C 55678.6 10533.9 55753.3 10419.3 55793.2 10320.6 C 55830.6 10214 55833.2 10211.3 55859.9 10211.3 C 55897.2 10211.3 55937.2 10296.7 55937.2 10374 C 55937.2 10435.3 55907.9 10475.3 55803.9 10549.9 C 55923.9 10691.2 55969.2 10752.5 56113.2 10973.8 C 56123.8 10971.2 56139.8 10971.2 56142.5 10971.2 C 56214.5 10971.2 56243.8 10981.8 56243.8 11003.1 C 56243.8 11032.5 56243.8 11032.5 55958.5 11133.8 C 55939.9 11013.8 55859.9 10784.5 55763.9 10579.3 C 55699.9 10624.6 55675.9 10640.6 55593.3 10691.2 L 55566.6 10659.2 Z M 57051.6 10837.8 C 57131.6 10901.8 57152.9 10920.5 57235.5 11011.1 C 57323.5 11016.5 57344.9 11024.5 57344.9 11048.5 C 57344.9 11072.5 57315.5 11083.1 57078.3 11149.8 C 57062.3 11051.1 57027.6 10928.5 56987.6 10837.8 L 56814.3 10837.8 C 56737 10888.5 56710.3 10904.5 56625 10952.5 C 56630.4 10845.8 56633 10600.6 56633 10392.6 C 56633 10243.3 56633 10243.3 56625 9926.08 C 56627.7 9902.08 56635.7 9896.75 56657 9896.75 C 56691.7 9896.75 56750.3 9904.75 56769 9912.75 C 56785 9918.08 56790.3 9926.08 56790.3 9947.41 L 56790.3 10019.4 L 57078.3 10019.4 L 57078.3 8931.66 C 57078.3 8904.98 57072.9 8897 57046.3 8897 C 56883.6 8902.33 56827.7 8904.98 56649 8920.98 L 56649 8881 C 56862.3 8830.34 56862.3 8830.34 56891.6 8814.34 C 56947.6 8785.02 56969 8755.7 56977 8691.72 C 57203.6 8737.03 57248.9 8769.03 57248.9 8881 C 57240.9 9075.61 57240.9 9160.92 57238.2 9248.91 C 57238.2 9342.22 57238.2 9403.53 57235.5 9422.2 L 57222.2 9848.77 C 57278.2 9608.81 57334.2 9470.19 57446.2 9283.56 C 57563.5 9091.61 57667.4 8976.97 57862.1 8822.34 C 57899.4 8910.33 57942 8944.98 58032.7 8960.98 L 58043.4 9000.97 C 57910 9054.28 57814.1 9110.28 57680.8 9219.58 C 57579.5 9299.56 57512.8 9368.88 57446.2 9467.52 C 57616.8 9550.17 57672.8 9587.48 57811.4 9696.8 C 57830.1 9694.13 57848.7 9694.13 57854.1 9694.13 C 57915.4 9694.13 57936.7 9702.13 57936.7 9720.8 C 57936.7 9747.45 57915.4 9758.11 57704.8 9867.42 C 57616.8 9720.8 57531.5 9616.81 57416.8 9512.84 C 57307.5 9691.47 57270.2 9795.44 57238.2 10019.4 L 57526.1 10019.4 L 57526.1 9934.08 C 57526.1 9910.08 57536.8 9902.08 57560.8 9902.08 C 57659.5 9902.08 57704.8 9918.08 57704.8 9950.06 C 57704.8 9952.73 57704.8 9955.41 57704.8 9958.06 C 57694.1 10166 57691.4 10251.3 57691.4 10406 L 57694.1 10733.9 C 57755.4 10765.9 57779.4 10784.5 57779.4 10803.2 C 57779.4 10816.5 57768.8 10829.8 57744.8 10851.2 C 57688.8 10893.8 57670.1 10907.2 57606.1 10952.5 C 57558.1 10904.5 57544.8 10888.5 57499.5 10837.8 L 57051.6 10837.8 Z M 56790.3 10475.3 L 56790.3 10776.5 L 57526.1 10776.5 L 57526.1 10475.3 L 56790.3 10475.3 Z M 57526.1 10414 L 57526.1 10080.7 L 56790.3 10080.7 L 56790.3 10414 L 57526.1 10414 Z M 55537.3 8779.69 C 55667.9 8998.3 55747.9 9203.58 55817.2 9510.17 C 55889.2 9520.84 55907.9 9531.5 55907.9 9552.83 C 55907.9 9579.5 55875.9 9590.16 55673.3 9640.81 C 55670.6 9542.17 55662.6 9472.86 55630.6 9299.56 C 55596 9110.28 55569.3 9003.64 55497.3 8795.69 L 55537.3 8779.69 Z M 56187.8 9654.14 C 56259.8 9480.84 56289.1 9382.2 56318.4 9200.92 C 56331.8 9118.27 56337.1 9107.61 56355.8 9107.61 C 56395.8 9107.61 56459.8 9214.25 56459.8 9280.91 C 56459.8 9358.22 56374.4 9494.19 56217.1 9664.8 L 56187.8 9654.14 Z M 56582.4 9664.8 C 56529.1 9664.8 56497.1 9667.47 56425.1 9683.47 L 56441.1 9587.48 C 56483.7 9598.16 56539.7 9603.48 56598.4 9603.48 L 56793 9603.48 C 56737 9435.53 56691.7 9344.89 56587.7 9195.59 C 56483.7 9040.95 56403.8 8955.64 56259.8 8835.67 L 56286.5 8795.69 C 56446.4 8897 56534.4 8968.97 56643.7 9088.95 C 56779.7 9230.25 56859.6 9355.55 56955.6 9558.17 C 57003.6 9571.5 57027.6 9584.83 57027.6 9598.16 C 57027.6 9608.81 57022.3 9616.81 56995.6 9646.14 C 56942.3 9696.8 56923.6 9710.13 56867.6 9755.45 C 56830.3 9718.13 56817 9707.45 56782.3 9664.8 L 56582.4 9664.8 "/>
<path transform="matrix(.00359712,0,0,-.00359712,0,148)" stroke-width="110.783" stroke-linecap="butt" stroke-dasharray="110.783,553.929" stroke-miterlimit="10" stroke-linejoin="miter" fill="none" stroke="#2e67b5" d="M 27029.4 20917.8 L 27029.4 4368.77 "/>
<path transform="matrix(.00359712,0,0,-.00359712,0,148)" d="M 26418.9 213.5 L 26371.8 213.5 C 26269.2 213.5 26211 241.234 26213.8 293.906 C 26213.8 302.219 26216.6 313.313 26219.3 324.391 L 26674 1923.97 L 26471.6 1923.97 L 26430 1793.67 C 26385.7 1921.19 26330.2 1965.55 26216.6 1965.55 C 25850.6 1965.55 25404.3 1455.47 25404.3 1034.08 C 25404.3 837.25 25512.4 712.5 25687.1 712.5 C 25883.9 712.5 26011.4 815.078 26258.2 1167.16 L 26011.4 354.891 C 25975.4 244 25931 221.828 25750.8 207.953 L 25750.8 163.609 L 26418.9 163.609 L 26418.9 213.5 Z M 26224.9 1904.56 C 26316.4 1904.56 26388.4 1829.72 26388.4 1735.45 C 26388.4 1505.36 26199.9 1111.7 26011.4 953.688 C 25939.3 892.703 25864.5 859.438 25798 859.438 C 25703.7 859.438 25642.7 942.594 25642.7 1072.89 C 25642.7 1278.05 25786.9 1585.75 25967.1 1768.72 C 26053 1854.66 26144.5 1904.56 26224.9 1904.56 " fill="#2e67b5"/>
<path transform="matrix(.00359712,0,0,-.00359712,0,148)" d="M 27810.5 2994.2 C 27881.3 3048.27 27933.5 3100.45 28028.6 3204.84 C 28101.3 3214.17 28118.1 3221.63 28118.1 3238.41 C 28118.1 3255.17 28045.4 3285 27911.1 3324.16 C 27907.4 3283.14 27883.2 3223.48 27836.6 3126.56 C 27812.4 3079.95 27791.8 3044.53 27758.3 2994.2 L 27053.7 2994.2 C 26936.2 2994.2 26900.8 2996.08 26818.8 3009.13 L 26831.8 2938.28 C 26908.3 2949.47 26928.8 2951.33 27053.7 2951.33 L 28513.3 2951.33 C 28522.6 2951.33 28526.3 2955.06 28526.3 2960.66 C 28526.3 2964.38 28524.4 2969.97 28518.8 2975.56 C 28446.1 3046.41 28421.9 3066.91 28349.2 3130.28 C 28297 3072.5 28280.2 3053.86 28229.9 2994.2 L 27810.5 2994.2 Z M 27467.5 2160.97 L 27467.5 1817.97 C 27467.5 1803.06 27465.6 1799.33 27458.2 1799.33 C 27456.3 1799.33 27454.5 1799.33 27450.7 1799.33 C 27394.8 1803.06 27381.8 1803.06 27277.4 1812.38 C 27258.7 1814.25 27228.9 1816.11 27193.5 1817.97 L 27191.6 1795.61 C 27346.3 1767.64 27378 1745.27 27391.1 1650.2 C 27560.7 1694.94 27594.3 1717.31 27594.3 1791.88 C 27594.3 1791.88 27594.3 1799.33 27594.3 1803.06 C 27592.4 1948.45 27588.7 2242.98 27588.7 2257.89 L 27588.7 2686.64 C 27637.1 2712.73 27650.2 2722.05 27650.2 2731.38 C 27650.2 2735.09 27646.5 2738.83 27639 2750.02 C 27592.4 2791.02 27575.6 2802.2 27519.7 2841.36 C 27489.9 2807.8 27480.5 2796.61 27452.6 2761.2 L 27113.3 2761.2 C 27049.9 2798.48 27029.4 2809.66 26962.3 2841.36 C 26967.9 2735.09 26969.8 2660.53 26969.8 2481.58 C 26969.8 2187.06 26966.1 1816.11 26962.3 1676.3 C 26966.1 1661.39 26971.7 1655.8 26988.4 1655.8 C 27008.9 1655.8 27055.5 1659.53 27076 1663.25 C 27089.1 1666.98 27094.7 1672.58 27098.4 1689.34 C 27098.4 1836.61 27098.4 1851.53 27096.5 1959.64 C 27094.7 2043.53 27094.7 2105.05 27094.7 2131.14 L 27094.7 2160.97 L 27467.5 2160.97 Z M 27467.5 2203.83 L 27094.7 2203.83 L 27094.7 2448.03 L 27467.5 2448.03 L 27467.5 2203.83 Z M 27467.5 2490.91 L 27094.7 2490.91 L 27094.7 2718.33 L 27467.5 2718.33 L 27467.5 2490.91 Z M 27208.4 3294.33 C 27268 3227.22 27335.1 3117.23 27361.3 3048.27 C 27374.3 3012.84 27381.8 3005.39 27398.5 3005.39 C 27426.5 3005.39 27461.9 3065.05 27461.9 3115.38 C 27461.9 3173.16 27398.5 3225.36 27225.2 3318.56 L 27208.4 3294.33 Z M 27817.9 2783.56 C 27825.4 2692.22 27827.3 2636.3 27827.3 2580.38 C 27827.3 2345.5 27825.4 2205.7 27821.7 1995.06 C 27821.7 1980.14 27829.1 1972.69 27842.2 1972.69 C 27844 1972.69 27845.9 1972.69 27847.8 1972.69 C 27855.2 1974.55 27868.3 1974.55 27885 1976.42 C 27937.3 1980.14 27950.3 1985.73 27950.3 2009.97 C 27948.4 2090.13 27946.6 2367.88 27946.6 2554.28 C 27946.6 2580.38 27946.6 2625.13 27946.6 2697.81 C 27983.8 2712.73 28004.4 2727.64 28004.4 2738.83 C 28004.4 2753.73 27955.9 2764.92 27817.9 2783.56 Z M 28213.1 1827.3 C 28213.1 1817.97 28211.3 1814.25 28200.1 1810.52 C 28116.2 1810.52 28101.3 1812.38 27920.5 1823.56 C 27903.7 1823.56 27877.6 1825.42 27844 1827.3 L 27844 1799.33 C 28101.3 1758.33 28101.3 1758.33 28127.4 1646.47 C 28201.9 1663.25 28241.1 1676.3 28278.4 1698.67 C 28325 1726.63 28338 1747.14 28341.8 1799.33 C 28338 1950.33 28338 1950.33 28334.3 2349.23 L 28334.3 2748.14 C 28382.8 2763.06 28405.1 2776.11 28405.1 2791.02 C 28405.1 2805.94 28347.3 2820.84 28200.1 2841.36 C 28209.4 2787.3 28213.1 2718.33 28213.1 2626.98 L 28213.1 1827.3 " fill="#2e67b5"/>
<path transform="matrix(.00359712,0,0,-.00359712,0,148)" stroke-width="110.783" stroke-linecap="butt" stroke-dasharray="110.783,553.929" stroke-miterlimit="10" stroke-linejoin="miter" fill="none" stroke="#2e67b5" d="M 27029.4 20917.8 L 7722.01 20917.8 "/>
<path transform="matrix(.00359712,0,0,-.00359712,0,148)" d="M 3510.25 21000 L 3574 21000 C 3574 21000 3579.55 21000 3582.33 21002.8 C 3618.36 21019.4 3690.44 20966.7 3690.44 20925.1 C 3690.44 20900.2 3590.64 20506.5 3493.61 20140.6 C 3418.77 19863.4 3352.23 19600 3332.83 19519.6 C 3302.33 19392.1 3266.28 19358.8 3147.08 19356 L 3147.08 19311.7 L 3715.39 19311.7 L 3715.39 19353.3 C 3585.09 19353.3 3537.97 19378.2 3537.97 19436.4 C 3537.97 19475.3 3585.09 19691.5 3640.55 19896.6 C 3709.84 19860.6 3759.75 19849.5 3823.5 19849.5 C 4228.25 19849.5 4655.17 20315.2 4655.17 20756 C 4655.17 20972.3 4533.19 21102.5 4336.38 21102.5 C 4156.17 21102.5 4023.11 21013.8 3862.31 20789.3 L 3942.72 21066.5 L 3951.03 21091.5 C 3951.03 21091.5 3948.25 21094.2 3945.48 21099.8 L 3939.94 21102.5 C 3939.94 21105.3 3937.17 21105.3 3937.17 21105.3 L 3931.63 21102.5 L 3504.7 21041.6 L 3510.25 21000 Z M 4233.8 20983.3 C 4353 20977.8 4405.67 20905.7 4405.67 20744.9 C 4405.67 20562 4325.28 20323.6 4206.08 20151.7 C 4089.64 19988.1 3956.58 19902.2 3812.42 19902.2 C 3734.8 19902.2 3679.34 19943.8 3679.34 20004.8 C 3679.34 20099 3779.16 20462.2 3859.55 20667.3 C 3934.39 20855.8 4095.19 20991.7 4233.8 20983.3 " fill="#2e67b5"/>
<path transform="matrix(.00359712,0,0,-.00359712,0,148)" d="M 5829.48 22130.2 C 5900.33 22184.3 5952.52 22236.5 6047.58 22340.8 C 6120.28 22350.2 6137.06 22357.6 6137.06 22374.4 C 6137.06 22391.2 6064.36 22421 5930.14 22460.2 C 5926.42 22419.1 5902.19 22359.5 5855.58 22262.6 C 5831.36 22216 5810.84 22180.5 5777.3 22130.2 L 5072.67 22130.2 C 4955.23 22130.2 4919.81 22132.1 4837.8 22145.1 L 4850.84 22074.3 C 4927.27 22085.5 4947.78 22087.3 5072.67 22087.3 L 6532.25 22087.3 C 6541.56 22087.3 6545.3 22091.1 6545.3 22096.7 C 6545.3 22100.4 6543.44 22106 6537.84 22111.6 C 6465.14 22182.4 6440.91 22202.9 6368.2 22266.3 C 6316.02 22208.5 6299.23 22189.9 6248.91 22130.2 L 5829.48 22130.2 Z M 5486.5 21297 L 5486.5 20954 C 5486.5 20939.1 5484.63 20935.3 5477.17 20935.3 C 5475.31 20935.3 5473.45 20935.3 5469.72 20935.3 C 5413.8 20939.1 5400.75 20939.1 5296.36 20948.4 C 5277.72 20950.3 5247.89 20952.1 5212.48 20954 L 5210.61 20931.6 C 5365.33 20903.6 5397.02 20881.3 5410.06 20786.2 C 5579.7 20830.9 5613.25 20853.3 5613.25 20927.9 C 5613.25 20927.9 5613.25 20935.3 5613.25 20939.1 C 5611.39 21084.5 5607.66 21379 5607.66 21393.9 L 5607.66 21822.6 C 5656.13 21848.7 5669.17 21858 5669.17 21867.4 C 5669.17 21871.1 5665.45 21874.8 5658 21886 C 5611.39 21927 5594.61 21938.2 5538.69 21977.4 C 5508.86 21943.8 5499.55 21932.6 5471.58 21897.2 L 5132.33 21897.2 C 5068.94 21934.5 5048.44 21945.7 4981.33 21977.4 C 4986.92 21871.1 4988.78 21796.5 4988.78 21617.6 C 4988.78 21323.1 4985.06 20952.1 4981.33 20812.3 C 4985.06 20797.4 4990.66 20791.8 5007.42 20791.8 C 5027.94 20791.8 5074.53 20795.5 5095.05 20799.3 C 5108.09 20803 5113.69 20808.6 5117.41 20825.3 C 5117.41 20972.6 5117.41 20987.5 5115.55 21095.6 C 5113.69 21179.5 5113.69 21241 5113.69 21267.1 L 5113.69 21297 L 5486.5 21297 Z M 5486.5 21339.8 L 5113.69 21339.8 L 5113.69 21584 L 5486.5 21584 L 5486.5 21339.8 Z M 5486.5 21626.9 L 5113.69 21626.9 L 5113.69 21854.3 L 5486.5 21854.3 L 5486.5 21626.9 Z M 5227.39 22430.3 C 5287.05 22363.2 5354.14 22253.2 5380.25 22184.3 C 5393.3 22148.8 5400.75 22141.4 5417.53 22141.4 C 5445.48 22141.4 5480.91 22201 5480.91 22251.4 C 5480.91 22309.2 5417.53 22361.4 5244.17 22454.6 L 5227.39 22430.3 Z M 5836.94 21919.6 C 5844.41 21828.2 5846.27 21772.3 5846.27 21716.4 C 5846.27 21481.5 5844.41 21341.7 5840.67 21131.1 C 5840.67 21116.1 5848.13 21108.7 5861.17 21108.7 C 5863.05 21108.7 5864.91 21108.7 5866.77 21108.7 C 5874.22 21110.5 5887.28 21110.5 5904.05 21112.4 C 5956.25 21116.1 5969.3 21121.7 5969.3 21146 C 5967.44 21226.1 5965.56 21503.9 5965.56 21690.3 C 5965.56 21716.4 5965.56 21761.1 5965.56 21833.8 C 6002.84 21848.7 6023.36 21863.6 6023.36 21874.8 C 6023.36 21889.7 5974.89 21900.9 5836.94 21919.6 Z M 6232.13 20963.3 C 6232.13 20954 6230.27 20950.3 6219.08 20946.5 C 6135.2 20946.5 6120.28 20948.4 5939.47 20959.6 C 5922.69 20959.6 5896.59 20961.4 5863.05 20963.3 L 5863.05 20935.3 C 6120.28 20894.3 6120.28 20894.3 6146.38 20782.5 C 6220.94 20799.3 6260.09 20812.3 6297.38 20834.7 C 6343.97 20862.6 6357.02 20883.1 6360.75 20935.3 C 6357.02 21086.3 6357.02 21086.3 6353.3 21485.2 L 6353.3 21884.1 C 6401.77 21899.1 6424.13 21912.1 6424.13 21927 C 6424.13 21941.9 6366.34 21956.8 6219.08 21977.4 C 6228.41 21923.3 6232.13 21854.3 6232.13 21763 L 6232.13 20963.3 " fill="#2e67b5"/>
<path transform="matrix(.00359712,0,0,-.00359712,0,148)" stroke-width="110.783" stroke-linecap="butt" stroke-dasharray="110.783,553.929" stroke-miterlimit="10" stroke-linejoin="miter" fill="none" stroke="#610b0b" d="M 17650.9 15401.2 L 7722.01 15401.2 "/>
<path transform="matrix(.00359712,0,0,-.00359712,0,148)" d="M 4462.25 15870 L 4526 15870 C 4526 15870 4531.55 15870 4534.33 15872.8 C 4570.36 15889.4 4642.44 15836.7 4642.44 15795.1 C 4642.44 15770.2 4542.64 15376.5 4445.61 15010.6 C 4370.77 14733.4 4304.23 14470 4284.83 14389.6 C 4254.33 14262.1 4218.28 14228.8 4099.08 14226 L 4099.08 14181.7 L 4667.39 14181.7 L 4667.39 14223.3 C 4537.09 14223.3 4489.97 14248.2 4489.97 14306.4 C 4489.97 14345.3 4537.09 14561.5 4592.55 14766.6 C 4661.84 14730.6 4711.75 14719.5 4775.5 14719.5 C 5180.25 14719.5 5607.17 15185.2 5607.17 15626 C 5607.17 15842.3 5485.19 15972.5 5288.38 15972.5 C 5108.17 15972.5 4975.11 15883.8 4814.31 15659.3 L 4894.72 15936.5 L 4903.03 15961.5 C 4903.03 15961.5 4900.25 15964.2 4897.48 15969.8 L 4891.94 15972.5 C 4891.94 15975.3 4889.17 15975.3 4889.17 15975.3 L 4883.63 15972.5 L 4456.7 15911.6 L 4462.25 15870 Z M 5185.8 15853.3 C 5305 15847.8 5357.67 15775.7 5357.67 15614.9 C 5357.67 15432 5277.28 15193.6 5158.08 15021.7 C 5041.64 14858.1 4908.58 14772.2 4764.42 14772.2 C 4686.8 14772.2 4631.34 14813.8 4631.34 14874.8 C 4631.34 14969 4731.16 15332.2 4811.55 15537.3 C 4886.39 15725.8 5047.19 15861.7 5185.8 15853.3 " fill="#610b0b"/>
<path transform="matrix(.00359712,0,0,-.00359712,0,148)" d="M 6484.81 16403.4 C 6484.81 16436.4 6457.69 16471.3 6422.78 16471.3 C 6378.2 16471.3 6219.25 16312.3 6163.05 16279.4 C 6163.05 16387.9 6217.31 16496.5 6217.31 16562.4 C 6217.31 16603.1 6190.17 16628.3 6149.47 16628.3 C 6110.7 16628.3 6087.44 16601.2 6087.44 16562.4 C 6087.44 16486.8 6133.97 16384 6133.97 16279.4 C 6071.94 16316.2 5920.73 16479 5880.03 16479 C 5845.14 16479 5814.13 16446.1 5814.13 16411.2 C 5814.13 16343.3 6042.86 16296.8 6118.45 16254.2 C 6037.05 16207.7 5885.84 16184.4 5847.08 16159.2 C 5827.69 16145.6 5812.19 16128.2 5812.19 16103 C 5812.19 16068.1 5839.33 16037.1 5874.22 16037.1 C 5918.8 16037.1 6075.81 16194.1 6133.97 16227 C 6133.97 16120.4 6079.69 16011.9 6079.69 15944 C 6079.69 15905.3 6108.77 15878.1 6147.53 15878.1 C 6186.3 15878.1 6209.56 15907.2 6209.56 15944 C 6209.56 16023.5 6164.98 16124.3 6164.98 16227 C 6225.06 16192.1 6378.2 16029.3 6416.97 16029.3 C 6451.86 16029.3 6482.88 16062.3 6482.88 16097.2 C 6482.88 16122.4 6465.44 16139.8 6446.05 16151.4 C 6395.66 16184.4 6261.91 16205.7 6178.55 16254.2 C 6269.66 16308.5 6393.72 16316.2 6449.92 16349.2 C 6471.25 16360.8 6484.81 16378.2 6484.81 16403.4 " fill="#610b0b"/>
<path transform="matrix(.00359712,0,0,-.00359712,0,148)" stroke-width="110.783" stroke-linecap="butt" stroke-dasharray="110.783,553.929" stroke-miterlimit="10" stroke-linejoin="miter" fill="none" stroke="#610b0b" d="M 17650.9 26433.6 L 7722.01 26433.6 "/>
<path transform="matrix(.00359712,0,0,-.00359712,0,148)" d="M 650.25 26903 L 714 26903 C 714 26903 719.547 26903 722.328 26905.8 C 758.359 26922.4 830.438 26869.7 830.438 26828.1 C 830.438 26803.2 730.641 26409.5 633.609 26043.6 C 558.766 25766.4 492.234 25503 472.828 25422.6 C 442.328 25295.1 406.281 25261.8 287.078 25259 L 287.078 25214.7 L 855.391 25214.7 L 855.391 25256.3 C 725.094 25256.3 677.969 25281.2 677.969 25339.4 C 677.969 25378.3 725.094 25594.5 780.547 25799.6 C 849.844 25763.6 899.75 25752.5 963.5 25752.5 C 1368.25 25752.5 1795.17 26218.2 1795.17 26659 C 1795.17 26875.3 1673.19 27005.5 1476.38 27005.5 C 1296.17 27005.5 1163.11 26916.8 1002.31 26692.3 L 1082.72 26969.5 L 1091.03 26994.5 C 1091.03 26994.5 1088.25 26997.2 1085.48 27002.8 L 1079.94 27005.5 C 1079.94 27008.3 1077.17 27008.3 1077.17 27008.3 L 1071.63 27005.5 L 644.703 26944.6 L 650.25 26903 Z M 1373.8 26886.3 C 1493 26880.8 1545.67 26808.7 1545.67 26647.9 C 1545.67 26465 1465.28 26226.6 1346.08 26054.7 C 1229.64 25891.1 1096.58 25805.2 952.422 25805.2 C 874.797 25805.2 819.344 25846.8 819.344 25907.8 C 819.344 26002 919.156 26365.2 999.547 26570.3 C 1074.39 26758.8 1235.19 26894.7 1373.8 26886.3 " fill="#610b0b"/>
<path transform="matrix(.00359712,0,0,-.00359712,0,148)" d="M 2672.81 27435.4 C 2672.81 27468.4 2645.69 27503.3 2610.78 27503.3 C 2566.2 27503.3 2407.25 27344.3 2351.05 27311.4 C 2351.05 27419.9 2405.31 27528.5 2405.31 27594.4 C 2405.31 27635.1 2378.17 27660.3 2337.47 27660.3 C 2298.7 27660.3 2275.44 27633.2 2275.44 27594.4 C 2275.44 27518.8 2321.97 27416 2321.97 27311.4 C 2259.94 27348.2 2108.73 27511 2068.03 27511 C 2033.14 27511 2002.13 27478.1 2002.13 27443.2 C 2002.13 27375.3 2230.86 27328.8 2306.45 27286.2 C 2225.05 27239.7 2073.84 27216.4 2035.08 27191.2 C 2015.69 27177.6 2000.19 27160.2 2000.19 27135 C 2000.19 27100.1 2027.33 27069.1 2062.22 27069.1 C 2106.8 27069.1 2263.81 27226.1 2321.97 27259 C 2321.97 27152.4 2267.69 27043.9 2267.69 26976 C 2267.69 26937.3 2296.77 26910.1 2335.53 26910.1 C 2374.3 26910.1 2397.56 26939.2 2397.56 26976 C 2397.56 27055.5 2352.98 27156.3 2352.98 27259 C 2413.06 27224.1 2566.2 27061.3 2604.97 27061.3 C 2639.86 27061.3 2670.88 27094.3 2670.88 27129.2 C 2670.88 27154.4 2653.44 27171.8 2634.05 27183.4 C 2583.66 27216.4 2449.91 27237.7 2366.55 27286.2 C 2457.66 27340.5 2581.72 27348.2 2637.92 27381.2 C 2659.25 27392.8 2672.81 27410.2 2672.81 27435.4 " fill="#610b0b"/>
<path transform="matrix(.00359712,0,0,-.00359712,0,148)" d="M 5138.25 26417.8 L 5138.25 26573.1 L 4506.19 26573.1 L 4506.19 27199.6 L 4350.94 27199.6 L 4350.94 26573.1 L 3718.88 26573.1 L 3718.88 26417.8 L 4350.94 26417.8 L 4350.94 25783 L 4506.19 25783 L 4506.19 26417.8 L 5138.25 26417.8 " fill="#610b0b"/>
<path transform="matrix(.00359712,0,0,-.00359712,0,148)" d="M 6744.58 26969.5 L 6522.8 26969.5 L 6600.42 27255 C 6603.19 27260.6 6603.19 27266.1 6603.19 27268.9 C 6603.19 27288.3 6594.88 27296.6 6581.02 27296.6 C 6564.39 27296.6 6556.06 27293.9 6539.44 27271.7 C 6431.31 27130.3 6259.44 26991.7 6170.73 26966.7 C 6101.42 26944.6 6082.02 26927.9 6082.02 26897.4 C 6082.02 26894.7 6082.02 26889.1 6084.78 26880.8 L 6289.94 26880.8 L 6090.33 26118.4 C 6084.78 26093.5 6082.02 26085.2 6073.7 26060.2 C 6048.75 25977.1 6026.58 25880 6026.58 25857.8 C 6026.58 25796.9 6084.78 25752.5 6159.64 25752.5 C 6287.16 25752.5 6378.64 25830.1 6553.3 26087.9 L 6517.25 26107.3 C 6381.42 25932.7 6337.06 25888.3 6292.7 25888.3 C 6267.75 25888.3 6251.13 25910.5 6251.13 25943.8 C 6251.13 25946.6 6251.13 25949.3 6253.89 25957.7 L 6497.84 26880.8 L 6730.72 26880.8 L 6744.58 26969.5 " fill="#610b0b"/>
<path transform="matrix(.00359712,0,0,-.00359712,0,148)" stroke-width="110.783" stroke-linecap="butt" stroke-dasharray="110.783,553.929" stroke-miterlimit="10" stroke-linejoin="miter" fill="none" stroke="#610b0b" d="M 17650.9 26433.6 L 17650.9 4368.77 "/>
<path transform="matrix(.00359712,0,0,-.00359712,0,148)" d="M 17516.9 988.5 L 17469.8 988.5 C 17367.2 988.5 17309 1016.23 17311.8 1068.91 C 17311.8 1077.22 17314.6 1088.31 17317.3 1099.39 L 17772 2698.97 L 17569.6 2698.97 L 17528 2568.67 C 17483.7 2696.19 17428.2 2740.55 17314.6 2740.55 C 16948.6 2740.55 16502.3 2230.47 16502.3 1809.08 C 16502.3 1612.25 16610.4 1487.5 16785.1 1487.5 C 16981.9 1487.5 17109.4 1590.08 17356.2 1942.16 L 17109.4 1129.89 C 17073.4 1019 17029 996.828 16848.8 982.953 L 16848.8 938.609 L 17516.9 938.609 L 17516.9 988.5 Z M 17322.9 2679.56 C 17414.4 2679.56 17486.4 2604.72 17486.4 2510.45 C 17486.4 2280.36 17297.9 1886.7 17109.4 1728.69 C 17037.3 1667.7 16962.5 1634.44 16896 1634.44 C 16801.7 1634.44 16740.7 1717.59 16740.7 1847.89 C 16740.7 2053.05 16884.9 2360.75 17065.1 2543.72 C 17151 2629.66 17242.5 2679.56 17322.9 2679.56 " fill="#610b0b"/>
<path transform="matrix(.00359712,0,0,-.00359712,0,148)" d="M 18609.8 3171.44 C 18609.8 3204.39 18582.7 3239.28 18547.8 3239.28 C 18503.2 3239.28 18344.3 3080.33 18288 3047.38 C 18288 3155.92 18342.3 3264.48 18342.3 3330.39 C 18342.3 3371.09 18315.2 3396.3 18274.5 3396.3 C 18235.7 3396.3 18212.4 3369.16 18212.4 3330.39 C 18212.4 3254.78 18259 3152.05 18259 3047.38 C 18196.9 3084.2 18045.7 3247.03 18005 3247.03 C 17970.1 3247.03 17939.1 3214.08 17939.1 3179.19 C 17939.1 3111.34 18167.9 3064.83 18243.5 3022.17 C 18162 2975.66 18010.8 2952.39 17972.1 2927.19 C 17952.7 2913.63 17937.2 2896.17 17937.2 2870.98 C 17937.2 2836.09 17964.3 2805.08 17999.2 2805.08 C 18043.8 2805.08 18200.8 2962.08 18259 2995.05 C 18259 2888.42 18204.7 2779.88 18204.7 2712.03 C 18204.7 2673.27 18233.8 2646.13 18272.5 2646.13 C 18311.3 2646.13 18334.6 2675.2 18334.6 2712.03 C 18334.6 2791.5 18290 2892.3 18290 2995.05 C 18350.1 2960.14 18503.2 2797.31 18542 2797.31 C 18576.9 2797.31 18607.9 2830.27 18607.9 2865.17 C 18607.9 2890.36 18590.4 2907.81 18571 2919.44 C 18520.7 2952.39 18386.9 2973.72 18303.5 3022.17 C 18394.7 3076.45 18518.7 3084.2 18574.9 3117.16 C 18596.3 3128.8 18609.8 3146.23 18609.8 3171.44 " fill="#610b0b"/>
<path transform="matrix(.00359712,0,0,-.00359712,0,148)" d="M 17650.9 26433.6 L 7722.01 26433.6 L 7722.01 31950.2 " fill="#0000ff" fill-opacity=".3"/>
<path transform="matrix(.00359712,0,0,-.00359712,0,148)" d="M 17650.9 15401.2 L 7722.01 15401.2 L 7722.01 9885.38 " fill="#007f7f" fill-opacity=".3"/>
<path transform="matrix(.00359712,0,0,-.00359712,0,148)" d="M 7722.01 15401.2 L 17650.899 15401.2 L 17650.899 26433.602 L 7722.01 26433.602 Z " fill="#660099" fill-opacity=".3"/>
<path transform="matrix(.00359712,0,0,-.00359712,0,148)" d="M 17650.9 26433.6 L 17650.9 15401.2 L 27029.4 20917.8 " fill="#ff0000" fill-opacity=".3"/>
</g>
</svg>
