<?xml version="1.0" encoding="UTF-8" standalone="no"?>
<!DOCTYPE svg PUBLIC "-//W3C//DTD SVG 1.1//EN" "http://www.w3.org/Graphics/SVG/1.1/DTD/svg11.dtd">
<svg xmlns="http://www.w3.org/2000/svg" xmlns:xlink="http://www.w3.org/1999/xlink" version="1.1" width="140pt" height="151pt" viewBox="0 0 140 151">
<g enable-background="new">
<path transform="matrix(.00359712,0,0,-.00359712,0,151)" stroke-width="110.783" stroke-linecap="butt" stroke-miterlimit="10" stroke-linejoin="miter" fill="none" stroke="#000000" d="M 3966.23 7405.09 L 3966.23 38926.9 "/>
<path transform="matrix(.00359712,0,0,-.00359712,0,151)" d="M 3857.94 40190.5 L 3810.81 40190.5 C 3708.23 40190.5 3650.02 40218.2 3652.8 40270.9 C 3652.8 40279.2 3655.56 40290.3 3658.34 40301.4 L 4112.98 41901 L 3910.61 41901 L 3869.03 41770.7 C 3824.67 41898.2 3769.23 41942.5 3655.56 41942.5 C 3289.64 41942.5 2843.31 41432.5 2843.31 41011.1 C 2843.31 40814.3 2951.42 40689.5 3126.08 40689.5 C 3322.91 40689.5 3450.42 40792.1 3697.16 41144.2 L 3450.42 40331.9 C 3414.39 40221 3370.03 40198.8 3189.83 40185 L 3189.83 40140.6 L 3857.94 40140.6 L 3857.94 40190.5 Z M 3663.89 41881.6 C 3755.38 41881.6 3827.44 41806.7 3827.44 41712.5 C 3827.44 41482.4 3638.94 41088.7 3450.42 40930.7 C 3378.34 40869.7 3303.5 40836.4 3236.97 40836.4 C 3142.7 40836.4 3081.72 40919.6 3081.72 41049.9 C 3081.72 41255 3225.88 41562.8 3406.06 41745.7 C 3492 41831.7 3583.48 41881.6 3663.89 41881.6 "/>
<path transform="matrix(.00359712,0,0,-.00359712,0,151)" d="M 4188.08 41080.4 C 4213.28 41086.2 4226.84 41088.1 4248.17 41088.1 C 4358.66 41088.1 4387.73 41039.7 4476.91 40706.3 C 4509.86 40580.3 4556.38 40353.5 4556.38 40320.5 C 4556.38 40289.5 4544.75 40258.5 4515.67 40223.6 C 4455.58 40144.1 4416.81 40093.7 4395.48 40070.5 C 4354.78 40027.8 4331.52 40012.3 4306.33 40012.3 C 4294.69 40012.3 4281.13 40018.1 4259.8 40033.6 C 4230.72 40056.9 4209.41 40066.6 4188.08 40066.6 C 4145.44 40066.6 4112.48 40033.6 4112.48 39991 C 4112.48 39942.5 4155.13 39905.7 4211.34 39905.7 C 4335.39 39905.7 4589.33 40196.5 4798.69 40580.3 C 4930.5 40818.7 4984.77 40958.3 4984.77 41053.2 C 4984.77 41111.4 4936.31 41159.8 4878.16 41159.8 C 4833.58 41159.8 4802.56 41130.8 4802.56 41088.1 C 4802.56 41059 4818.06 41037.7 4856.83 41012.5 C 4893.67 40991.2 4907.23 40973.8 4907.23 40946.6 C 4907.23 40869.1 4835.52 40717.9 4670.75 40444.6 L 4631.98 40669.4 C 4602.91 40840 4494.34 41159.8 4465.27 41159.8 L 4457.52 41159.8 C 4455.58 41157.9 4447.83 41157.9 4440.08 41157.9 C 4422.63 41156 4352.84 41144.3 4250.11 41125 C 4240.42 41123 4215.22 41117.2 4188.08 41113.3 L 4188.08 41080.4 "/>
<path transform="matrix(.00359712,0,0,-.00359712,0,151)" stroke-width="110.783" stroke-linecap="butt" stroke-miterlimit="10" stroke-linejoin="miter" fill="none" stroke="#000000" d="M 3966.23 7405.09 L 35488 7405.09 "/>
<path transform="matrix(.00359712,0,0,-.00359712,0,151)" d="M 37549.9 6552.5 L 37502.8 6552.5 C 37400.2 6552.5 37342 6580.23 37344.8 6632.91 C 37344.8 6641.22 37347.6 6652.31 37350.3 6663.39 L 37805 8262.97 L 37602.6 8262.97 L 37561 8132.67 C 37516.7 8260.19 37461.2 8304.55 37347.6 8304.55 C 36981.6 8304.55 36535.3 7794.47 36535.3 7373.08 C 36535.3 7176.25 36643.4 7051.5 36818.1 7051.5 C 37014.9 7051.5 37142.4 7154.08 37389.2 7506.16 L 37142.4 6693.89 C 37106.4 6583 37062 6560.83 36881.8 6546.95 L 36881.8 6502.61 L 37549.9 6502.61 L 37549.9 6552.5 Z M 37355.9 8243.56 C 37447.4 8243.56 37519.4 8168.72 37519.4 8074.45 C 37519.4 7844.36 37330.9 7450.7 37142.4 7292.69 C 37070.3 7231.7 36995.5 7198.44 36929 7198.44 C 36834.7 7198.44 36773.7 7281.59 36773.7 7411.89 C 36773.7 7617.05 36917.9 7924.75 37098.1 8107.72 C 37184 8193.66 37275.5 8243.56 37355.9 8243.56 "/>
<path transform="matrix(.00359712,0,0,-.00359712,0,151)" d="M 38727.3 6882.17 C 38711.8 6864.72 38702 6853.09 38684.6 6829.83 C 38640 6771.67 38616.8 6752.3 38595.4 6752.3 C 38566.4 6752.3 38548.9 6777.48 38535.3 6831.77 C 38531.5 6847.28 38529.5 6858.91 38527.6 6864.72 C 38479.1 7060.5 38457.8 7149.67 38457.8 7178.75 C 38543.1 7328 38612.9 7413.3 38647.8 7413.3 C 38659.4 7413.3 38674.9 7407.48 38694.3 7397.78 C 38717.6 7384.22 38731.1 7380.34 38746.6 7380.34 C 38787.3 7380.34 38814.5 7409.42 38814.5 7450.13 C 38814.5 7490.83 38781.5 7521.84 38735 7521.84 C 38649.7 7521.84 38576 7452.06 38442.3 7244.66 L 38421 7351.27 C 38393.8 7483.08 38372.5 7521.84 38320.2 7521.84 C 38277.5 7521.84 38211.6 7504.41 38093.4 7465.64 L 38072.1 7457.88 L 38079.8 7428.8 C 38153.5 7446.25 38170.9 7450.13 38188.4 7450.13 C 38236.8 7450.13 38248.5 7432.69 38275.6 7316.38 L 38331.8 7077.95 L 38172.9 6851.16 C 38134.1 6793 38095.3 6758.11 38074 6758.11 C 38062.4 6758.11 38043 6763.92 38023.6 6775.55 C 37998.4 6789.13 37977.1 6794.94 37961.6 6794.94 C 37924.7 6794.94 37895.7 6765.86 37895.7 6727.09 C 37895.7 6676.69 37934.4 6645.67 37992.6 6645.67 C 38052.7 6645.67 38075.9 6663.13 38172.9 6781.38 C 38225.2 6843.39 38265.9 6895.73 38347.3 7008.17 L 38405.5 6775.55 C 38430.7 6676.69 38455.9 6645.67 38517.9 6645.67 C 38591.6 6645.67 38642 6692.2 38754.4 6866.66 L 38727.3 6882.17 "/>
<path transform="matrix(.00359712,0,0,-.00359712,0,151)" stroke-width="332.357" stroke-linecap="butt" stroke-miterlimit="10" stroke-linejoin="miter" fill="none" stroke="#610b0b" d="M 22879.3 7405.09 L 3966.23 32622.5 "/>
<path transform="matrix(.00359712,0,0,-.00359712,0,151)" d="M 839.828 34012 L 1516.25 34012 L 1516.25 34056.4 C 1358.23 34075.8 1327.73 34092.4 1327.73 34170 C 1327.73 34222.7 1333.28 34256 1358.23 34344.7 L 1699.22 35572.8 C 1749.11 35733.5 1768.52 35750.2 1926.53 35777.9 L 1926.53 35822.3 L 1241.8 35822.3 L 1241.8 35777.9 C 1402.58 35758.5 1435.84 35736.3 1435.84 35658.7 C 1435.84 35619.9 1424.77 35556.1 1405.36 35486.8 L 1064.38 34261.5 C 1014.47 34100.7 995.063 34084.1 839.828 34056.4 L 839.828 34012 "/>
<path transform="matrix(.00359712,0,0,-.00359712,0,151)" stroke-width="155.096" stroke-linecap="butt" stroke-miterlimit="10" stroke-linejoin="miter" fill="none" stroke="#000000" d="M 63.3828 32849 L 2655.18 32849 "/>
<path transform="matrix(.00359712,0,0,-.00359712,0,151)" d="M 426.25 31358 L 490 31358 C 490 31358 495.547 31358 498.328 31360.8 C 534.359 31377.4 606.438 31324.7 606.438 31283.1 C 606.438 31258.2 506.641 30864.5 409.609 30498.6 C 334.766 30221.4 268.234 29958 248.828 29877.6 C 218.328 29750.1 182.281 29716.8 63.0781 29714 L 63.0781 29669.7 L 631.391 29669.7 L 631.391 29711.3 C 501.094 29711.3 453.969 29736.2 453.969 29794.4 C 453.969 29833.3 501.094 30049.5 556.547 30254.6 C 625.844 30218.6 675.75 30207.5 739.5 30207.5 C 1144.25 30207.5 1571.17 30673.2 1571.17 31114 C 1571.17 31330.3 1449.19 31460.5 1252.38 31460.5 C 1072.17 31460.5 939.109 31371.8 778.313 31147.3 L 858.719 31424.5 L 867.031 31449.5 C 867.031 31449.5 864.25 31452.2 861.484 31457.8 L 855.938 31460.5 C 855.938 31463.3 853.172 31463.3 853.172 31463.3 L 847.625 31460.5 L 420.703 31399.6 L 426.25 31358 Z M 1149.8 31341.3 C 1269 31335.8 1321.67 31263.7 1321.67 31102.9 C 1321.67 30920 1241.28 30681.6 1122.08 30509.7 C 1005.64 30346.1 872.578 30260.2 728.422 30260.2 C 650.797 30260.2 595.344 30301.8 595.344 30362.8 C 595.344 30457 695.156 30820.2 775.547 31025.3 C 850.391 31213.8 1011.19 31349.7 1149.8 31341.3 "/>
<path transform="matrix(.00359712,0,0,-.00359712,0,151)" d="M 1685.08 30597.4 C 1710.28 30603.2 1723.84 30605.1 1745.17 30605.1 C 1855.66 30605.1 1884.73 30556.7 1973.91 30223.3 C 2006.86 30097.3 2053.38 29870.5 2053.38 29837.5 C 2053.38 29806.5 2041.75 29775.5 2012.67 29740.6 C 1952.58 29661.1 1913.81 29610.7 1892.48 29587.5 C 1851.78 29544.8 1828.52 29529.3 1803.33 29529.3 C 1791.69 29529.3 1778.13 29535.1 1756.8 29550.6 C 1727.72 29573.9 1706.41 29583.6 1685.08 29583.6 C 1642.44 29583.6 1609.48 29550.6 1609.48 29508 C 1609.48 29459.5 1652.13 29422.7 1708.34 29422.7 C 1832.39 29422.7 2086.33 29713.5 2295.69 30097.3 C 2427.5 30335.7 2481.77 30475.3 2481.77 30570.2 C 2481.77 30628.4 2433.31 30676.8 2375.16 30676.8 C 2330.58 30676.8 2299.56 30647.8 2299.56 30605.1 C 2299.56 30576 2315.06 30554.7 2353.83 30529.5 C 2390.67 30508.2 2404.23 30490.8 2404.23 30463.6 C 2404.23 30386.1 2332.52 30234.9 2167.75 29961.6 L 2128.98 30186.4 C 2099.91 30357 1991.34 30676.8 1962.27 30676.8 L 1954.52 30676.8 C 1952.58 30674.9 1944.83 30674.9 1937.08 30674.9 C 1919.63 30673 1849.84 30661.3 1747.11 30642 C 1737.42 30640 1712.22 30634.2 1685.08 30630.3 L 1685.08 30597.4 "/>
<path transform="matrix(.00359712,0,0,-.00359712,0,151)" d="M 22359.8 4617 L 23036.3 4617 L 23036.3 4661.36 C 22878.2 4680.77 22847.7 4697.39 22847.7 4775.02 C 22847.7 4827.69 22853.3 4860.95 22878.2 4949.67 L 23219.2 6177.77 C 23269.1 6338.55 23288.5 6355.19 23446.5 6382.91 L 23446.5 6427.27 L 22761.8 6427.27 L 22761.8 6382.91 C 22922.6 6363.5 22955.8 6341.33 22955.8 6263.7 C 22955.8 6224.89 22944.8 6161.13 22925.4 6091.83 L 22584.4 4866.5 C 22534.5 4705.72 22515.1 4689.08 22359.8 4661.36 L 22359.8 4617 "/>
<path transform="matrix(.00359712,0,0,-.00359712,0,151)" stroke-width="155.096" stroke-linecap="butt" stroke-miterlimit="10" stroke-linejoin="miter" fill="none" stroke="#000000" d="M 21531.9 3453.32 L 24226.6 3453.32 "/>
<path transform="matrix(.00359712,0,0,-.00359712,0,151)" d="M 21895.3 1961.98 L 21959 1961.98 C 21959 1961.98 21964.5 1961.98 21967.3 1964.75 C 22003.4 1981.39 22075.4 1928.72 22075.4 1887.13 C 22075.4 1862.17 21975.6 1468.52 21878.6 1102.59 C 21803.8 825.359 21737.2 562 21717.8 481.609 C 21687.3 354.094 21651.3 320.828 21532.1 318.047 L 21532.1 273.688 L 22100.4 273.688 L 22100.4 315.281 C 21970.1 315.281 21923 340.234 21923 398.438 C 21923 437.25 21970.1 653.484 22025.5 858.641 C 22094.8 822.594 22144.8 811.5 22208.5 811.5 C 22613.3 811.5 23040.2 1277.23 23040.2 1718.02 C 23040.2 1934.25 22918.2 2064.55 22721.4 2064.55 C 22541.2 2064.55 22408.1 1975.84 22247.3 1751.3 L 22327.7 2028.52 L 22336 2053.47 C 22336 2053.47 22333.3 2056.23 22330.5 2061.78 L 22324.9 2064.55 C 22324.9 2067.33 22322.2 2067.33 22322.2 2067.33 L 22316.6 2064.55 L 21889.7 2003.56 L 21895.3 1961.98 Z M 22618.8 1945.34 C 22738 1939.8 22790.7 1867.72 22790.7 1706.94 C 22790.7 1523.97 22710.3 1285.56 22591.1 1113.67 C 22474.6 950.109 22341.6 864.172 22197.4 864.172 C 22119.8 864.172 22064.3 905.766 22064.3 966.75 C 22064.3 1061 22164.2 1424.17 22244.5 1629.31 C 22319.4 1817.83 22480.2 1953.66 22618.8 1945.34 "/>
<path transform="matrix(.00359712,0,0,-.00359712,0,151)" d="M 24000.3 641.172 C 23984.8 623.719 23975 612.094 23957.6 588.828 C 23913 530.672 23889.8 511.297 23868.4 511.297 C 23839.4 511.297 23821.9 536.484 23808.3 590.766 C 23804.5 606.281 23802.5 617.906 23800.6 623.719 C 23752.1 819.5 23730.8 908.672 23730.8 937.75 C 23816.1 1087 23885.9 1172.3 23920.8 1172.3 C 23932.4 1172.3 23947.9 1166.48 23967.3 1156.78 C 23990.6 1143.22 24004.1 1139.34 24019.6 1139.34 C 24060.3 1139.34 24087.5 1168.42 24087.5 1209.13 C 24087.5 1249.83 24054.5 1280.84 24008 1280.84 C 23922.7 1280.84 23849 1211.06 23715.3 1003.66 L 23694 1110.27 C 23666.8 1242.08 23645.5 1280.84 23593.2 1280.84 C 23550.5 1280.84 23484.6 1263.41 23366.4 1224.64 L 23345.1 1216.88 L 23352.8 1187.8 C 23426.5 1205.25 23443.9 1209.13 23461.4 1209.13 C 23509.8 1209.13 23521.5 1191.69 23548.6 1075.38 L 23604.8 836.953 L 23445.9 610.156 C 23407.1 552 23368.3 517.109 23347 517.109 C 23335.4 517.109 23316 522.922 23296.6 534.547 C 23271.4 548.125 23250.1 553.938 23234.6 553.938 C 23197.7 553.938 23168.7 524.859 23168.7 486.094 C 23168.7 435.688 23207.4 404.672 23265.6 404.672 C 23325.7 404.672 23348.9 422.125 23445.9 540.375 C 23498.2 602.391 23538.9 654.734 23620.3 767.172 L 23678.5 534.547 C 23703.7 435.688 23728.9 404.672 23790.9 404.672 C 23864.6 404.672 23915 451.203 24027.4 625.656 L 24000.3 641.172 "/>
<path transform="matrix(.00359712,0,0,-.00359712,0,151)" d="M 16057.3 27109.8 C 16198.6 27269.7 16265.3 27357.7 16355.9 27499 L 16355.9 26672.5 C 16355.9 26509.9 16355.9 26389.9 16353.3 26315.3 C 16350.6 26094 16350.6 26094 16350.6 25963.4 C 16350.6 25942 16361.2 25934 16385.2 25934 C 16427.9 25934 16481.2 25939.4 16507.9 25947.4 C 16526.5 25952.7 16534.5 25963.4 16534.5 25979.4 C 16534.5 25979.4 16534.5 25982 16534.5 25984.7 C 16526.5 26286 16526.5 26296.6 16526.5 26397.9 L 16526.5 26685.9 L 16529.2 27512.3 C 16574.5 27531 16598.5 27547 16598.5 27563 C 16598.5 27581.6 16558.5 27592.3 16475.9 27603 C 16465.2 27603 16446.5 27605.6 16422.6 27608.3 C 16569.2 27850.9 16662.5 28034.9 16739.8 28221.5 C 16806.5 28240.1 16846.5 28253.5 16854.5 28258.8 C 16865.1 28264.1 16870.5 28274.8 16870.5 28282.8 C 16870.5 28301.5 16790.5 28330.8 16569.2 28384.1 C 16553.2 28261.5 16507.9 28120.2 16395.9 27842.9 C 16283.9 27571 16227.9 27459 16028 27131.1 L 16057.3 27109.8 Z M 16899.8 27309.7 C 17094.4 27424.3 17129 27445.7 17254.4 27544.3 C 17283.7 27541.7 17302.3 27539 17313 27539 C 17331.7 27539 17345 27547 17345 27560.3 C 17345 27573.6 17334.3 27587 17313 27605.6 C 17310.3 27605.6 17283.7 27627 17249 27653.6 C 17227.7 27672.3 17195.7 27696.3 17153 27730.9 C 17107.7 27627 17014.4 27491 16899.8 27360.4 L 16899.8 27890.9 C 16955.8 27906.9 16993.1 27928.2 16993.1 27946.9 C 16993.1 27965.5 16961.1 27976.2 16849.1 27992.2 C 16822.5 27994.9 16785.1 28000.2 16734.5 28008.2 C 16739.8 27925.6 16739.8 27912.2 16739.8 27768.3 L 16739.8 26539.2 C 16745.1 26424.6 16771.8 26408.6 16947.8 26408.6 C 17209 26408.6 17299.7 26435.3 17299.7 26507.2 C 17299.7 26533.9 17291.7 26549.9 17275.7 26560.6 C 17238.4 26584.5 17238.4 26584.5 17238.4 26595.2 L 17238.4 26651.2 L 17251.7 27040.4 L 17217 27040.4 C 17158.4 26763.2 17131.7 26643.2 17113.1 26597.9 C 17099.7 26563.2 17081.1 26555.2 16995.8 26555.2 C 16913.1 26555.2 16899.8 26560.6 16899.8 26600.5 L 16899.8 27309.7 Z M 18568.7 28128.2 C 18582 28128.2 18595.4 28136.2 18595.4 28146.8 C 18595.4 28152.2 18592.7 28160.2 18582 28168.2 C 18472.7 28250.8 18438.1 28277.5 18328.8 28357.5 C 18272.8 28290.8 18251.4 28266.8 18190.1 28189.5 L 17369 28189.5 C 17273 28189.5 17214.4 28194.8 17131.7 28210.8 L 17158.4 28109.5 C 17246.4 28122.8 17294.3 28128.2 17369 28128.2 L 17771.6 28128.2 C 17760.9 27989.5 17752.9 27941.5 17710.2 27768.3 L 17555.6 27768.3 C 17478.3 27810.9 17451.6 27821.6 17369 27858.9 C 17377 27637.6 17377 27613.6 17377 27587 C 17377 27131.1 17371.7 26680.5 17366.3 26483.3 C 17366.3 26480.6 17366.3 26475.3 17366.3 26472.6 C 17366.3 26451.3 17382.3 26440.6 17411.7 26440.6 C 17433 26440.6 17491.6 26445.9 17513 26448.6 C 17534.3 26451.3 17539.6 26461.9 17539.6 26483.3 L 17539.6 26539.2 L 18208.8 26539.2 L 18208.8 26464.6 C 18208.8 26461.9 18208.8 26456.6 18208.8 26456.6 C 18208.8 26435.3 18219.5 26424.6 18243.4 26424.6 C 18270.1 26424.6 18358.1 26432.6 18366.1 26435.3 C 18384.7 26437.9 18390.1 26445.9 18390.1 26469.9 C 18384.7 26664.5 18384.7 26757.8 18384.7 26923.1 L 18384.7 27685.6 C 18430.1 27706.9 18451.4 27725.6 18451.4 27741.6 C 18451.4 27749.6 18446.1 27757.6 18430.1 27770.9 C 18366.1 27818.9 18344.8 27834.9 18275.4 27880.2 C 18235.4 27832.3 18222.1 27816.3 18184.8 27768.3 L 17774.2 27768.3 C 17864.9 27890.9 17894.2 27938.9 17987.5 28128.2 L 18568.7 28128.2 Z M 18208.8 27405.7 L 17539.6 27405.7 L 17539.6 27706.9 L 18208.8 27706.9 L 18208.8 27405.7 Z M 18208.8 27344.4 L 18208.8 27011.1 L 17539.6 27011.1 L 17539.6 27344.4 L 18208.8 27344.4 Z M 18208.8 26949.8 L 18208.8 26600.5 L 17539.6 26600.5 L 17539.6 26949.8 L 18208.8 26949.8 Z M 17888.9 26419.3 C 18088.8 26294 18270.1 26147.3 18395.4 26014 C 18443.4 25963.4 18459.4 25952.7 18478 25952.7 C 18512.7 25952.7 18534 26003.4 18534 26078 C 18534 26158 18499.4 26216.6 18430.1 26254 C 18323.4 26312.6 18147.5 26379.3 17902.2 26453.9 L 17888.9 26419.3 Z M 16899.8 25944.7 C 17246.4 26035.4 17409 26104.7 17670.3 26267.3 C 17766.2 26267.3 17790.2 26272.6 17790.2 26294 C 17790.2 26312.6 17739.6 26344.6 17555.6 26440.6 C 17515.6 26384.6 17475.6 26347.3 17366.3 26264.6 C 17235.7 26163.3 17190.4 26136.7 16875.8 25974 L 16899.8 25944.7 "/>
<path transform="matrix(.00359712,0,0,-.00359712,0,151)" d="M 19114.2 27802.9 C 19231.5 27672.3 19356.8 27608.3 19503.5 27608.3 C 19644.8 27608.3 19820.7 27637.6 19999.3 27693.6 C 20060.7 27597.6 20130 27477.7 20186 27373.7 C 19964.7 27307 19770.1 27272.4 19615.4 27272.4 C 19474.1 27272.4 19386.2 27315 19300.8 27429.7 L 19268.8 27405.7 C 19314.2 27320.4 19343.5 27283 19396.8 27245.7 C 19474.1 27192.4 19559.4 27168.4 19674.1 27168.4 C 19836.7 27168.4 20063.3 27208.4 20241.9 27269.7 C 20340.6 27080.4 20412.6 26923.1 20441.9 26816.5 C 20247.3 26859.2 20098 26875.1 19940.7 26875.1 C 19519.5 26875.1 19236.9 26715.2 19236.9 26475.3 C 19236.9 26336.6 19332.8 26211.3 19495.5 26139.3 C 19615.4 26088.7 19799.4 26059.3 20007.3 26059.3 C 20159.3 26059.3 20321.9 26078 20372.6 26099.3 C 20399.2 26110 20412.6 26128.7 20412.6 26150 C 20412.6 26216.6 20316.6 26291.3 20236.6 26291.3 C 20228.6 26291.3 20218 26288.6 20204.6 26286 C 20076.7 26256.6 19999.3 26248.6 19868.7 26248.6 C 19540.8 26248.6 19364.8 26336.6 19364.8 26501.9 C 19364.8 26592.5 19415.5 26661.9 19524.8 26717.9 C 19615.4 26765.8 19735.4 26792.5 19858 26792.5 C 20092.6 26792.5 20340.6 26717.9 20476.5 26608.5 C 20519.2 26573.9 20527.2 26568.6 20551.2 26568.6 C 20604.5 26568.6 20639.2 26637.9 20639.2 26741.8 C 20639.2 26792.5 20625.8 26835.2 20593.9 26885.8 C 20532.5 26987.1 20532.5 26987.1 20471.2 27096.4 C 20447.2 27139.1 20433.9 27163.1 20351.3 27304.4 C 20713.8 27432.3 20868.5 27515 20868.5 27579 C 20868.5 27619 20839.1 27645.6 20796.5 27645.6 C 20791.1 27645.6 20783.1 27645.6 20775.1 27643 L 20727.2 27637.6 C 20727.2 27637.6 20727.2 27637.6 20727.2 27637.6 C 20673.8 27637.6 20604.5 27661.6 20503.2 27712.3 L 20484.5 27685.6 C 20548.5 27635 20567.2 27619 20623.2 27560.3 C 20553.9 27517.7 20503.2 27496.3 20292.6 27413.7 C 20220.6 27531 20178 27605.6 20162 27632.3 C 20130 27685.6 20130 27685.6 20103.3 27730.9 C 20321.9 27800.3 20452.6 27845.6 20495.2 27864.2 C 20633.8 27922.9 20668.5 27944.2 20668.5 27981.5 C 20668.5 28026.9 20615.2 28050.9 20511.2 28050.9 C 20471.2 28050.9 20447.2 28042.9 20425.9 28024.2 C 20353.9 27949.5 20289.9 27917.6 20044.7 27826.9 C 19938 28037.5 19938 28037.5 19935.3 28090.8 C 19930 28165.5 19927.4 28173.5 19903.4 28194.8 C 19879.4 28216.2 19815.4 28229.5 19722.1 28229.5 C 19674.1 28229.5 19642.1 28226.8 19599.4 28216.2 C 19527.5 28200.2 19511.5 28192.2 19492.8 28146.8 C 19591.4 28136.2 19663.4 28117.5 19698.1 28090.8 C 19759.4 28045.5 19866 27906.9 19927.4 27792.3 C 19810 27746.9 19612.8 27712.3 19490.1 27712.3 C 19348.8 27712.3 19260.8 27741.6 19135.5 27832.3 L 19114.2 27802.9 "/>
<path transform="matrix(.00359712,0,0,-.00359712,0,151)" d="M 22128.5 27120.4 L 21984.5 26776.5 L 21872.5 26509.9 C 21840.5 26619.2 21829.9 26704.5 21829.9 26840.5 C 21829.9 27125.8 21904.5 27443 22032.5 27709.6 C 22075.1 27797.6 22075.1 27797.6 22075.1 27826.9 C 22075.1 27877.6 22040.5 27952.2 21979.2 28029.5 C 21904.5 28125.5 21853.9 28160.2 21792.5 28162.8 C 21848.5 28072.2 21869.9 28008.2 21869.9 27928.2 C 21869.9 27882.9 21864.5 27853.6 21829.9 27688.3 C 21739.2 27269.7 21709.9 27045.8 21709.9 26800.5 C 21709.9 26603.2 21741.9 26400.6 21795.2 26264.6 C 21827.2 26182 21864.5 26144.7 21909.9 26144.7 C 21931.2 26144.7 21947.2 26155.3 21960.5 26174 C 21973.8 26195.3 21976.5 26206 21979.2 26291.3 C 21979.2 26357.9 21987.2 26400.6 22013.8 26517.9 C 22045.8 26648.5 22120.5 26939.1 22168.5 27107.1 L 22128.5 27120.4 Z M 22411.1 27560.3 C 22544.4 27421.7 22656.3 27373.7 22851 27373.7 C 22928.3 27373.7 23005.6 27379 23085.6 27395 L 23088.2 27053.8 L 23093.6 26768.5 C 23093.6 26763.2 23093.6 26747.2 23093.6 26723.2 C 23018.9 26728.5 22981.6 26731.2 22930.9 26731.2 C 22627 26731.2 22429.7 26613.9 22429.7 26429.9 C 22429.7 26270 22592.4 26158 22824.3 26158 C 23090.9 26158 23250.9 26272.6 23250.9 26464.6 C 23250.9 26483.3 23250.9 26504.6 23248.2 26528.6 C 23352.2 26483.3 23418.8 26435.3 23536.1 26315.3 C 23589.4 26262 23608.1 26248.6 23629.4 26248.6 C 23658.8 26248.6 23682.8 26291.3 23682.8 26347.3 C 23682.8 26501.9 23552.1 26605.9 23242.9 26688.5 C 23216.2 26912.5 23208.2 27059.1 23208.2 27413.7 C 23485.5 27467 23680.1 27547 23680.1 27605.6 C 23680.1 27624.3 23666.8 27643 23645.4 27653.6 C 23613.4 27672.3 23552.1 27688.3 23520.1 27688.3 C 23496.1 27688.3 23488.1 27685.6 23461.5 27659 C 23416.2 27619 23338.8 27584.3 23216.2 27549.7 C 23226.9 27733.6 23242.9 27829.6 23272.2 27906.9 C 23296.2 27968.2 23296.2 27970.9 23296.2 27989.5 C 23296.2 28029.5 23256.2 28061.5 23178.9 28085.5 C 23128.2 28098.8 23056.2 28109.5 22997.6 28109.5 C 22928.3 28109.5 22906.9 28101.5 22869.6 28066.9 C 22954.9 28058.9 23013.6 28040.2 23045.6 28005.5 C 23080.2 27968.2 23082.9 27933.5 23082.9 27635 C 23082.9 27611 23082.9 27568.3 23082.9 27517.7 C 22973.6 27493.7 22872.3 27480.3 22779 27480.3 C 22645.7 27480.3 22563 27507 22435.1 27589.6 L 22411.1 27560.3 Z M 23090.9 26584.5 C 23090.9 26485.9 23082.9 26445.9 23056.2 26397.9 C 23013.6 26315.3 22909.6 26272.6 22763 26272.6 C 22605.7 26272.6 22501.7 26336.6 22501.7 26429.9 C 22501.7 26547.2 22632.3 26616.5 22843 26616.5 C 22941.6 26616.5 23016.3 26605.9 23090.9 26584.5 "/>
<path transform="matrix(.00359712,0,0,-.00359712,0,151)" d="M 26240.3 26760.8 L 26240.3 26916.1 L 24820.9 26916.1 L 24820.9 26760.8 L 26240.3 26760.8 "/>
<path transform="matrix(.00359712,0,0,-.00359712,0,151)" d="M 27106.3 29121 L 27170 29121 C 27170 29121 27175.5 29121 27178.3 29123.8 C 27214.4 29140.4 27286.4 29087.7 27286.4 29046.1 C 27286.4 29021.2 27186.6 28627.5 27089.6 28261.6 C 27014.8 27984.4 26948.2 27721 26928.8 27640.6 C 26898.3 27513.1 26862.3 27479.8 26743.1 27477 L 26743.1 27432.7 L 27311.4 27432.7 L 27311.4 27474.3 C 27181.1 27474.3 27134 27499.2 27134 27557.4 C 27134 27596.3 27181.1 27812.5 27236.5 28017.6 C 27305.8 27981.6 27355.8 27970.5 27419.5 27970.5 C 27824.3 27970.5 28251.2 28436.2 28251.2 28877 C 28251.2 29093.3 28129.2 29223.5 27932.4 29223.5 C 27752.2 29223.5 27619.1 29134.8 27458.3 28910.3 L 27538.7 29187.5 L 27547 29212.5 C 27547 29212.5 27544.3 29215.2 27541.5 29220.8 L 27535.9 29223.5 C 27535.9 29226.3 27533.2 29226.3 27533.2 29226.3 L 27527.6 29223.5 L 27100.7 29162.6 L 27106.3 29121 Z M 27829.8 29104.3 C 27949 29098.8 28001.7 29026.7 28001.7 28865.9 C 28001.7 28683 27921.3 28444.6 27802.1 28272.7 C 27685.6 28109.1 27552.6 28023.2 27408.4 28023.2 C 27330.8 28023.2 27275.3 28064.8 27275.3 28125.8 C 27275.3 28220 27375.2 28583.2 27455.5 28788.3 C 27530.4 28976.8 27691.2 29112.7 27829.8 29104.3 "/>
<path transform="matrix(.00359712,0,0,-.00359712,0,151)" d="M 29212.3 27800.2 C 29196.8 27782.7 29187 27771.1 29169.6 27747.8 C 29125 27689.7 29101.8 27670.3 29080.4 27670.3 C 29051.4 27670.3 29033.9 27695.5 29020.3 27749.8 C 29016.5 27765.3 29014.5 27776.9 29012.6 27782.7 C 28964.1 27978.5 28942.8 28067.7 28942.8 28096.8 C 29028.1 28246 29097.9 28331.3 29132.8 28331.3 C 29144.4 28331.3 29159.9 28325.5 29179.3 28315.8 C 29202.6 28302.2 29216.1 28298.3 29231.6 28298.3 C 29272.3 28298.3 29299.5 28327.4 29299.5 28368.1 C 29299.5 28408.8 29266.5 28439.8 29220 28439.8 C 29134.7 28439.8 29061 28370.1 28927.3 28162.7 L 28906 28269.3 C 28878.8 28401.1 28857.5 28439.8 28805.2 28439.8 C 28762.5 28439.8 28696.6 28422.4 28578.4 28383.6 L 28557.1 28375.9 L 28564.8 28346.8 C 28638.5 28364.3 28655.9 28368.1 28673.4 28368.1 C 28721.8 28368.1 28733.5 28350.7 28760.6 28234.4 L 28816.8 27996 L 28657.9 27769.2 C 28619.1 27711 28580.3 27676.1 28559 27676.1 C 28547.4 27676.1 28528 27681.9 28508.6 27693.5 C 28483.4 27707.1 28462.1 27712.9 28446.6 27712.9 C 28409.7 27712.9 28380.7 27683.9 28380.7 27645.1 C 28380.7 27594.7 28419.4 27563.7 28477.6 27563.7 C 28537.7 27563.7 28560.9 27581.1 28657.9 27699.4 C 28710.2 27761.4 28750.9 27813.7 28832.3 27926.2 L 28890.5 27693.5 C 28915.7 27594.7 28940.9 27563.7 29002.9 27563.7 C 29076.6 27563.7 29127 27610.2 29239.4 27784.7 L 29212.3 27800.2 "/>
<path transform="matrix(.00359712,0,0,-.00359712,0,151)" stroke-width="155.096" stroke-linecap="butt" stroke-miterlimit="10" stroke-linejoin="miter" fill="none" stroke="#000000" d="M 26743.3 26837.6 L 29437.7 26837.6 "/>
<path transform="matrix(.00359712,0,0,-.00359712,0,151)" d="M 27157.3 25346 L 27221 25346 C 27221 25346 27226.5 25346 27229.3 25348.8 C 27265.4 25365.4 27337.4 25312.7 27337.4 25271.1 C 27337.4 25246.2 27237.6 24852.5 27140.6 24486.6 C 27065.8 24209.4 26999.2 23946 26979.8 23865.6 C 26949.3 23738.1 26913.3 23704.8 26794.1 23702 L 26794.1 23657.7 L 27362.4 23657.7 L 27362.4 23699.3 C 27232.1 23699.3 27185 23724.2 27185 23782.4 C 27185 23821.3 27232.1 24037.5 27287.5 24242.6 C 27356.8 24206.6 27406.8 24195.5 27470.5 24195.5 C 27875.3 24195.5 28302.2 24661.2 28302.2 25102 C 28302.2 25318.3 28180.2 25448.5 27983.4 25448.5 C 27803.2 25448.5 27670.1 25359.8 27509.3 25135.3 L 27589.7 25412.5 L 27598 25437.5 C 27598 25437.5 27595.3 25440.2 27592.5 25445.8 L 27586.9 25448.5 C 27586.9 25451.3 27584.2 25451.3 27584.2 25451.3 L 27578.6 25448.5 L 27151.7 25387.6 L 27157.3 25346 Z M 27880.8 25329.3 C 28000 25323.8 28052.7 25251.7 28052.7 25090.9 C 28052.7 24908 27972.3 24669.6 27853.1 24497.7 C 27736.6 24334.1 27603.6 24248.2 27459.4 24248.2 C 27381.8 24248.2 27326.3 24289.8 27326.3 24350.8 C 27326.3 24445 27426.2 24808.2 27506.5 25013.3 C 27581.4 25201.8 27742.2 25337.7 27880.8 25329.3 "/>
<path transform="matrix(.00359712,0,0,-.00359712,0,151)" d="M 28416.1 24585.4 C 28441.3 24591.2 28454.8 24593.1 28476.2 24593.1 C 28586.7 24593.1 28615.7 24544.7 28704.9 24211.3 C 28737.9 24085.3 28784.4 23858.5 28784.4 23825.5 C 28784.4 23794.5 28772.8 23763.5 28743.7 23728.6 C 28683.6 23649.1 28644.8 23598.7 28623.5 23575.5 C 28582.8 23532.8 28559.5 23517.3 28534.3 23517.3 C 28522.7 23517.3 28509.1 23523.1 28487.8 23538.6 C 28458.7 23561.9 28437.4 23571.6 28416.1 23571.6 C 28373.4 23571.6 28340.5 23538.6 28340.5 23496 C 28340.5 23447.5 28383.1 23410.7 28439.3 23410.7 C 28563.4 23410.7 28817.3 23701.5 29026.7 24085.3 C 29158.5 24323.7 29212.8 24463.3 29212.8 24558.2 C 29212.8 24616.4 29164.3 24664.8 29106.2 24664.8 C 29061.6 24664.8 29030.6 24635.8 29030.6 24593.1 C 29030.6 24564 29046.1 24542.7 29084.8 24517.5 C 29121.7 24496.2 29135.2 24478.8 29135.2 24451.6 C 29135.2 24374.1 29063.5 24222.9 28898.8 23949.6 L 28860 24174.4 C 28830.9 24345 28722.3 24664.8 28693.3 24664.8 L 28685.5 24664.8 C 28683.6 24662.9 28675.8 24662.9 28668.1 24662.9 C 28650.6 24661 28580.8 24649.3 28478.1 24630 C 28468.4 24628 28443.2 24622.2 28416.1 24618.3 L 28416.1 24585.4 "/>
</g>
</svg>
