<?xml version="1.0" encoding="UTF-8" standalone="no"?>
<!DOCTYPE svg PUBLIC "-//W3C//DTD SVG 1.1//EN" "http://www.w3.org/Graphics/SVG/1.1/DTD/svg11.dtd">
<svg xmlns="http://www.w3.org/2000/svg" xmlns:xlink="http://www.w3.org/1999/xlink" version="1.1" width="115pt" height="115pt" viewBox="0 0 115 115">
<g enable-background="new">
<path transform="matrix(.00359712,0,0,-.00359712,0,115)" stroke-width="110.783" stroke-linecap="butt" stroke-miterlimit="10" stroke-linejoin="miter" fill="none" stroke="#000000" d="M 253.535 170.414 L 31775.2 170.414 "/>
<path transform="matrix(.00359712,0,0,-.00359712,0,115)" stroke-width="110.783" stroke-linecap="butt" stroke-miterlimit="10" stroke-linejoin="miter" fill="none" stroke="#000000" d="M 253.535 170.414 L 253.535 31692.1 "/>
<path transform="matrix(.00359712,0,0,-.00359712,0,115)" stroke-width="332.357" stroke-linecap="butt" stroke-miterlimit="10" stroke-linejoin="miter" fill="none" stroke="#000000" d="M 6557.89 27751.9 C 7635.87 21638.1 9260.49 17956.8 13650.2 13567.1 C 18039.9 9177.37 21721.2 7552.75 27835 6474.77 "/>
<path transform="matrix(.00359712,0,0,-.00359712,0,115)" stroke-width="332.357" stroke-linecap="butt" stroke-miterlimit="10" stroke-linejoin="miter" fill="none" stroke="#000000" d="M 4193.74 27751.9 C 5391.5 20958.8 7196.7 16868.5 12074.2 11991 C 16951.6 7113.57 21041.9 5308.38 27835 4110.62 "/>
<path transform="matrix(.00359712,0,0,-.00359712,0,115)" stroke-width="332.357" stroke-linecap="butt" stroke-miterlimit="10" stroke-linejoin="miter" fill="none" stroke="#000000" d="M 1829.59 27751.9 C 3171.85 20139.3 4244.13 15092.8 9710.01 9626.88 C 15175.9 4161 20222.4 3088.73 27835 1746.47 "/>
<path transform="matrix(.00359712,0,0,-.00359712,0,115)" stroke-width="110.783" stroke-linecap="butt" stroke-miterlimit="10" stroke-linejoin="miter" fill="none" stroke="#000000" d="M 23894.8 170.414 L 253.535 23811.7 "/>
<path transform="matrix(.00359712,0,0,-.00359712,0,115)" d="M 12468.2 11991 C 12468.2 12208.7 12291.8 12385.1 12074.2 12385.1 C 11856.5 12385.1 11680.1 12208.7 11680.1 11991 C 11680.1 11773.4 11856.5 11597 12074.2 11597 C 12291.8 11597 12468.2 11773.4 12468.2 11991 Z M 12074.2 11991 "/>
<path transform="matrix(.00359712,0,0,-.00359712,0,115)" stroke-width="110.783" stroke-linecap="butt" stroke-miterlimit="10" stroke-linejoin="miter" fill="none" stroke="#000000" d="M 12862.2 11991 C 12862.2 12426.3 12509.4 12779.1 12074.2 12779.1 C 11638.9 12779.1 11286.1 12426.3 11286.1 11991 C 11286.1 11555.8 11638.9 11202.9 12074.2 11202.9 C 12509.4 11202.9 12862.2 11555.8 12862.2 11991 Z M 12074.2 11991 "/>
<path transform="matrix(.00359712,0,0,-.00359712,0,115)" d="M 14044.3 13567.1 C 14044.3 13784.7 13867.8 13961.1 13650.2 13961.1 C 13432.6 13961.1 13256.2 13784.7 13256.2 13567.1 C 13256.2 13349.5 13432.6 13173 13650.2 13173 C 13867.8 13173 14044.3 13349.5 14044.3 13567.1 Z M 13650.2 13567.1 "/>
<path transform="matrix(.00359712,0,0,-.00359712,0,115)" d="M 16586.2 14598.7 C 16461.4 14607 16433.7 14634.7 16336.7 14839.9 L 15646.4 16414.5 L 15591 16414.5 L 15014.3 15053.3 C 14836.9 14648.6 14803.7 14604.2 14670.6 14598.7 L 14670.6 14546 L 15219.5 14546 L 15219.5 14598.7 C 15086.4 14598.7 15031 14634.7 15031 14712.3 C 15031 14745.6 15039.3 14784.4 15053.2 14820.5 L 15180.7 15144.8 L 15907 15144.8 L 16020.7 14878.7 C 16053.9 14803.8 16073.3 14731.7 16073.3 14692.9 C 16073.3 14623.6 16026.2 14601.4 15879.3 14598.7 L 15879.3 14546 L 16586.2 14546 L 16586.2 14598.7 Z M 15227.8 15258.5 L 15546.6 16020.8 L 15868.2 15258.5 L 15227.8 15258.5 Z "/>
<path transform="matrix(.00359712,0,0,-.00359712,0,115)" d="M 10104 9626.89 C 10104 9844.51 9927.63 10020.9 9710.01 10020.9 C 9492.38 10020.9 9315.96 9844.51 9315.96 9626.89 C 9315.96 9409.26 9492.38 9232.84 9710.01 9232.84 C 9927.63 9232.84 10104 9409.26 10104 9626.89 Z M 9710.01 9626.89 "/>
<path transform="matrix(.00359712,0,0,-.00359712,0,115)" d="M 6931.13 8630.22 L 6931.13 8577.55 C 7164 8563.67 7197.27 8533.19 7197.27 8328.05 L 7197.27 7097.17 C 7197.27 6892.03 7161.22 6855.98 6931.13 6847.67 L 6931.13 6795 L 7857.05 6795 C 8073.28 6795 8270.11 6853.22 8372.69 6947.47 C 8472.48 7036.19 8527.92 7160.94 8527.92 7294 C 8527.92 7415.98 8478.03 7526.86 8392.09 7607.27 C 8308.92 7682.11 8234.08 7715.38 8053.88 7759.73 C 8198.03 7795.77 8256.25 7823.5 8322.78 7881.72 C 8392.09 7942.7 8433.67 8045.27 8433.67 8158.94 C 8433.67 8469.42 8186.94 8630.22 7707.34 8630.22 L 6931.13 8630.22 Z M 7480.03 7698.75 C 7748.94 7698.75 7876.45 7684.89 7976.25 7643.3 C 8134.27 7576.77 8209.13 7465.88 8209.13 7291.23 C 8209.13 7141.53 8150.91 7033.41 8040.02 6969.66 C 7951.31 6919.75 7837.64 6897.58 7654.67 6897.58 C 7518.84 6897.58 7480.03 6922.52 7480.03 7011.23 L 7480.03 7698.75 Z M 7480.03 7809.64 L 7480.03 8444.47 C 7480.03 8502.69 7499.44 8527.64 7541.02 8527.64 L 7663 8527.64 C 7981.8 8527.64 8150.91 8394.58 8150.91 8147.84 C 8150.91 7931.61 8003.98 7809.64 7743.39 7809.64 L 7480.03 7809.64 "/>
</g>
</svg>
