<?xml version="1.0" encoding="UTF-8" standalone="no"?>
<!DOCTYPE svg PUBLIC "-//W3C//DTD SVG 1.1//EN" "http://www.w3.org/Graphics/SVG/1.1/DTD/svg11.dtd">
<svg xmlns="http://www.w3.org/2000/svg" xmlns:xlink="http://www.w3.org/1999/xlink" version="1.1" width="197pt" height="100pt" viewBox="0 0 197 100">
<g enable-background="new">
<path transform="matrix(.00359712,0,0,-.00359712,0,100)" stroke-width="110.783" stroke-linecap="butt" stroke-miterlimit="10" stroke-linejoin="miter" fill="none" stroke="#000000" d="M 3161.77 26829.3 L 3161.77 102.23 "/>
<path transform="matrix(.00359712,0,0,-.00359712,0,100)" stroke-width="110.783" stroke-linecap="butt" stroke-miterlimit="10" stroke-linejoin="miter" fill="none" stroke="#000000" d="M 253.641 2502.13 L 54677.3 2502.13 "/>
<path transform="matrix(.00359712,0,0,-.00359712,0,100)" stroke-width="110.783" stroke-linecap="butt" stroke-miterlimit="10" stroke-linejoin="miter" fill="none" stroke="#000000" d="M 1361.5 24382.4 L 28919.5 24382.4 "/>
<path transform="matrix(.00359712,0,0,-.00359712,0,100)" stroke-width="207.724" stroke-linecap="butt" stroke-miterlimit="10" stroke-linejoin="miter" fill="none" stroke="#d002d9" d="M 44706.5 25628.7 L 44706.5 240.711 "/>
<path transform="matrix(.00359712,0,0,-.00359712,0,100)" stroke-width="110.783" stroke-linecap="butt" stroke-miterlimit="10" stroke-linejoin="miter" fill="none" stroke="#000000" d="M 28919.5 25860 L 28919.5 471.98 "/>
<path transform="matrix(.00359712,0,0,-.00359712,0,100)" d="M 22964.8 8618.9 C 22964.8 8810.01 23119.9 8965.11 23311 8965.11 C 23502.1 8965.11 23657.2 8810.01 23657.2 8618.9 C 23657.2 8427.8 23502.1 8272.7 23311 8272.7 C 23119.9 8272.7 22964.8 8427.8 22964.8 8618.9 Z "/>
<path transform="matrix(.00359712,0,0,-.00359712,0,100)" stroke-width="110.783" stroke-linecap="butt" stroke-miterlimit="10" stroke-linejoin="miter" fill="none" stroke="#000000" d="M 22964.8 8618.9 C 22964.8 8810.01 23119.9 8965.11 23311 8965.11 C 23502.1 8965.11 23657.2 8810.01 23657.2 8618.9 C 23657.2 8427.8 23502.1 8272.7 23311 8272.7 C 23119.9 8272.7 22964.8 8427.8 22964.8 8618.9 Z "/>
<path transform="matrix(.00359712,0,0,-.00359712,0,100)" d="M 38890.3 8480.42 C 38890.3 8671.53 39045.3 8826.63 39236.4 8826.63 C 39427.6 8826.63 39582.7 8671.53 39582.7 8480.42 C 39582.7 8289.32 39427.6 8134.21 39236.4 8134.21 C 39045.3 8134.21 38890.3 8289.32 38890.3 8480.42 Z " fill="#d0021b"/>
<path transform="matrix(.00359712,0,0,-.00359712,0,100)" stroke-width="110.783" stroke-linecap="butt" stroke-miterlimit="10" stroke-linejoin="miter" fill="none" stroke="#d002d9" d="M 38890.3 8480.42 C 38890.3 8671.53 39045.3 8826.63 39236.4 8826.63 C 39427.6 8826.63 39582.7 8671.53 39582.7 8480.42 C 39582.7 8289.32 39427.6 8134.21 39236.4 8134.21 C 39045.3 8134.21 38890.3 8289.32 38890.3 8480.42 Z "/>
<path transform="matrix(.00359712,0,0,-.00359712,0,100)" stroke-width="110.783" stroke-linecap="butt" stroke-miterlimit="10" stroke-linejoin="miter" fill="none" stroke="#000000" d="M 11470.7 26136.9 L 27465.5 2502.13 "/>
<path transform="matrix(.00359712,0,0,-.00359712,0,100)" stroke-width="110.783" stroke-linecap="butt" stroke-miterlimit="10" stroke-linejoin="miter" fill="none" stroke="#d002d9" d="M 28919.5 24382.4 L 46229.8 24382.4 "/>
<path transform="matrix(.00359712,0,0,-.00359712,0,100)" stroke-width="110.783" stroke-linecap="butt" stroke-miterlimit="10" stroke-linejoin="miter" fill="none" stroke="#d002d9" d="M 2607.84 23505.8 L 53707.9 2594.91 "/>
<path transform="matrix(.00359712,0,0,-.00359712,0,100)" stroke-width="110.783" stroke-linecap="butt" stroke-miterlimit="10" stroke-linejoin="miter" fill="none" stroke="#000000" d="M 12717.1 27521.8 C 13686.4 20320.7 14932.8 19074.3 23241.7 21844 "/>
<path transform="matrix(.00359712,0,0,-.00359712,0,100)" stroke-width="110.783" stroke-linecap="butt" stroke-miterlimit="10" stroke-linejoin="miter" fill="none" stroke="#d002d9" d="M 7039.28 26552.4 C 12024.6 18935.8 16456.1 15612.3 23380.2 19351.3 "/>
<path transform="matrix(.00359712,0,0,-.00359712,0,100)" d="M 14932.8 18451.2 C 14932.8 18642.3 15087.9 18797.4 15279 18797.4 C 15470.1 18797.4 15625.2 18642.3 15625.2 18451.2 C 15625.2 18260.1 15470.1 18105 15279 18105 C 15087.9 18105 14932.8 18260.1 14932.8 18451.2 Z " fill="#d0021b"/>
<path transform="matrix(.00359712,0,0,-.00359712,0,100)" stroke-width="110.783" stroke-linecap="butt" stroke-miterlimit="10" stroke-linejoin="miter" fill="none" stroke="#d002d9" d="M 14932.8 18451.2 C 14932.8 18642.3 15087.9 18797.4 15279 18797.4 C 15470.1 18797.4 15625.2 18642.3 15625.2 18451.2 C 15625.2 18260.1 15470.1 18105 15279 18105 C 15087.9 18105 14932.8 18260.1 14932.8 18451.2 Z "/>
<path transform="matrix(.00359712,0,0,-.00359712,0,100)" d="M 13963.4 21774.7 C 13963.4 21965.8 14118.5 22120.9 14309.6 22120.9 C 14500.7 22120.9 14655.8 21965.8 14655.8 21774.7 C 14655.8 21583.6 14500.7 21428.5 14309.6 21428.5 C 14118.5 21428.5 13963.4 21583.6 13963.4 21774.7 Z "/>
<path transform="matrix(.00359712,0,0,-.00359712,0,100)" stroke-width="110.783" stroke-linecap="butt" stroke-miterlimit="10" stroke-linejoin="miter" fill="none" stroke="#000000" d="M 13963.4 21774.7 C 13963.4 21965.8 14118.5 22120.9 14309.6 22120.9 C 14500.7 22120.9 14655.8 21965.8 14655.8 21774.7 C 14655.8 21583.6 14500.7 21428.5 14309.6 21428.5 C 14118.5 21428.5 13963.4 21583.6 13963.4 21774.7 Z "/>
</g>
</svg>
