<?xml version="1.0" encoding="UTF-8" standalone="no"?>
<!DOCTYPE svg PUBLIC "-//W3C//DTD SVG 1.1//EN" "http://www.w3.org/Graphics/SVG/1.1/DTD/svg11.dtd">
<svg xmlns="http://www.w3.org/2000/svg" xmlns:xlink="http://www.w3.org/1999/xlink" version="1.1" width="115pt" height="115pt" viewBox="0 0 115 115">
<g enable-background="new">
<path transform="matrix(.00359712,0,0,-.00359712,0,115)" stroke-width="110.783" stroke-linecap="butt" stroke-miterlimit="10" stroke-linejoin="miter" fill="none" stroke="#000000" d="M 253.535 170.414 L 31775.2 170.414 "/>
<path transform="matrix(.00359712,0,0,-.00359712,0,115)" stroke-width="110.783" stroke-linecap="butt" stroke-miterlimit="10" stroke-linejoin="miter" fill="none" stroke="#000000" d="M 253.535 170.414 L 253.535 31692.1 "/>
<path transform="matrix(.00359712,0,0,-.00359712,0,115)" d="M 6951.93 19871.4 C 6951.93 20176.1 6704.93 20423.1 6400.25 20423.1 C 6095.56 20423.1 5848.56 20176.1 5848.56 19871.4 C 5848.56 19566.8 6095.56 19319.8 6400.25 19319.8 C 6704.93 19319.8 6951.93 19566.8 6951.93 19871.4 Z M 6400.25 19871.4 "/>
<path transform="matrix(.00359712,0,0,-.00359712,0,115)" d="M 5379.19 18997.7 C 5254.44 19006 5226.72 19033.7 5129.69 19238.9 L 4439.41 20813.5 L 4383.97 20813.5 L 3807.34 19452.3 C 3629.92 19047.6 3596.66 19003.2 3463.58 18997.7 L 3463.58 18945 L 4012.48 18945 L 4012.48 18997.7 C 3879.42 18997.7 3823.97 19033.7 3823.97 19111.3 C 3823.97 19144.6 3832.3 19183.4 3846.16 19219.5 L 3973.67 19543.8 L 4700 19543.8 L 4813.66 19277.7 C 4846.92 19202.8 4866.33 19130.7 4866.33 19091.9 C 4866.33 19022.6 4819.2 19000.4 4672.27 18997.7 L 4672.27 18945 L 5379.19 18945 L 5379.19 18997.7 Z M 4020.8 19657.5 L 4339.61 20419.8 L 4661.19 19657.5 L 4020.8 19657.5 Z "/>
<path transform="matrix(.00359712,0,0,-.00359712,0,115)" d="M 20506.3 6317.12 C 20506.3 6621.81 20259.3 6868.81 19954.6 6868.81 C 19649.9 6868.81 19402.9 6621.81 19402.9 6317.12 C 19402.9 6012.44 19649.9 5765.44 19954.6 5765.44 C 20259.3 5765.44 20506.3 6012.44 20506.3 6317.12 Z M 19954.6 6317.12 "/>
<path transform="matrix(.00359712,0,0,-.00359712,0,115)" d="M 20749.8 4733.5 L 20724.8 5360.02 L 20666.6 5360.02 C 20650 5301.81 20605.6 5268.55 20550.2 5268.55 C 20525.2 5268.55 20483.6 5276.86 20442.1 5293.48 C 20306.2 5337.84 20167.6 5360.02 20037.3 5360.02 C 19810 5360.02 19579.9 5274.08 19408 5121.61 C 19214 4949.73 19108.6 4691.92 19108.6 4386.97 C 19108.6 4129.16 19191.8 3890.75 19333.2 3732.73 C 19499.5 3552.53 19754.5 3447.19 20029 3447.19 C 20342.3 3447.19 20616.7 3574.72 20785.8 3799.27 L 20735.9 3849.16 C 20530.8 3652.33 20347.8 3569.17 20117.7 3569.17 C 19943.1 3569.17 19787.8 3624.61 19668.6 3729.95 C 19516.1 3865.8 19430.2 4115.3 19430.2 4423.02 C 19430.2 4924.78 19688 5249.14 20090 5249.14 C 20248 5249.14 20392.2 5190.92 20503 5080.03 C 20591.8 4991.31 20633.3 4913.7 20686 4733.5 L 20749.8 4733.5 "/>
<path transform="matrix(.00359712,0,0,-.00359712,0,115)" d="M 12625.8 11991 C 12625.8 12295.7 12378.8 12542.7 12074.2 12542.7 C 11769.5 12542.7 11522.5 12295.7 11522.5 11991 C 11522.5 11686.3 11769.5 11439.3 12074.2 11439.3 C 12378.8 11439.3 12625.8 11686.3 12625.8 11991 Z M 12074.2 11991 "/>
<path transform="matrix(.00359712,0,0,-.00359712,0,115)" d="M 9295.13 10995.2 L 9295.13 10942.5 C 9528 10928.7 9561.27 10898.2 9561.27 10693 L 9561.27 9462.17 C 9561.27 9257.03 9525.22 9220.98 9295.13 9212.67 L 9295.13 9160 L 10221 9160 C 10437.3 9160 10634.1 9218.22 10736.7 9312.47 C 10836.5 9401.19 10891.9 9525.94 10891.9 9659 C 10891.9 9780.98 10842 9891.86 10756.1 9972.27 C 10672.9 10047.1 10598.1 10080.4 10417.9 10124.7 C 10562 10160.8 10620.3 10188.5 10686.8 10246.7 C 10756.1 10307.7 10797.7 10410.3 10797.7 10523.9 C 10797.7 10834.4 10550.9 10995.2 10071.3 10995.2 L 9295.13 10995.2 Z M 9844.03 10063.8 C 10112.9 10063.8 10240.5 10049.9 10340.3 10008.3 C 10498.3 9941.77 10573.1 9830.88 10573.1 9656.23 C 10573.1 9506.53 10514.9 9398.41 10404 9334.66 C 10315.3 9284.75 10201.6 9262.58 10018.7 9262.58 C 9882.84 9262.58 9844.03 9287.52 9844.03 9376.23 L 9844.03 10063.8 Z M 9844.03 10174.6 L 9844.03 10809.5 C 9844.03 10867.7 9863.44 10892.6 9905.02 10892.6 L 10027 10892.6 C 10345.8 10892.6 10514.9 10759.6 10514.9 10512.8 C 10514.9 10296.6 10368 10174.6 10107.4 10174.6 L 9844.03 10174.6 "/>
<path transform="matrix(.00359712,0,0,-.00359712,0,115)" stroke-width="332.357" stroke-linecap="butt" stroke-miterlimit="10" stroke-linejoin="miter" fill="none" stroke="#000000" d="M 4193.74 27751.9 C 5391.5 20958.8 7196.7 16868.5 12074.2 11991 C 16951.6 7113.57 21041.9 5308.38 27835 4110.62 "/>
<path transform="matrix(.00359712,0,0,-.00359712,0,115)" stroke-width="332.357" stroke-linecap="butt" stroke-miterlimit="10" stroke-linejoin="miter" fill="none" stroke="#000000" d="M 8133.95 27751.9 C 9138.88 22052.4 10346.1 18447.4 14438.3 14355.2 C 18530.5 10262.9 22135.6 9055.76 27835 8050.82 "/>
</g>
</svg>
