<?xml version="1.0" encoding="UTF-8" standalone="no"?>
<!DOCTYPE svg PUBLIC "-//W3C//DTD SVG 1.1//EN" "http://www.w3.org/Graphics/SVG/1.1/DTD/svg11.dtd">
<svg xmlns="http://www.w3.org/2000/svg" xmlns:xlink="http://www.w3.org/1999/xlink" version="1.1" width="227pt" height="184pt" viewBox="0 0 227 184">
<g enable-background="new">
<path transform="matrix(.00359712,0,0,-.00359712,0,184)" stroke-width="110.783" stroke-linecap="butt" stroke-miterlimit="10" stroke-linejoin="miter" fill="none" stroke="#000000" d="M 2858.12 3691.56 L 2858.12 50974.1 "/>
<path transform="matrix(.00359712,0,0,-.00359712,0,184)" stroke-width="110.783" stroke-linecap="butt" stroke-miterlimit="10" stroke-linejoin="miter" fill="none" stroke="#000000" d="M 2858.12 3691.56 L 50140.6 3691.56 "/>
<path transform="matrix(.00359712,0,0,-.00359712,0,184)" d="M 52566.6 3533.16 C 52577.3 3533.16 52588 3541.16 52588 3549.16 C 52588 3554.48 52585.3 3559.81 52580 3565.14 C 52494.7 3642.45 52468 3663.78 52377.4 3738.44 C 52329.4 3677.13 52313.4 3658.45 52265.4 3594.47 L 51862.8 3594.47 C 51892.1 3647.8 51894.8 3653.13 51929.5 3714.44 C 52001.5 3725.11 52022.8 3735.77 52022.8 3759.77 C 52022.8 3778.42 51985.5 3789.09 51793.5 3831.75 C 51766.8 3762.44 51742.8 3706.44 51689.5 3594.47 L 51524.2 3594.47 C 51417.6 3594.47 51340.3 3602.47 51247 3621.13 L 51265.6 3522.48 C 51361.6 3530.48 51409.6 3533.16 51526.9 3533.16 L 51660.2 3533.16 C 51628.2 3471.84 51604.2 3429.19 51534.9 3306.55 C 51494.9 3239.89 51486.9 3226.56 51422.9 3117.25 C 51422.9 3114.59 51422.9 3111.92 51422.9 3109.27 C 51422.9 3095.92 51449.6 3087.94 51502.9 3087.94 C 51572.2 3087.94 51588.2 3093.27 51604.2 3130.59 C 51628.2 3170.58 51644.2 3197.23 51654.9 3218.56 C 51793.5 3162.58 51852.2 3135.92 51961.5 3071.94 C 51790.8 2879.98 51604.2 2768.02 51265.6 2653.38 L 51281.6 2618.72 C 51524.2 2661.38 51649.5 2704.03 51798.8 2781.34 C 51910.8 2842.66 51996.1 2906.64 52084.1 2997.28 C 52166.7 2941.3 52206.7 2909.31 52260 2853.33 C 52286.7 2826.66 52300 2818.66 52313.4 2818.66 C 52332 2818.66 52345.4 2855.98 52345.4 2906.64 C 52345.4 2959.97 52332 3005.28 52308 3031.94 C 52286.7 3058.61 52260 3071.94 52174.7 3106.59 C 52273.4 3242.56 52313.4 3327.88 52377.4 3533.16 L 52566.6 3533.16 Z M 52201.4 3533.16 C 52150.8 3357.2 52116.1 3282.55 52030.8 3159.91 C 51929.5 3194.58 51862.8 3215.91 51684.2 3269.22 C 51753.5 3397.19 51801.5 3485.17 51828.2 3533.16 L 52201.4 3533.16 Z M 52161.4 2613.38 C 52457.3 2717.36 52609.3 2797.34 52779.9 2933.3 C 52870.6 3005.28 52937.2 3069.27 53011.9 3162.58 C 53158.5 2949.3 53321.1 2786.67 53534.4 2642.7 C 53577.1 2752.02 53614.4 2776.02 53750.3 2781.34 L 53755.7 2816 C 53451.8 2951.97 53257.1 3090.59 53097.2 3282.55 C 53198.5 3439.84 53278.5 3626.47 53342.5 3842.41 C 53387.8 3997.05 53409.1 4095.69 53433.1 4300.97 L 53710.4 4300.97 C 53715.7 4300.97 53721 4308.97 53721 4316.95 C 53721 4322.3 53718.4 4330.3 53710.4 4338.28 C 53593.1 4436.94 53593.1 4436.94 53489.1 4527.58 C 53425.1 4455.59 53406.4 4434.27 53339.8 4362.28 L 52830.6 4362.28 C 52929.2 4604.89 52969.2 4716.86 53014.5 4868.83 C 53105.2 4887.48 53129.2 4898.16 53129.2 4919.48 C 53129.2 4948.81 53118.5 4951.47 52838.6 5020.78 C 52833.3 4932.81 52806.6 4796.84 52753.3 4591.56 C 52678.6 4298.3 52598.6 4090.34 52430.7 3749.09 L 52462.7 3725.11 C 52572 3871.73 52617.3 3938.39 52684 4055.69 C 52742.6 3719.78 52795.9 3546.48 52923.9 3306.55 C 52867.9 3218.56 52819.9 3154.58 52755.9 3082.59 C 52598.6 2906.64 52454.7 2802.67 52145.4 2648.05 L 52161.4 2613.38 Z M 53238.5 4300.97 C 53203.8 3951.72 53131.8 3701.11 52993.2 3429.19 C 52857.2 3645.13 52793.3 3818.42 52723.9 4130.34 C 52755.9 4194.33 52774.6 4231.66 52806.6 4300.97 L 53238.5 4300.97 Z M 52052.1 4410.27 L 52622.6 4410.27 C 52636 4410.27 52646.6 4418.27 52646.6 4426.27 C 52646.6 4431.59 52641.3 4442.27 52633.3 4450.27 C 52550.6 4519.58 52524 4543.58 52436 4612.89 C 52390.7 4551.56 52377.4 4532.91 52337.4 4471.59 L 52052.1 4471.59 C 52049.4 4754.19 52049.4 4754.19 52049.4 4770.19 C 52049.4 4804.84 52049.4 4836.83 52049.4 4890.16 C 52065.4 4898.16 52078.8 4903.48 52089.4 4906.16 C 52113.4 4914.14 52129.4 4922.14 52140.1 4927.48 C 52145.4 4932.81 52150.8 4940.81 52150.8 4946.14 C 52150.8 4975.47 52121.4 4980.8 51881.5 5004.8 C 51889.5 4927.48 51894.8 4812.84 51894.8 4740.86 L 51894.8 4471.59 L 51508.2 4471.59 C 51420.3 4471.59 51369.6 4474.25 51257.6 4487.58 L 51273.6 4396.94 C 51388.3 4407.61 51444.3 4410.27 51505.6 4410.27 L 51798.8 4410.27 C 51742.8 4314.3 51721.5 4282.3 51654.9 4196.98 C 51518.9 4023.7 51425.6 3930.39 51257.6 3794.42 L 51273.6 3767.77 C 51398.9 3831.75 51465.6 3877.06 51609.5 3999.7 C 51726.8 4098.34 51796.2 4167.67 51894.8 4287.64 L 51894.8 4183.66 C 51894.8 4106.34 51892.1 4042.36 51886.8 3903.73 C 51886.8 3898.39 51886.8 3895.73 51886.8 3890.41 C 51886.8 3874.41 51902.8 3863.73 51929.5 3863.73 C 51929.5 3863.73 51932.1 3863.73 51934.8 3863.73 C 51948.1 3863.73 51958.8 3866.41 51964.1 3866.41 C 52030.8 3869.08 52046.8 3877.06 52052.1 3903.73 C 52052.1 4138.34 52052.1 4143.67 52052.1 4236.98 C 52140.1 4194.33 52233.4 4117.02 52321.4 4015.7 C 52385.4 3935.72 52390.7 3933.06 52417.3 3933.06 C 52446.7 3933.06 52462.7 3962.38 52462.7 4013.03 C 52462.7 4063.69 52446.7 4119.67 52422.7 4146.34 C 52396 4175.66 52300 4218.31 52180.1 4250.31 C 52073.4 4282.3 52073.4 4282.3 52052.1 4287.64 L 52052.1 4410.27 Z M 51414.9 4911.48 C 51500.2 4807.5 51561.6 4698.2 51596.2 4591.56 C 51614.9 4530.23 51630.9 4506.25 51652.2 4506.25 C 51686.9 4506.25 51742.8 4594.22 51742.8 4644.88 C 51742.8 4719.53 51665.5 4794.17 51441.6 4935.47 L 51414.9 4911.48 Z M 52193.4 4508.91 C 52270.7 4586.23 52270.7 4586.23 52345.4 4668.88 C 52444 4780.84 52444 4780.84 52476 4815.5 C 52489.3 4818.17 52502.7 4820.84 52524 4820.84 C 52548 4823.5 52561.3 4826.17 52566.6 4828.83 C 52574.6 4834.17 52580 4839.5 52580 4847.5 C 52580 4868.83 52542.7 4890.16 52449.3 4922.14 C 52425.3 4930.14 52385.4 4943.47 52334.7 4962.14 C 52308 4836.83 52252 4703.53 52156.1 4527.58 L 52193.4 4508.91 "/>
<path transform="matrix(.00359712,0,0,-.00359712,0,184)" d="M 55181 3258.56 L 55730.2 3258.56 L 55730.2 3231.89 C 55732.9 3213.23 55738.2 3207.91 55754.2 3207.91 C 55794.2 3207.91 55874.2 3218.56 55890.1 3223.89 C 55903.5 3229.23 55908.8 3239.89 55908.8 3250.56 C 55908.8 3253.22 55908.8 3253.22 55908.8 3255.89 C 55906.1 3394.52 55906.1 3437.17 55906.1 3583.81 L 55906.1 3783.77 C 55967.5 3823.75 55983.5 3837.08 55983.5 3855.73 C 55983.5 3863.73 55975.5 3874.41 55954.1 3890.41 C 55908.8 3925.06 55858.2 3959.72 55807.5 3997.05 C 55762.2 3951.72 55751.5 3935.72 55708.9 3890.41 L 54522.5 3890.41 C 54445.2 3938.39 54421.2 3951.72 54338.5 3997.05 C 54343.9 3901.06 54346.5 3834.41 54346.5 3714.44 C 54346.5 3517.16 54343.9 3346.53 54338.5 3178.58 C 54338.5 3157.25 54343.9 3151.92 54367.9 3151.92 C 54415.8 3151.92 54471.8 3157.25 54490.5 3162.58 C 54506.5 3167.91 54511.8 3175.91 54511.8 3194.58 L 54511.8 3258.56 L 55018.4 3258.56 L 55018.4 3061.27 L 54415.8 3061.27 C 54285.2 3061.27 54247.9 3063.94 54157.2 3085.27 L 54173.2 2983.95 C 54255.9 2997.28 54311.9 2999.95 54415.8 2999.95 L 55018.4 2999.95 L 55018.4 2776.02 L 54207.9 2776.02 C 54079.9 2776.02 54023.9 2781.34 53920 2802.67 L 53938.6 2696.03 C 54015.9 2709.36 54085.3 2714.69 54207.9 2714.69 L 56340.7 2714.69 C 56356.7 2714.69 56364.7 2720.02 56364.7 2728.02 C 56364.7 2733.36 56362 2738.69 56354 2746.69 C 56250.1 2826.66 56215.4 2853.33 56108.8 2935.97 L 55954.1 2776.02 L 55181 2776.02 L 55181 2999.95 L 56124.8 2999.95 C 56140.8 2999.95 56151.4 3005.28 56151.4 3015.95 C 56151.4 3018.61 56148.8 3023.95 56138.1 3034.61 C 56047.4 3109.27 56020.8 3130.59 55927.5 3202.56 C 55868.8 3143.92 55847.5 3122.59 55788.8 3061.27 L 55181 3061.27 L 55181 3258.56 Z M 55181 3319.88 L 55181 3551.81 L 55730.2 3551.81 L 55730.2 3319.88 L 55181 3319.88 Z M 55018.4 3319.88 L 54511.8 3319.88 L 54511.8 3551.81 L 55018.4 3551.81 L 55018.4 3319.88 Z M 55181 3613.14 L 55181 3829.08 L 55730.2 3829.08 L 55730.2 3613.14 L 55181 3613.14 Z M 55018.4 3613.14 L 54511.8 3613.14 L 54511.8 3829.08 L 55018.4 3829.08 L 55018.4 3613.14 Z M 54498.5 4311.63 L 55762.2 4311.63 L 55762.2 4250.31 C 55762.2 4247.64 55762.2 4242.31 55762.2 4242.31 C 55762.2 4223.66 55767.5 4220.98 55799.5 4220.98 C 55892.8 4220.98 55932.8 4231.66 55932.8 4252.98 C 55932.8 4255.64 55932.8 4258.31 55932.8 4258.31 C 55927.5 4391.61 55927.5 4450.27 55927.5 4530.23 L 55930.1 4802.17 C 56007.5 4850.16 56020.8 4860.83 56020.8 4876.83 C 56020.8 4882.16 56015.5 4890.16 55999.5 4906.16 C 55932.8 4956.8 55911.5 4972.8 55842.2 5020.78 C 55807.5 4983.47 55772.8 4943.47 55740.8 4906.16 L 54522.5 4906.16 C 54437.2 4959.47 54407.8 4975.47 54319.9 5020.78 C 54327.9 4778.19 54327.9 4772.84 54327.9 4658.2 C 54327.9 4554.23 54327.9 4543.58 54322.5 4244.98 C 54322.5 4242.31 54322.5 4239.64 54322.5 4239.64 C 54322.5 4212.98 54327.9 4210.33 54365.2 4210.33 C 54469.2 4210.33 54498.5 4218.31 54498.5 4244.98 C 54498.5 4244.98 54498.5 4247.64 54498.5 4250.31 L 54498.5 4311.63 Z M 55762.2 4644.88 L 54498.5 4644.88 L 54498.5 4844.83 L 55762.2 4844.83 L 55762.2 4644.88 Z M 55762.2 4583.56 L 55762.2 4372.95 L 54498.5 4372.95 L 54498.5 4583.56 L 55762.2 4583.56 Z M 53941.3 4047.69 C 54023.9 4063.69 54069.3 4066.36 54175.9 4066.36 L 56324.7 4066.36 C 56343.4 4066.36 56351.4 4069.02 56351.4 4077.02 C 56351.4 4082.36 56348.7 4090.34 56343.4 4095.69 C 56242.1 4186.33 56210.1 4212.98 56103.4 4300.97 C 56039.4 4228.98 56018.1 4204.98 55948.8 4127.67 L 54175.9 4127.67 C 54047.9 4127.67 54007.9 4130.34 53928 4151.67 L 53941.3 4047.69 "/>
<path transform="matrix(.00359712,0,0,-.00359712,0,184)" d="M 58198.9 2278.5 L 58151.8 2278.5 C 58049.2 2278.5 57991 2306.23 57993.8 2358.91 C 57993.8 2367.22 57996.6 2378.31 57999.3 2389.39 L 58454 3988.97 L 58251.6 3988.97 L 58210 3858.67 C 58165.7 3986.19 58110.2 4030.55 57996.6 4030.55 C 57630.6 4030.55 57184.3 3520.47 57184.3 3099.08 C 57184.3 2902.25 57292.4 2777.5 57467.1 2777.5 C 57663.9 2777.5 57791.4 2880.08 58038.2 3232.16 L 57791.4 2419.89 C 57755.4 2309 57711 2286.83 57530.8 2272.95 L 57530.8 2228.61 L 58198.9 2228.61 L 58198.9 2278.5 Z M 58004.9 3969.56 C 58096.4 3969.56 58168.4 3894.72 58168.4 3800.45 C 58168.4 3570.36 57979.9 3176.7 57791.4 3018.69 C 57719.3 2957.7 57644.5 2924.44 57578 2924.44 C 57483.7 2924.44 57422.7 3007.59 57422.7 3137.89 C 57422.7 3343.05 57566.9 3650.75 57747.1 3833.72 C 57833 3919.66 57924.5 3969.56 58004.9 3969.56 "/>
<path transform="matrix(.00359712,0,0,-.00359712,0,184)" stroke-width="332.357" stroke-linecap="butt" stroke-miterlimit="10" stroke-linejoin="miter" fill="none" stroke="#000000" d="M 2858.12 3691.56 C 6286.71 23136.7 22815.1 31784.6 42260.2 35213.2 "/>
<path transform="matrix(.00359712,0,0,-.00359712,0,184)" d="M 45087.5 35619.1 L 45190.1 36170.8 L 45131.8 36170.8 C 45109.7 36126.4 45082 36109.8 45026.5 36109.8 C 45004.3 36109.8 44971.1 36115.3 44912.8 36129.2 C 44788.1 36159.7 44677.2 36176.3 44588.5 36176.3 C 43998 36176.3 43463 35619.1 43463 35003.7 C 43463 34579.5 43762.4 34280.1 44186.5 34280.1 C 44472.1 34280.1 44693.8 34402.1 44943.3 34693.2 L 44896.2 34732 C 44646.7 34488 44485.9 34404.8 44258.6 34404.8 C 43950.9 34404.8 43773.5 34615.5 43773.5 34973.2 C 43773.5 35303 43906.5 35638.5 44122.8 35863 C 44255.8 35998.9 44430.5 36076.5 44613.4 36076.5 C 44868.5 36076.5 45009.9 35926.8 45037.6 35627.4 L 45087.5 35619.1 "/>
<path transform="matrix(.00359712,0,0,-.00359712,0,184)" d="M 45833.7 36131.7 C 45833.7 36199.5 45763.9 36246.1 45701.9 36246.1 C 45630.2 36246.1 45595.3 36176.3 45575.9 36118.1 L 45374.3 35530.8 C 45368.5 35515.3 45354.9 35480.4 45354.9 35462.9 C 45354.9 35445.5 45366.5 35422.2 45385.9 35422.2 C 45415 35422.2 45448 35462.9 45461.5 35484.3 L 45779.4 35986.3 C 45806.6 36027 45833.7 36081.3 45833.7 36131.7 "/>
<path transform="matrix(.00359712,0,0,-.00359712,0,184)" d="M 46886.8 36204 C 46681.7 36071 46598.5 35998.9 46495.9 35871.4 C 46299.1 35630.2 46202.1 35353 46202.1 35028.6 C 46202.1 34676.5 46304.6 34404.8 46548.6 34122.1 C 46662.3 33989 46734.3 33928 46878.5 33839.3 L 46911.8 33883.7 C 46690 34058.3 46612.4 34155.3 46537.5 34363.3 C 46471 34549 46440.5 34759.7 46440.5 35036.9 C 46440.5 35328 46476.5 35555.3 46551.4 35727.2 C 46629 35899.1 46712.2 35998.9 46911.8 36159.7 L 46886.8 36204 "/>
<path transform="matrix(.00359712,0,0,-.00359712,0,184)" d="M 48074.9 33800.5 L 48027.8 33800.5 C 47925.2 33800.5 47867 33828.2 47869.8 33880.9 C 47869.8 33889.2 47872.6 33900.3 47875.3 33911.4 L 48330 35511 L 48127.6 35511 L 48086 35380.7 C 48041.7 35508.2 47986.2 35552.5 47872.6 35552.5 C 47506.6 35552.5 47060.3 35042.5 47060.3 34621.1 C 47060.3 34424.3 47168.4 34299.5 47343.1 34299.5 C 47539.9 34299.5 47667.4 34402.1 47914.2 34754.2 L 47667.4 33941.9 C 47631.4 33831 47587 33808.8 47406.8 33795 L 47406.8 33750.6 L 48074.9 33750.6 L 48074.9 33800.5 Z M 47880.9 35491.6 C 47972.4 35491.6 48044.4 35416.7 48044.4 35322.5 C 48044.4 35092.4 47855.9 34698.7 47667.4 34540.7 C 47595.3 34479.7 47520.5 34446.4 47454 34446.4 C 47359.7 34446.4 47298.7 34529.6 47298.7 34659.9 C 47298.7 34865 47442.9 35172.8 47623.1 35355.7 C 47709 35441.7 47800.5 35491.6 47880.9 35491.6 "/>
<path transform="matrix(.00359712,0,0,-.00359712,0,184)" d="M 48481.3 33839.3 C 48686.5 33972.4 48769.7 34044.5 48872.2 34172 C 49069.1 34413.2 49166.1 34690.4 49166.1 35014.7 C 49166.1 35369.6 49063.5 35638.5 48819.6 35921.3 C 48705.9 36054.3 48633.8 36115.3 48489.7 36204 L 48456.4 36159.7 C 48678.2 35985 48753 35888 48830.6 35680.1 C 48897.2 35494.3 48927.7 35283.6 48927.7 35006.4 C 48927.7 34718.1 48891.6 34488 48816.8 34318.9 C 48739.2 34144.3 48656 34044.5 48456.4 33883.7 L 48481.3 33839.3 "/>
<path transform="matrix(.00359712,0,0,-.00359712,0,184)" d="M 51659.3 35244.8 L 51659.3 35400.1 L 50239.9 35400.1 L 50239.9 35244.8 L 51659.3 35244.8 Z M 51659.3 34682.1 L 51659.3 34837.3 L 50239.9 34837.3 L 50239.9 34682.1 L 51659.3 34682.1 "/>
<path transform="matrix(.00359712,0,0,-.00359712,0,184)" d="M 54502.5 35105.8 L 54502.5 35809.6 L 54990.4 35809.6 C 55003.7 35809.6 55014.4 35817.6 55014.4 35825.6 C 55014.4 35831 55009 35839 55001 35847 C 54905.1 35926.9 54905.1 35926.9 54769.1 36041.6 C 54707.8 35966.9 54691.8 35945.6 54633.1 35871 L 54502.5 35871 L 54502.5 36364.2 C 54566.5 36377.5 54609.1 36398.8 54609.1 36422.8 C 54609.1 36452.1 54542.5 36468.1 54297.2 36494.8 C 54307.9 36414.8 54313.2 36377.5 54313.2 36321.5 L 54313.2 35871 L 53814.7 35871 L 53814.7 36366.8 C 53894.7 36388.2 53924 36401.5 53924 36422.8 C 53924 36452.1 53878.7 36462.8 53614.7 36494.8 C 53625.4 36406.8 53628 36366.8 53628 36292.2 L 53628 35871 L 53441.4 35871 C 53388.1 35871 53308.1 35881.6 53244.1 35897.6 L 53268.1 35793.6 C 53350.8 35807 53388.1 35809.6 53441.4 35809.6 L 53628 35809.6 L 53628 35105.8 L 53329.5 35105.8 C 53276.1 35105.8 53212.2 35116.5 53145.5 35132.5 L 53169.5 35025.8 C 53246.8 35039.2 53284.1 35044.5 53329.5 35044.5 L 55054.4 35044.5 C 55078.4 35044.5 55089 35049.8 55089 35063.2 C 55089 35068.5 55081 35081.8 55067.7 35092.5 C 54966.4 35175.1 54934.4 35199.1 54827.8 35279.1 C 54766.4 35204.5 54747.8 35180.5 54686.5 35105.8 L 54502.5 35105.8 Z M 54313.2 35105.8 L 53814.7 35105.8 L 53814.7 35809.6 L 54313.2 35809.6 L 54313.2 35105.8 Z M 52583 35172.5 C 52711 35308.4 52753.6 35361.8 52889.6 35575 L 52889.6 35004.5 C 52889.6 34753.9 52884.2 34482 52878.9 34183.4 C 52878.9 34154 52889.6 34148.7 52937.6 34148.7 C 52966.9 34148.7 53009.5 34154 53041.5 34159.4 C 53065.5 34164.7 53070.9 34172.7 53073.5 34194 C 53070.9 34450 53070.9 34450 53070.9 35031.2 L 53070.9 35604.4 C 53140.2 35628.3 53153.5 35633.7 53153.5 35652.3 C 53153.5 35673.7 53137.5 35679 53025.5 35695 C 53012.2 35697.7 53012.2 35697.7 52966.9 35703 C 53094.9 35913.6 53142.8 36012.3 53292.1 36366.8 C 53390.8 36382.8 53422.8 36396.2 53422.8 36417.5 C 53422.8 36444.1 53409.4 36449.5 53244.1 36494.8 C 53214.8 36502.8 53169.5 36516.1 53110.8 36532.1 C 53092.2 36398.8 53052.2 36265.5 52958.9 36014.9 C 52822.9 35655 52718.9 35455.1 52545.7 35209.8 L 52583 35172.5 Z M 53182.8 34151.4 C 53433.4 34290 53654.7 34487.3 53870.7 34759.2 C 53980 34764.6 54006.6 34772.6 54006.6 34801.9 C 54006.6 34825.9 53993.3 34831.2 53726.7 34932.5 C 53689.4 34841.9 53654.7 34780.6 53569.4 34655.3 C 53433.4 34455.3 53316.1 34322 53156.2 34186 L 53182.8 34151.4 Z M 54230.6 34887.2 C 54430.5 34703.2 54617.1 34476.6 54729.1 34276.7 C 54782.4 34180.7 54785.1 34178 54811.8 34178 C 54854.4 34178 54883.8 34250 54883.8 34364.7 C 54883.8 34439.3 54867.8 34474 54806.4 34530 C 54659.8 34665.9 54486.5 34788.5 54254.6 34916.5 L 54230.6 34887.2 "/>
<path transform="matrix(.00359712,0,0,-.00359712,0,184)" d="M 55522.6 35412.4 C 55501.3 35409.7 55487.9 35409.7 55482.6 35409.7 C 55434.6 35407.1 55405.3 35407.1 55394.6 35407.1 C 55386.6 35407.1 55346.6 35409.7 55306.6 35412.4 C 55360 35172.5 55362.6 35156.5 55386.6 35156.5 C 55407.9 35156.5 55421.3 35183.1 55437.3 35255.1 C 55554.6 35271.1 55586.6 35279.1 55735.9 35313.8 L 55735.9 34719.2 C 55735.9 34532.6 55733.2 34319.3 55727.9 34151.4 C 55727.9 34148.7 55727.9 34146 55727.9 34143.4 C 55727.9 34124.7 55741.2 34114 55767.8 34114 C 55794.5 34114 55869.2 34119.4 55882.5 34122 C 55903.8 34127.4 55909.1 34135.4 55909.1 34156.7 C 55906.5 34311.3 55906.5 34311.3 55903.8 34743.2 L 55903.8 35353.8 C 56034.5 35385.7 56034.5 35385.7 56109.1 35404.4 C 56122.4 35367.1 56130.4 35343.1 56135.8 35313.8 C 56178.4 35145.8 56178.4 35143.1 56199.8 35143.1 C 56239.7 35143.1 56293 35236.4 56293 35305.8 C 56293 35364.4 56271.7 35407.1 56197.1 35500.4 C 56093.1 35628.3 56077.1 35644.3 56010.5 35708.3 L 55981.1 35692.3 C 56034.5 35601.7 56055.8 35553.7 56090.4 35457.7 C 55818.5 35420.4 55818.5 35420.4 55639.9 35415.1 C 55823.8 35609.7 55943.8 35759 56186.4 36094.9 C 56271.7 36105.6 56301 36118.9 56301 36142.9 C 56301 36166.9 56301 36166.9 56037.1 36257.5 C 55917.1 35950.9 55826.5 35791 55562.6 35412.4 L 55522.6 35412.4 Z M 55330.6 36140.2 C 55447.9 35996.3 55535.9 35865.6 55597.2 35740.3 C 55618.5 35695 55631.9 35679 55647.9 35679 C 55679.9 35679 55719.9 35764.3 55719.9 35828.3 C 55719.9 35884.3 55698.5 35910.9 55570.6 36001.6 C 55767.8 36222.9 55789.2 36252.2 55893.2 36420.2 C 55975.8 36425.5 56010.5 36438.8 56010.5 36465.5 C 56010.5 36492.1 55989.1 36500.1 55735.9 36558.8 C 55706.5 36412.2 55631.9 36217.5 55530.6 36030.9 C 55431.9 36100.2 55370.6 36142.9 55346.6 36158.9 L 55330.6 36140.2 Z M 55336 34231.4 C 55469.3 34516.6 55522.6 34665.9 55591.9 34975.2 C 55658.5 34988.5 55685.2 35001.8 55685.2 35020.5 C 55685.2 35047.2 55631.9 35063.2 55426.6 35095.1 L 55426.6 35044.5 C 55426.6 34961.8 55418.6 34884.5 55399.9 34732.6 C 55376 34546 55354.6 34447.3 55293.3 34252.7 L 55336 34231.4 Z M 56010.5 35116.5 C 56053.1 34961.8 56082.4 34759.2 56095.8 34538 C 56101.1 34484.6 56111.8 34460.6 56130.4 34460.6 C 56141.1 34460.6 56165.1 34479.3 56183.8 34503.3 C 56221.1 34546 56247.7 34615.3 56247.7 34665.9 C 56247.7 34713.9 56226.4 34780.6 56175.8 34889.9 C 56125.1 34999.2 56101.1 35041.8 56037.1 35127.1 L 56010.5 35116.5 Z M 56258.4 35503 C 56423.7 35641.7 56511.7 35732.3 56621 35873.6 C 56767.6 36062.9 56844.9 36185.5 56938.2 36382.8 C 57050.2 36121.6 57103.5 36025.6 57194.2 35905.6 C 57311.5 35748.3 57423.4 35644.3 57628.7 35503 C 57668.7 35607 57698 35633.7 57799.3 35671 L 57799.3 35697.7 C 57567.4 35780.3 57452.8 35844.3 57311.5 35969.6 C 57148.8 36116.2 57063.5 36228.2 56983.5 36409.5 C 57052.9 36428.2 57074.2 36441.5 57074.2 36460.1 C 57074.2 36484.1 57074.2 36484.1 56772.9 36556.1 C 56717 36334.8 56599.6 36081.6 56429 35804.3 C 56351.7 35684.3 56317 35639 56229.1 35543 L 56258.4 35503 Z M 56567.7 35124.5 C 56487.7 35185.8 56463.7 35201.8 56375.7 35255.1 C 56383.7 35097.8 56386.4 34935.2 56386.4 34700.6 C 56386.4 34516.6 56383.7 34399.3 56375.7 34162 C 56378.4 34140.7 56389 34135.4 56421 34135.4 C 56461 34135.4 56514.3 34140.7 56527.7 34143.4 C 56546.3 34148.7 56551.7 34156.7 56551.7 34180.7 L 56551.7 34308.7 L 57274.1 34308.7 L 57274.1 34183.4 C 57274.1 34154 57282.1 34146 57308.8 34146 C 57367.5 34146 57428.8 34154 57444.8 34164.7 C 57452.8 34172.7 57455.4 34183.4 57455.4 34204.7 C 57452.8 34348.7 57450.1 34532.6 57450.1 34841.9 L 57450.1 35031.2 C 57508.8 35063.2 57524.8 35076.5 57524.8 35095.1 C 57524.8 35103.1 57516.8 35113.8 57500.8 35127.1 C 57442.1 35183.1 57420.8 35199.1 57356.8 35255.1 C 57308.8 35199.1 57295.5 35183.1 57250.2 35124.5 L 56567.7 35124.5 Z M 56551.7 35063.2 L 57274.1 35063.2 L 57274.1 34370 L 56551.7 34370 L 56551.7 35063.2 Z M 56655.6 35564.4 C 56573 35564.4 56530.3 35569.7 56461 35583 L 56479.7 35487 C 56533 35497.7 56583.7 35503 56655.6 35503 L 57378.1 35503 C 57402.1 35503 57412.8 35508.4 57412.8 35519 C 57412.8 35524.4 57410.1 35532.4 57402.1 35540.4 C 57322.1 35623 57298.1 35647 57210.2 35724.3 C 57151.5 35660.3 57132.8 35639 57076.9 35564.4 L 56655.6 35564.4 "/>
<path transform="matrix(.00359712,0,0,-.00359712,0,184)" d="M 59976.5 34314 L 59976.5 34175.4 C 59979.1 34148.7 59989.8 34143.4 60032.5 34143.4 C 60144.4 34143.4 60173.8 34154 60176.4 34196.7 C 60163.1 34460.6 60155.1 34977.8 60155.1 35449.7 L 60155.1 35791 C 60235.1 35833.6 60264.4 35857.6 60264.4 35879 C 60264.4 35889.6 60256.4 35900.3 60235.1 35918.9 C 60157.8 35974.9 60133.8 35993.6 60053.8 36046.9 C 60005.8 35993.6 59989.8 35977.6 59941.8 35918.9 L 59525.9 35918.9 L 59525.9 36382.8 C 59600.6 36406.8 59629.9 36425.5 59629.9 36449.5 C 59629.9 36454.8 59624.6 36462.8 59616.6 36468.1 C 59592.6 36484.1 59592.6 36484.1 59320.6 36518.8 C 59336.6 36414.8 59336.6 36390.8 59336.6 36214.9 L 59336.6 35918.9 L 58907.4 35918.9 L 58907.4 36382.8 C 58984.7 36401.5 59019.4 36422.8 59019.4 36449.5 C 59019.4 36476.1 58947.4 36492.1 58712.8 36513.5 C 58723.4 36401.5 58726.1 36348.2 58726.1 36246.9 L 58726.1 35918.9 L 58318.2 35918.9 C 58232.9 35980.3 58206.2 35996.3 58112.9 36046.9 C 58120.9 35918.9 58126.3 35561.7 58126.3 35188.5 C 58126.3 34828.5 58118.3 34410 58107.6 34167.4 C 58110.3 34138 58123.6 34127.4 58160.9 34127.4 C 58163.6 34127.4 58166.3 34127.4 58168.9 34127.4 C 58179.6 34127.4 58192.9 34130 58211.6 34130 C 58286.2 34130 58307.5 34140.7 58318.2 34175.4 L 58318.2 34314 L 59976.5 34314 Z M 59976.5 34375.3 L 59525.9 34375.3 L 59525.9 35119.1 L 59976.5 35119.1 L 59976.5 34375.3 Z M 59976.5 35180.5 L 59525.9 35180.5 L 59525.9 35857.6 L 59976.5 35857.6 L 59976.5 35180.5 Z M 59336.6 34375.3 L 58907.4 34375.3 L 58907.4 35119.1 L 59336.6 35119.1 L 59336.6 34375.3 Z M 59336.6 35180.5 L 58907.4 35180.5 L 58907.4 35857.6 L 59336.6 35857.6 L 59336.6 35180.5 Z M 58726.1 34375.3 L 58318.2 34375.3 L 58318.2 35119.1 L 58726.1 35119.1 L 58726.1 34375.3 Z M 58726.1 35180.5 L 58318.2 35180.5 L 58318.2 35857.6 L 58726.1 35857.6 L 58726.1 35180.5 "/>
<path transform="matrix(.00359712,0,0,-.00359712,0,184)" d="M 61028.5 34764.6 C 61028.5 34615.3 61023.2 34386 61012.5 34154 C 61015.2 34130 61023.2 34119.4 61049.9 34119.4 C 61092.5 34119.4 61159.2 34130 61175.2 34138 C 61188.5 34146 61193.8 34154 61193.8 34175.4 C 61188.5 34442 61188.5 34450 61188.5 34793.9 L 61188.5 35329.8 C 61316.5 35356.4 61316.5 35356.4 61431.1 35383.1 C 61449.8 35324.4 61460.4 35289.8 61471.1 35244.4 C 61479.1 35209.8 61492.4 35193.8 61511.1 35193.8 C 61553.7 35193.8 61601.7 35284.4 61601.7 35364.4 C 61601.7 35404.4 61583.1 35447.1 61543.1 35492.4 C 61468.4 35577.7 61391.1 35649.7 61300.5 35719 L 61273.8 35692.3 C 61348.5 35577.7 61375.1 35529.7 61415.1 35431.1 C 61241.8 35415.1 61231.2 35415.1 60943.2 35401.7 C 61169.8 35673.7 61271.1 35804.3 61471.1 36089.6 C 61561.7 36092.2 61588.4 36102.9 61588.4 36126.9 C 61588.4 36153.5 61545.7 36174.9 61329.8 36252.2 C 61281.8 36116.2 61196.5 35937.6 61084.5 35737.7 C 61015.2 35617.7 60969.9 35543 60868.6 35399.1 C 60764.6 35396.4 60764.6 35396.4 60740.6 35396.4 C 60703.3 35396.4 60676.6 35399.1 60618 35404.4 C 60655.3 35201.8 60668.6 35161.8 60695.3 35161.8 C 60713.9 35161.8 60724.6 35180.5 60745.9 35257.8 C 60943.2 35287.1 60943.2 35287.1 61028.5 35303.1 L 61028.5 34764.6 Z M 60636.6 36116.2 C 60748.6 35990.9 60823.3 35876.3 60863.2 35777.6 C 60900.6 35671 60903.2 35668.3 60929.9 35668.3 C 60967.2 35668.3 61007.2 35753.7 61007.2 35831 C 61007.2 35892.3 60977.9 35932.3 60873.9 36006.9 C 60993.9 36148.2 61039.2 36209.5 61183.2 36430.8 C 61193.8 36428.2 61209.8 36428.2 61212.5 36428.2 C 61284.5 36428.2 61313.8 36438.8 61313.8 36460.1 C 61313.8 36489.5 61313.8 36489.5 61028.5 36590.8 C 61009.9 36470.8 60929.9 36241.5 60833.9 36036.3 C 60769.9 36081.6 60745.9 36097.6 60663.3 36148.2 L 60636.6 36116.2 Z M 62121.6 36294.8 C 62201.6 36358.8 62222.9 36377.5 62305.5 36468.1 C 62393.5 36473.5 62414.9 36481.5 62414.9 36505.5 C 62414.9 36529.5 62385.5 36540.1 62148.3 36606.8 C 62132.3 36508.1 62097.6 36385.5 62057.6 36294.8 L 61884.3 36294.8 C 61807 36345.5 61780.3 36361.5 61695 36409.5 C 61700.4 36302.8 61703 36057.6 61703 35849.6 C 61703 35700.3 61703 35700.3 61695 35383.1 C 61697.7 35359.1 61705.7 35353.8 61727 35353.8 C 61761.7 35353.8 61820.3 35361.8 61839 35369.8 C 61855 35375.1 61860.3 35383.1 61860.3 35404.4 L 61860.3 35476.4 L 62148.3 35476.4 L 62148.3 34388.7 C 62148.3 34362 62142.9 34354 62116.3 34354 C 61953.6 34359.3 61897.7 34362 61719 34378 L 61719 34338 C 61932.3 34287.3 61932.3 34287.3 61961.6 34271.3 C 62017.6 34242 62039 34212.7 62047 34148.7 C 62273.6 34194 62318.9 34226 62318.9 34338 C 62310.9 34532.6 62310.9 34617.9 62308.2 34705.9 C 62308.2 34799.2 62308.2 34860.5 62305.5 34879.2 L 62292.2 35305.8 C 62348.2 35065.8 62404.2 34927.2 62516.2 34740.6 C 62633.5 34548.6 62737.4 34434 62932.1 34279.3 C 62969.4 34367.3 63012 34402 63102.7 34418 L 63113.4 34458 C 62980 34511.3 62884.1 34567.3 62750.8 34676.6 C 62649.5 34756.6 62582.8 34825.9 62516.2 34924.5 C 62686.8 35007.2 62742.8 35044.5 62881.4 35153.8 C 62900.1 35151.1 62918.7 35151.1 62924.1 35151.1 C 62985.4 35151.1 63006.7 35159.1 63006.7 35177.8 C 63006.7 35204.5 62985.4 35215.1 62774.8 35324.4 C 62686.8 35177.8 62601.5 35073.8 62486.8 34969.8 C 62377.5 35148.5 62340.2 35252.4 62308.2 35476.4 L 62596.1 35476.4 L 62596.1 35391.1 C 62596.1 35367.1 62606.8 35359.1 62630.8 35359.1 C 62729.5 35359.1 62774.8 35375.1 62774.8 35407.1 C 62774.8 35409.7 62774.8 35412.4 62774.8 35415.1 C 62764.1 35623 62761.4 35708.3 62761.4 35863 L 62764.1 36190.9 C 62825.4 36222.9 62849.4 36241.5 62849.4 36260.2 C 62849.4 36273.5 62838.8 36286.8 62814.8 36308.2 C 62758.8 36350.8 62740.1 36364.2 62676.1 36409.5 C 62628.1 36361.5 62614.8 36345.5 62569.5 36294.8 L 62121.6 36294.8 Z M 61860.3 35932.3 L 61860.3 36233.5 L 62596.1 36233.5 L 62596.1 35932.3 L 61860.3 35932.3 Z M 62596.1 35871 L 62596.1 35537.7 L 61860.3 35537.7 L 61860.3 35871 L 62596.1 35871 Z M 60607.3 34236.7 C 60737.9 34455.3 60817.9 34660.6 60887.2 34967.2 C 60959.2 34977.8 60977.9 34988.5 60977.9 35009.8 C 60977.9 35036.5 60945.9 35047.2 60743.3 35097.8 C 60740.6 34999.2 60732.6 34929.9 60700.6 34756.6 C 60666 34567.3 60639.3 34460.6 60567.3 34252.7 L 60607.3 34236.7 Z M 61257.8 35111.1 C 61329.8 34937.8 61359.1 34839.2 61388.4 34657.9 C 61401.8 34575.3 61407.1 34564.6 61425.8 34564.6 C 61465.8 34564.6 61529.8 34671.3 61529.8 34737.9 C 61529.8 34815.2 61444.4 34951.2 61287.1 35121.8 L 61257.8 35111.1 Z M 61652.4 35121.8 C 61599.1 35121.8 61567.1 35124.5 61495.1 35140.5 L 61511.1 35044.5 C 61553.7 35055.2 61609.7 35060.5 61668.4 35060.5 L 61863 35060.5 C 61807 34892.5 61761.7 34801.9 61657.7 34652.6 C 61553.7 34498 61473.8 34412.6 61329.8 34292.7 L 61356.5 34252.7 C 61516.4 34354 61604.4 34426 61713.7 34546 C 61849.7 34687.3 61929.6 34812.5 62025.6 35015.2 C 62073.6 35028.5 62097.6 35041.8 62097.6 35055.2 C 62097.6 35065.8 62092.3 35073.8 62065.6 35103.1 C 62012.3 35153.8 61993.6 35167.1 61937.6 35212.5 C 61900.3 35175.1 61887 35164.5 61852.3 35121.8 L 61652.4 35121.8 "/>
<path transform="matrix(.00359712,0,0,-.00359712,0,184)" stroke-width="110.783" stroke-linecap="butt" stroke-dasharray="110.783,553.929" stroke-miterlimit="10" stroke-linejoin="miter" fill="none" stroke="#000000" d="M 16254.8 24968.7 L 2858.12 24968.7 "/>
<path transform="matrix(.00359712,0,0,-.00359712,0,184)" d="M 650.25 25762 L 714 25762 C 714 25762 719.547 25762 722.328 25764.8 C 758.359 25781.4 830.438 25728.7 830.438 25687.1 C 830.438 25662.2 730.641 25268.5 633.609 24902.6 C 558.766 24625.4 492.234 24362 472.828 24281.6 C 442.328 24154.1 406.281 24120.8 287.078 24118 L 287.078 24073.7 L 855.391 24073.7 L 855.391 24115.3 C 725.094 24115.3 677.969 24140.2 677.969 24198.4 C 677.969 24237.3 725.094 24453.5 780.547 24658.6 C 849.844 24622.6 899.75 24611.5 963.5 24611.5 C 1368.25 24611.5 1795.17 25077.2 1795.17 25518 C 1795.17 25734.3 1673.19 25864.5 1476.38 25864.5 C 1296.17 25864.5 1163.11 25775.8 1002.31 25551.3 L 1082.72 25828.5 L 1091.03 25853.5 C 1091.03 25853.5 1088.25 25856.2 1085.48 25861.8 L 1079.94 25864.5 C 1079.94 25867.3 1077.17 25867.3 1077.17 25867.3 L 1071.63 25864.5 L 644.703 25803.6 L 650.25 25762 Z M 1373.8 25745.3 C 1493 25739.8 1545.67 25667.7 1545.67 25506.9 C 1545.67 25324 1465.28 25085.6 1346.08 24913.7 C 1229.64 24750.1 1096.58 24664.2 952.422 24664.2 C 874.797 24664.2 819.344 24705.8 819.344 24766.8 C 819.344 24861 919.156 25224.2 999.547 25429.3 C 1074.39 25617.8 1235.19 25753.7 1373.8 25745.3 "/>
<path transform="matrix(.00359712,0,0,-.00359712,0,184)" stroke-width="110.783" stroke-linecap="butt" stroke-dasharray="110.783,553.929" stroke-miterlimit="10" stroke-linejoin="miter" fill="none" stroke="#000000" d="M 16254.8 24968.7 L 16254.8 3691.56 "/>
<path transform="matrix(.00359712,0,0,-.00359712,0,184)" d="M 16119.9 311.5 L 16072.8 311.5 C 15970.2 311.5 15912 339.234 15914.8 391.906 C 15914.8 400.219 15917.6 411.313 15920.3 422.391 L 16375 2021.97 L 16172.6 2021.97 L 16131 1891.67 C 16086.7 2019.19 16031.2 2063.55 15917.6 2063.55 C 15551.6 2063.55 15105.3 1553.47 15105.3 1132.08 C 15105.3 935.25 15213.4 810.5 15388.1 810.5 C 15584.9 810.5 15712.4 913.078 15959.2 1265.16 L 15712.4 452.891 C 15676.4 342 15632 319.828 15451.8 305.953 L 15451.8 261.609 L 16119.9 261.609 L 16119.9 311.5 Z M 15925.9 2002.56 C 16017.4 2002.56 16089.4 1927.72 16089.4 1833.45 C 16089.4 1603.36 15900.9 1209.7 15712.4 1051.69 C 15640.3 990.703 15565.5 957.438 15499 957.438 C 15404.7 957.438 15343.7 1040.59 15343.7 1170.89 C 15343.7 1376.05 15487.9 1683.75 15668.1 1866.72 C 15754 1952.66 15845.5 2002.56 15925.9 2002.56 "/>
<path transform="matrix(.00359712,0,0,-.00359712,0,184)" d="M 17213.8 2493.44 C 17213.8 2526.39 17186.7 2561.28 17151.8 2561.28 C 17107.2 2561.28 16948.3 2402.33 16892 2369.38 C 16892 2477.92 16946.3 2586.48 16946.3 2652.39 C 16946.3 2693.09 16919.2 2718.3 16878.5 2718.3 C 16839.7 2718.3 16816.4 2691.16 16816.4 2652.39 C 16816.4 2576.78 16863 2474.05 16863 2369.38 C 16800.9 2406.2 16649.7 2569.03 16609 2569.03 C 16574.1 2569.03 16543.1 2536.08 16543.1 2501.19 C 16543.1 2433.34 16771.9 2386.83 16847.5 2344.17 C 16766 2297.66 16614.8 2274.39 16576.1 2249.19 C 16556.7 2235.63 16541.2 2218.17 16541.2 2192.98 C 16541.2 2158.09 16568.3 2127.08 16603.2 2127.08 C 16647.8 2127.08 16804.8 2284.08 16863 2317.05 C 16863 2210.42 16808.7 2101.88 16808.7 2034.03 C 16808.7 1995.27 16837.8 1968.13 16876.5 1968.13 C 16915.3 1968.13 16938.6 1997.2 16938.6 2034.03 C 16938.6 2113.5 16894 2214.3 16894 2317.05 C 16954.1 2282.14 17107.2 2119.31 17146 2119.31 C 17180.9 2119.31 17211.9 2152.27 17211.9 2187.17 C 17211.9 2212.36 17194.4 2229.81 17175 2241.44 C 17124.7 2274.39 16990.9 2295.72 16907.5 2344.17 C 16998.7 2398.45 17122.7 2406.2 17178.9 2439.16 C 17200.3 2450.8 17213.8 2468.23 17213.8 2493.44 "/>
<path transform="matrix(.00359712,0,0,-.00359712,0,184)" d="M 16885.2 24968.7 C 16885.2 25316.8 16603 25599.1 16254.8 25599.1 C 15906.6 25599.1 15624.3 25316.8 15624.3 24968.7 C 15624.3 24620.5 15906.6 24338.2 16254.8 24338.2 C 16603 24338.2 16885.2 24620.5 16885.2 24968.7 Z M 16254.8 24968.7 "/>
</g>
</svg>
