<?xml version="1.0" encoding="UTF-8" standalone="no"?>
<!DOCTYPE svg PUBLIC "-//W3C//DTD SVG 1.1//EN" "http://www.w3.org/Graphics/SVG/1.1/DTD/svg11.dtd">
<svg xmlns="http://www.w3.org/2000/svg" xmlns:xlink="http://www.w3.org/1999/xlink" version="1.1" width="235pt" height="145pt" viewBox="0 0 235 145">
<g enable-background="new">
<path transform="matrix(.00359712,0,0,-.00359712,0,145)" stroke-width="110.783" stroke-linecap="butt" stroke-miterlimit="10" stroke-linejoin="miter" fill="none" stroke="#000000" d="M 3909.79 3534.77 L 3909.79 36505.4 "/>
<path transform="matrix(.00359712,0,0,-.00359712,0,145)" stroke-width="88.6236" stroke-linecap="round" stroke-linejoin="round" fill="none" stroke="#000000" d="M 3466.66 36173.1 C 3632.83 36200.8 3882.1 36505.4 3909.79 36588.5 C 3937.48 36505.4 4186.75 36200.8 4352.93 36173.1 "/>
<path transform="matrix(.00359712,0,0,-.00359712,0,145)" d="M 3463.13 37941.7 L 3463.13 37811 C 3463.13 37808.4 3463.13 37803 3463.13 37803 C 3463.13 37784.4 3473.78 37773.7 3497.78 37773.7 C 3609.75 37781.7 3623.08 37781.7 3636.41 37789.7 C 3649.73 37795 3657.73 37808.4 3657.73 37821.7 C 3657.73 37827 3657.73 37832.4 3655.08 37840.4 C 3649.73 38280.3 3647.08 38570.8 3647.08 38714.8 L 3647.08 39189.4 C 3724.39 39240 3737.72 39250.7 3737.72 39264 C 3737.72 39272 3732.39 39280 3713.72 39298.7 C 3649.73 39354.7 3628.41 39370.6 3548.44 39424 C 3500.44 39370.6 3487.11 39352 3441.8 39298.7 L 3151.2 39298.7 L 3151.2 39813.2 L 3823.03 39813.2 C 3828.36 39813.2 3839.03 39821.2 3839.03 39829.2 C 3839.03 39837.2 3833.69 39845.2 3823.03 39855.9 C 3724.39 39951.8 3692.39 39981.2 3575.09 40074.5 C 3505.78 39991.8 3484.45 39965.2 3415.13 39874.5 L 2260.75 39874.5 C 2170.11 39874.5 2098.13 39882.5 2028.81 39901.2 L 2047.47 39797.2 C 2140.78 39810.5 2183.44 39813.2 2260.75 39813.2 L 2516.69 39813.2 L 2516.69 39298.7 L 2260.75 39298.7 C 2170.11 39357.3 2140.78 39376 2047.47 39426.6 C 2058.13 39269.3 2060.8 39146.7 2060.8 38938.8 C 2060.8 38624.2 2055.47 38131 2047.47 37784.4 C 2047.47 37781.7 2047.47 37779 2047.47 37779 C 2047.47 37760.4 2060.8 37749.7 2087.45 37749.7 C 2119.45 37749.7 2183.44 37755 2202.09 37760.4 C 2223.42 37768.4 2228.75 37773.7 2228.75 37797.7 C 2231.42 37800.4 2231.42 37805.7 2231.42 37811 L 2231.42 37941.7 L 3463.13 37941.7 Z M 2988.56 38003 L 2689.98 38003 L 2689.98 39237.3 L 2988.56 39237.3 L 2988.56 38003 Z M 3151.2 38003 L 3151.2 39237.3 L 3463.13 39237.3 L 3463.13 38003 L 3151.2 38003 Z M 2231.42 38003 L 2231.42 39237.3 L 2516.69 39237.3 L 2516.69 38003 L 2231.42 38003 Z M 2689.98 39813.2 L 2988.56 39813.2 L 2988.56 39298.7 L 2689.98 39298.7 L 2689.98 39813.2 Z M 1330.31 38762.8 C 1458.28 38917.4 1506.27 38984.1 1636.91 39208 L 1636.91 38666.8 C 1636.91 38573.5 1628.91 38064.3 1623.58 37776.4 C 1623.58 37747 1634.23 37739 1666.23 37739 C 1754.2 37739 1807.53 37752.4 1807.53 37779 C 1807.53 37781.7 1807.53 37787 1804.86 37789.7 L 1804.86 39184 C 1852.84 39208 1876.84 39226.7 1876.84 39240 C 1876.84 39264 1826.19 39277.3 1687.56 39296 C 1807.53 39509.3 1866.19 39637.3 2007.48 39997.2 C 2087.45 40002.5 2114.13 40013.2 2114.13 40037.1 C 2114.13 40045.1 2103.45 40055.8 2095.45 40061.1 C 2076.8 40071.8 2058.13 40079.8 1951.5 40106.5 C 1922.17 40114.5 1874.17 40127.8 1815.53 40143.8 C 1804.86 39997.2 1746.2 39778.5 1642.23 39506.6 C 1535.59 39224 1431.63 39013.4 1287.66 38789.5 L 1330.31 38762.8 "/>
<path transform="matrix(.00359712,0,0,-.00359712,0,145)" d="M 5378.97 39775.9 C 5421.63 39853.2 5421.63 39853.2 5501.61 40002.5 C 5586.92 40010.5 5621.58 40023.8 5621.58 40047.8 C 5621.58 40066.5 5589.58 40079.8 5456.28 40117.1 C 5426.95 40122.5 5381.64 40135.8 5325.66 40151.8 C 5301.66 40034.5 5245.67 39874.5 5165.69 39693.2 C 5067.05 39469.3 4971.08 39301.3 4856.44 39152 L 4880.42 39130.7 C 5045.72 39269.3 5155.03 39400 5296.33 39626.6 C 5368.31 39453.3 5442.95 39328 5568.25 39178.7 C 5474.95 39085.4 5394.97 39008.1 5301.66 38933.4 C 5147.03 38802.8 5072.38 38754.8 4741.8 38568.2 L 4760.45 38536.2 C 4909.75 38597.5 4973.73 38624.2 5069.72 38669.5 C 5075.05 38450.9 5075.05 38450.9 5075.05 38357.6 C 5075.05 38256.3 5075.05 38147 5069.72 37765.7 C 5069.72 37741.7 5077.72 37733.7 5109.7 37733.7 C 5224.34 37733.7 5245.67 37739 5248.34 37773.7 L 5248.34 37885.7 L 5976.16 37885.7 L 5976.16 37763 C 5976.16 37741.7 5984.16 37739 6018.81 37739 C 6061.47 37739 6122.78 37744.4 6141.45 37749.7 C 6152.11 37755 6157.44 37760.4 6157.44 37776.4 C 6149.45 38117.6 6149.45 38186.9 6149.45 38288.3 C 6149.45 38344.2 6149.45 38408.2 6149.45 38504.2 C 6205.44 38538.8 6221.42 38552.2 6221.42 38568.2 C 6221.42 38576.2 6210.77 38589.5 6184.11 38610.8 C 6125.45 38653.5 6106.8 38664.2 6045.47 38706.8 C 6008.16 38666.8 5997.48 38653.5 5960.16 38610.8 L 5248.34 38610.8 C 5187.02 38650.8 5171.02 38661.5 5120.38 38693.5 C 5314.98 38789.5 5493.61 38909.4 5672.23 39064 C 5856.19 38877.4 6037.47 38757.5 6354.73 38610.8 C 6400.05 38722.8 6429.38 38752.1 6533.36 38789.5 L 6533.36 38829.4 C 6202.77 38874.8 5997.48 38957.4 5757.55 39141.4 C 5896.17 39277.3 5986.83 39394.6 6149.45 39647.9 C 6256.09 39661.2 6285.41 39669.2 6285.41 39693.2 C 6285.41 39701.2 6277.42 39711.9 6258.75 39733.2 C 6184.11 39802.5 6162.78 39826.5 6085.47 39895.8 C 6032.14 39847.9 6016.14 39831.9 5965.5 39775.9 L 5378.97 39775.9 Z M 5952.16 39714.6 C 5834.86 39501.3 5765.55 39402.6 5632.23 39250.7 C 5501.61 39376 5426.95 39477.3 5320.31 39671.9 C 5333.66 39693.2 5333.66 39693.2 5346.98 39714.6 L 5952.16 39714.6 Z M 5248.34 38549.5 L 5976.16 38549.5 L 5976.16 37947 L 5248.34 37947 L 5248.34 38549.5 Z M 4581.83 39557.3 L 4581.83 40034.5 C 4688.47 40074.5 4704.47 40085.1 4704.47 40103.8 C 4704.47 40133.1 4648.48 40143.8 4397.88 40165.1 C 4405.88 40069.1 4408.55 40021.2 4408.55 39831.9 L 4408.55 39557.3 L 4195.27 39557.3 C 4125.95 39557.3 4080.63 39562.6 4021.97 39575.9 L 4037.97 39480 C 4101.95 39493.3 4131.28 39496 4195.27 39496 L 4389.88 39496 C 4277.91 38986.7 4197.92 38752.1 3992.64 38336.2 L 4027.3 38317.6 C 4208.59 38581.5 4325.89 38821.5 4429.88 39152 L 4413.88 38797.5 C 4408.55 38706.8 4403.22 38232.3 4400.55 37752.4 C 4400.55 37728.4 4411.2 37720.4 4435.2 37720.4 C 4549.84 37720.4 4584.5 37728.4 4584.5 37760.4 C 4581.83 37979 4581.83 37979 4581.83 39205.4 C 4651.16 39133.4 4712.47 39034.7 4765.78 38909.4 C 4800.45 38829.4 4811.11 38810.8 4835.11 38810.8 C 4869.77 38810.8 4915.08 38906.8 4915.08 38978.7 C 4915.08 39037.4 4875.09 39082.7 4760.45 39157.4 C 4688.47 39202.7 4637.83 39229.3 4581.83 39261.3 L 4581.83 39496 L 5000.39 39496 C 5008.39 39496 5016.39 39501.3 5016.39 39506.6 C 5016.39 39511.9 5013.73 39517.3 5008.39 39525.3 C 4928.42 39607.9 4904.42 39634.6 4819.11 39714.6 C 4768.45 39647.9 4752.45 39626.6 4701.8 39557.3 L 4581.83 39557.3 "/>
<path transform="matrix(.00359712,0,0,-.00359712,0,145)" stroke-width="110.783" stroke-linecap="butt" stroke-miterlimit="10" stroke-linejoin="miter" fill="none" stroke="#000000" d="M 3909.79 3534.77 L 58945.3 3534.77 "/>
<path transform="matrix(.00359712,0,0,-.00359712,0,145)" stroke-width="88.6236" stroke-linecap="round" stroke-linejoin="round" fill="none" stroke="#000000" d="M 58612.9 3977.91 C 58640.6 3811.73 58945.3 3562.46 59028.4 3534.77 C 58945.3 3507.08 58640.6 3257.81 58612.9 3091.64 "/>
<path transform="matrix(.00359712,0,0,-.00359712,0,145)" d="M 61498.6 3247.16 C 61509.3 3247.16 61520 3255.16 61520 3263.16 C 61520 3268.48 61517.3 3273.81 61512 3279.14 C 61426.7 3356.45 61400 3377.78 61309.4 3452.44 C 61261.4 3391.13 61245.4 3372.45 61197.4 3308.47 L 60794.8 3308.47 C 60824.1 3361.8 60826.8 3367.13 60861.5 3428.44 C 60933.5 3439.11 60954.8 3449.77 60954.8 3473.77 C 60954.8 3492.42 60917.5 3503.09 60725.5 3545.75 C 60698.8 3476.44 60674.8 3420.44 60621.5 3308.47 L 60456.2 3308.47 C 60349.6 3308.47 60272.3 3316.47 60179 3335.13 L 60197.6 3236.48 C 60293.6 3244.48 60341.6 3247.16 60458.9 3247.16 L 60592.2 3247.16 C 60560.2 3185.84 60536.2 3143.19 60466.9 3020.55 C 60426.9 2953.89 60418.9 2940.56 60354.9 2831.25 C 60354.9 2828.59 60354.9 2825.92 60354.9 2823.27 C 60354.9 2809.92 60381.6 2801.94 60434.9 2801.94 C 60504.2 2801.94 60520.2 2807.27 60536.2 2844.59 C 60560.2 2884.58 60576.2 2911.23 60586.9 2932.56 C 60725.5 2876.58 60784.2 2849.92 60893.5 2785.94 C 60722.8 2593.98 60536.2 2482.02 60197.6 2367.38 L 60213.6 2332.72 C 60456.2 2375.38 60581.5 2418.03 60730.8 2495.34 C 60842.8 2556.66 60928.1 2620.64 61016.1 2711.28 C 61098.7 2655.3 61138.7 2623.31 61192 2567.33 C 61218.7 2540.66 61232 2532.66 61245.4 2532.66 C 61264 2532.66 61277.4 2569.98 61277.4 2620.64 C 61277.4 2673.97 61264 2719.28 61240 2745.94 C 61218.7 2772.61 61192 2785.94 61106.7 2820.59 C 61205.4 2956.56 61245.4 3041.88 61309.4 3247.16 L 61498.6 3247.16 Z M 61133.4 3247.16 C 61082.8 3071.2 61048.1 2996.55 60962.8 2873.91 C 60861.5 2908.58 60794.8 2929.91 60616.2 2983.22 C 60685.5 3111.19 60733.5 3199.17 60760.2 3247.16 L 61133.4 3247.16 Z M 61093.4 2327.38 C 61389.3 2431.36 61541.3 2511.34 61711.9 2647.3 C 61802.6 2719.28 61869.2 2783.27 61943.9 2876.58 C 62090.5 2663.3 62253.1 2500.67 62466.4 2356.7 C 62509.1 2466.02 62546.4 2490.02 62682.3 2495.34 L 62687.7 2530 C 62383.8 2665.97 62189.1 2804.59 62029.2 2996.55 C 62130.5 3153.84 62210.5 3340.47 62274.5 3556.41 C 62319.8 3711.05 62341.1 3809.69 62365.1 4014.97 L 62642.4 4014.97 C 62647.7 4014.97 62653 4022.97 62653 4030.95 C 62653 4036.3 62650.4 4044.3 62642.4 4052.28 C 62525.1 4150.94 62525.1 4150.94 62421.1 4241.58 C 62357.1 4169.59 62338.4 4148.27 62271.8 4076.28 L 61762.6 4076.28 C 61861.2 4318.89 61901.2 4430.86 61946.5 4582.83 C 62037.2 4601.48 62061.2 4612.16 62061.2 4633.48 C 62061.2 4662.81 62050.5 4665.47 61770.6 4734.78 C 61765.3 4646.81 61738.6 4510.84 61685.3 4305.56 C 61610.6 4012.3 61530.6 3804.34 61362.7 3463.09 L 61394.7 3439.11 C 61504 3585.73 61549.3 3652.39 61616 3769.69 C 61674.6 3433.78 61727.9 3260.48 61855.9 3020.55 C 61799.9 2932.56 61751.9 2868.58 61687.9 2796.59 C 61530.6 2620.64 61386.7 2516.67 61077.4 2362.05 L 61093.4 2327.38 Z M 62170.5 4014.97 C 62135.8 3665.72 62063.8 3415.11 61925.2 3143.19 C 61789.2 3359.13 61725.3 3532.42 61655.9 3844.34 C 61687.9 3908.33 61706.6 3945.66 61738.6 4014.97 L 62170.5 4014.97 Z M 60984.1 4124.27 L 61554.6 4124.27 C 61568 4124.27 61578.6 4132.27 61578.6 4140.27 C 61578.6 4145.59 61573.3 4156.27 61565.3 4164.27 C 61482.6 4233.58 61456 4257.58 61368 4326.89 C 61322.7 4265.56 61309.4 4246.91 61269.4 4185.59 L 60984.1 4185.59 C 60981.4 4468.19 60981.4 4468.19 60981.4 4484.19 C 60981.4 4518.84 60981.4 4550.83 60981.4 4604.16 C 60997.4 4612.16 61010.8 4617.48 61021.4 4620.16 C 61045.4 4628.14 61061.4 4636.14 61072.1 4641.48 C 61077.4 4646.81 61082.8 4654.81 61082.8 4660.14 C 61082.8 4689.47 61053.4 4694.8 60813.5 4718.8 C 60821.5 4641.48 60826.8 4526.84 60826.8 4454.86 L 60826.8 4185.59 L 60440.2 4185.59 C 60352.3 4185.59 60301.6 4188.25 60189.6 4201.58 L 60205.6 4110.94 C 60320.3 4121.61 60376.3 4124.27 60437.6 4124.27 L 60730.8 4124.27 C 60674.8 4028.3 60653.5 3996.3 60586.9 3910.98 C 60450.9 3737.7 60357.6 3644.39 60189.6 3508.42 L 60205.6 3481.77 C 60330.9 3545.75 60397.6 3591.06 60541.5 3713.7 C 60658.8 3812.34 60728.2 3881.67 60826.8 4001.64 L 60826.8 3897.66 C 60826.8 3820.34 60824.1 3756.36 60818.8 3617.73 C 60818.8 3612.39 60818.8 3609.73 60818.8 3604.41 C 60818.8 3588.41 60834.8 3577.73 60861.5 3577.73 C 60861.5 3577.73 60864.1 3577.73 60866.8 3577.73 C 60880.1 3577.73 60890.8 3580.41 60896.1 3580.41 C 60962.8 3583.08 60978.8 3591.06 60984.1 3617.73 C 60984.1 3852.34 60984.1 3857.67 60984.1 3950.98 C 61072.1 3908.33 61165.4 3831.02 61253.4 3729.7 C 61317.4 3649.72 61322.7 3647.06 61349.3 3647.06 C 61378.7 3647.06 61394.7 3676.38 61394.7 3727.03 C 61394.7 3777.69 61378.7 3833.67 61354.7 3860.34 C 61328 3889.66 61232 3932.31 61112.1 3964.31 C 61005.4 3996.3 61005.4 3996.3 60984.1 4001.64 L 60984.1 4124.27 Z M 60346.9 4625.48 C 60432.2 4521.5 60493.6 4412.2 60528.2 4305.56 C 60546.9 4244.23 60562.9 4220.25 60584.2 4220.25 C 60618.9 4220.25 60674.8 4308.22 60674.8 4358.88 C 60674.8 4433.53 60597.5 4508.17 60373.6 4649.47 L 60346.9 4625.48 Z M 61125.4 4222.91 C 61202.7 4300.23 61202.7 4300.23 61277.4 4382.88 C 61376 4494.84 61376 4494.84 61408 4529.5 C 61421.3 4532.17 61434.7 4534.84 61456 4534.84 C 61480 4537.5 61493.3 4540.17 61498.6 4542.83 C 61506.6 4548.17 61512 4553.5 61512 4561.5 C 61512 4582.83 61474.7 4604.16 61381.3 4636.14 C 61357.3 4644.14 61317.4 4657.47 61266.7 4676.14 C 61240 4550.83 61184 4417.53 61088.1 4241.58 L 61125.4 4222.91 "/>
<path transform="matrix(.00359712,0,0,-.00359712,0,145)" d="M 64113 2972.56 L 64662.2 2972.56 L 64662.2 2945.89 C 64664.9 2927.23 64670.2 2921.91 64686.2 2921.91 C 64726.2 2921.91 64806.2 2932.56 64822.1 2937.89 C 64835.5 2943.23 64840.8 2953.89 64840.8 2964.56 C 64840.8 2967.22 64840.8 2967.22 64840.8 2969.89 C 64838.1 3108.52 64838.1 3151.17 64838.1 3297.81 L 64838.1 3497.77 C 64899.5 3537.75 64915.5 3551.08 64915.5 3569.73 C 64915.5 3577.73 64907.5 3588.41 64886.1 3604.41 C 64840.8 3639.06 64790.2 3673.72 64739.5 3711.05 C 64694.2 3665.72 64683.5 3649.72 64640.9 3604.41 L 63454.5 3604.41 C 63377.2 3652.39 63353.2 3665.72 63270.5 3711.05 C 63275.9 3615.06 63278.5 3548.41 63278.5 3428.44 C 63278.5 3231.16 63275.9 3060.53 63270.5 2892.58 C 63270.5 2871.25 63275.9 2865.92 63299.9 2865.92 C 63347.8 2865.92 63403.8 2871.25 63422.5 2876.58 C 63438.5 2881.91 63443.8 2889.91 63443.8 2908.58 L 63443.8 2972.56 L 63950.4 2972.56 L 63950.4 2775.27 L 63347.8 2775.27 C 63217.2 2775.27 63179.9 2777.94 63089.2 2799.27 L 63105.2 2697.95 C 63187.9 2711.28 63243.9 2713.95 63347.8 2713.95 L 63950.4 2713.95 L 63950.4 2490.02 L 63139.9 2490.02 C 63011.9 2490.02 62955.9 2495.34 62852 2516.67 L 62870.6 2410.03 C 62947.9 2423.36 63017.3 2428.69 63139.9 2428.69 L 65272.7 2428.69 C 65288.7 2428.69 65296.7 2434.02 65296.7 2442.02 C 65296.7 2447.36 65294 2452.69 65286 2460.69 C 65182.1 2540.66 65147.4 2567.33 65040.8 2649.97 L 64886.1 2490.02 L 64113 2490.02 L 64113 2713.95 L 65056.8 2713.95 C 65072.8 2713.95 65083.4 2719.28 65083.4 2729.95 C 65083.4 2732.61 65080.8 2737.95 65070.1 2748.61 C 64979.4 2823.27 64952.8 2844.59 64859.5 2916.56 C 64800.8 2857.92 64779.5 2836.59 64720.8 2775.27 L 64113 2775.27 L 64113 2972.56 Z M 64113 3033.88 L 64113 3265.81 L 64662.2 3265.81 L 64662.2 3033.88 L 64113 3033.88 Z M 63950.4 3033.88 L 63443.8 3033.88 L 63443.8 3265.81 L 63950.4 3265.81 L 63950.4 3033.88 Z M 64113 3327.14 L 64113 3543.08 L 64662.2 3543.08 L 64662.2 3327.14 L 64113 3327.14 Z M 63950.4 3327.14 L 63443.8 3327.14 L 63443.8 3543.08 L 63950.4 3543.08 L 63950.4 3327.14 Z M 63430.5 4025.63 L 64694.2 4025.63 L 64694.2 3964.31 C 64694.2 3961.64 64694.2 3956.31 64694.2 3956.31 C 64694.2 3937.66 64699.5 3934.98 64731.5 3934.98 C 64824.8 3934.98 64864.8 3945.66 64864.8 3966.98 C 64864.8 3969.64 64864.8 3972.31 64864.8 3972.31 C 64859.5 4105.61 64859.5 4164.27 64859.5 4244.23 L 64862.1 4516.17 C 64939.5 4564.16 64952.8 4574.83 64952.8 4590.83 C 64952.8 4596.16 64947.5 4604.16 64931.5 4620.16 C 64864.8 4670.8 64843.5 4686.8 64774.2 4734.78 C 64739.5 4697.47 64704.8 4657.47 64672.8 4620.16 L 63454.5 4620.16 C 63369.2 4673.47 63339.8 4689.47 63251.9 4734.78 C 63259.9 4492.19 63259.9 4486.84 63259.9 4372.2 C 63259.9 4268.23 63259.9 4257.58 63254.5 3958.98 C 63254.5 3956.31 63254.5 3953.64 63254.5 3953.64 C 63254.5 3926.98 63259.9 3924.33 63297.2 3924.33 C 63401.2 3924.33 63430.5 3932.31 63430.5 3958.98 C 63430.5 3958.98 63430.5 3961.64 63430.5 3964.31 L 63430.5 4025.63 Z M 64694.2 4358.88 L 63430.5 4358.88 L 63430.5 4558.83 L 64694.2 4558.83 L 64694.2 4358.88 Z M 64694.2 4297.56 L 64694.2 4086.95 L 63430.5 4086.95 L 63430.5 4297.56 L 64694.2 4297.56 Z M 62873.3 3761.69 C 62955.9 3777.69 63001.3 3780.36 63107.9 3780.36 L 65256.7 3780.36 C 65275.4 3780.36 65283.4 3783.02 65283.4 3791.02 C 65283.4 3796.36 65280.7 3804.34 65275.4 3809.69 C 65174.1 3900.33 65142.1 3926.98 65035.4 4014.97 C 64971.4 3942.98 64950.1 3918.98 64880.8 3841.67 L 63107.9 3841.67 C 62979.9 3841.67 62939.9 3844.34 62860 3865.67 L 62873.3 3761.69 "/>
<path transform="matrix(.00359712,0,0,-.00359712,0,145)" stroke-width="332.357" stroke-linecap="butt" stroke-miterlimit="10" stroke-linejoin="miter" fill="none" stroke="#2e67b5" d="M 3909.79 9051.38 L 42523.6 31116.2 "/>
<path transform="matrix(.00359712,0,0,-.00359712,0,145)" d="M 45620.5 30879.8 L 45620.5 31583.6 L 46108.4 31583.6 C 46121.7 31583.6 46132.4 31591.6 46132.4 31599.6 C 46132.4 31605 46127 31613 46119 31621 C 46023.1 31700.9 46023.1 31700.9 45887.1 31815.6 C 45825.8 31740.9 45809.8 31719.6 45751.1 31645 L 45620.5 31645 L 45620.5 32138.2 C 45684.5 32151.5 45727.1 32172.8 45727.1 32196.8 C 45727.1 32226.1 45660.5 32242.1 45415.2 32268.8 C 45425.9 32188.8 45431.2 32151.5 45431.2 32095.5 L 45431.2 31645 L 44932.7 31645 L 44932.7 32140.8 C 45012.7 32162.2 45042 32175.5 45042 32196.8 C 45042 32226.1 44996.7 32236.8 44732.7 32268.8 C 44743.4 32180.8 44746 32140.8 44746 32066.2 L 44746 31645 L 44559.4 31645 C 44506.1 31645 44426.1 31655.6 44362.1 31671.6 L 44386.1 31567.6 C 44468.8 31581 44506.1 31583.6 44559.4 31583.6 L 44746 31583.6 L 44746 30879.8 L 44447.5 30879.8 C 44394.1 30879.8 44330.2 30890.5 44263.5 30906.5 L 44287.5 30799.8 C 44364.8 30813.2 44402.1 30818.5 44447.5 30818.5 L 46172.4 30818.5 C 46196.4 30818.5 46207 30823.8 46207 30837.2 C 46207 30842.5 46199 30855.8 46185.7 30866.5 C 46084.4 30949.1 46052.4 30973.1 45945.8 31053.1 C 45884.4 30978.5 45865.8 30954.5 45804.5 30879.8 L 45620.5 30879.8 Z M 45431.2 30879.8 L 44932.7 30879.8 L 44932.7 31583.6 L 45431.2 31583.6 L 45431.2 30879.8 Z M 43701 30946.5 C 43829 31082.4 43871.6 31135.8 44007.6 31349 L 44007.6 30778.5 C 44007.6 30527.9 44002.2 30256 43996.9 29957.4 C 43996.9 29928 44007.6 29922.7 44055.6 29922.7 C 44084.9 29922.7 44127.5 29928 44159.5 29933.4 C 44183.5 29938.7 44188.9 29946.7 44191.5 29968 C 44188.9 30224 44188.9 30224 44188.9 30805.2 L 44188.9 31378.4 C 44258.2 31402.3 44271.5 31407.7 44271.5 31426.3 C 44271.5 31447.7 44255.5 31453 44143.5 31469 C 44130.2 31471.7 44130.2 31471.7 44084.9 31477 C 44212.9 31687.6 44260.8 31786.3 44410.1 32140.8 C 44508.8 32156.8 44540.8 32170.2 44540.8 32191.5 C 44540.8 32218.1 44527.4 32223.5 44362.1 32268.8 C 44332.8 32276.8 44287.5 32290.1 44228.8 32306.1 C 44210.2 32172.8 44170.2 32039.5 44076.9 31788.9 C 43940.9 31429 43836.9 31229.1 43663.7 30983.8 L 43701 30946.5 Z M 44300.8 29925.4 C 44551.4 30064 44772.7 30261.3 44988.7 30533.2 C 45098 30538.6 45124.6 30546.6 45124.6 30575.9 C 45124.6 30599.9 45111.3 30605.2 44844.7 30706.5 C 44807.4 30615.9 44772.7 30554.6 44687.4 30429.3 C 44551.4 30229.3 44434.1 30096 44274.2 29960 L 44300.8 29925.4 Z M 45348.6 30661.2 C 45548.5 30477.2 45735.1 30250.6 45847.1 30050.7 C 45900.4 29954.7 45903.1 29952 45929.8 29952 C 45972.4 29952 46001.8 30024 46001.8 30138.7 C 46001.8 30213.3 45985.8 30248 45924.4 30304 C 45777.8 30439.9 45604.5 30562.5 45372.6 30690.5 L 45348.6 30661.2 " fill="#2e67b5"/>
<path transform="matrix(.00359712,0,0,-.00359712,0,145)" d="M 46640.6 31186.4 C 46619.3 31183.7 46605.9 31183.7 46600.6 31183.7 C 46552.6 31181.1 46523.3 31181.1 46512.6 31181.1 C 46504.6 31181.1 46464.6 31183.7 46424.6 31186.4 C 46478 30946.5 46480.6 30930.5 46504.6 30930.5 C 46525.9 30930.5 46539.3 30957.1 46555.3 31029.1 C 46672.6 31045.1 46704.6 31053.1 46853.9 31087.8 L 46853.9 30493.2 C 46853.9 30306.6 46851.2 30093.3 46845.9 29925.4 C 46845.9 29922.7 46845.9 29920 46845.9 29917.4 C 46845.9 29898.7 46859.2 29888 46885.8 29888 C 46912.5 29888 46987.2 29893.4 47000.5 29896 C 47021.8 29901.4 47027.1 29909.4 47027.1 29930.7 C 47024.5 30085.3 47024.5 30085.3 47021.8 30517.2 L 47021.8 31127.8 C 47152.5 31159.7 47152.5 31159.7 47227.1 31178.4 C 47240.4 31141.1 47248.4 31117.1 47253.8 31087.8 C 47296.4 30919.8 47296.4 30917.1 47317.8 30917.1 C 47357.7 30917.1 47411 31010.4 47411 31079.8 C 47411 31138.4 47389.7 31181.1 47315.1 31274.4 C 47211.1 31402.3 47195.1 31418.3 47128.5 31482.3 L 47099.1 31466.3 C 47152.5 31375.7 47173.8 31327.7 47208.4 31231.7 C 46936.5 31194.4 46936.5 31194.4 46757.9 31189.1 C 46941.8 31383.7 47061.8 31533 47304.4 31868.9 C 47389.7 31879.6 47419 31892.9 47419 31916.9 C 47419 31940.9 47419 31940.9 47155.1 32031.5 C 47035.1 31724.9 46944.5 31565 46680.6 31186.4 L 46640.6 31186.4 Z M 46448.6 31914.2 C 46565.9 31770.3 46653.9 31639.6 46715.2 31514.3 C 46736.5 31469 46749.9 31453 46765.9 31453 C 46797.9 31453 46837.9 31538.3 46837.9 31602.3 C 46837.9 31658.3 46816.5 31684.9 46688.6 31775.6 C 46885.8 31996.9 46907.2 32026.2 47011.2 32194.2 C 47093.8 32199.5 47128.5 32212.8 47128.5 32239.5 C 47128.5 32266.1 47107.1 32274.1 46853.9 32332.8 C 46824.5 32186.2 46749.9 31991.5 46648.6 31804.9 C 46549.9 31874.2 46488.6 31916.9 46464.6 31932.9 L 46448.6 31914.2 Z M 46454 30005.4 C 46587.3 30290.6 46640.6 30439.9 46709.9 30749.2 C 46776.5 30762.5 46803.2 30775.8 46803.2 30794.5 C 46803.2 30821.2 46749.9 30837.2 46544.6 30869.1 L 46544.6 30818.5 C 46544.6 30735.8 46536.6 30658.5 46517.9 30506.6 C 46494 30320 46472.6 30221.3 46411.3 30026.7 L 46454 30005.4 Z M 47128.5 30890.5 C 47171.1 30735.8 47200.4 30533.2 47213.8 30312 C 47219.1 30258.6 47229.8 30234.6 47248.4 30234.6 C 47259.1 30234.6 47283.1 30253.3 47301.8 30277.3 C 47339.1 30320 47365.7 30389.3 47365.7 30439.9 C 47365.7 30487.9 47344.4 30554.6 47293.8 30663.9 C 47243.1 30773.2 47219.1 30815.8 47155.1 30901.1 L 47128.5 30890.5 Z M 47376.4 31277 C 47541.7 31415.7 47629.7 31506.3 47739 31647.6 C 47885.6 31836.9 47962.9 31959.5 48056.2 32156.8 C 48168.2 31895.6 48221.5 31799.6 48312.2 31679.6 C 48429.5 31522.3 48541.4 31418.3 48746.7 31277 C 48786.7 31381 48816 31407.7 48917.3 31445 L 48917.3 31471.7 C 48685.4 31554.3 48570.8 31618.3 48429.5 31743.6 C 48266.8 31890.2 48181.5 32002.2 48101.5 32183.5 C 48170.9 32202.2 48192.2 32215.5 48192.2 32234.1 C 48192.2 32258.1 48192.2 32258.1 47890.9 32330.1 C 47835 32108.8 47717.6 31855.6 47547 31578.3 C 47469.7 31458.3 47435 31413 47347.1 31317 L 47376.4 31277 Z M 47685.7 30898.5 C 47605.7 30959.8 47581.7 30975.8 47493.7 31029.1 C 47501.7 30871.8 47504.4 30709.2 47504.4 30474.6 C 47504.4 30290.6 47501.7 30173.3 47493.7 29936 C 47496.4 29914.7 47507 29909.4 47539 29909.4 C 47579 29909.4 47632.3 29914.7 47645.7 29917.4 C 47664.3 29922.7 47669.7 29930.7 47669.7 29954.7 L 47669.7 30082.7 L 48392.1 30082.7 L 48392.1 29957.4 C 48392.1 29928 48400.1 29920 48426.8 29920 C 48485.5 29920 48546.8 29928 48562.8 29938.7 C 48570.8 29946.7 48573.4 29957.4 48573.4 29978.7 C 48570.8 30122.7 48568.1 30306.6 48568.1 30615.9 L 48568.1 30805.2 C 48626.8 30837.2 48642.8 30850.5 48642.8 30869.1 C 48642.8 30877.1 48634.8 30887.8 48618.8 30901.1 C 48560.1 30957.1 48538.8 30973.1 48474.8 31029.1 C 48426.8 30973.1 48413.5 30957.1 48368.2 30898.5 L 47685.7 30898.5 Z M 47669.7 30837.2 L 48392.1 30837.2 L 48392.1 30144 L 47669.7 30144 L 47669.7 30837.2 Z M 47773.6 31338.4 C 47691 31338.4 47648.3 31343.7 47579 31357 L 47597.7 31261 C 47651 31271.7 47701.7 31277 47773.6 31277 L 48496.1 31277 C 48520.1 31277 48530.8 31282.4 48530.8 31293 C 48530.8 31298.4 48528.1 31306.4 48520.1 31314.4 C 48440.1 31397 48416.1 31421 48328.2 31498.3 C 48269.5 31434.3 48250.8 31413 48194.9 31338.4 L 47773.6 31338.4 " fill="#2e67b5"/>
<path transform="matrix(.00359712,0,0,-.00359712,0,145)" d="M 51094.5 30088 L 51094.5 29949.4 C 51097.1 29922.7 51107.8 29917.4 51150.5 29917.4 C 51262.4 29917.4 51291.8 29928 51294.4 29970.7 C 51281.1 30234.6 51273.1 30751.8 51273.1 31223.7 L 51273.1 31565 C 51353.1 31607.6 51382.4 31631.6 51382.4 31653 C 51382.4 31663.6 51374.4 31674.3 51353.1 31692.9 C 51275.8 31748.9 51251.8 31767.6 51171.8 31820.9 C 51123.8 31767.6 51107.8 31751.6 51059.8 31692.9 L 50643.9 31692.9 L 50643.9 32156.8 C 50718.6 32180.8 50747.9 32199.5 50747.9 32223.5 C 50747.9 32228.8 50742.6 32236.8 50734.6 32242.1 C 50710.6 32258.1 50710.6 32258.1 50438.6 32292.8 C 50454.6 32188.8 50454.6 32164.8 50454.6 31988.9 L 50454.6 31692.9 L 50025.4 31692.9 L 50025.4 32156.8 C 50102.7 32175.5 50137.4 32196.8 50137.4 32223.5 C 50137.4 32250.1 50065.4 32266.1 49830.8 32287.5 C 49841.4 32175.5 49844.1 32122.2 49844.1 32020.9 L 49844.1 31692.9 L 49436.2 31692.9 C 49350.9 31754.3 49324.2 31770.3 49230.9 31820.9 C 49238.9 31692.9 49244.3 31335.7 49244.3 30962.5 C 49244.3 30602.5 49236.3 30184 49225.6 29941.4 C 49228.3 29912 49241.6 29901.4 49278.9 29901.4 C 49281.6 29901.4 49284.3 29901.4 49286.9 29901.4 C 49297.6 29901.4 49310.9 29904 49329.6 29904 C 49404.2 29904 49425.5 29914.7 49436.2 29949.4 L 49436.2 30088 L 51094.5 30088 Z M 51094.5 30149.3 L 50643.9 30149.3 L 50643.9 30893.1 L 51094.5 30893.1 L 51094.5 30149.3 Z M 51094.5 30954.5 L 50643.9 30954.5 L 50643.9 31631.6 L 51094.5 31631.6 L 51094.5 30954.5 Z M 50454.6 30149.3 L 50025.4 30149.3 L 50025.4 30893.1 L 50454.6 30893.1 L 50454.6 30149.3 Z M 50454.6 30954.5 L 50025.4 30954.5 L 50025.4 31631.6 L 50454.6 31631.6 L 50454.6 30954.5 Z M 49844.1 30149.3 L 49436.2 30149.3 L 49436.2 30893.1 L 49844.1 30893.1 L 49844.1 30149.3 Z M 49844.1 30954.5 L 49436.2 30954.5 L 49436.2 31631.6 L 49844.1 31631.6 L 49844.1 30954.5 " fill="#2e67b5"/>
<path transform="matrix(.00359712,0,0,-.00359712,0,145)" d="M 52146.5 30538.6 C 52146.5 30389.3 52141.2 30160 52130.5 29928 C 52133.2 29904 52141.2 29893.4 52167.9 29893.4 C 52210.5 29893.4 52277.2 29904 52293.2 29912 C 52306.5 29920 52311.8 29928 52311.8 29949.4 C 52306.5 30216 52306.5 30224 52306.5 30567.9 L 52306.5 31103.8 C 52434.5 31130.4 52434.5 31130.4 52549.1 31157.1 C 52567.8 31098.4 52578.4 31063.8 52589.1 31018.4 C 52597.1 30983.8 52610.4 30967.8 52629.1 30967.8 C 52671.7 30967.8 52719.7 31058.4 52719.7 31138.4 C 52719.7 31178.4 52701.1 31221.1 52661.1 31266.4 C 52586.4 31351.7 52509.1 31423.7 52418.5 31493 L 52391.8 31466.3 C 52466.5 31351.7 52493.1 31303.7 52533.1 31205.1 C 52359.8 31189.1 52349.2 31189.1 52061.2 31175.7 C 52287.8 31447.7 52389.1 31578.3 52589.1 31863.6 C 52679.7 31866.2 52706.4 31876.9 52706.4 31900.9 C 52706.4 31927.5 52663.7 31948.9 52447.8 32026.2 C 52399.8 31890.2 52314.5 31711.6 52202.5 31511.7 C 52133.2 31391.7 52087.9 31317 51986.6 31173.1 C 51882.6 31170.4 51882.6 31170.4 51858.6 31170.4 C 51821.3 31170.4 51794.6 31173.1 51736 31178.4 C 51773.3 30975.8 51786.6 30935.8 51813.3 30935.8 C 51831.9 30935.8 51842.6 30954.5 51863.9 31031.8 C 52061.2 31061.1 52061.2 31061.1 52146.5 31077.1 L 52146.5 30538.6 Z M 51754.6 31890.2 C 51866.6 31764.9 51941.3 31650.3 51981.2 31551.6 C 52018.6 31445 52021.2 31442.3 52047.9 31442.3 C 52085.2 31442.3 52125.2 31527.7 52125.2 31605 C 52125.2 31666.3 52095.9 31706.3 51991.9 31780.9 C 52111.9 31922.2 52157.2 31983.5 52301.2 32204.8 C 52311.8 32202.2 52327.8 32202.2 52330.5 32202.2 C 52402.5 32202.2 52431.8 32212.8 52431.8 32234.1 C 52431.8 32263.5 52431.8 32263.5 52146.5 32364.8 C 52127.9 32244.8 52047.9 32015.5 51951.9 31810.3 C 51887.9 31855.6 51863.9 31871.6 51781.3 31922.2 L 51754.6 31890.2 Z M 53239.6 32068.8 C 53319.6 32132.8 53340.9 32151.5 53423.5 32242.1 C 53511.5 32247.5 53532.9 32255.5 53532.9 32279.5 C 53532.9 32303.5 53503.5 32314.1 53266.3 32380.8 C 53250.3 32282.1 53215.6 32159.5 53175.6 32068.8 L 53002.3 32068.8 C 52925 32119.5 52898.3 32135.5 52813 32183.5 C 52818.4 32076.8 52821 31831.6 52821 31623.6 C 52821 31474.3 52821 31474.3 52813 31157.1 C 52815.7 31133.1 52823.7 31127.8 52845 31127.8 C 52879.7 31127.8 52938.3 31135.8 52957 31143.8 C 52973 31149.1 52978.3 31157.1 52978.3 31178.4 L 52978.3 31250.4 L 53266.3 31250.4 L 53266.3 30162.7 C 53266.3 30136 53260.9 30128 53234.3 30128 C 53071.6 30133.3 53015.7 30136 52837 30152 L 52837 30112 C 53050.3 30061.3 53050.3 30061.3 53079.6 30045.3 C 53135.6 30016 53157 29986.7 53165 29922.7 C 53391.6 29968 53436.9 30000 53436.9 30112 C 53428.9 30306.6 53428.9 30391.9 53426.2 30479.9 C 53426.2 30573.2 53426.2 30634.5 53423.5 30653.2 L 53410.2 31079.8 C 53466.2 30839.8 53522.2 30701.2 53634.2 30514.6 C 53751.5 30322.6 53855.4 30208 54050.1 30053.3 C 54087.4 30141.3 54130 30176 54220.7 30192 L 54231.4 30232 C 54098 30285.3 54002.1 30341.3 53868.8 30450.6 C 53767.5 30530.6 53700.8 30599.9 53634.2 30698.5 C 53804.8 30781.2 53860.8 30818.5 53999.4 30927.8 C 54018.1 30925.1 54036.7 30925.1 54042.1 30925.1 C 54103.4 30925.1 54124.7 30933.1 54124.7 30951.8 C 54124.7 30978.5 54103.4 30989.1 53892.8 31098.4 C 53804.8 30951.8 53719.5 30847.8 53604.8 30743.8 C 53495.5 30922.5 53458.2 31026.4 53426.2 31250.4 L 53714.1 31250.4 L 53714.1 31165.1 C 53714.1 31141.1 53724.8 31133.1 53748.8 31133.1 C 53847.5 31133.1 53892.8 31149.1 53892.8 31181.1 C 53892.8 31183.7 53892.8 31186.4 53892.8 31189.1 C 53882.1 31397 53879.4 31482.3 53879.4 31637 L 53882.1 31964.9 C 53943.4 31996.9 53967.4 32015.5 53967.4 32034.2 C 53967.4 32047.5 53956.8 32060.8 53932.8 32082.2 C 53876.8 32124.8 53858.1 32138.2 53794.1 32183.5 C 53746.1 32135.5 53732.8 32119.5 53687.5 32068.8 L 53239.6 32068.8 Z M 52978.3 31706.3 L 52978.3 32007.5 L 53714.1 32007.5 L 53714.1 31706.3 L 52978.3 31706.3 Z M 53714.1 31645 L 53714.1 31311.7 L 52978.3 31311.7 L 52978.3 31645 L 53714.1 31645 Z M 51725.3 30010.7 C 51855.9 30229.3 51935.9 30434.6 52005.2 30741.2 C 52077.2 30751.8 52095.9 30762.5 52095.9 30783.8 C 52095.9 30810.5 52063.9 30821.2 51861.3 30871.8 C 51858.6 30773.2 51850.6 30703.9 51818.6 30530.6 C 51784 30341.3 51757.3 30234.6 51685.3 30026.7 L 51725.3 30010.7 Z M 52375.8 30885.1 C 52447.8 30711.8 52477.1 30613.2 52506.4 30431.9 C 52519.8 30349.3 52525.1 30338.6 52543.8 30338.6 C 52583.8 30338.6 52647.8 30445.3 52647.8 30511.9 C 52647.8 30589.2 52562.4 30725.2 52405.1 30895.8 L 52375.8 30885.1 Z M 52770.4 30895.8 C 52717.1 30895.8 52685.1 30898.5 52613.1 30914.5 L 52629.1 30818.5 C 52671.7 30829.2 52727.7 30834.5 52786.4 30834.5 L 52981 30834.5 C 52925 30666.5 52879.7 30575.9 52775.7 30426.6 C 52671.7 30272 52591.8 30186.6 52447.8 30066.7 L 52474.5 30026.7 C 52634.4 30128 52722.4 30200 52831.7 30320 C 52967.7 30461.3 53047.6 30586.5 53143.6 30789.2 C 53191.6 30802.5 53215.6 30815.8 53215.6 30829.2 C 53215.6 30839.8 53210.3 30847.8 53183.6 30877.1 C 53130.3 30927.8 53111.6 30941.1 53055.6 30986.5 C 53018.3 30949.1 53005 30938.5 52970.3 30895.8 L 52770.4 30895.8 " fill="#2e67b5"/>
<path transform="matrix(.00359712,0,0,-.00359712,0,145)" stroke-width="332.357" stroke-linecap="butt" stroke-miterlimit="10" stroke-linejoin="miter" fill="none" stroke="#610b0b" d="M 3909.79 31116.2 L 42523.6 9051.38 "/>
<path transform="matrix(.00359712,0,0,-.00359712,0,145)" d="M 44836.7 9851.89 L 44052.9 9851.89 C 44052.9 9899.88 44052.9 9913.2 44047.6 9966.53 L 44007.6 9966.53 C 43986.2 9851.89 43972.9 9806.56 43946.3 9747.91 C 43914.3 9686.59 43860.9 9627.94 43813 9601.28 C 43773 9579.95 43762.3 9563.95 43762.3 9529.3 C 43762.3 9499.97 43775.6 9441.33 43789 9409.33 C 43799.6 9382.67 43821 9366.67 43842.3 9366.67 C 43882.3 9366.67 43927.6 9404 43964.9 9467.98 C 44004.9 9534.63 44034.2 9651.94 44050.2 9790.56 L 44836.7 9790.56 L 44836.7 9611.94 C 44836.7 9443.98 44831.4 9294.69 44826 9153.39 C 44826 9129.39 44839.4 9121.41 44871.4 9121.41 C 45002 9129.39 45012.7 9132.06 45018 9174.72 C 45010 9414.66 45010 9497.31 45010 9643.94 L 45010 9790.56 L 45855.1 9790.56 C 45844.5 9689.27 45839.1 9651.94 45812.5 9523.97 L 45839.1 9515.97 C 45903.1 9585.28 45903.1 9585.28 46028.4 9731.92 C 46145.7 9747.91 46145.7 9747.91 46167 9761.23 C 46172.4 9763.91 46177.7 9771.91 46177.7 9777.23 C 46177.7 9785.23 46169.7 9795.91 46151 9809.23 C 46057.7 9886.55 46028.4 9907.88 45929.8 9982.52 C 45876.4 9926.53 45860.4 9907.88 45812.5 9851.89 L 45010 9851.89 L 45010 10065.2 L 45871.1 10065.2 C 45881.8 10065.2 45900.4 10081.2 45900.4 10091.8 C 45900.4 10094.5 45892.4 10105.2 45884.4 10115.8 C 45777.8 10201.1 45745.8 10225.1 45644.5 10305.1 C 45572.5 10227.8 45551.2 10203.8 45484.5 10126.5 L 44306.2 10126.5 C 44191.5 10126.5 44106.2 10131.8 43999.6 10145.1 L 44012.9 10054.5 C 44175.5 10065.2 44199.5 10065.2 44306.2 10065.2 L 44836.7 10065.2 L 44836.7 9851.89 Z M 46103 8953.44 C 46116.4 8953.44 46135 8964.11 46135 8974.77 C 46135 8980.09 46129.7 8990.77 46121.7 8998.77 C 46023.1 9081.41 45991.1 9105.41 45889.8 9177.39 C 45825.8 9110.73 45807.1 9086.73 45740.5 9014.77 L 44108.9 9014.77 C 43954.3 9014.77 43860.9 9020.09 43759.6 9033.42 L 43773 8940.11 C 43805 8942.78 43916.9 8948.11 44108.9 8953.44 L 44796.7 8953.44 C 44772.7 8865.47 44756.7 8825.47 44703.4 8740.16 L 44244.8 8740.16 C 44154.2 8793.48 44124.9 8809.47 44031.6 8854.8 C 44039.6 8782.81 44044.9 8604.19 44044.9 8388.25 C 44044.9 8206.95 44042.2 7964.36 44036.9 7881.7 C 44042.2 7860.38 44055.6 7849.72 44079.5 7849.72 C 44114.2 7849.72 44180.9 7857.72 44194.2 7865.7 C 44207.5 7871.05 44212.9 7879.05 44215.5 7897.7 L 44215.5 8678.84 L 44564.8 8678.84 L 44564.8 8388.25 C 44562.1 8047 44562.1 8047 44559.4 7929.69 C 44567.4 7911.03 44578.1 7905.7 44610.1 7905.7 C 44706.1 7905.7 44732.7 7913.7 44738.1 7945.69 C 44735.4 8076.33 44735.4 8076.33 44735.4 8406.91 L 44735.4 8678.84 L 45082 8678.84 L 45082 8414.91 C 45082 8249.61 45079.3 8063 45074 7932.36 C 45079.3 7911.03 45090 7905.7 45116.6 7905.7 C 45209.9 7905.7 45239.3 7916.36 45247.3 7948.36 C 45244.6 8036.33 45244.6 8036.33 45241.9 8425.58 L 45241.9 8678.84 L 45655.2 8678.84 L 45655.2 8105.66 C 45655.2 8084.33 45649.8 8078.98 45623.2 8076.33 C 45484.5 8081.66 45439.2 8081.66 45327.3 8089.66 L 45327.3 8057.66 C 45503.2 8012.34 45553.9 7975.02 45575.2 7876.38 C 45772.5 7905.7 45820.5 7943.03 45833.8 8076.33 C 45831.1 8198.95 45831.1 8257.61 45831.1 8342.92 L 45831.1 8641.52 C 45892.4 8673.52 45911.1 8686.84 45911.1 8708.17 C 45911.1 8718.83 45903.1 8726.83 45884.4 8740.16 C 45820.5 8790.81 45799.1 8806.81 45727.1 8854.8 C 45681.8 8806.81 45668.5 8790.81 45623.2 8740.16 L 44772.7 8740.16 C 44858 8793.48 44866 8798.81 45036.7 8953.44 L 46103 8953.44 Z M 44111.5 9505.3 C 44175.5 9513.3 44204.9 9515.97 44260.8 9515.97 L 44703.4 9515.97 C 44716.7 9515.97 44730.1 9526.63 44730.1 9537.3 C 44730.1 9539.97 44724.7 9553.3 44719.4 9561.3 C 44644.8 9630.61 44620.8 9651.94 44551.4 9713.25 C 44490.1 9657.27 44471.5 9638.61 44415.5 9577.28 L 44260.8 9577.28 C 44220.8 9577.28 44172.9 9582.63 44098.2 9593.28 L 44111.5 9505.3 Z M 45108.6 9507.97 C 45178 9513.3 45209.9 9515.97 45257.9 9515.97 L 45745.8 9515.97 C 45761.8 9515.97 45775.1 9523.97 45775.1 9534.63 C 45775.1 9539.97 45769.8 9550.63 45761.8 9558.63 C 45689.8 9630.61 45665.8 9651.94 45588.5 9715.92 C 45532.5 9657.27 45516.5 9638.61 45463.2 9577.28 L 45257.9 9577.28 C 45201.9 9577.28 45201.9 9577.28 45098 9593.28 L 45108.6 9507.97 Z M 45111.3 9222.7 C 45207.3 9228.05 45236.6 9230.7 45271.3 9230.7 L 45831.1 9230.7 C 45855.1 9230.7 45871.1 9238.7 45871.1 9252.03 C 45871.1 9257.36 45865.8 9262.7 45857.8 9273.36 C 45769.8 9348.02 45740.5 9369.34 45655.2 9438.66 C 45601.8 9377.34 45583.2 9356.02 45532.5 9292.03 L 45271.3 9292.03 C 45199.3 9292.03 45199.3 9292.03 45148.6 9300.02 C 45138 9300.02 45119.3 9302.69 45098 9305.36 L 45111.3 9222.7 Z M 44007.6 9222.7 C 44076.9 9230.7 44103.5 9230.7 44175.5 9230.7 L 44708.7 9230.7 C 44740.7 9230.7 44751.4 9236.03 44751.4 9246.7 C 44751.4 9252.03 44746 9262.7 44735.4 9273.36 C 44660.7 9345.34 44636.8 9366.67 44564.8 9430.66 C 44500.8 9369.34 44479.5 9350.67 44418.1 9292.03 L 44175.5 9292.03 C 44106.2 9292.03 44047.6 9297.36 43991.6 9310.69 L 44007.6 9222.7 " fill="#610b0b"/>
<path transform="matrix(.00359712,0,0,-.00359712,0,145)" d="M 48808 8769.48 C 48824 8769.48 48834.7 8774.81 48834.7 8785.48 C 48834.7 8790.81 48829.4 8798.81 48818.7 8812.14 C 48725.4 8897.45 48693.4 8924.11 48589.4 9006.77 C 48517.5 8934.78 48496.1 8913.45 48424.1 8830.8 L 47379.1 8830.8 C 47419 8889.45 47432.4 8910.78 47488.4 8998.77 C 47571 9009.42 47597.7 9020.09 47597.7 9038.75 C 47597.7 9054.75 47576.3 9065.41 47360.4 9129.39 C 47331.1 9057.42 47293.8 8993.44 47184.4 8830.8 L 46624.6 8830.8 C 46507.3 8830.8 46467.3 8836.14 46387.3 8860.13 L 46403.3 8756.16 C 46451.3 8766.83 46451.3 8766.83 46621.9 8769.48 L 47141.8 8769.48 C 47048.5 8638.86 46997.8 8574.88 46832.5 8372.25 C 46805.9 8340.27 46803.2 8337.59 46803.2 8329.59 C 46803.2 8326.92 46805.9 8321.59 46811.2 8318.94 C 46824.5 8310.94 46917.8 8292.27 46944.5 8292.27 C 46957.8 8292.27 46968.5 8297.61 46981.8 8313.59 C 47027.1 8364.25 47040.5 8380.25 47072.5 8417.58 C 47269.8 8385.58 47347.1 8366.92 47539 8308.27 C 47411 8209.63 47288.4 8137.64 47144.5 8076.33 C 46939.2 7991.02 46763.2 7948.36 46422 7897.7 L 46422 7852.38 C 46712.6 7857.72 46904.5 7887.03 47155.1 7964.36 C 47373.7 8031 47528.4 8113.64 47701.7 8254.95 C 47960.3 8158.97 48114.9 8084.33 48325.5 7953.69 C 48480.1 7857.72 48490.8 7849.72 48509.5 7849.72 C 48536.1 7849.72 48554.8 7876.38 48554.8 7913.7 C 48554.8 7991.02 48493.5 8094.98 48421.5 8137.64 C 48344.2 8182.97 48082.9 8268.28 47803 8342.92 C 47949.6 8484.22 48013.6 8566.88 48130.9 8769.48 L 48808 8769.48 Z M 47928.3 8769.48 C 47835 8593.53 47771 8513.55 47629.7 8382.92 C 47488.4 8409.58 47395.1 8425.58 47109.8 8462.89 C 47195.1 8569.53 47243.1 8636.19 47336.4 8769.48 L 47928.3 8769.48 Z M 47946.9 10054.5 L 48781.4 10054.5 C 48792 10054.5 48800 10062.5 48800 10070.5 C 48800 10075.8 48792 10086.5 48784 10097.2 C 48682.7 10179.8 48650.8 10206.5 48546.8 10283.8 C 48480.1 10214.5 48458.8 10193.1 48389.5 10115.8 L 46664.6 10115.8 C 46557.9 10115.8 46499.3 10123.8 46432.6 10142.5 L 46448.6 10038.5 C 46512.6 10049.2 46584.6 10054.5 46637.9 10054.5 L 47232.4 10054.5 L 47232.4 9715.92 L 46867.2 9715.92 C 46771.2 9763.91 46741.9 9779.91 46651.2 9817.23 C 46651.2 9763.91 46651.2 9710.59 46653.9 9654.59 C 46656.6 9483.98 46656.6 9483.98 46656.6 9401.33 C 46656.6 9302.69 46656.6 9220.05 46651.2 9057.42 C 46651.2 9036.09 46661.9 9028.09 46685.9 9028.09 C 46803.2 9028.09 46824.5 9036.09 46824.5 9070.75 L 46824.5 9142.73 L 48368.2 9142.73 L 48368.2 9057.42 C 48368.2 9033.42 48378.8 9022.75 48405.5 9022.75 C 48520.1 9022.75 48552.1 9030.75 48552.1 9062.75 C 48552.1 9062.75 48552.1 9068.08 48552.1 9070.75 C 48541.4 9222.7 48541.4 9222.7 48538.8 9614.61 C 48610.8 9657.27 48618.8 9665.27 48618.8 9681.27 C 48618.8 9689.27 48613.4 9697.25 48592.1 9715.92 C 48528.1 9766.58 48509.5 9782.56 48445.5 9830.56 C 48400.1 9782.56 48384.1 9766.58 48338.8 9715.92 L 47946.9 9715.92 L 47946.9 10054.5 Z M 47781.6 10054.5 L 47781.6 9715.92 L 47395.1 9715.92 L 47395.1 10054.5 L 47781.6 10054.5 Z M 47232.4 9654.59 L 47232.4 9204.05 L 46824.5 9204.05 L 46824.5 9654.59 L 47232.4 9654.59 Z M 47395.1 9654.59 L 47781.6 9654.59 L 47781.6 9204.05 L 47395.1 9204.05 L 47395.1 9654.59 Z M 47946.9 9654.59 L 48368.2 9654.59 L 48368.2 9204.05 L 47946.9 9204.05 L 47946.9 9654.59 " fill="#610b0b"/>
<path transform="matrix(.00359712,0,0,-.00359712,0,145)" d="M 51094.5 8023 L 51094.5 7884.38 C 51097.1 7857.72 51107.8 7852.38 51150.5 7852.38 C 51262.4 7852.38 51291.8 7863.05 51294.4 7905.7 C 51281.1 8169.64 51273.1 8686.84 51273.1 9158.72 L 51273.1 9499.97 C 51353.1 9542.63 51382.4 9566.63 51382.4 9587.95 C 51382.4 9598.61 51374.4 9609.28 51353.1 9627.94 C 51275.8 9683.92 51251.8 9702.59 51171.8 9755.91 C 51123.8 9702.59 51107.8 9686.59 51059.8 9627.94 L 50643.9 9627.94 L 50643.9 10091.8 C 50718.6 10115.8 50747.9 10134.5 50747.9 10158.5 C 50747.9 10163.8 50742.6 10171.8 50734.6 10177.1 C 50710.6 10193.1 50710.6 10193.1 50438.6 10227.8 C 50454.6 10123.8 50454.6 10099.8 50454.6 9923.88 L 50454.6 9627.94 L 50025.4 9627.94 L 50025.4 10091.8 C 50102.7 10110.5 50137.4 10131.8 50137.4 10158.5 C 50137.4 10185.1 50065.4 10201.1 49830.8 10222.5 C 49841.4 10110.5 49844.1 10057.2 49844.1 9955.86 L 49844.1 9627.94 L 49436.2 9627.94 C 49350.9 9689.27 49324.2 9705.25 49230.9 9755.91 C 49238.9 9627.94 49244.3 9270.7 49244.3 8897.45 C 49244.3 8537.55 49236.3 8118.98 49225.6 7876.38 C 49228.3 7847.05 49241.6 7836.39 49278.9 7836.39 C 49281.6 7836.39 49284.3 7836.39 49286.9 7836.39 C 49297.6 7836.39 49310.9 7839.05 49329.6 7839.05 C 49404.2 7839.05 49425.5 7849.72 49436.2 7884.38 L 49436.2 8023 L 51094.5 8023 Z M 51094.5 8084.33 L 50643.9 8084.33 L 50643.9 8828.14 L 51094.5 8828.14 L 51094.5 8084.33 Z M 51094.5 8889.45 L 50643.9 8889.45 L 50643.9 9566.63 L 51094.5 9566.63 L 51094.5 8889.45 Z M 50454.6 8084.33 L 50025.4 8084.33 L 50025.4 8828.14 L 50454.6 8828.14 L 50454.6 8084.33 Z M 50454.6 8889.45 L 50025.4 8889.45 L 50025.4 9566.63 L 50454.6 9566.63 L 50454.6 8889.45 Z M 49844.1 8084.33 L 49436.2 8084.33 L 49436.2 8828.14 L 49844.1 8828.14 L 49844.1 8084.33 Z M 49844.1 8889.45 L 49436.2 8889.45 L 49436.2 9566.63 L 49844.1 9566.63 L 49844.1 8889.45 " fill="#610b0b"/>
<path transform="matrix(.00359712,0,0,-.00359712,0,145)" d="M 52146.5 8473.56 C 52146.5 8324.27 52141.2 8094.98 52130.5 7863.05 C 52133.2 7839.05 52141.2 7828.39 52167.9 7828.39 C 52210.5 7828.39 52277.2 7839.05 52293.2 7847.05 C 52306.5 7855.05 52311.8 7863.05 52311.8 7884.38 C 52306.5 8150.97 52306.5 8158.97 52306.5 8502.89 L 52306.5 9038.75 C 52434.5 9065.41 52434.5 9065.41 52549.1 9092.08 C 52567.8 9033.42 52578.4 8998.77 52589.1 8953.44 C 52597.1 8918.78 52610.4 8902.78 52629.1 8902.78 C 52671.7 8902.78 52719.7 8993.44 52719.7 9073.41 C 52719.7 9113.41 52701.1 9156.06 52661.1 9201.38 C 52586.4 9286.69 52509.1 9358.67 52418.5 9427.98 L 52391.8 9401.33 C 52466.5 9286.69 52493.1 9238.7 52533.1 9140.06 C 52359.8 9124.06 52349.2 9124.06 52061.2 9110.73 C 52287.8 9382.67 52389.1 9513.3 52589.1 9798.56 C 52679.7 9801.23 52706.4 9811.89 52706.4 9835.89 C 52706.4 9862.55 52663.7 9883.88 52447.8 9961.19 C 52399.8 9825.22 52314.5 9646.61 52202.5 9446.66 C 52133.2 9326.69 52087.9 9252.03 51986.6 9108.06 C 51882.6 9105.41 51882.6 9105.41 51858.6 9105.41 C 51821.3 9105.41 51794.6 9108.06 51736 9113.41 C 51773.3 8910.78 51786.6 8870.8 51813.3 8870.8 C 51831.9 8870.8 51842.6 8889.45 51863.9 8966.77 C 52061.2 8996.09 52061.2 8996.09 52146.5 9012.09 L 52146.5 8473.56 Z M 51754.6 9825.22 C 51866.6 9699.92 51941.3 9585.28 51981.2 9486.64 C 52018.6 9380 52021.2 9377.34 52047.9 9377.34 C 52085.2 9377.34 52125.2 9462.66 52125.2 9539.97 C 52125.2 9601.28 52095.9 9641.27 51991.9 9715.92 C 52111.9 9857.22 52157.2 9918.53 52301.2 10139.8 C 52311.8 10137.2 52327.8 10137.2 52330.5 10137.2 C 52402.5 10137.2 52431.8 10147.8 52431.8 10169.1 C 52431.8 10198.5 52431.8 10198.5 52146.5 10299.8 C 52127.9 10179.8 52047.9 9950.53 51951.9 9745.25 C 51887.9 9790.56 51863.9 9806.56 51781.3 9857.22 L 51754.6 9825.22 Z M 53239.6 10003.8 C 53319.6 10067.8 53340.9 10086.5 53423.5 10177.1 C 53511.5 10182.5 53532.9 10190.5 53532.9 10214.5 C 53532.9 10238.5 53503.5 10249.1 53266.3 10315.8 C 53250.3 10217.1 53215.6 10094.5 53175.6 10003.8 L 53002.3 10003.8 C 52925 10054.5 52898.3 10070.5 52813 10118.5 C 52818.4 10011.8 52821 9766.58 52821 9558.63 C 52821 9409.33 52821 9409.33 52813 9092.08 C 52815.7 9068.08 52823.7 9062.75 52845 9062.75 C 52879.7 9062.75 52938.3 9070.75 52957 9078.75 C 52973 9084.08 52978.3 9092.08 52978.3 9113.41 L 52978.3 9185.39 L 53266.3 9185.39 L 53266.3 8097.66 C 53266.3 8070.98 53260.9 8063 53234.3 8063 C 53071.6 8068.33 53015.7 8070.98 52837 8086.98 L 52837 8047 C 53050.3 7996.34 53050.3 7996.34 53079.6 7980.34 C 53135.6 7951.02 53157 7921.7 53165 7857.72 C 53391.6 7903.03 53436.9 7935.03 53436.9 8047 C 53428.9 8241.61 53428.9 8326.92 53426.2 8414.91 C 53426.2 8508.22 53426.2 8569.53 53423.5 8588.2 L 53410.2 9014.77 C 53466.2 8774.81 53522.2 8636.19 53634.2 8449.56 C 53751.5 8257.61 53855.4 8142.97 54050.1 7988.34 C 54087.4 8076.33 54130 8110.98 54220.7 8126.98 L 54231.4 8166.97 C 54098 8220.28 54002.1 8276.28 53868.8 8385.58 C 53767.5 8465.56 53700.8 8534.88 53634.2 8633.52 C 53804.8 8716.17 53860.8 8753.48 53999.4 8862.8 C 54018.1 8860.13 54036.7 8860.13 54042.1 8860.13 C 54103.4 8860.13 54124.7 8868.13 54124.7 8886.8 C 54124.7 8913.45 54103.4 8924.11 53892.8 9033.42 C 53804.8 8886.8 53719.5 8782.81 53604.8 8678.84 C 53495.5 8857.47 53458.2 8961.44 53426.2 9185.39 L 53714.1 9185.39 L 53714.1 9100.08 C 53714.1 9076.08 53724.8 9068.08 53748.8 9068.08 C 53847.5 9068.08 53892.8 9084.08 53892.8 9116.06 C 53892.8 9118.73 53892.8 9121.41 53892.8 9124.06 C 53882.1 9332.02 53879.4 9417.33 53879.4 9571.95 L 53882.1 9899.88 C 53943.4 9931.86 53967.4 9950.53 53967.4 9969.19 C 53967.4 9982.52 53956.8 9995.84 53932.8 10017.2 C 53876.8 10059.8 53858.1 10073.2 53794.1 10118.5 C 53746.1 10070.5 53732.8 10054.5 53687.5 10003.8 L 53239.6 10003.8 Z M 52978.3 9641.27 L 52978.3 9942.53 L 53714.1 9942.53 L 53714.1 9641.27 L 52978.3 9641.27 Z M 53714.1 9579.95 L 53714.1 9246.7 L 52978.3 9246.7 L 52978.3 9579.95 L 53714.1 9579.95 Z M 51725.3 7945.69 C 51855.9 8164.3 51935.9 8369.58 52005.2 8676.17 C 52077.2 8686.84 52095.9 8697.5 52095.9 8718.83 C 52095.9 8745.5 52063.9 8756.16 51861.3 8806.81 C 51858.6 8708.17 51850.6 8638.86 51818.6 8465.56 C 51784 8276.28 51757.3 8169.64 51685.3 7961.69 L 51725.3 7945.69 Z M 52375.8 8820.14 C 52447.8 8646.84 52477.1 8548.2 52506.4 8366.92 C 52519.8 8284.27 52525.1 8273.61 52543.8 8273.61 C 52583.8 8273.61 52647.8 8380.25 52647.8 8446.91 C 52647.8 8524.22 52562.4 8660.19 52405.1 8830.8 L 52375.8 8820.14 Z M 52770.4 8830.8 C 52717.1 8830.8 52685.1 8833.47 52613.1 8849.47 L 52629.1 8753.48 C 52671.7 8764.16 52727.7 8769.48 52786.4 8769.48 L 52981 8769.48 C 52925 8601.53 52879.7 8510.89 52775.7 8361.59 C 52671.7 8206.95 52591.8 8121.64 52447.8 8001.67 L 52474.5 7961.69 C 52634.4 8063 52722.4 8134.97 52831.7 8254.95 C 52967.7 8396.25 53047.6 8521.55 53143.6 8724.17 C 53191.6 8737.5 53215.6 8750.83 53215.6 8764.16 C 53215.6 8774.81 53210.3 8782.81 53183.6 8812.14 C 53130.3 8862.8 53111.6 8876.13 53055.6 8921.45 C 53018.3 8884.13 53005 8873.45 52970.3 8830.8 L 52770.4 8830.8 " fill="#610b0b"/>
<path transform="matrix(.00359712,0,0,-.00359712,0,145)" stroke-width="110.783" stroke-linecap="butt" stroke-dasharray="110.783,553.929" stroke-miterlimit="10" stroke-linejoin="miter" fill="none" stroke="#000000" d="M 23217.1 20083.8 L 3909.79 20083.8 "/>
<path transform="matrix(.00359712,0,0,-.00359712,0,145)" d="M 650.25 20553 L 714 20553 C 714 20553 719.547 20553 722.328 20555.8 C 758.359 20572.4 830.438 20519.7 830.438 20478.1 C 830.438 20453.2 730.641 20059.5 633.609 19693.6 C 558.766 19416.4 492.234 19153 472.828 19072.6 C 442.328 18945.1 406.281 18911.8 287.078 18909 L 287.078 18864.7 L 855.391 18864.7 L 855.391 18906.3 C 725.094 18906.3 677.969 18931.2 677.969 18989.4 C 677.969 19028.3 725.094 19244.5 780.547 19449.6 C 849.844 19413.6 899.75 19402.5 963.5 19402.5 C 1368.25 19402.5 1795.17 19868.2 1795.17 20309 C 1795.17 20525.3 1673.19 20655.5 1476.38 20655.5 C 1296.17 20655.5 1163.11 20566.8 1002.31 20342.3 L 1082.72 20619.5 L 1091.03 20644.5 C 1091.03 20644.5 1088.25 20647.2 1085.48 20652.8 L 1079.94 20655.5 C 1079.94 20658.3 1077.17 20658.3 1077.17 20658.3 L 1071.63 20655.5 L 644.703 20594.6 L 650.25 20553 Z M 1373.8 20536.3 C 1493 20530.8 1545.67 20458.7 1545.67 20297.9 C 1545.67 20115 1465.28 19876.6 1346.08 19704.7 C 1229.64 19541.1 1096.58 19455.2 952.422 19455.2 C 874.797 19455.2 819.344 19496.8 819.344 19557.8 C 819.344 19652 919.156 20015.2 999.547 20220.3 C 1074.39 20408.8 1235.19 20544.7 1373.8 20536.3 "/>
<path transform="matrix(.00359712,0,0,-.00359712,0,145)" d="M 2672.81 21086.4 C 2672.81 21119.4 2645.69 21154.3 2610.78 21154.3 C 2566.2 21154.3 2407.25 20995.3 2351.05 20962.4 C 2351.05 21070.9 2405.31 21179.5 2405.31 21245.4 C 2405.31 21286.1 2378.17 21311.3 2337.47 21311.3 C 2298.7 21311.3 2275.44 21284.2 2275.44 21245.4 C 2275.44 21169.8 2321.97 21067 2321.97 20962.4 C 2259.94 20999.2 2108.73 21162 2068.03 21162 C 2033.14 21162 2002.13 21129.1 2002.13 21094.2 C 2002.13 21026.3 2230.86 20979.8 2306.45 20937.2 C 2225.05 20890.7 2073.84 20867.4 2035.08 20842.2 C 2015.69 20828.6 2000.19 20811.2 2000.19 20786 C 2000.19 20751.1 2027.33 20720.1 2062.22 20720.1 C 2106.8 20720.1 2263.81 20877.1 2321.97 20910 C 2321.97 20803.4 2267.69 20694.9 2267.69 20627 C 2267.69 20588.3 2296.77 20561.1 2335.53 20561.1 C 2374.3 20561.1 2397.56 20590.2 2397.56 20627 C 2397.56 20706.5 2352.98 20807.3 2352.98 20910 C 2413.06 20875.1 2566.2 20712.3 2604.97 20712.3 C 2639.86 20712.3 2670.88 20745.3 2670.88 20780.2 C 2670.88 20805.4 2653.44 20822.8 2634.05 20834.4 C 2583.66 20867.4 2449.91 20888.7 2366.55 20937.2 C 2457.66 20991.5 2581.72 20999.2 2637.92 21032.2 C 2659.25 21043.8 2672.81 21061.2 2672.81 21086.4 "/>
<path transform="matrix(.00359712,0,0,-.00359712,0,145)" stroke-width="110.783" stroke-linecap="butt" stroke-dasharray="110.783,553.929" stroke-miterlimit="10" stroke-linejoin="miter" fill="none" stroke="#000000" d="M 23217.1 20083.8 L 23217.1 3534.77 "/>
<path transform="matrix(.00359712,0,0,-.00359712,0,145)" d="M 23082.9 154.5 L 23035.8 154.5 C 22933.2 154.5 22875 182.234 22877.8 234.906 C 22877.8 243.219 22880.6 254.313 22883.3 265.391 L 23338 1864.97 L 23135.6 1864.97 L 23094 1734.67 C 23049.7 1862.19 22994.2 1906.55 22880.6 1906.55 C 22514.6 1906.55 22068.3 1396.47 22068.3 975.078 C 22068.3 778.25 22176.4 653.5 22351.1 653.5 C 22547.9 653.5 22675.4 756.078 22922.2 1108.16 L 22675.4 295.891 C 22639.4 185 22595 162.828 22414.8 148.953 L 22414.8 104.609 L 23082.9 104.609 L 23082.9 154.5 Z M 22888.9 1845.56 C 22980.4 1845.56 23052.4 1770.72 23052.4 1676.45 C 23052.4 1446.36 22863.9 1052.7 22675.4 894.688 C 22603.3 833.703 22528.5 800.438 22462 800.438 C 22367.7 800.438 22306.7 883.594 22306.7 1013.89 C 22306.7 1219.05 22450.9 1526.75 22631.1 1709.72 C 22717 1795.66 22808.5 1845.56 22888.9 1845.56 "/>
<path transform="matrix(.00359712,0,0,-.00359712,0,145)" d="M 24176.8 2337.44 C 24176.8 2370.39 24149.7 2405.28 24114.8 2405.28 C 24070.2 2405.28 23911.3 2246.33 23855 2213.38 C 23855 2321.92 23909.3 2430.48 23909.3 2496.39 C 23909.3 2537.09 23882.2 2562.3 23841.5 2562.3 C 23802.7 2562.3 23779.4 2535.16 23779.4 2496.39 C 23779.4 2420.78 23826 2318.05 23826 2213.38 C 23763.9 2250.2 23612.7 2413.03 23572 2413.03 C 23537.1 2413.03 23506.1 2380.08 23506.1 2345.19 C 23506.1 2277.34 23734.9 2230.83 23810.5 2188.17 C 23729 2141.66 23577.8 2118.39 23539.1 2093.19 C 23519.7 2079.63 23504.2 2062.17 23504.2 2036.98 C 23504.2 2002.09 23531.3 1971.08 23566.2 1971.08 C 23610.8 1971.08 23767.8 2128.08 23826 2161.05 C 23826 2054.42 23771.7 1945.88 23771.7 1878.03 C 23771.7 1839.27 23800.8 1812.13 23839.5 1812.13 C 23878.3 1812.13 23901.6 1841.2 23901.6 1878.03 C 23901.6 1957.5 23857 2058.3 23857 2161.05 C 23917.1 2126.14 24070.2 1963.31 24109 1963.31 C 24143.9 1963.31 24174.9 1996.27 24174.9 2031.17 C 24174.9 2056.36 24157.4 2073.81 24138 2085.44 C 24087.7 2118.39 23953.9 2139.72 23870.5 2188.17 C 23961.7 2242.45 24085.7 2250.2 24141.9 2283.16 C 24163.3 2294.8 24176.8 2312.23 24176.8 2337.44 "/>
<path transform="matrix(.00359712,0,0,-.00359712,0,145)" d="M 3909.79 31116.2 L 17700.5 23393.4 L 3909.79 23393.4 " fill="#610b0b" fill-opacity=".6"/>
<path transform="matrix(.00359712,0,0,-.00359712,0,145)" d="M 3909.79 9051.38 L 17700.5 16774.2 L 17700.5 23393.4 L 3909.79 23393.4 Z " fill="#2e67b5" fill-opacity=".6"/>
<path transform="matrix(.00359712,0,0,-.00359712,0,145)" d="M 2889.19 8177.67 C 2764.44 8185.98 2736.72 8213.72 2639.69 8418.86 L 1949.41 9993.48 L 1893.97 9993.48 L 1317.34 8632.31 C 1139.92 8227.58 1106.66 8183.22 973.578 8177.67 L 973.578 8125 L 1522.48 8125 L 1522.48 8177.67 C 1389.42 8177.67 1333.97 8213.72 1333.97 8291.33 C 1333.97 8324.59 1342.3 8363.41 1356.16 8399.45 L 1483.67 8723.8 L 2210 8723.8 L 2323.66 8457.67 C 2356.92 8382.81 2376.33 8310.73 2376.33 8271.92 C 2376.33 8202.63 2329.2 8180.44 2182.27 8177.67 L 2182.27 8125 L 2889.19 8125 L 2889.19 8177.67 Z M 1530.8 8837.47 L 1849.61 9599.83 L 2171.19 8837.47 L 1530.8 8837.47 Z "/>
<path transform="matrix(.00359712,0,0,-.00359712,0,145)" d="M 4461.1 9051.38 C 4461.1 9355.87 4214.27 9602.7 3909.79 9602.7 C 3605.31 9602.7 3358.48 9355.87 3358.48 9051.38 C 3358.48 8746.91 3605.31 8500.07 3909.79 8500.07 C 4214.27 8500.07 4461.1 8746.91 4461.1 9051.38 Z M 3909.79 9051.38 "/>
<path transform="matrix(.00359712,0,0,-.00359712,0,145)" d="M 16824.1 15778.2 L 16824.1 15725.5 C 17057 15711.7 17090.3 15681.2 17090.3 15476 L 17090.3 14245.2 C 17090.3 14040 17054.2 14004 16824.1 13995.7 L 16824.1 13943 L 17750 13943 C 17966.3 13943 18163.1 14001.2 18265.7 14095.5 C 18365.5 14184.2 18420.9 14308.9 18420.9 14442 C 18420.9 14564 18371 14674.9 18285.1 14755.3 C 18201.9 14830.1 18127.1 14863.4 17946.9 14907.7 C 18091 14943.8 18149.3 14971.5 18215.8 15029.7 C 18285.1 15090.7 18326.7 15193.3 18326.7 15306.9 C 18326.7 15617.4 18079.9 15778.2 17600.3 15778.2 L 16824.1 15778.2 Z M 17373 14846.8 C 17641.9 14846.8 17769.5 14832.9 17869.3 14791.3 C 18027.3 14724.8 18102.1 14613.9 18102.1 14439.2 C 18102.1 14289.5 18043.9 14181.4 17933 14117.7 C 17844.3 14067.8 17730.6 14045.6 17547.7 14045.6 C 17411.8 14045.6 17373 14070.5 17373 14159.2 L 17373 14846.8 Z M 17373 14957.6 L 17373 15592.5 C 17373 15650.7 17392.4 15675.6 17434 15675.6 L 17556 15675.6 C 17874.8 15675.6 18043.9 15542.6 18043.9 15295.8 C 18043.9 15079.6 17897 14957.6 17636.4 14957.6 L 17373 14957.6 "/>
<path transform="matrix(.00359712,0,0,-.00359712,0,145)" d="M 18251.8 16774.2 C 18251.8 17078.6 18005 17325.5 17700.5 17325.5 C 17396 17325.5 17149.2 17078.6 17149.2 16774.2 C 17149.2 16469.7 17396 16222.9 17700.5 16222.9 C 18005 16222.9 18251.8 16469.7 18251.8 16774.2 Z M 17700.5 16774.2 "/>
<path transform="matrix(.00359712,0,0,-.00359712,0,145)" d="M 18495.8 25656.5 L 18470.8 26283 L 18412.6 26283 C 18396 26224.8 18351.6 26191.5 18296.2 26191.5 C 18271.2 26191.5 18229.6 26199.9 18188.1 26216.5 C 18052.2 26260.8 17913.6 26283 17783.3 26283 C 17556 26283 17325.9 26197.1 17154 26044.6 C 16960 25872.7 16854.6 25614.9 16854.6 25310 C 16854.6 25052.2 16937.8 24813.8 17079.2 24655.7 C 17245.5 24475.5 17500.5 24370.2 17775 24370.2 C 18088.3 24370.2 18362.7 24497.7 18531.8 24722.3 L 18481.9 24772.2 C 18276.8 24575.3 18093.8 24492.2 17863.7 24492.2 C 17689.1 24492.2 17533.8 24547.6 17414.6 24653 C 17262.1 24788.8 17176.2 25038.3 17176.2 25346 C 17176.2 25847.8 17434 26172.1 17836 26172.1 C 17994 26172.1 18138.2 26113.9 18249 26003 C 18337.8 25914.3 18379.3 25836.7 18432 25656.5 L 18495.8 25656.5 "/>
<path transform="matrix(.00359712,0,0,-.00359712,0,145)" d="M 18251.8 23393.4 C 18251.8 23697.9 18005 23944.7 17700.5 23944.7 C 17396 23944.7 17149.2 23697.9 17149.2 23393.4 C 17149.2 23088.9 17396 22842.1 17700.5 22842.1 C 18005 22842.1 18251.8 23088.9 18251.8 23393.4 Z M 17700.5 23393.4 "/>
<path transform="matrix(.00359712,0,0,-.00359712,0,145)" stroke-width="110.783" stroke-linecap="butt" stroke-dasharray="110.783,553.929" stroke-miterlimit="10" stroke-linejoin="miter" fill="none" stroke="#000000" d="M 17700.5 23393.4 L 17700.5 3534.77 "/>
<path transform="matrix(.00359712,0,0,-.00359712,0,145)" d="M 17685.9 108.5 L 17638.8 108.5 C 17536.2 108.5 17478 136.234 17480.8 188.906 C 17480.8 197.219 17483.6 208.313 17486.3 219.391 L 17941 1818.97 L 17738.6 1818.97 L 17697 1688.67 C 17652.7 1816.19 17597.2 1860.55 17483.6 1860.55 C 17117.6 1860.55 16671.3 1350.47 16671.3 929.078 C 16671.3 732.25 16779.4 607.5 16954.1 607.5 C 17150.9 607.5 17278.4 710.078 17525.2 1062.16 L 17278.4 249.891 C 17242.4 139 17198 116.828 17017.8 102.953 L 17017.8 58.6094 L 17685.9 58.6094 L 17685.9 108.5 Z M 17491.9 1799.56 C 17583.4 1799.56 17655.4 1724.72 17655.4 1630.45 C 17655.4 1400.36 17466.9 1006.7 17278.4 848.688 C 17206.3 787.703 17131.5 754.438 17065 754.438 C 16970.7 754.438 16909.7 837.594 16909.7 967.891 C 16909.7 1173.05 17053.9 1480.75 17234.1 1663.72 C 17320 1749.66 17411.5 1799.56 17491.9 1799.56 "/>
<path transform="matrix(.00359712,0,0,-.00359712,0,145)" d="M 18562.7 2439.7 C 18562.7 2507.55 18492.9 2554.06 18430.9 2554.06 C 18359.2 2554.06 18324.3 2484.28 18304.9 2426.13 L 18103.3 1838.78 C 18097.5 1823.28 18083.9 1788.38 18083.9 1770.94 C 18083.9 1753.48 18095.5 1730.23 18114.9 1730.23 C 18144 1730.23 18177 1770.94 18190.5 1792.27 L 18508.4 2294.31 C 18535.6 2335.02 18562.7 2389.3 18562.7 2439.7 "/>
<path transform="matrix(.00359712,0,0,-.00359712,0,145)" stroke-width="110.783" stroke-linecap="butt" stroke-dasharray="110.783,553.929" stroke-miterlimit="10" stroke-linejoin="miter" fill="none" stroke="#000000" d="M 17700.5 23393.4 L 3909.79 23393.4 "/>
<path transform="matrix(.00359712,0,0,-.00359712,0,145)" d="M 890.25 23840 L 954 23840 C 954 23840 959.547 23840 962.328 23842.8 C 998.359 23859.4 1070.44 23806.7 1070.44 23765.1 C 1070.44 23740.2 970.641 23346.5 873.609 22980.6 C 798.766 22703.4 732.234 22440 712.828 22359.6 C 682.328 22232.1 646.281 22198.8 527.078 22196 L 527.078 22151.7 L 1095.39 22151.7 L 1095.39 22193.3 C 965.094 22193.3 917.969 22218.2 917.969 22276.4 C 917.969 22315.3 965.094 22531.5 1020.55 22736.6 C 1089.84 22700.6 1139.75 22689.5 1203.5 22689.5 C 1608.25 22689.5 2035.17 23155.2 2035.17 23596 C 2035.17 23812.3 1913.19 23942.5 1716.38 23942.5 C 1536.17 23942.5 1403.11 23853.8 1242.31 23629.3 L 1322.72 23906.5 L 1331.03 23931.5 C 1331.03 23931.5 1328.25 23934.2 1325.48 23939.8 L 1319.94 23942.5 C 1319.94 23945.3 1317.17 23945.3 1317.17 23945.3 L 1311.63 23942.5 L 884.703 23881.6 L 890.25 23840 Z M 1613.8 23823.3 C 1733 23817.8 1785.67 23745.7 1785.67 23584.9 C 1785.67 23402 1705.28 23163.6 1586.08 22991.7 C 1469.64 22828.1 1336.58 22742.2 1192.42 22742.2 C 1114.8 22742.2 1059.34 22783.8 1059.34 22844.8 C 1059.34 22939 1159.16 23302.2 1239.55 23507.3 C 1314.39 23695.8 1475.19 23831.7 1613.8 23823.3 "/>
<path transform="matrix(.00359712,0,0,-.00359712,0,145)" d="M 2695.72 24521.7 C 2695.72 24589.5 2625.94 24636.1 2563.91 24636.1 C 2492.17 24636.1 2457.28 24566.3 2437.91 24508.1 L 2236.31 23920.8 C 2230.48 23905.3 2216.92 23870.4 2216.92 23852.9 C 2216.92 23835.5 2228.55 23812.2 2247.94 23812.2 C 2277.02 23812.2 2309.97 23852.9 2323.53 23874.3 L 2641.44 24376.3 C 2668.58 24417 2695.72 24471.3 2695.72 24521.7 "/>
<path transform="matrix(.00359712,0,0,-.00359712,0,145)" d="M 23768.4 20083.8 C 23768.4 20388.3 23521.6 20635.1 23217.1 20635.1 C 22912.7 20635.1 22665.8 20388.3 22665.8 20083.8 C 22665.8 19779.3 22912.7 19532.5 23217.1 19532.5 C 23521.6 19532.5 23768.4 19779.3 23768.4 20083.8 Z M 23217.1 20083.8 "/>
<path transform="matrix(.00359712,0,0,-.00359712,0,145)" d="M 24026 21530.5 L 23948.4 21530.5 C 23809.8 21231.1 23690.6 21164.6 23294.2 21164.6 L 23219.3 21164.6 C 23083.5 21164.6 22967 21178.4 22947.6 21197.8 C 22933.8 21206.2 22928.2 21236.7 22928.2 21283.8 L 22928.2 21968.5 L 23355.1 21968.5 C 23582.5 21968.5 23624 21932.5 23660.1 21702.4 L 23723.8 21702.4 L 23723.8 22345.5 L 23660.1 22345.5 C 23640.7 22231.9 23629.6 22190.3 23599.1 22151.5 C 23563.1 22104.4 23485.4 22082.2 23355.1 22082.2 L 22928.2 22082.2 L 22928.2 22697.6 C 22928.2 22775.2 22944.8 22791.9 23019.7 22791.9 L 23394 22791.9 C 23707.2 22791.9 23768.2 22750.3 23815.3 22500.8 L 23884.6 22500.8 L 23876.3 22897.2 L 22404.3 22897.2 L 22404.3 22844.5 C 22609.4 22827.9 22645.5 22789.1 22645.5 22595 L 22645.5 21364.2 C 22645.5 21170.1 22606.6 21128.5 22404.3 21114.7 L 22404.3 21062 L 23901.3 21062 L 24026 21530.5 "/>
<path transform="matrix(.00359712,0,0,-.00359712,0,145)" d="M 4461.1 23393.4 C 4461.1 23697.9 4214.27 23944.7 3909.79 23944.7 C 3605.31 23944.7 3358.48 23697.9 3358.48 23393.4 C 3358.48 23088.9 3605.31 22842.1 3909.79 22842.1 C 4214.27 22842.1 4461.1 23088.9 4461.1 23393.4 Z M 3909.79 23393.4 "/>
<path transform="matrix(.00359712,0,0,-.00359712,0,145)" d="M 5176.31 24674.2 C 5176.31 24474.6 5143.05 24438.5 4932.36 24424.7 L 4932.36 24372 L 5719.67 24372 C 6041.25 24372 6332.33 24463.5 6504.2 24618.7 C 6684.41 24782.3 6786.97 25029 6786.97 25297.9 C 6786.97 25547.4 6703.81 25763.7 6551.33 25916.1 C 6362.83 26107.4 6060.66 26207.2 5680.86 26207.2 L 4932.36 26207.2 L 4932.36 26154.5 C 5151.36 26135.1 5176.31 26110.2 5176.31 25905 L 5176.31 24674.2 Z M 5459.08 25996.5 C 5459.08 26082.5 5489.58 26104.6 5603.23 26104.6 C 5841.64 26104.6 6021.84 26060.3 6154.91 25966 C 6371.14 25816.3 6484.8 25577.9 6484.8 25278.5 C 6484.8 24951.4 6371.14 24718.5 6146.59 24588.2 C 6005.2 24507.8 5844.42 24474.6 5603.23 24474.6 C 5492.34 24474.6 5459.08 24499.5 5459.08 24588.2 L 5459.08 25996.5 "/>
<path transform="matrix(.00359712,0,0,-.00359712,0,145)" d="M 4461.1 20083.8 C 4461.1 20388.3 4214.27 20635.1 3909.79 20635.1 C 3605.31 20635.1 3358.48 20388.3 3358.48 20083.8 C 3358.48 19779.3 3605.31 19532.5 3909.79 19532.5 C 4214.27 19532.5 4461.1 19779.3 4461.1 20083.8 Z M 3909.79 20083.8 "/>
<path transform="matrix(.00359712,0,0,-.00359712,0,145)" d="M 6215.89 17892.4 L 6215.89 18535.5 L 6152.14 18535.5 C 6118.88 18313.8 6068.97 18272.2 5847.19 18272.2 L 5445.22 18272.2 L 5445.22 18887.6 C 5445.22 18965.2 5459.08 18981.9 5533.92 18981.9 L 5910.95 18981.9 C 6224.22 18981.9 6285.2 18940.3 6332.33 18690.8 L 6401.64 18690.8 L 6393.31 19087.2 L 4921.27 19087.2 L 4921.27 19034.5 C 5126.41 19017.9 5162.45 18979.1 5162.45 18785 L 5162.45 17584.7 C 5162.45 17354.6 5131.95 17318.5 4921.27 17304.7 L 4921.27 17252 L 5697.48 17252 L 5697.48 17304.7 C 5484.03 17315.8 5445.22 17354.6 5445.22 17554.2 L 5445.22 18158.5 L 5847.19 18158.5 C 6071.73 18158.5 6118.88 18116.9 6152.14 17892.4 L 6215.89 17892.4 "/>
</g>
</svg>
