<?xml version="1.0" encoding="UTF-8" standalone="no"?>
<!DOCTYPE svg PUBLIC "-//W3C//DTD SVG 1.1//EN" "http://www.w3.org/Graphics/SVG/1.1/DTD/svg11.dtd">
<svg xmlns="http://www.w3.org/2000/svg" xmlns:xlink="http://www.w3.org/1999/xlink" version="1.1" width="163pt" height="141pt" viewBox="0 0 163 141">
<g enable-background="new">
<path transform="matrix(.00359712,0,0,-.00359712,0,141)" stroke-width="221.569" stroke-linecap="butt" stroke-miterlimit="10" stroke-linejoin="miter" fill="none" stroke="#000000" d="M 6781.25 3681 L 6781.25 38946.2 "/>
<path transform="matrix(.00359712,0,0,-.00359712,0,141)" stroke-width="177.253" stroke-linecap="round" stroke-linejoin="round" fill="none" stroke="#000000" d="M 6205.18 38514.2 C 6421.21 38550.2 6745.25 38946.2 6781.25 39054.2 C 6817.25 38946.2 7141.3 38550.2 7357.32 38514.2 "/>
<path transform="matrix(.00359712,0,0,-.00359712,0,141)" stroke-width="221.569" stroke-linecap="butt" stroke-miterlimit="10" stroke-linejoin="miter" fill="none" stroke="#000000" d="M 6781.25 3681 L 42046.5 3681 "/>
<path transform="matrix(.00359712,0,0,-.00359712,0,141)" stroke-width="177.253" stroke-linecap="round" stroke-linejoin="round" fill="none" stroke="#000000" d="M 41614.4 4257.07 C 41650.4 4041.04 42046.5 3717 42154.5 3681 C 42046.5 3645 41650.4 3320.95 41614.4 3104.93 "/>
<path transform="matrix(.00359712,0,0,-.00359712,0,141)" d="M 44360.9 2828.5 L 44313.8 2828.5 C 44211.2 2828.5 44153 2856.23 44155.8 2908.91 C 44155.8 2917.22 44158.6 2928.31 44161.3 2939.39 L 44616 4538.97 L 44413.6 4538.97 L 44372 4408.67 C 44327.7 4536.19 44272.2 4580.55 44158.6 4580.55 C 43792.6 4580.55 43346.3 4070.47 43346.3 3649.08 C 43346.3 3452.25 43454.4 3327.5 43629.1 3327.5 C 43825.9 3327.5 43953.4 3430.08 44200.2 3782.16 L 43953.4 2969.89 C 43917.4 2859 43873 2836.83 43692.8 2822.95 L 43692.8 2778.61 L 44360.9 2778.61 L 44360.9 2828.5 Z M 44166.9 4519.56 C 44258.4 4519.56 44330.4 4444.72 44330.4 4350.45 C 44330.4 4120.36 44141.9 3726.7 43953.4 3568.69 C 43881.3 3507.7 43806.5 3474.44 43740 3474.44 C 43645.7 3474.44 43584.7 3557.59 43584.7 3687.89 C 43584.7 3893.05 43728.9 4200.75 43909.1 4383.72 C 43995 4469.66 44086.5 4519.56 44166.9 4519.56 "/>
<path transform="matrix(.00359712,0,0,-.00359712,0,141)" stroke-width="332.357" stroke-linecap="butt" stroke-miterlimit="10" stroke-linejoin="miter" fill="none" stroke="#2e67b5" d="M 10327.6 32050.6 L 28058.6 7227.39 "/>
<path transform="matrix(.00359712,0,0,-.00359712,0,141)" d="M 29206.2 7674.2 C 29236.7 7676.98 29258.9 7676.98 29289.4 7676.98 C 29397.5 7676.98 29425.2 7629.84 29464 7374.81 C 29491.8 7183.52 29525 6764.92 29525 6604.13 C 29525 6526.5 29530.6 6507.09 29550 6507.09 C 29619.3 6507.09 29877.1 6800.95 30159.9 7194.61 C 30256.9 7333.22 30329 7513.42 30329 7615.98 C 30329 7704.7 30256.9 7779.55 30173.7 7779.55 C 30112.7 7779.55 30071.2 7743.52 30071.2 7685.3 C 30071.2 7640.94 30087.8 7607.67 30137.7 7563.31 C 30173.7 7530.05 30187.6 7507.88 30187.6 7480.16 C 30187.6 7352.63 30004.6 7044.91 29807.8 6839.77 L 29721.8 6751.06 C 29702.4 7141.94 29685.8 7286.09 29649.8 7491.23 C 29594.3 7774 29594.3 7779.55 29569.4 7779.55 C 29555.5 7779.55 29536.1 7776.78 29513.9 7768.47 C 29464 7754.59 29311.6 7726.88 29206.2 7710.25 L 29206.2 7674.2 " fill="#2e67b5"/>
<path transform="matrix(.00359712,0,0,-.00359712,0,141)" d="M 30952.7 8359.7 C 30952.7 8427.55 30882.9 8474.06 30820.9 8474.06 C 30749.2 8474.06 30714.3 8404.28 30694.9 8346.13 L 30493.3 7758.78 C 30487.5 7743.28 30473.9 7708.38 30473.9 7690.94 C 30473.9 7673.48 30485.5 7650.23 30504.9 7650.23 C 30534 7650.23 30567 7690.94 30580.5 7712.27 L 30898.4 8214.31 C 30925.6 8255.02 30952.7 8309.3 30952.7 8359.7 " fill="#2e67b5"/>
<path transform="matrix(.00359712,0,0,-.00359712,0,141)" d="M 32006.8 8431.02 C 31801.7 8297.95 31718.5 8225.88 31615.9 8098.36 C 31419.1 7857.17 31322.1 7579.95 31322.1 7255.59 C 31322.1 6903.53 31424.6 6631.84 31668.6 6349.08 C 31782.3 6216.02 31854.3 6155.03 31998.5 6066.31 L 32031.8 6110.67 C 31810 6285.33 31732.4 6382.34 31657.5 6590.27 C 31591 6776 31560.5 6986.69 31560.5 7263.92 C 31560.5 7555 31596.5 7782.33 31671.4 7954.2 C 31749 8126.08 31832.2 8225.88 32031.8 8386.67 L 32006.8 8431.02 " fill="#2e67b5"/>
<path transform="matrix(.00359712,0,0,-.00359712,0,141)" d="M 33194.9 6027.5 L 33147.8 6027.5 C 33045.2 6027.5 32987 6055.23 32989.8 6107.91 C 32989.8 6116.22 32992.6 6127.31 32995.3 6138.39 L 33450 7737.97 L 33247.6 7737.97 L 33206 7607.67 C 33161.7 7735.19 33106.2 7779.55 32992.6 7779.55 C 32626.6 7779.55 32180.3 7269.47 32180.3 6848.08 C 32180.3 6651.25 32288.4 6526.5 32463.1 6526.5 C 32659.9 6526.5 32787.4 6629.08 33034.2 6981.16 L 32787.4 6168.89 C 32751.4 6058 32707 6035.83 32526.8 6021.95 L 32526.8 5977.61 L 33194.9 5977.61 L 33194.9 6027.5 Z M 33000.9 7718.56 C 33092.4 7718.56 33164.4 7643.72 33164.4 7549.45 C 33164.4 7319.36 32975.9 6925.7 32787.4 6767.69 C 32715.3 6706.7 32640.5 6673.44 32574 6673.44 C 32479.7 6673.44 32418.7 6756.59 32418.7 6886.89 C 32418.7 7092.05 32562.9 7399.75 32743.1 7582.72 C 32829 7668.66 32920.5 7718.56 33000.9 7718.56 " fill="#2e67b5"/>
<path transform="matrix(.00359712,0,0,-.00359712,0,141)" d="M 33601.3 6066.31 C 33806.5 6199.39 33889.7 6271.45 33992.2 6398.98 C 34189.1 6640.17 34286.1 6917.39 34286.1 7241.73 C 34286.1 7596.58 34183.5 7865.48 33939.6 8148.25 C 33825.9 8281.33 33753.8 8342.31 33609.7 8431.02 L 33576.4 8386.67 C 33798.2 8212.02 33873 8114.98 33950.6 7907.08 C 34017.2 7721.33 34047.7 7510.64 34047.7 7233.42 C 34047.7 6945.11 34011.6 6715.02 33936.8 6545.91 C 33859.2 6371.27 33776 6271.45 33576.4 6110.67 L 33601.3 6066.31 " fill="#2e67b5"/>
<path transform="matrix(.00359712,0,0,-.00359712,0,141)" stroke-width="332.357" stroke-linecap="butt" stroke-miterlimit="10" stroke-linejoin="miter" fill="none" stroke="#2e67b5" d="M 10327.6 7227.39 L 28058.6 24958.3 "/>
<path transform="matrix(.00359712,0,0,-.00359712,0,141)" d="M 30885.5 25578.1 L 30988.1 26129.8 L 30929.8 26129.8 C 30907.7 26085.4 30880 26068.8 30824.5 26068.8 C 30802.3 26068.8 30769.1 26074.3 30710.8 26088.2 C 30586.1 26118.7 30475.2 26135.3 30386.5 26135.3 C 29796 26135.3 29261 25578.1 29261 24962.7 C 29261 24538.5 29560.4 24239.1 29984.5 24239.1 C 30270.1 24239.1 30491.8 24361.1 30741.3 24652.2 L 30694.2 24691 C 30444.7 24447 30283.9 24363.8 30056.6 24363.8 C 29748.9 24363.8 29571.5 24574.5 29571.5 24932.2 C 29571.5 25262 29704.5 25597.5 29920.8 25822 C 30053.8 25957.9 30228.5 26035.5 30411.4 26035.5 C 30666.5 26035.5 30807.9 25885.8 30835.6 25586.4 L 30885.5 25578.1 " fill="#2e67b5"/>
<path transform="matrix(.00359712,0,0,-.00359712,0,141)" d="M 31631.7 26090.7 C 31631.7 26158.5 31561.9 26205.1 31499.9 26205.1 C 31428.2 26205.1 31393.3 26135.3 31373.9 26077.1 L 31172.3 25489.8 C 31166.5 25474.3 31152.9 25439.4 31152.9 25421.9 C 31152.9 25404.5 31164.5 25381.2 31183.9 25381.2 C 31213 25381.2 31246 25421.9 31259.5 25443.3 L 31577.4 25945.3 C 31604.6 25986 31631.7 26040.3 31631.7 26090.7 " fill="#2e67b5"/>
<path transform="matrix(.00359712,0,0,-.00359712,0,141)" d="M 32684.8 26163 C 32479.7 26030 32396.5 25957.9 32293.9 25830.4 C 32097.1 25589.2 32000.1 25312 32000.1 24987.6 C 32000.1 24635.5 32102.6 24363.8 32346.6 24081.1 C 32460.3 23948 32532.3 23887 32676.5 23798.3 L 32709.8 23842.7 C 32488 24017.3 32410.4 24114.3 32335.5 24322.3 C 32269 24508 32238.5 24718.7 32238.5 24995.9 C 32238.5 25287 32274.5 25514.3 32349.4 25686.2 C 32427 25858.1 32510.2 25957.9 32709.8 26118.7 L 32684.8 26163 " fill="#2e67b5"/>
<path transform="matrix(.00359712,0,0,-.00359712,0,141)" d="M 33872.9 23759.5 L 33825.8 23759.5 C 33723.2 23759.5 33665 23787.2 33667.8 23839.9 C 33667.8 23848.2 33670.6 23859.3 33673.3 23870.4 L 34128 25470 L 33925.6 25470 L 33884 25339.7 C 33839.7 25467.2 33784.2 25511.5 33670.6 25511.5 C 33304.6 25511.5 32858.3 25001.5 32858.3 24580.1 C 32858.3 24383.3 32966.4 24258.5 33141.1 24258.5 C 33337.9 24258.5 33465.4 24361.1 33712.2 24713.2 L 33465.4 23900.9 C 33429.4 23790 33385 23767.8 33204.8 23754 L 33204.8 23709.6 L 33872.9 23709.6 L 33872.9 23759.5 Z M 33678.9 25450.6 C 33770.4 25450.6 33842.4 25375.7 33842.4 25281.5 C 33842.4 25051.4 33653.9 24657.7 33465.4 24499.7 C 33393.3 24438.7 33318.5 24405.4 33252 24405.4 C 33157.7 24405.4 33096.7 24488.6 33096.7 24618.9 C 33096.7 24824 33240.9 25131.8 33421.1 25314.7 C 33507 25400.7 33598.5 25450.6 33678.9 25450.6 " fill="#2e67b5"/>
<path transform="matrix(.00359712,0,0,-.00359712,0,141)" d="M 34279.3 23798.3 C 34484.5 23931.4 34567.7 24003.5 34670.2 24131 C 34867.1 24372.2 34964.1 24649.4 34964.1 24973.7 C 34964.1 25328.6 34861.5 25597.5 34617.6 25880.3 C 34503.9 26013.3 34431.8 26074.3 34287.7 26163 L 34254.4 26118.7 C 34476.2 25944 34551 25847 34628.6 25639.1 C 34695.2 25453.3 34725.7 25242.6 34725.7 24965.4 C 34725.7 24677.1 34689.6 24447 34614.8 24277.9 C 34537.2 24103.3 34454 24003.5 34254.4 23842.7 L 34279.3 23798.3 " fill="#2e67b5"/>
<path transform="matrix(.00359712,0,0,-.00359712,0,141)" stroke-width="332.357" stroke-linecap="butt" stroke-miterlimit="10" stroke-linejoin="miter" fill="none" stroke="#610b0b" d="M 10327.6 14319.7 L 28058.6 32050.6 "/>
<path transform="matrix(.00359712,0,0,-.00359712,0,141)" d="M 30445.4 32629.4 L 30556.3 33181.1 L 30492.5 33181.1 C 30453.7 33122.9 30428.8 33109 30367.8 33109 C 30334.5 33109 30304 33117.3 30240.3 33139.5 C 30179.3 33164.4 30090.6 33178.3 30004.6 33178.3 C 29716.3 33178.3 29511.2 32987 29511.2 32715.3 C 29511.2 32565.6 29552.8 32485.3 29719.1 32307.8 C 29744 32282.9 29780.1 32244.1 29827.2 32191.4 C 29877.1 32138.7 29915.9 32097.1 29935.3 32075 C 30065.6 31939.1 30101.6 31867 30101.6 31747.8 C 30101.6 31539.9 29946.4 31379.1 29744 31379.1 C 29513.9 31379.1 29339.3 31576 29339.3 31839.3 C 29339.3 31861.5 29342.1 31883.7 29344.8 31903.1 L 29289.4 31908.6 L 29195.1 31290.4 L 29245 31290.4 C 29264.4 31354.2 29294.9 31381.9 29350.4 31381.9 C 29380.9 31381.9 29422.5 31370.8 29494.5 31345.9 C 29622 31298.7 29696.9 31282.1 29782.8 31282.1 C 30101.6 31282.1 30342.8 31523.3 30342.8 31836.5 C 30342.8 32016.7 30279.1 32124.9 30029.6 32377.1 C 29780.1 32629.4 29755.1 32668.2 29755.1 32804 C 29755.1 32978.7 29871.5 33086.8 30060.1 33086.8 C 30162.6 33086.8 30248.6 33050.8 30306.8 32984.3 C 30367.8 32914.9 30390 32820.7 30395.5 32637.7 L 30445.4 32629.4 " fill="#610b0b"/>
<path transform="matrix(.00359712,0,0,-.00359712,0,141)" d="M 32340.5 32621.1 L 32443.1 33172.8 L 32384.8 33172.8 C 32362.7 33128.4 32335 33111.8 32279.5 33111.8 C 32257.3 33111.8 32224.1 33117.3 32165.8 33131.2 C 32041.1 33161.7 31930.2 33178.3 31841.5 33178.3 C 31251 33178.3 30716 32621.1 30716 32005.7 C 30716 31581.5 31015.4 31282.1 31439.5 31282.1 C 31725.1 31282.1 31946.8 31404.1 32196.3 31695.2 L 32149.2 31734 C 31899.7 31490 31738.9 31406.8 31511.6 31406.8 C 31203.9 31406.8 31026.5 31617.5 31026.5 31975.2 C 31026.5 32305 31159.5 32640.5 31375.8 32865 C 31508.8 33000.9 31683.5 33078.5 31866.4 33078.5 C 32121.5 33078.5 32262.9 32928.8 32290.6 32629.4 L 32340.5 32621.1 " fill="#610b0b"/>
<path transform="matrix(.00359712,0,0,-.00359712,0,141)" d="M 32955.7 33231.7 C 32955.7 33299.5 32885.9 33346.1 32823.9 33346.1 C 32752.2 33346.1 32717.3 33276.3 32697.9 33218.1 L 32496.3 32630.8 C 32490.5 32615.3 32476.9 32580.4 32476.9 32562.9 C 32476.9 32545.5 32488.5 32522.2 32507.9 32522.2 C 32537 32522.2 32570 32562.9 32583.5 32584.3 L 32901.4 33086.3 C 32928.6 33127 32955.7 33181.3 32955.7 33231.7 " fill="#610b0b"/>
<path transform="matrix(.00359712,0,0,-.00359712,0,141)" d="M 34008.8 33206 C 33803.7 33073 33720.5 33000.9 33617.9 32873.4 C 33421.1 32632.2 33324.1 32355 33324.1 32030.6 C 33324.1 31678.5 33426.6 31406.8 33670.6 31124.1 C 33784.3 30991 33856.3 30930 34000.5 30841.3 L 34033.8 30885.7 C 33812 31060.3 33734.4 31157.3 33659.5 31365.3 C 33593 31551 33562.5 31761.7 33562.5 32038.9 C 33562.5 32330 33598.5 32557.3 33673.4 32729.2 C 33751 32901.1 33834.2 33000.9 34033.8 33161.7 L 34008.8 33206 " fill="#610b0b"/>
<path transform="matrix(.00359712,0,0,-.00359712,0,141)" d="M 35196.9 30802.5 L 35149.8 30802.5 C 35047.2 30802.5 34989 30830.2 34991.8 30882.9 C 34991.8 30891.2 34994.6 30902.3 34997.3 30913.4 L 35452 32513 L 35249.6 32513 L 35208 32382.7 C 35163.7 32510.2 35108.2 32554.5 34994.6 32554.5 C 34628.6 32554.5 34182.3 32044.5 34182.3 31623.1 C 34182.3 31426.3 34290.4 31301.5 34465.1 31301.5 C 34661.9 31301.5 34789.4 31404.1 35036.2 31756.2 L 34789.4 30943.9 C 34753.4 30833 34709 30810.8 34528.8 30797 L 34528.8 30752.6 L 35196.9 30752.6 L 35196.9 30802.5 Z M 35002.9 32493.6 C 35094.4 32493.6 35166.4 32418.7 35166.4 32324.5 C 35166.4 32094.4 34977.9 31700.7 34789.4 31542.7 C 34717.3 31481.7 34642.5 31448.4 34576 31448.4 C 34481.7 31448.4 34420.7 31531.6 34420.7 31661.9 C 34420.7 31867 34564.9 32174.8 34745.1 32357.7 C 34831 32443.7 34922.5 32493.6 35002.9 32493.6 " fill="#610b0b"/>
<path transform="matrix(.00359712,0,0,-.00359712,0,141)" d="M 35603.3 30841.3 C 35808.5 30974.4 35891.7 31046.5 35994.2 31174 C 36191.1 31415.2 36288.1 31692.4 36288.1 32016.7 C 36288.1 32371.6 36185.5 32640.5 35941.6 32923.3 C 35827.9 33056.3 35755.8 33117.3 35611.7 33206 L 35578.4 33161.7 C 35800.2 32987 35875 32890 35952.6 32682.1 C 36019.2 32496.3 36049.7 32285.6 36049.7 32008.4 C 36049.7 31720.1 36013.6 31490 35938.8 31320.9 C 35861.2 31146.3 35778 31046.5 35578.4 30885.7 L 35603.3 30841.3 " fill="#610b0b"/>
<path transform="matrix(.00359712,0,0,-.00359712,0,141)" d="M 38627.3 31966.8 L 38627.3 32122.1 L 37995.2 32122.1 L 37995.2 32748.6 L 37839.9 32748.6 L 37839.9 32122.1 L 37207.9 32122.1 L 37207.9 31966.8 L 37839.9 31966.8 L 37839.9 31332 L 37995.2 31332 L 37995.2 31966.8 L 38627.3 31966.8 " fill="#610b0b"/>
<path transform="matrix(.00359712,0,0,-.00359712,0,141)" d="M 41150.5 32621.1 L 41253.1 33172.8 L 41194.8 33172.8 C 41172.7 33128.4 41145 33111.8 41089.5 33111.8 C 41067.3 33111.8 41034.1 33117.3 40975.8 33131.2 C 40851.1 33161.7 40740.2 33178.3 40651.5 33178.3 C 40061 33178.3 39526 32621.1 39526 32005.7 C 39526 31581.5 39825.4 31282.1 40249.5 31282.1 C 40535.1 31282.1 40756.8 31404.1 41006.3 31695.2 L 40959.2 31734 C 40709.7 31490 40548.9 31406.8 40321.6 31406.8 C 40013.9 31406.8 39836.5 31617.5 39836.5 31975.2 C 39836.5 32305 39969.5 32640.5 40185.8 32865 C 40318.8 33000.9 40493.5 33078.5 40676.4 33078.5 C 40931.5 33078.5 41072.9 32928.8 41100.6 32629.4 L 41150.5 32621.1 " fill="#610b0b"/>
<path transform="matrix(.00359712,0,0,-.00359712,0,141)" d="M 41896.7 33133.7 C 41896.7 33201.5 41826.9 33248.1 41764.9 33248.1 C 41693.2 33248.1 41658.3 33178.3 41638.9 33120.1 L 41437.3 32532.8 C 41431.5 32517.3 41417.9 32482.4 41417.9 32464.9 C 41417.9 32447.5 41429.5 32424.2 41448.9 32424.2 C 41478 32424.2 41511 32464.9 41524.5 32486.3 L 41842.4 32988.3 C 41869.6 33029 41896.7 33083.3 41896.7 33133.7 " fill="#610b0b"/>
<path transform="matrix(.00359712,0,0,-.00359712,0,141)" d="M 42949.8 33206 C 42744.7 33073 42661.5 33000.9 42558.9 32873.4 C 42362.1 32632.2 42265.1 32355 42265.1 32030.6 C 42265.1 31678.5 42367.6 31406.8 42611.6 31124.1 C 42725.3 30991 42797.3 30930 42941.5 30841.3 L 42974.8 30885.7 C 42753 31060.3 42675.4 31157.3 42600.5 31365.3 C 42534 31551 42503.5 31761.7 42503.5 32038.9 C 42503.5 32330 42539.5 32557.3 42614.4 32729.2 C 42692 32901.1 42775.2 33000.9 42974.8 33161.7 L 42949.8 33206 " fill="#610b0b"/>
<path transform="matrix(.00359712,0,0,-.00359712,0,141)" d="M 44137.9 30802.5 L 44090.8 30802.5 C 43988.2 30802.5 43930 30830.2 43932.8 30882.9 C 43932.8 30891.2 43935.6 30902.3 43938.3 30913.4 L 44393 32513 L 44190.6 32513 L 44149 32382.7 C 44104.7 32510.2 44049.2 32554.5 43935.6 32554.5 C 43569.6 32554.5 43123.3 32044.5 43123.3 31623.1 C 43123.3 31426.3 43231.4 31301.5 43406.1 31301.5 C 43602.9 31301.5 43730.4 31404.1 43977.2 31756.2 L 43730.4 30943.9 C 43694.4 30833 43650 30810.8 43469.8 30797 L 43469.8 30752.6 L 44137.9 30752.6 L 44137.9 30802.5 Z M 43943.9 32493.6 C 44035.4 32493.6 44107.4 32418.7 44107.4 32324.5 C 44107.4 32094.4 43918.9 31700.7 43730.4 31542.7 C 43658.3 31481.7 43583.5 31448.4 43517 31448.4 C 43422.7 31448.4 43361.7 31531.6 43361.7 31661.9 C 43361.7 31867 43505.9 32174.8 43686.1 32357.7 C 43772 32443.7 43863.5 32493.6 43943.9 32493.6 " fill="#610b0b"/>
<path transform="matrix(.00359712,0,0,-.00359712,0,141)" d="M 44544.3 30841.3 C 44749.5 30974.4 44832.7 31046.5 44935.2 31174 C 45132.1 31415.2 45229.1 31692.4 45229.1 32016.7 C 45229.1 32371.6 45126.5 32640.5 44882.6 32923.3 C 44768.9 33056.3 44696.8 33117.3 44552.7 33206 L 44519.4 33161.7 C 44741.2 32987 44816 32890 44893.6 32682.1 C 44960.2 32496.3 44990.7 32285.6 44990.7 32008.4 C 44990.7 31720.1 44954.6 31490 44879.8 31320.9 C 44802.2 31146.3 44719 31046.5 44519.4 30885.7 L 44544.3 30841.3 " fill="#610b0b"/>
<path transform="matrix(.00359712,0,0,-.00359712,0,141)" stroke-width="332.357" stroke-linecap="butt" stroke-dasharray="332.357,553.929" stroke-miterlimit="10" stroke-linejoin="miter" fill="none" stroke="#000000" d="M 17774.3 14674.1 L 6781.25 14674.1 "/>
<path transform="matrix(.00359712,0,0,-.00359712,0,141)" d="M 4462.25 15467 L 4526 15467 C 4526 15467 4531.55 15467 4534.33 15469.8 C 4570.36 15486.4 4642.44 15433.7 4642.44 15392.1 C 4642.44 15367.2 4542.64 14973.5 4445.61 14607.6 C 4370.77 14330.4 4304.23 14067 4284.83 13986.6 C 4254.33 13859.1 4218.28 13825.8 4099.08 13823 L 4099.08 13778.7 L 4667.39 13778.7 L 4667.39 13820.3 C 4537.09 13820.3 4489.97 13845.2 4489.97 13903.4 C 4489.97 13942.3 4537.09 14158.5 4592.55 14363.6 C 4661.84 14327.6 4711.75 14316.5 4775.5 14316.5 C 5180.25 14316.5 5607.17 14782.2 5607.17 15223 C 5607.17 15439.3 5485.19 15569.5 5288.38 15569.5 C 5108.17 15569.5 4975.11 15480.8 4814.31 15256.3 L 4894.72 15533.5 L 4903.03 15558.5 C 4903.03 15558.5 4900.25 15561.2 4897.48 15566.8 L 4891.94 15569.5 C 4891.94 15572.3 4889.17 15572.3 4889.17 15572.3 L 4883.63 15569.5 L 4456.7 15508.6 L 4462.25 15467 Z M 5185.8 15450.3 C 5305 15444.8 5357.67 15372.7 5357.67 15211.9 C 5357.67 15029 5277.28 14790.6 5158.08 14618.7 C 5041.64 14455.1 4908.58 14369.2 4764.42 14369.2 C 4686.8 14369.2 4631.34 14410.8 4631.34 14471.8 C 4631.34 14566 4731.16 14929.2 4811.55 15134.3 C 4886.39 15322.8 5047.19 15458.7 5185.8 15450.3 "/>
<path transform="matrix(.00359712,0,0,-.00359712,0,141)" stroke-width="332.357" stroke-linecap="butt" stroke-dasharray="332.357,553.929" stroke-miterlimit="10" stroke-linejoin="miter" fill="none" stroke="#000000" d="M 17774.3 21766.4 L 6781.25 21766.4 "/>
<path transform="matrix(.00359712,0,0,-.00359712,0,141)" d="M 650.25 22408 L 714 22408 C 714 22408 719.547 22408 722.328 22410.8 C 758.359 22427.4 830.438 22374.7 830.438 22333.1 C 830.438 22308.2 730.641 21914.5 633.609 21548.6 C 558.766 21271.4 492.234 21008 472.828 20927.6 C 442.328 20800.1 406.281 20766.8 287.078 20764 L 287.078 20719.7 L 855.391 20719.7 L 855.391 20761.3 C 725.094 20761.3 677.969 20786.2 677.969 20844.4 C 677.969 20883.3 725.094 21099.5 780.547 21304.6 C 849.844 21268.6 899.75 21257.5 963.5 21257.5 C 1368.25 21257.5 1795.17 21723.2 1795.17 22164 C 1795.17 22380.3 1673.19 22510.5 1476.38 22510.5 C 1296.17 22510.5 1163.11 22421.8 1002.31 22197.3 L 1082.72 22474.5 L 1091.03 22499.5 C 1091.03 22499.5 1088.25 22502.2 1085.48 22507.8 L 1079.94 22510.5 C 1079.94 22513.3 1077.17 22513.3 1077.17 22513.3 L 1071.63 22510.5 L 644.703 22449.6 L 650.25 22408 Z M 1373.8 22391.3 C 1493 22385.8 1545.67 22313.7 1545.67 22152.9 C 1545.67 21970 1465.28 21731.6 1346.08 21559.7 C 1229.64 21396.1 1096.58 21310.2 952.422 21310.2 C 874.797 21310.2 819.344 21351.8 819.344 21412.8 C 819.344 21507 919.156 21870.2 999.547 22075.3 C 1074.39 22263.8 1235.19 22399.7 1373.8 22391.3 "/>
<path transform="matrix(.00359712,0,0,-.00359712,0,141)" d="M 4086.25 21922.8 L 4086.25 22078.1 L 3454.19 22078.1 L 3454.19 22704.6 L 3298.94 22704.6 L 3298.94 22078.1 L 2666.88 22078.1 L 2666.88 21922.8 L 3298.94 21922.8 L 3298.94 21288 L 3454.19 21288 L 3454.19 21922.8 L 4086.25 21922.8 "/>
<path transform="matrix(.00359712,0,0,-.00359712,0,141)" d="M 5692.58 22474.5 L 5470.8 22474.5 L 5548.42 22760 C 5551.19 22765.6 5551.19 22771.1 5551.19 22773.9 C 5551.19 22793.3 5542.88 22801.6 5529.02 22801.6 C 5512.39 22801.6 5504.06 22798.9 5487.44 22776.7 C 5379.31 22635.3 5207.44 22496.7 5118.73 22471.7 C 5049.42 22449.6 5030.02 22432.9 5030.02 22402.4 C 5030.02 22399.7 5030.02 22394.1 5032.78 22385.8 L 5237.94 22385.8 L 5038.33 21623.4 C 5032.78 21598.5 5030.02 21590.2 5021.7 21565.2 C 4996.75 21482.1 4974.58 21385 4974.58 21362.8 C 4974.58 21301.9 5032.78 21257.5 5107.64 21257.5 C 5235.16 21257.5 5326.64 21335.1 5501.3 21592.9 L 5465.25 21612.3 C 5329.42 21437.7 5285.06 21393.3 5240.7 21393.3 C 5215.75 21393.3 5199.13 21415.5 5199.13 21448.8 C 5199.13 21451.6 5199.13 21454.3 5201.89 21462.7 L 5445.84 22385.8 L 5678.72 22385.8 L 5692.58 22474.5 "/>
<path transform="matrix(.00359712,0,0,-.00359712,0,141)" stroke-width="332.357" stroke-linecap="butt" stroke-dasharray="332.357,553.929" stroke-miterlimit="10" stroke-linejoin="miter" fill="none" stroke="#000000" d="M 17774.3 21766.4 L 17774.3 3681 "/>
<path transform="matrix(.00359712,0,0,-.00359712,0,141)" d="M 17639.9 190.5 L 17592.8 190.5 C 17490.2 190.5 17432 218.234 17434.8 270.906 C 17434.8 279.219 17437.6 290.313 17440.3 301.391 L 17895 1900.97 L 17692.6 1900.97 L 17651 1770.67 C 17606.7 1898.19 17551.2 1942.55 17437.6 1942.55 C 17071.6 1942.55 16625.3 1432.47 16625.3 1011.08 C 16625.3 814.25 16733.4 689.5 16908.1 689.5 C 17104.9 689.5 17232.4 792.078 17479.2 1144.16 L 17232.4 331.891 C 17196.4 221 17152 198.828 16971.8 184.953 L 16971.8 140.609 L 17639.9 140.609 L 17639.9 190.5 Z M 17445.9 1881.56 C 17537.4 1881.56 17609.4 1806.72 17609.4 1712.45 C 17609.4 1482.36 17420.9 1088.7 17232.4 930.688 C 17160.3 869.703 17085.5 836.438 17019 836.438 C 16924.7 836.438 16863.7 919.594 16863.7 1049.89 C 16863.7 1255.05 17007.9 1562.75 17188.1 1745.72 C 17274 1831.66 17365.5 1881.56 17445.9 1881.56 "/>
<path transform="matrix(.00359712,0,0,-.00359712,0,141)" d="M 18733.8 2372.44 C 18733.8 2405.39 18706.7 2440.28 18671.8 2440.28 C 18627.2 2440.28 18468.3 2281.33 18412 2248.38 C 18412 2356.92 18466.3 2465.48 18466.3 2531.39 C 18466.3 2572.09 18439.2 2597.3 18398.5 2597.3 C 18359.7 2597.3 18336.4 2570.16 18336.4 2531.39 C 18336.4 2455.78 18383 2353.05 18383 2248.38 C 18320.9 2285.2 18169.7 2448.03 18129 2448.03 C 18094.1 2448.03 18063.1 2415.08 18063.1 2380.19 C 18063.1 2312.34 18291.9 2265.83 18367.5 2223.17 C 18286 2176.66 18134.8 2153.39 18096.1 2128.19 C 18076.7 2114.63 18061.2 2097.17 18061.2 2071.98 C 18061.2 2037.09 18088.3 2006.08 18123.2 2006.08 C 18167.8 2006.08 18324.8 2163.08 18383 2196.05 C 18383 2089.42 18328.7 1980.88 18328.7 1913.03 C 18328.7 1874.27 18357.8 1847.13 18396.5 1847.13 C 18435.3 1847.13 18458.6 1876.2 18458.6 1913.03 C 18458.6 1992.5 18414 2093.3 18414 2196.05 C 18474.1 2161.14 18627.2 1998.31 18666 1998.31 C 18700.9 1998.31 18731.9 2031.27 18731.9 2066.17 C 18731.9 2091.36 18714.4 2108.81 18695 2120.44 C 18644.7 2153.39 18510.9 2174.72 18427.5 2223.17 C 18518.7 2277.45 18642.7 2285.2 18698.9 2318.16 C 18720.3 2329.8 18733.8 2347.23 18733.8 2372.44 "/>
</g>
</svg>
