<?xml version="1.0" encoding="UTF-8" standalone="no"?>
<!DOCTYPE svg PUBLIC "-//W3C//DTD SVG 1.1//EN" "http://www.w3.org/Graphics/SVG/1.1/DTD/svg11.dtd">
<svg xmlns="http://www.w3.org/2000/svg" xmlns:xlink="http://www.w3.org/1999/xlink" version="1.1" width="160pt" height="160pt" viewBox="0 0 160 160">
<g enable-background="new">
<path transform="matrix(.00359712,0,0,-.00359712,0,160)" stroke-width="110.783" stroke-linecap="butt" stroke-miterlimit="10" stroke-linejoin="miter" fill="none" stroke="#000000" d="M 902.109 695 L 41880.4 695 "/>
<path transform="matrix(.00359712,0,0,-.00359712,0,160)" d="M 44111.4 400.719 C 44089.3 375.766 44075.4 359.141 44050.4 325.859 C 43986.7 242.703 43953.4 214.984 43922.9 214.984 C 43881.3 214.984 43856.4 251.016 43837 328.641 C 43831.4 350.813 43828.7 367.453 43825.9 375.766 C 43756.6 655.766 43726.1 783.281 43726.1 824.859 C 43848.1 1038.33 43947.9 1160.31 43997.8 1160.31 C 44014.4 1160.31 44036.6 1151.98 44064.3 1138.13 C 44097.6 1118.72 44117 1113.17 44139.2 1113.17 C 44197.4 1113.17 44236.2 1154.77 44236.2 1212.98 C 44236.2 1271.19 44189.1 1315.55 44122.5 1315.55 C 44000.5 1315.55 43895.2 1215.75 43703.9 919.125 L 43673.4 1071.59 C 43634.6 1260.11 43604.1 1315.55 43529.3 1315.55 C 43468.3 1315.55 43374 1290.59 43204.9 1235.16 L 43174.4 1224.06 L 43185.5 1182.48 C 43290.9 1207.44 43315.8 1212.98 43340.8 1212.98 C 43410.1 1212.98 43426.7 1188.03 43465.5 1021.69 L 43545.9 680.719 L 43318.6 356.359 C 43263.1 273.188 43207.7 223.297 43177.2 223.297 C 43160.6 223.297 43132.8 231.609 43105.1 248.25 C 43069.1 267.656 43038.6 275.969 43016.4 275.969 C 42963.7 275.969 42922.2 234.391 42922.2 178.938 C 42922.2 106.859 42977.6 62.5 43060.8 62.5 C 43146.7 62.5 43180 87.4531 43318.6 256.563 C 43393.4 345.266 43451.6 420.125 43568.1 580.906 L 43651.3 248.25 C 43687.3 106.859 43723.3 62.5 43812 62.5 C 43917.4 62.5 43989.5 129.031 44150.3 378.547 L 44111.4 400.719 "/>
<path transform="matrix(.00359712,0,0,-.00359712,0,160)" stroke-width="110.783" stroke-linecap="butt" stroke-miterlimit="10" stroke-linejoin="miter" fill="none" stroke="#000000" d="M 902.109 695 L 902.109 41673.3 "/>
<path transform="matrix(.00359712,0,0,-.00359712,0,160)" d="M 328.578 44330.9 C 364.625 44339.2 384.031 44342 414.516 44342 C 572.547 44342 614.125 44272.7 741.641 43795.8 C 788.766 43615.7 855.313 43291.3 855.313 43244.2 C 855.313 43199.8 838.672 43155.5 797.094 43105.6 C 711.156 42991.9 655.703 42919.8 625.219 42886.6 C 567 42825.6 533.734 42803.4 497.688 42803.4 C 481.063 42803.4 461.656 42811.7 431.156 42833.9 C 389.578 42867.2 359.078 42881 328.578 42881 C 267.594 42881 220.469 42833.9 220.469 42772.9 C 220.469 42703.6 281.453 42650.9 361.844 42650.9 C 539.266 42650.9 902.438 43066.8 1201.83 43615.7 C 1390.34 43956.6 1467.97 44156.2 1467.97 44292.1 C 1467.97 44375.3 1398.66 44444.5 1315.5 44444.5 C 1251.73 44444.5 1207.38 44403 1207.38 44342 C 1207.38 44300.4 1229.56 44269.9 1285 44233.9 C 1337.67 44203.4 1357.08 44178.4 1357.08 44139.6 C 1357.08 44028.7 1254.5 43812.5 1018.86 43421.6 L 963.422 43743.2 C 921.844 43987.1 766.594 44444.5 725.016 44444.5 L 713.922 44444.5 C 711.156 44441.8 700.063 44441.8 688.969 44441.8 C 664.016 44439 564.219 44422.4 417.297 44394.7 C 403.438 44391.9 367.391 44383.6 328.578 44378 L 328.578 44330.9 "/>
<path transform="matrix(.00359712,0,0,-.00359712,0,160)" stroke-width="332.357" stroke-linecap="butt" stroke-miterlimit="10" stroke-linejoin="miter" fill="none" stroke="#2e67b5" d="M 3975.5 36551 C 5675.63 26908.8 6682.28 20321.4 13605.4 13398.3 C 20528.6 6475.17 27115.9 5468.51 36758.1 3768.39 "/>
<path transform="matrix(.00359712,0,0,-.00359712,0,160)" stroke-width="332.357" stroke-linecap="butt" stroke-miterlimit="10" stroke-linejoin="miter" fill="none" stroke="#000000" d="M 6024.39 36551 C 7581.47 27720 9928.24 22402.5 16268.9 16061.8 C 22609.7 9721.13 27927.1 7374.36 36758.1 5817.27 "/>
<path transform="matrix(.00359712,0,0,-.00359712,0,160)" stroke-width="332.357" stroke-linecap="butt" stroke-miterlimit="10" stroke-linejoin="miter" fill="none" stroke="#000000" d="M 31635.8 695 L 902.109 31428.7 "/>
<path transform="matrix(.00359712,0,0,-.00359712,0,160)" stroke-width="110.783" stroke-linecap="butt" stroke-dasharray="110.783,553.929" stroke-miterlimit="10" stroke-linejoin="miter" fill="none" stroke="#000000" d="M 16268.9 16061.8 L 16268.9 695 "/>
<path transform="matrix(.00359712,0,0,-.00359712,0,160)" stroke-width="110.783" stroke-linecap="butt" stroke-dasharray="110.783,553.929" stroke-miterlimit="10" stroke-linejoin="miter" fill="none" stroke="#000000" d="M 16268.9 16061.8 L 902.109 16061.8 "/>
<path transform="matrix(.00359712,0,0,-.00359712,0,160)" d="M 17088.5 16061.8 C 17088.5 16514.5 16721.6 16881.4 16268.9 16881.4 C 15816.3 16881.4 15449.4 16514.5 15449.4 16061.8 C 15449.4 15609.2 15816.3 15242.3 16268.9 15242.3 C 16721.6 15242.3 17088.5 15609.2 17088.5 16061.8 Z M 16268.9 16061.8 "/>
<path transform="matrix(.00359712,0,0,-.00359712,0,160)" d="M 19204.2 17092.7 C 19079.4 17101 19051.7 17128.7 18954.7 17333.9 L 18264.4 18908.5 L 18209 18908.5 L 17632.3 17547.3 C 17454.9 17142.6 17421.7 17098.2 17288.6 17092.7 L 17288.6 17040 L 17837.5 17040 L 17837.5 17092.7 C 17704.4 17092.7 17649 17128.7 17649 17206.3 C 17649 17239.6 17657.3 17278.4 17671.2 17314.5 L 17798.7 17638.8 L 18525 17638.8 L 18638.7 17372.7 C 18671.9 17297.8 18691.3 17225.7 18691.3 17186.9 C 18691.3 17117.6 18644.2 17095.4 18497.3 17092.7 L 18497.3 17040 L 19204.2 17040 L 19204.2 17092.7 Z M 17845.8 17752.5 L 18164.6 18514.8 L 18486.2 17752.5 L 17845.8 17752.5 Z "/>
<path transform="matrix(.00359712,0,0,-.00359712,0,160)" stroke-width="332.357" stroke-linecap="butt" stroke-miterlimit="10" stroke-linejoin="miter" fill="none" stroke="#2e67b5" d="M 21391.2 695 L 902.109 31428.7 "/>
<path transform="matrix(.00359712,0,0,-.00359712,0,160)" stroke-width="110.783" stroke-linecap="butt" stroke-dasharray="110.783,553.929" stroke-miterlimit="10" stroke-linejoin="miter" fill="none" stroke="#000000" d="M 10019.8 18110.7 L 10019.8 695 "/>
<path transform="matrix(.00359712,0,0,-.00359712,0,160)" stroke-width="110.783" stroke-linecap="butt" stroke-dasharray="110.783,553.929" stroke-miterlimit="10" stroke-linejoin="miter" fill="none" stroke="#000000" d="M 10019.8 18110.7 L 902.109 18110.7 "/>
<path transform="matrix(.00359712,0,0,-.00359712,0,160)" d="M 10839.3 18110.7 C 10839.3 18563.4 10472.4 18930.3 10019.8 18930.3 C 9567.11 18930.3 9200.18 18563.4 9200.18 18110.7 C 9200.18 17658.1 9567.11 17291.1 10019.8 17291.1 C 10472.4 17291.1 10839.3 17658.1 10839.3 18110.7 Z M 10019.8 18110.7 " fill="#2e67b5"/>
<path transform="matrix(.00359712,0,0,-.00359712,0,160)" d="M 7241.13 17114.2 L 7241.13 17061.5 C 7474 17047.7 7507.27 17017.2 7507.27 16812 L 7507.27 15581.2 C 7507.27 15376 7471.22 15340 7241.13 15331.7 L 7241.13 15279 L 8167.05 15279 C 8383.28 15279 8580.11 15337.2 8682.69 15431.5 C 8782.48 15520.2 8837.92 15644.9 8837.92 15778 C 8837.92 15900 8788.03 16010.9 8702.09 16091.3 C 8618.92 16166.1 8544.08 16199.4 8363.88 16243.7 C 8508.03 16279.8 8566.25 16307.5 8632.78 16365.7 C 8702.09 16426.7 8743.67 16529.3 8743.67 16642.9 C 8743.67 16953.4 8496.94 17114.2 8017.34 17114.2 L 7241.13 17114.2 Z M 7790.03 16182.8 C 8058.94 16182.8 8186.45 16168.9 8286.25 16127.3 C 8444.27 16060.8 8519.13 15949.9 8519.13 15775.2 C 8519.13 15625.5 8460.91 15517.4 8350.02 15453.7 C 8261.31 15403.8 8147.64 15381.6 7964.67 15381.6 C 7828.84 15381.6 7790.03 15406.5 7790.03 15495.2 L 7790.03 16182.8 Z M 7790.03 16293.6 L 7790.03 16928.5 C 7790.03 16986.7 7809.44 17011.6 7851.02 17011.6 L 7973 17011.6 C 8291.8 17011.6 8460.91 16878.6 8460.91 16631.8 C 8460.91 16415.6 8313.98 16293.6 8053.39 16293.6 L 7790.03 16293.6 " fill="#2e67b5"/>
<path transform="matrix(.00359712,0,0,-.00359712,0,160)" d="M 11966.2 22208.6 C 11966.2 22661.3 11599.3 23028.2 11146.7 23028.2 C 10694 23028.2 10327.1 22661.3 10327.1 22208.6 C 10327.1 21756 10694 21389.1 11146.7 21389.1 C 11599.3 21389.1 11966.2 21756 11966.2 22208.6 Z M 11146.7 22208.6 " fill="#610b0b"/>
<path transform="matrix(.00359712,0,0,-.00359712,0,160)" d="M 13843.8 22548.5 L 13818.8 23175 L 13760.6 23175 C 13744 23116.8 13699.6 23083.5 13644.2 23083.5 C 13619.2 23083.5 13577.6 23091.9 13536.1 23108.5 C 13400.2 23152.8 13261.6 23175 13131.3 23175 C 12904 23175 12673.9 23089.1 12502 22936.6 C 12308 22764.7 12202.6 22506.9 12202.6 22202 C 12202.6 21944.2 12285.8 21705.8 12427.2 21547.7 C 12593.5 21367.5 12848.5 21262.2 13123 21262.2 C 13436.3 21262.2 13710.7 21389.7 13879.8 21614.3 L 13829.9 21664.2 C 13624.8 21467.3 13441.8 21384.2 13211.7 21384.2 C 13037.1 21384.2 12881.8 21439.6 12762.6 21545 C 12610.1 21680.8 12524.2 21930.3 12524.2 22238 C 12524.2 22739.8 12782 23064.1 13184 23064.1 C 13342 23064.1 13486.2 23005.9 13597 22895 C 13685.8 22806.3 13727.3 22728.7 13780 22548.5 L 13843.8 22548.5 " fill="#610b0b"/>
<path transform="matrix(.00359712,0,0,-.00359712,0,160)" stroke-width="332.357" stroke-linecap="butt" stroke-miterlimit="10" stroke-linejoin="miter" fill="none" stroke="#610b0b" d="M 25489 695 L 902.109 37575.5 "/>
</g>
</svg>
