<?xml version="1.0" encoding="UTF-8" standalone="no"?>
<!DOCTYPE svg PUBLIC "-//W3C//DTD SVG 1.1//EN" "http://www.w3.org/Graphics/SVG/1.1/DTD/svg11.dtd">
<svg xmlns="http://www.w3.org/2000/svg" xmlns:xlink="http://www.w3.org/1999/xlink" version="1.1" width="275pt" height="147pt" viewBox="0 0 275 147">
<g enable-background="new">
<path transform="matrix(.00359712,0,0,-.00359712,0,147)" stroke-width="110.783" stroke-linecap="butt" stroke-miterlimit="10" stroke-linejoin="miter" fill="none" stroke="#000000" d="M 14957.8 4090.77 L 14957.8 37061.4 "/>
<path transform="matrix(.00359712,0,0,-.00359712,0,147)" stroke-width="88.6236" stroke-linecap="round" stroke-linejoin="round" fill="none" stroke="#000000" d="M 14514.7 36729.1 C 14680.8 36756.8 14930.1 37061.4 14957.8 37144.5 C 14985.5 37061.4 15234.8 36756.8 15400.9 36729.1 "/>
<path transform="matrix(.00359712,0,0,-.00359712,0,147)" d="M 14511.1 38497.7 L 14511.1 38367 C 14511.1 38364.4 14511.1 38359 14511.1 38359 C 14511.1 38340.4 14521.8 38329.7 14545.8 38329.7 C 14657.8 38337.7 14671.1 38337.7 14684.4 38345.7 C 14697.7 38351 14705.7 38364.4 14705.7 38377.7 C 14705.7 38383 14705.7 38388.4 14703.1 38396.4 C 14697.7 38836.3 14695.1 39126.8 14695.1 39270.8 L 14695.1 39745.4 C 14772.4 39796 14785.7 39806.7 14785.7 39820 C 14785.7 39828 14780.4 39836 14761.7 39854.7 C 14697.7 39910.7 14676.4 39926.6 14596.4 39980 C 14548.4 39926.6 14535.1 39908 14489.8 39854.7 L 14199.2 39854.7 L 14199.2 40369.2 L 14871 40369.2 C 14876.4 40369.2 14887 40377.2 14887 40385.2 C 14887 40393.2 14881.7 40401.2 14871 40411.9 C 14772.4 40507.8 14740.4 40537.2 14623.1 40630.5 C 14553.8 40547.8 14532.5 40521.2 14463.1 40430.5 L 13308.8 40430.5 C 13218.1 40430.5 13146.1 40438.5 13076.8 40457.2 L 13095.5 40353.2 C 13188.8 40366.5 13231.4 40369.2 13308.8 40369.2 L 13564.7 40369.2 L 13564.7 39854.7 L 13308.8 39854.7 C 13218.1 39913.3 13188.8 39932 13095.5 39982.6 C 13106.1 39825.3 13108.8 39702.7 13108.8 39494.8 C 13108.8 39180.2 13103.5 38687 13095.5 38340.4 C 13095.5 38337.7 13095.5 38335 13095.5 38335 C 13095.5 38316.4 13108.8 38305.7 13135.5 38305.7 C 13167.5 38305.7 13231.4 38311 13250.1 38316.4 C 13271.4 38324.4 13276.8 38329.7 13276.8 38353.7 C 13279.4 38356.4 13279.4 38361.7 13279.4 38367 L 13279.4 38497.7 L 14511.1 38497.7 Z M 14036.6 38559 L 13738 38559 L 13738 39793.3 L 14036.6 39793.3 L 14036.6 38559 Z M 14199.2 38559 L 14199.2 39793.3 L 14511.1 39793.3 L 14511.1 38559 L 14199.2 38559 Z M 13279.4 38559 L 13279.4 39793.3 L 13564.7 39793.3 L 13564.7 38559 L 13279.4 38559 Z M 13738 40369.2 L 14036.6 40369.2 L 14036.6 39854.7 L 13738 39854.7 L 13738 40369.2 Z M 12378.3 39318.8 C 12506.3 39473.4 12554.3 39540.1 12684.9 39764 L 12684.9 39222.8 C 12684.9 39129.5 12676.9 38620.3 12671.6 38332.4 C 12671.6 38303 12682.2 38295 12714.2 38295 C 12802.2 38295 12855.5 38308.4 12855.5 38335 C 12855.5 38337.7 12855.5 38343 12852.9 38345.7 L 12852.9 39740 C 12900.8 39764 12924.8 39782.7 12924.8 39796 C 12924.8 39820 12874.2 39833.3 12735.6 39852 C 12855.5 40065.3 12914.2 40193.3 13055.5 40553.2 C 13135.5 40558.5 13162.1 40569.2 13162.1 40593.1 C 13162.1 40601.1 13151.5 40611.8 13143.5 40617.1 C 13124.8 40627.8 13106.1 40635.8 12999.5 40662.5 C 12970.2 40670.5 12922.2 40683.8 12863.5 40699.8 C 12852.9 40553.2 12794.2 40334.5 12690.2 40062.6 C 12583.6 39780 12479.6 39569.4 12335.7 39345.5 L 12378.3 39318.8 "/>
<path transform="matrix(.00359712,0,0,-.00359712,0,147)" d="M 16427 40331.9 C 16469.6 40409.2 16469.6 40409.2 16549.6 40558.5 C 16634.9 40566.5 16669.6 40579.8 16669.6 40603.8 C 16669.6 40622.5 16637.6 40635.8 16504.3 40673.1 C 16475 40678.5 16429.6 40691.8 16373.7 40707.8 C 16349.7 40590.5 16293.7 40430.5 16213.7 40249.2 C 16115 40025.3 16019.1 39857.3 15904.4 39708 L 15928.4 39686.7 C 16093.7 39825.3 16203 39956 16344.3 40182.6 C 16416.3 40009.3 16491 39884 16616.3 39734.7 C 16523 39641.4 16443 39564.1 16349.7 39489.4 C 16195 39358.8 16120.4 39310.8 15789.8 39124.2 L 15808.5 39092.2 C 15957.8 39153.5 16021.7 39180.2 16117.7 39225.5 C 16123 39006.9 16123 39006.9 16123 38913.6 C 16123 38812.3 16123 38703 16117.7 38321.7 C 16117.7 38297.7 16125.7 38289.7 16157.7 38289.7 C 16272.3 38289.7 16293.7 38295 16296.3 38329.7 L 16296.3 38441.7 L 17024.2 38441.7 L 17024.2 38319 C 17024.2 38297.7 17032.2 38295 17066.8 38295 C 17109.5 38295 17170.8 38300.4 17189.5 38305.7 C 17200.1 38311 17205.4 38316.4 17205.4 38332.4 C 17197.5 38673.6 17197.5 38742.9 17197.5 38844.3 C 17197.5 38900.2 17197.5 38964.2 17197.5 39060.2 C 17253.4 39094.8 17269.4 39108.2 17269.4 39124.2 C 17269.4 39132.2 17258.8 39145.5 17232.1 39166.8 C 17173.5 39209.5 17154.8 39220.2 17093.5 39262.8 C 17056.2 39222.8 17045.5 39209.5 17008.2 39166.8 L 16296.3 39166.8 C 16235 39206.8 16219 39217.5 16168.4 39249.5 C 16363 39345.5 16541.6 39465.4 16720.2 39620 C 16904.2 39433.4 17085.5 39313.5 17402.7 39166.8 C 17448 39278.8 17477.4 39308.1 17581.4 39345.5 L 17581.4 39385.4 C 17250.8 39430.8 17045.5 39513.4 16805.5 39697.4 C 16944.2 39833.3 17034.8 39950.6 17197.5 40203.9 C 17304.1 40217.2 17333.4 40225.2 17333.4 40249.2 C 17333.4 40257.2 17325.4 40267.9 17306.8 40289.2 C 17232.1 40358.5 17210.8 40382.5 17133.5 40451.8 C 17080.1 40403.9 17064.1 40387.9 17013.5 40331.9 L 16427 40331.9 Z M 17000.2 40270.6 C 16882.9 40057.3 16813.5 39958.6 16680.2 39806.7 C 16549.6 39932 16475 40033.3 16368.3 40227.9 C 16381.7 40249.2 16381.7 40249.2 16395 40270.6 L 17000.2 40270.6 Z M 16296.3 39105.5 L 17024.2 39105.5 L 17024.2 38503 L 16296.3 38503 L 16296.3 39105.5 Z M 15629.8 40113.3 L 15629.8 40590.5 C 15736.5 40630.5 15752.5 40641.1 15752.5 40659.8 C 15752.5 40689.1 15696.5 40699.8 15445.9 40721.1 C 15453.9 40625.1 15456.5 40577.2 15456.5 40387.9 L 15456.5 40113.3 L 15243.3 40113.3 C 15174 40113.3 15128.6 40118.6 15070 40131.9 L 15086 40036 C 15150 40049.3 15179.3 40052 15243.3 40052 L 15437.9 40052 C 15325.9 39542.7 15245.9 39308.1 15040.6 38892.2 L 15075.3 38873.6 C 15256.6 39137.5 15373.9 39377.5 15477.9 39708 L 15461.9 39353.5 C 15456.5 39262.8 15451.2 38788.3 15448.5 38308.4 C 15448.5 38284.4 15459.2 38276.4 15483.2 38276.4 C 15597.8 38276.4 15632.5 38284.4 15632.5 38316.4 C 15629.8 38535 15629.8 38535 15629.8 39761.4 C 15699.2 39689.4 15760.5 39590.7 15813.8 39465.4 C 15848.5 39385.4 15859.1 39366.8 15883.1 39366.8 C 15917.8 39366.8 15963.1 39462.8 15963.1 39534.7 C 15963.1 39593.4 15923.1 39638.7 15808.5 39713.4 C 15736.5 39758.7 15685.8 39785.3 15629.8 39817.3 L 15629.8 40052 L 16048.4 40052 C 16056.4 40052 16064.4 40057.3 16064.4 40062.6 C 16064.4 40067.9 16061.7 40073.3 16056.4 40081.3 C 15976.4 40163.9 15952.4 40190.6 15867.1 40270.6 C 15816.5 40203.9 15800.5 40182.6 15749.8 40113.3 L 15629.8 40113.3 "/>
<path transform="matrix(.00359712,0,0,-.00359712,0,147)" stroke-width="110.783" stroke-linecap="butt" stroke-miterlimit="10" stroke-linejoin="miter" fill="none" stroke="#000000" d="M 14957.8 4090.77 L 69993.3 4090.77 "/>
<path transform="matrix(.00359712,0,0,-.00359712,0,147)" stroke-width="88.6236" stroke-linecap="round" stroke-linejoin="round" fill="none" stroke="#000000" d="M 69660.9 4533.91 C 69688.6 4367.73 69993.3 4118.46 70076.4 4090.77 C 69993.3 4063.08 69688.6 3813.81 69660.9 3647.64 "/>
<path transform="matrix(.00359712,0,0,-.00359712,0,147)" d="M 72546.6 3803.16 C 72557.3 3803.16 72568 3811.16 72568 3819.16 C 72568 3824.48 72565.3 3829.81 72560 3835.14 C 72474.7 3912.45 72448 3933.78 72357.4 4008.44 C 72309.4 3947.13 72293.4 3928.45 72245.4 3864.47 L 71842.8 3864.47 C 71872.1 3917.8 71874.8 3923.13 71909.5 3984.44 C 71981.5 3995.11 72002.8 4005.77 72002.8 4029.77 C 72002.8 4048.42 71965.5 4059.09 71773.5 4101.75 C 71746.8 4032.44 71722.8 3976.44 71669.5 3864.47 L 71504.2 3864.47 C 71397.6 3864.47 71320.3 3872.47 71227 3891.13 L 71245.6 3792.48 C 71341.6 3800.48 71389.6 3803.16 71506.9 3803.16 L 71640.2 3803.16 C 71608.2 3741.84 71584.2 3699.19 71514.9 3576.55 C 71474.9 3509.89 71466.9 3496.56 71402.9 3387.25 C 71402.9 3384.59 71402.9 3381.92 71402.9 3379.27 C 71402.9 3365.92 71429.6 3357.94 71482.9 3357.94 C 71552.2 3357.94 71568.2 3363.27 71584.2 3400.59 C 71608.2 3440.58 71624.2 3467.23 71634.9 3488.56 C 71773.5 3432.58 71832.2 3405.92 71941.5 3341.94 C 71770.8 3149.98 71584.2 3038.02 71245.6 2923.38 L 71261.6 2888.72 C 71504.2 2931.38 71629.5 2974.03 71778.8 3051.34 C 71890.8 3112.66 71976.1 3176.64 72064.1 3267.28 C 72146.7 3211.3 72186.7 3179.31 72240 3123.33 C 72266.7 3096.66 72280 3088.66 72293.4 3088.66 C 72312 3088.66 72325.4 3125.98 72325.4 3176.64 C 72325.4 3229.97 72312 3275.28 72288 3301.94 C 72266.7 3328.61 72240 3341.94 72154.7 3376.59 C 72253.4 3512.56 72293.4 3597.88 72357.4 3803.16 L 72546.6 3803.16 Z M 72181.4 3803.16 C 72130.8 3627.2 72096.1 3552.55 72010.8 3429.91 C 71909.5 3464.58 71842.8 3485.91 71664.2 3539.22 C 71733.5 3667.19 71781.5 3755.17 71808.2 3803.16 L 72181.4 3803.16 Z M 72141.4 2883.38 C 72437.3 2987.36 72589.3 3067.34 72759.9 3203.3 C 72850.6 3275.28 72917.2 3339.27 72991.9 3432.58 C 73138.5 3219.3 73301.1 3056.67 73514.4 2912.7 C 73557.1 3022.02 73594.4 3046.02 73730.3 3051.34 L 73735.7 3086 C 73431.8 3221.97 73237.1 3360.59 73077.2 3552.55 C 73178.5 3709.84 73258.5 3896.47 73322.5 4112.41 C 73367.8 4267.05 73389.1 4365.69 73413.1 4570.97 L 73690.4 4570.97 C 73695.7 4570.97 73701 4578.97 73701 4586.95 C 73701 4592.3 73698.4 4600.3 73690.4 4608.28 C 73573.1 4706.94 73573.1 4706.94 73469.1 4797.58 C 73405.1 4725.59 73386.4 4704.27 73319.8 4632.28 L 72810.6 4632.28 C 72909.2 4874.89 72949.2 4986.86 72994.5 5138.83 C 73085.2 5157.48 73109.2 5168.16 73109.2 5189.48 C 73109.2 5218.81 73098.5 5221.47 72818.6 5290.78 C 72813.3 5202.81 72786.6 5066.84 72733.3 4861.56 C 72658.6 4568.3 72578.6 4360.34 72410.7 4019.09 L 72442.7 3995.11 C 72552 4141.73 72597.3 4208.39 72664 4325.69 C 72722.6 3989.78 72775.9 3816.48 72903.9 3576.55 C 72847.9 3488.56 72799.9 3424.58 72735.9 3352.59 C 72578.6 3176.64 72434.7 3072.67 72125.4 2918.05 L 72141.4 2883.38 Z M 73218.5 4570.97 C 73183.8 4221.72 73111.8 3971.11 72973.2 3699.19 C 72837.2 3915.13 72773.3 4088.42 72703.9 4400.34 C 72735.9 4464.33 72754.6 4501.66 72786.6 4570.97 L 73218.5 4570.97 Z M 72032.1 4680.27 L 72602.6 4680.27 C 72616 4680.27 72626.6 4688.27 72626.6 4696.27 C 72626.6 4701.59 72621.3 4712.27 72613.3 4720.27 C 72530.6 4789.58 72504 4813.58 72416 4882.89 C 72370.7 4821.56 72357.4 4802.91 72317.4 4741.59 L 72032.1 4741.59 C 72029.4 5024.19 72029.4 5024.19 72029.4 5040.19 C 72029.4 5074.84 72029.4 5106.83 72029.4 5160.16 C 72045.4 5168.16 72058.8 5173.48 72069.4 5176.16 C 72093.4 5184.14 72109.4 5192.14 72120.1 5197.48 C 72125.4 5202.81 72130.8 5210.81 72130.8 5216.14 C 72130.8 5245.47 72101.4 5250.8 71861.5 5274.8 C 71869.5 5197.48 71874.8 5082.84 71874.8 5010.86 L 71874.8 4741.59 L 71488.2 4741.59 C 71400.3 4741.59 71349.6 4744.25 71237.6 4757.58 L 71253.6 4666.94 C 71368.3 4677.61 71424.3 4680.27 71485.6 4680.27 L 71778.8 4680.27 C 71722.8 4584.3 71701.5 4552.3 71634.9 4466.98 C 71498.9 4293.7 71405.6 4200.39 71237.6 4064.42 L 71253.6 4037.77 C 71378.9 4101.75 71445.6 4147.06 71589.5 4269.7 C 71706.8 4368.34 71776.2 4437.67 71874.8 4557.64 L 71874.8 4453.66 C 71874.8 4376.34 71872.1 4312.36 71866.8 4173.73 C 71866.8 4168.39 71866.8 4165.73 71866.8 4160.41 C 71866.8 4144.41 71882.8 4133.73 71909.5 4133.73 C 71909.5 4133.73 71912.1 4133.73 71914.8 4133.73 C 71928.1 4133.73 71938.8 4136.41 71944.1 4136.41 C 72010.8 4139.08 72026.8 4147.06 72032.1 4173.73 C 72032.1 4408.34 72032.1 4413.67 72032.1 4506.98 C 72120.1 4464.33 72213.4 4387.02 72301.4 4285.7 C 72365.4 4205.72 72370.7 4203.06 72397.3 4203.06 C 72426.7 4203.06 72442.7 4232.38 72442.7 4283.03 C 72442.7 4333.69 72426.7 4389.67 72402.7 4416.34 C 72376 4445.66 72280 4488.31 72160.1 4520.31 C 72053.4 4552.3 72053.4 4552.3 72032.1 4557.64 L 72032.1 4680.27 Z M 71394.9 5181.48 C 71480.2 5077.5 71541.6 4968.2 71576.2 4861.56 C 71594.9 4800.23 71610.9 4776.25 71632.2 4776.25 C 71666.9 4776.25 71722.8 4864.22 71722.8 4914.88 C 71722.8 4989.53 71645.5 5064.17 71421.6 5205.47 L 71394.9 5181.48 Z M 72173.4 4778.91 C 72250.7 4856.23 72250.7 4856.23 72325.4 4938.88 C 72424 5050.84 72424 5050.84 72456 5085.5 C 72469.3 5088.17 72482.7 5090.84 72504 5090.84 C 72528 5093.5 72541.3 5096.17 72546.6 5098.83 C 72554.6 5104.17 72560 5109.5 72560 5117.5 C 72560 5138.83 72522.7 5160.16 72429.3 5192.14 C 72405.3 5200.14 72365.4 5213.47 72314.7 5232.14 C 72288 5106.83 72232 4973.53 72136.1 4797.58 L 72173.4 4778.91 "/>
<path transform="matrix(.00359712,0,0,-.00359712,0,147)" d="M 75161 3528.56 L 75710.2 3528.56 L 75710.2 3501.89 C 75712.9 3483.23 75718.2 3477.91 75734.2 3477.91 C 75774.2 3477.91 75854.2 3488.56 75870.1 3493.89 C 75883.5 3499.23 75888.8 3509.89 75888.8 3520.56 C 75888.8 3523.22 75888.8 3523.22 75888.8 3525.89 C 75886.1 3664.52 75886.1 3707.17 75886.1 3853.81 L 75886.1 4053.77 C 75947.5 4093.75 75963.5 4107.08 75963.5 4125.73 C 75963.5 4133.73 75955.5 4144.41 75934.1 4160.41 C 75888.8 4195.06 75838.2 4229.72 75787.5 4267.05 C 75742.2 4221.72 75731.5 4205.72 75688.9 4160.41 L 74502.5 4160.41 C 74425.2 4208.39 74401.2 4221.72 74318.5 4267.05 C 74323.9 4171.06 74326.5 4104.41 74326.5 3984.44 C 74326.5 3787.16 74323.9 3616.53 74318.5 3448.58 C 74318.5 3427.25 74323.9 3421.92 74347.9 3421.92 C 74395.8 3421.92 74451.8 3427.25 74470.5 3432.58 C 74486.5 3437.91 74491.8 3445.91 74491.8 3464.58 L 74491.8 3528.56 L 74998.4 3528.56 L 74998.4 3331.27 L 74395.8 3331.27 C 74265.2 3331.27 74227.9 3333.94 74137.2 3355.27 L 74153.2 3253.95 C 74235.9 3267.28 74291.9 3269.95 74395.8 3269.95 L 74998.4 3269.95 L 74998.4 3046.02 L 74187.9 3046.02 C 74059.9 3046.02 74003.9 3051.34 73900 3072.67 L 73918.6 2966.03 C 73995.9 2979.36 74065.3 2984.69 74187.9 2984.69 L 76320.7 2984.69 C 76336.7 2984.69 76344.7 2990.02 76344.7 2998.02 C 76344.7 3003.36 76342 3008.69 76334 3016.69 C 76230.1 3096.66 76195.4 3123.33 76088.8 3205.97 L 75934.1 3046.02 L 75161 3046.02 L 75161 3269.95 L 76104.8 3269.95 C 76120.8 3269.95 76131.4 3275.28 76131.4 3285.95 C 76131.4 3288.61 76128.8 3293.95 76118.1 3304.61 C 76027.4 3379.27 76000.8 3400.59 75907.5 3472.56 C 75848.8 3413.92 75827.5 3392.59 75768.8 3331.27 L 75161 3331.27 L 75161 3528.56 Z M 75161 3589.88 L 75161 3821.81 L 75710.2 3821.81 L 75710.2 3589.88 L 75161 3589.88 Z M 74998.4 3589.88 L 74491.8 3589.88 L 74491.8 3821.81 L 74998.4 3821.81 L 74998.4 3589.88 Z M 75161 3883.14 L 75161 4099.08 L 75710.2 4099.08 L 75710.2 3883.14 L 75161 3883.14 Z M 74998.4 3883.14 L 74491.8 3883.14 L 74491.8 4099.08 L 74998.4 4099.08 L 74998.4 3883.14 Z M 74478.5 4581.63 L 75742.2 4581.63 L 75742.2 4520.31 C 75742.2 4517.64 75742.2 4512.31 75742.2 4512.31 C 75742.2 4493.66 75747.5 4490.98 75779.5 4490.98 C 75872.8 4490.98 75912.8 4501.66 75912.8 4522.98 C 75912.8 4525.64 75912.8 4528.31 75912.8 4528.31 C 75907.5 4661.61 75907.5 4720.27 75907.5 4800.23 L 75910.1 5072.17 C 75987.5 5120.16 76000.8 5130.83 76000.8 5146.83 C 76000.8 5152.16 75995.5 5160.16 75979.5 5176.16 C 75912.8 5226.8 75891.5 5242.8 75822.2 5290.78 C 75787.5 5253.47 75752.8 5213.47 75720.8 5176.16 L 74502.5 5176.16 C 74417.2 5229.47 74387.8 5245.47 74299.9 5290.78 C 74307.9 5048.19 74307.9 5042.84 74307.9 4928.2 C 74307.9 4824.23 74307.9 4813.58 74302.5 4514.98 C 74302.5 4512.31 74302.5 4509.64 74302.5 4509.64 C 74302.5 4482.98 74307.9 4480.33 74345.2 4480.33 C 74449.2 4480.33 74478.5 4488.31 74478.5 4514.98 C 74478.5 4514.98 74478.5 4517.64 74478.5 4520.31 L 74478.5 4581.63 Z M 75742.2 4914.88 L 74478.5 4914.88 L 74478.5 5114.83 L 75742.2 5114.83 L 75742.2 4914.88 Z M 75742.2 4853.56 L 75742.2 4642.95 L 74478.5 4642.95 L 74478.5 4853.56 L 75742.2 4853.56 Z M 73921.3 4317.69 C 74003.9 4333.69 74049.3 4336.36 74155.9 4336.36 L 76304.7 4336.36 C 76323.4 4336.36 76331.4 4339.02 76331.4 4347.02 C 76331.4 4352.36 76328.7 4360.34 76323.4 4365.69 C 76222.1 4456.33 76190.1 4482.98 76083.4 4570.97 C 76019.4 4498.98 75998.1 4474.98 75928.8 4397.67 L 74155.9 4397.67 C 74027.9 4397.67 73987.9 4400.34 73908 4421.67 L 73921.3 4317.69 "/>
<path transform="matrix(.00359712,0,0,-.00359712,0,147)" stroke-width="332.357" stroke-linecap="butt" stroke-miterlimit="10" stroke-linejoin="miter" fill="none" stroke="#2e67b5" d="M 14957.8 9607.38 L 53571.6 31672.2 "/>
<path transform="matrix(.00359712,0,0,-.00359712,0,147)" d="M 56668.5 31435.8 L 56668.5 32139.6 L 57156.4 32139.6 C 57169.7 32139.6 57180.4 32147.6 57180.4 32155.6 C 57180.4 32161 57175 32169 57167 32177 C 57071.1 32256.9 57071.1 32256.9 56935.1 32371.6 C 56873.8 32296.9 56857.8 32275.6 56799.1 32201 L 56668.5 32201 L 56668.5 32694.2 C 56732.5 32707.5 56775.1 32728.8 56775.1 32752.8 C 56775.1 32782.1 56708.5 32798.1 56463.2 32824.8 C 56473.9 32744.8 56479.2 32707.5 56479.2 32651.5 L 56479.2 32201 L 55980.7 32201 L 55980.7 32696.8 C 56060.7 32718.2 56090 32731.5 56090 32752.8 C 56090 32782.1 56044.7 32792.8 55780.7 32824.8 C 55791.4 32736.8 55794 32696.8 55794 32622.2 L 55794 32201 L 55607.4 32201 C 55554.1 32201 55474.1 32211.6 55410.1 32227.6 L 55434.1 32123.6 C 55516.8 32137 55554.1 32139.6 55607.4 32139.6 L 55794 32139.6 L 55794 31435.8 L 55495.5 31435.8 C 55442.1 31435.8 55378.2 31446.5 55311.5 31462.5 L 55335.5 31355.8 C 55412.8 31369.2 55450.1 31374.5 55495.5 31374.5 L 57220.4 31374.5 C 57244.4 31374.5 57255 31379.8 57255 31393.2 C 57255 31398.5 57247 31411.8 57233.7 31422.5 C 57132.4 31505.1 57100.4 31529.1 56993.8 31609.1 C 56932.4 31534.5 56913.8 31510.5 56852.5 31435.8 L 56668.5 31435.8 Z M 56479.2 31435.8 L 55980.7 31435.8 L 55980.7 32139.6 L 56479.2 32139.6 L 56479.2 31435.8 Z M 54749 31502.5 C 54877 31638.4 54919.6 31691.8 55055.6 31905 L 55055.6 31334.5 C 55055.6 31083.9 55050.2 30812 55044.9 30513.4 C 55044.9 30484 55055.6 30478.7 55103.6 30478.7 C 55132.9 30478.7 55175.5 30484 55207.5 30489.4 C 55231.5 30494.7 55236.9 30502.7 55239.5 30524 C 55236.9 30780 55236.9 30780 55236.9 31361.2 L 55236.9 31934.4 C 55306.2 31958.3 55319.5 31963.7 55319.5 31982.3 C 55319.5 32003.7 55303.5 32009 55191.5 32025 C 55178.2 32027.7 55178.2 32027.7 55132.9 32033 C 55260.9 32243.6 55308.8 32342.3 55458.1 32696.8 C 55556.8 32712.8 55588.8 32726.2 55588.8 32747.5 C 55588.8 32774.1 55575.4 32779.5 55410.1 32824.8 C 55380.8 32832.8 55335.5 32846.1 55276.8 32862.1 C 55258.2 32728.8 55218.2 32595.5 55124.9 32344.9 C 54988.9 31985 54884.9 31785.1 54711.7 31539.8 L 54749 31502.5 Z M 55348.8 30481.4 C 55599.4 30620 55820.7 30817.3 56036.7 31089.2 C 56146 31094.6 56172.6 31102.6 56172.6 31131.9 C 56172.6 31155.9 56159.3 31161.2 55892.7 31262.5 C 55855.4 31171.9 55820.7 31110.6 55735.4 30985.3 C 55599.4 30785.3 55482.1 30652 55322.2 30516 L 55348.8 30481.4 Z M 56396.6 31217.2 C 56596.5 31033.2 56783.1 30806.6 56895.1 30606.7 C 56948.4 30510.7 56951.1 30508 56977.8 30508 C 57020.4 30508 57049.8 30580 57049.8 30694.7 C 57049.8 30769.3 57033.8 30804 56972.4 30860 C 56825.8 30995.9 56652.5 31118.5 56420.6 31246.5 L 56396.6 31217.2 " fill="#2e67b5"/>
<path transform="matrix(.00359712,0,0,-.00359712,0,147)" d="M 57688.6 31742.4 C 57667.3 31739.7 57653.9 31739.7 57648.6 31739.7 C 57600.6 31737.1 57571.3 31737.1 57560.6 31737.1 C 57552.6 31737.1 57512.6 31739.7 57472.6 31742.4 C 57526 31502.5 57528.6 31486.5 57552.6 31486.5 C 57573.9 31486.5 57587.3 31513.1 57603.3 31585.1 C 57720.6 31601.1 57752.6 31609.1 57901.9 31643.8 L 57901.9 31049.2 C 57901.9 30862.6 57899.2 30649.3 57893.9 30481.4 C 57893.9 30478.7 57893.9 30476 57893.9 30473.4 C 57893.9 30454.7 57907.2 30444 57933.8 30444 C 57960.5 30444 58035.2 30449.4 58048.5 30452 C 58069.8 30457.4 58075.1 30465.4 58075.1 30486.7 C 58072.5 30641.3 58072.5 30641.3 58069.8 31073.2 L 58069.8 31683.8 C 58200.5 31715.7 58200.5 31715.7 58275.1 31734.4 C 58288.4 31697.1 58296.4 31673.1 58301.8 31643.8 C 58344.4 31475.8 58344.4 31473.1 58365.8 31473.1 C 58405.7 31473.1 58459 31566.4 58459 31635.8 C 58459 31694.4 58437.7 31737.1 58363.1 31830.4 C 58259.1 31958.3 58243.1 31974.3 58176.5 32038.3 L 58147.1 32022.3 C 58200.5 31931.7 58221.8 31883.7 58256.4 31787.7 C 57984.5 31750.4 57984.5 31750.4 57805.9 31745.1 C 57989.8 31939.7 58109.8 32089 58352.4 32424.9 C 58437.7 32435.6 58467 32448.9 58467 32472.9 C 58467 32496.9 58467 32496.9 58203.1 32587.5 C 58083.1 32280.9 57992.5 32121 57728.6 31742.4 L 57688.6 31742.4 Z M 57496.6 32470.2 C 57613.9 32326.3 57701.9 32195.6 57763.2 32070.3 C 57784.5 32025 57797.9 32009 57813.9 32009 C 57845.9 32009 57885.9 32094.3 57885.9 32158.3 C 57885.9 32214.3 57864.5 32240.9 57736.6 32331.6 C 57933.8 32552.9 57955.2 32582.2 58059.2 32750.2 C 58141.8 32755.5 58176.5 32768.8 58176.5 32795.5 C 58176.5 32822.1 58155.1 32830.1 57901.9 32888.8 C 57872.5 32742.2 57797.9 32547.5 57696.6 32360.9 C 57597.9 32430.2 57536.6 32472.9 57512.6 32488.9 L 57496.6 32470.2 Z M 57502 30561.4 C 57635.3 30846.6 57688.6 30995.9 57757.9 31305.2 C 57824.5 31318.5 57851.2 31331.8 57851.2 31350.5 C 57851.2 31377.2 57797.9 31393.2 57592.6 31425.1 L 57592.6 31374.5 C 57592.6 31291.8 57584.6 31214.5 57565.9 31062.6 C 57542 30876 57520.6 30777.3 57459.3 30582.7 L 57502 30561.4 Z M 58176.5 31446.5 C 58219.1 31291.8 58248.4 31089.2 58261.8 30868 C 58267.1 30814.6 58277.8 30790.6 58296.4 30790.6 C 58307.1 30790.6 58331.1 30809.3 58349.8 30833.3 C 58387.1 30876 58413.7 30945.3 58413.7 30995.9 C 58413.7 31043.9 58392.4 31110.6 58341.8 31219.9 C 58291.1 31329.2 58267.1 31371.8 58203.1 31457.1 L 58176.5 31446.5 Z M 58424.4 31833 C 58589.7 31971.7 58677.7 32062.3 58787 32203.6 C 58933.6 32392.9 59010.9 32515.5 59104.2 32712.8 C 59216.2 32451.6 59269.5 32355.6 59360.2 32235.6 C 59477.5 32078.3 59589.4 31974.3 59794.7 31833 C 59834.7 31937 59864 31963.7 59965.3 32001 L 59965.3 32027.7 C 59733.4 32110.3 59618.8 32174.3 59477.5 32299.6 C 59314.8 32446.2 59229.5 32558.2 59149.5 32739.5 C 59218.9 32758.2 59240.2 32771.5 59240.2 32790.1 C 59240.2 32814.1 59240.2 32814.1 58938.9 32886.1 C 58883 32664.8 58765.6 32411.6 58595 32134.3 C 58517.7 32014.3 58483 31969 58395.1 31873 L 58424.4 31833 Z M 58733.7 31454.5 C 58653.7 31515.8 58629.7 31531.8 58541.7 31585.1 C 58549.7 31427.8 58552.4 31265.2 58552.4 31030.6 C 58552.4 30846.6 58549.7 30729.3 58541.7 30492 C 58544.4 30470.7 58555 30465.4 58587 30465.4 C 58627 30465.4 58680.3 30470.7 58693.7 30473.4 C 58712.3 30478.7 58717.7 30486.7 58717.7 30510.7 L 58717.7 30638.7 L 59440.1 30638.7 L 59440.1 30513.4 C 59440.1 30484 59448.1 30476 59474.8 30476 C 59533.5 30476 59594.8 30484 59610.8 30494.7 C 59618.8 30502.7 59621.4 30513.4 59621.4 30534.7 C 59618.8 30678.7 59616.1 30862.6 59616.1 31171.9 L 59616.1 31361.2 C 59674.8 31393.2 59690.8 31406.5 59690.8 31425.1 C 59690.8 31433.1 59682.8 31443.8 59666.8 31457.1 C 59608.1 31513.1 59586.8 31529.1 59522.8 31585.1 C 59474.8 31529.1 59461.5 31513.1 59416.2 31454.5 L 58733.7 31454.5 Z M 58717.7 31393.2 L 59440.1 31393.2 L 59440.1 30700 L 58717.7 30700 L 58717.7 31393.2 Z M 58821.6 31894.4 C 58739 31894.4 58696.3 31899.7 58627 31913 L 58645.7 31817 C 58699 31827.7 58749.7 31833 58821.6 31833 L 59544.1 31833 C 59568.1 31833 59578.8 31838.4 59578.8 31849 C 59578.8 31854.4 59576.1 31862.4 59568.1 31870.4 C 59488.1 31953 59464.1 31977 59376.2 32054.3 C 59317.5 31990.3 59298.8 31969 59242.9 31894.4 L 58821.6 31894.4 " fill="#2e67b5"/>
<path transform="matrix(.00359712,0,0,-.00359712,0,147)" d="M 62142.5 30644 L 62142.5 30505.4 C 62145.1 30478.7 62155.8 30473.4 62198.5 30473.4 C 62310.4 30473.4 62339.8 30484 62342.4 30526.7 C 62329.1 30790.6 62321.1 31307.8 62321.1 31779.7 L 62321.1 32121 C 62401.1 32163.6 62430.4 32187.6 62430.4 32209 C 62430.4 32219.6 62422.4 32230.3 62401.1 32248.9 C 62323.8 32304.9 62299.8 32323.6 62219.8 32376.9 C 62171.8 32323.6 62155.8 32307.6 62107.8 32248.9 L 61691.9 32248.9 L 61691.9 32712.8 C 61766.6 32736.8 61795.9 32755.5 61795.9 32779.5 C 61795.9 32784.8 61790.6 32792.8 61782.6 32798.1 C 61758.6 32814.1 61758.6 32814.1 61486.6 32848.8 C 61502.6 32744.8 61502.6 32720.8 61502.6 32544.9 L 61502.6 32248.9 L 61073.4 32248.9 L 61073.4 32712.8 C 61150.7 32731.5 61185.4 32752.8 61185.4 32779.5 C 61185.4 32806.1 61113.4 32822.1 60878.8 32843.5 C 60889.4 32731.5 60892.1 32678.2 60892.1 32576.9 L 60892.1 32248.9 L 60484.2 32248.9 C 60398.9 32310.3 60372.2 32326.3 60278.9 32376.9 C 60286.9 32248.9 60292.3 31891.7 60292.3 31518.5 C 60292.3 31158.5 60284.3 30740 60273.6 30497.4 C 60276.3 30468 60289.6 30457.4 60326.9 30457.4 C 60329.6 30457.4 60332.3 30457.4 60334.9 30457.4 C 60345.6 30457.4 60358.9 30460 60377.6 30460 C 60452.2 30460 60473.5 30470.7 60484.2 30505.4 L 60484.2 30644 L 62142.5 30644 Z M 62142.5 30705.3 L 61691.9 30705.3 L 61691.9 31449.1 L 62142.5 31449.1 L 62142.5 30705.3 Z M 62142.5 31510.5 L 61691.9 31510.5 L 61691.9 32187.6 L 62142.5 32187.6 L 62142.5 31510.5 Z M 61502.6 30705.3 L 61073.4 30705.3 L 61073.4 31449.1 L 61502.6 31449.1 L 61502.6 30705.3 Z M 61502.6 31510.5 L 61073.4 31510.5 L 61073.4 32187.6 L 61502.6 32187.6 L 61502.6 31510.5 Z M 60892.1 30705.3 L 60484.2 30705.3 L 60484.2 31449.1 L 60892.1 31449.1 L 60892.1 30705.3 Z M 60892.1 31510.5 L 60484.2 31510.5 L 60484.2 32187.6 L 60892.1 32187.6 L 60892.1 31510.5 " fill="#2e67b5"/>
<path transform="matrix(.00359712,0,0,-.00359712,0,147)" d="M 63194.5 31094.6 C 63194.5 30945.3 63189.2 30716 63178.5 30484 C 63181.2 30460 63189.2 30449.4 63215.9 30449.4 C 63258.5 30449.4 63325.2 30460 63341.2 30468 C 63354.5 30476 63359.8 30484 63359.8 30505.4 C 63354.5 30772 63354.5 30780 63354.5 31123.9 L 63354.5 31659.8 C 63482.5 31686.4 63482.5 31686.4 63597.1 31713.1 C 63615.8 31654.4 63626.4 31619.8 63637.1 31574.4 C 63645.1 31539.8 63658.4 31523.8 63677.1 31523.8 C 63719.7 31523.8 63767.7 31614.4 63767.7 31694.4 C 63767.7 31734.4 63749.1 31777.1 63709.1 31822.4 C 63634.4 31907.7 63557.1 31979.7 63466.5 32049 L 63439.8 32022.3 C 63514.5 31907.7 63541.1 31859.7 63581.1 31761.1 C 63407.8 31745.1 63397.2 31745.1 63109.2 31731.7 C 63335.8 32003.7 63437.1 32134.3 63637.1 32419.6 C 63727.7 32422.2 63754.4 32432.9 63754.4 32456.9 C 63754.4 32483.5 63711.7 32504.9 63495.8 32582.2 C 63447.8 32446.2 63362.5 32267.6 63250.5 32067.7 C 63181.2 31947.7 63135.9 31873 63034.6 31729.1 C 62930.6 31726.4 62930.6 31726.4 62906.6 31726.4 C 62869.3 31726.4 62842.6 31729.1 62784 31734.4 C 62821.3 31531.8 62834.6 31491.8 62861.3 31491.8 C 62879.9 31491.8 62890.6 31510.5 62911.9 31587.8 C 63109.2 31617.1 63109.2 31617.1 63194.5 31633.1 L 63194.5 31094.6 Z M 62802.6 32446.2 C 62914.6 32320.9 62989.3 32206.3 63029.2 32107.6 C 63066.6 32001 63069.2 31998.3 63095.9 31998.3 C 63133.2 31998.3 63173.2 32083.7 63173.2 32161 C 63173.2 32222.3 63143.9 32262.3 63039.9 32336.9 C 63159.9 32478.2 63205.2 32539.5 63349.2 32760.8 C 63359.8 32758.2 63375.8 32758.2 63378.5 32758.2 C 63450.5 32758.2 63479.8 32768.8 63479.8 32790.1 C 63479.8 32819.5 63479.8 32819.5 63194.5 32920.8 C 63175.9 32800.8 63095.9 32571.5 62999.9 32366.3 C 62935.9 32411.6 62911.9 32427.6 62829.3 32478.2 L 62802.6 32446.2 Z M 64287.6 32624.8 C 64367.6 32688.8 64388.9 32707.5 64471.5 32798.1 C 64559.5 32803.5 64580.9 32811.5 64580.9 32835.5 C 64580.9 32859.5 64551.5 32870.1 64314.3 32936.8 C 64298.3 32838.1 64263.6 32715.5 64223.6 32624.8 L 64050.3 32624.8 C 63973 32675.5 63946.3 32691.5 63861 32739.5 C 63866.4 32632.8 63869 32387.6 63869 32179.6 C 63869 32030.3 63869 32030.3 63861 31713.1 C 63863.7 31689.1 63871.7 31683.8 63893 31683.8 C 63927.7 31683.8 63986.3 31691.8 64005 31699.8 C 64021 31705.1 64026.3 31713.1 64026.3 31734.4 L 64026.3 31806.4 L 64314.3 31806.4 L 64314.3 30718.7 C 64314.3 30692 64308.9 30684 64282.3 30684 C 64119.6 30689.3 64063.7 30692 63885 30708 L 63885 30668 C 64098.3 30617.3 64098.3 30617.3 64127.6 30601.3 C 64183.6 30572 64205 30542.7 64213 30478.7 C 64439.6 30524 64484.9 30556 64484.9 30668 C 64476.9 30862.6 64476.9 30947.9 64474.2 31035.9 C 64474.2 31129.2 64474.2 31190.5 64471.5 31209.2 L 64458.2 31635.8 C 64514.2 31395.8 64570.2 31257.2 64682.2 31070.6 C 64799.5 30878.6 64903.4 30764 65098.1 30609.3 C 65135.4 30697.3 65178 30732 65268.7 30748 L 65279.4 30788 C 65146 30841.3 65050.1 30897.3 64916.8 31006.6 C 64815.5 31086.6 64748.8 31155.9 64682.2 31254.5 C 64852.8 31337.2 64908.8 31374.5 65047.4 31483.8 C 65066.1 31481.1 65084.7 31481.1 65090.1 31481.1 C 65151.4 31481.1 65172.7 31489.1 65172.7 31507.8 C 65172.7 31534.5 65151.4 31545.1 64940.8 31654.4 C 64852.8 31507.8 64767.5 31403.8 64652.8 31299.8 C 64543.5 31478.5 64506.2 31582.4 64474.2 31806.4 L 64762.1 31806.4 L 64762.1 31721.1 C 64762.1 31697.1 64772.8 31689.1 64796.8 31689.1 C 64895.5 31689.1 64940.8 31705.1 64940.8 31737.1 C 64940.8 31739.7 64940.8 31742.4 64940.8 31745.1 C 64930.1 31953 64927.4 32038.3 64927.4 32193 L 64930.1 32520.9 C 64991.4 32552.9 65015.4 32571.5 65015.4 32590.2 C 65015.4 32603.5 65004.8 32616.8 64980.8 32638.2 C 64924.8 32680.8 64906.1 32694.2 64842.1 32739.5 C 64794.1 32691.5 64780.8 32675.5 64735.5 32624.8 L 64287.6 32624.8 Z M 64026.3 32262.3 L 64026.3 32563.5 L 64762.1 32563.5 L 64762.1 32262.3 L 64026.3 32262.3 Z M 64762.1 32201 L 64762.1 31867.7 L 64026.3 31867.7 L 64026.3 32201 L 64762.1 32201 Z M 62773.3 30566.7 C 62903.9 30785.3 62983.9 30990.6 63053.2 31297.2 C 63125.2 31307.8 63143.9 31318.5 63143.9 31339.8 C 63143.9 31366.5 63111.9 31377.2 62909.3 31427.8 C 62906.6 31329.2 62898.6 31259.9 62866.6 31086.6 C 62832 30897.3 62805.3 30790.6 62733.3 30582.7 L 62773.3 30566.7 Z M 63423.8 31441.1 C 63495.8 31267.8 63525.1 31169.2 63554.4 30987.9 C 63567.8 30905.3 63573.1 30894.6 63591.8 30894.6 C 63631.8 30894.6 63695.8 31001.3 63695.8 31067.9 C 63695.8 31145.2 63610.4 31281.2 63453.1 31451.8 L 63423.8 31441.1 Z M 63818.4 31451.8 C 63765.1 31451.8 63733.1 31454.5 63661.1 31470.5 L 63677.1 31374.5 C 63719.7 31385.2 63775.7 31390.5 63834.4 31390.5 L 64029 31390.5 C 63973 31222.5 63927.7 31131.9 63823.7 30982.6 C 63719.7 30828 63639.8 30742.6 63495.8 30622.7 L 63522.5 30582.7 C 63682.4 30684 63770.4 30756 63879.7 30876 C 64015.7 31017.3 64095.6 31142.5 64191.6 31345.2 C 64239.6 31358.5 64263.6 31371.8 64263.6 31385.2 C 64263.6 31395.8 64258.3 31403.8 64231.6 31433.1 C 64178.3 31483.8 64159.6 31497.1 64103.6 31542.5 C 64066.3 31505.1 64053 31494.5 64018.3 31451.8 L 63818.4 31451.8 " fill="#2e67b5"/>
<path transform="matrix(.00359712,0,0,-.00359712,0,147)" stroke-width="332.357" stroke-linecap="butt" stroke-miterlimit="10" stroke-linejoin="miter" fill="none" stroke="#610b0b" d="M 14957.8 31672.2 L 53571.6 9607.38 "/>
<path transform="matrix(.00359712,0,0,-.00359712,0,147)" d="M 55884.7 10407.9 L 55100.9 10407.9 C 55100.9 10455.9 55100.9 10469.2 55095.6 10522.5 L 55055.6 10522.5 C 55034.2 10407.9 55020.9 10362.6 54994.3 10303.9 C 54962.3 10242.6 54908.9 10183.9 54861 10157.3 C 54821 10136 54810.3 10120 54810.3 10085.3 C 54810.3 10056 54823.6 9997.33 54837 9965.33 C 54847.6 9938.67 54869 9922.67 54890.3 9922.67 C 54930.3 9922.67 54975.6 9960 55012.9 10024 C 55052.9 10090.6 55082.2 10207.9 55098.2 10346.6 L 55884.7 10346.6 L 55884.7 10167.9 C 55884.7 9999.98 55879.4 9850.69 55874 9709.39 C 55874 9685.39 55887.4 9677.41 55919.4 9677.41 C 56050 9685.39 56060.7 9688.06 56066 9730.72 C 56058 9970.66 56058 10053.3 56058 10199.9 L 56058 10346.6 L 56903.1 10346.6 C 56892.5 10245.3 56887.1 10207.9 56860.5 10080 L 56887.1 10072 C 56951.1 10141.3 56951.1 10141.3 57076.4 10287.9 C 57193.7 10303.9 57193.7 10303.9 57215 10317.2 C 57220.4 10319.9 57225.7 10327.9 57225.7 10333.2 C 57225.7 10341.2 57217.7 10351.9 57199 10365.2 C 57105.7 10442.5 57076.4 10463.9 56977.8 10538.5 C 56924.4 10482.5 56908.4 10463.9 56860.5 10407.9 L 56058 10407.9 L 56058 10621.2 L 56919.1 10621.2 C 56929.8 10621.2 56948.4 10637.2 56948.4 10647.8 C 56948.4 10650.5 56940.4 10661.2 56932.4 10671.8 C 56825.8 10757.1 56793.8 10781.1 56692.5 10861.1 C 56620.5 10783.8 56599.2 10759.8 56532.5 10682.5 L 55354.2 10682.5 C 55239.5 10682.5 55154.2 10687.8 55047.6 10701.1 L 55060.9 10610.5 C 55223.5 10621.2 55247.5 10621.2 55354.2 10621.2 L 55884.7 10621.2 L 55884.7 10407.9 Z M 57151 9509.44 C 57164.4 9509.44 57183 9520.11 57183 9530.77 C 57183 9536.09 57177.7 9546.77 57169.7 9554.77 C 57071.1 9637.41 57039.1 9661.41 56937.8 9733.39 C 56873.8 9666.73 56855.1 9642.73 56788.5 9570.77 L 55156.9 9570.77 C 55002.3 9570.77 54908.9 9576.09 54807.6 9589.42 L 54821 9496.11 C 54853 9498.78 54964.9 9504.11 55156.9 9509.44 L 55844.7 9509.44 C 55820.7 9421.47 55804.7 9381.47 55751.4 9296.16 L 55292.8 9296.16 C 55202.2 9349.48 55172.9 9365.47 55079.6 9410.8 C 55087.6 9338.81 55092.9 9160.19 55092.9 8944.25 C 55092.9 8762.95 55090.2 8520.36 55084.9 8437.7 C 55090.2 8416.38 55103.6 8405.72 55127.5 8405.72 C 55162.2 8405.72 55228.9 8413.72 55242.2 8421.7 C 55255.5 8427.05 55260.9 8435.05 55263.5 8453.7 L 55263.5 9234.84 L 55612.8 9234.84 L 55612.8 8944.25 C 55610.1 8603 55610.1 8603 55607.4 8485.69 C 55615.4 8467.03 55626.1 8461.7 55658.1 8461.7 C 55754.1 8461.7 55780.7 8469.7 55786.1 8501.69 C 55783.4 8632.33 55783.4 8632.33 55783.4 8962.91 L 55783.4 9234.84 L 56130 9234.84 L 56130 8970.91 C 56130 8805.61 56127.3 8619 56122 8488.36 C 56127.3 8467.03 56138 8461.7 56164.6 8461.7 C 56257.9 8461.7 56287.3 8472.36 56295.3 8504.36 C 56292.6 8592.33 56292.6 8592.33 56289.9 8981.58 L 56289.9 9234.84 L 56703.2 9234.84 L 56703.2 8661.66 C 56703.2 8640.33 56697.8 8634.98 56671.2 8632.33 C 56532.5 8637.66 56487.2 8637.66 56375.3 8645.66 L 56375.3 8613.66 C 56551.2 8568.34 56601.9 8531.02 56623.2 8432.38 C 56820.5 8461.7 56868.5 8499.03 56881.8 8632.33 C 56879.1 8754.95 56879.1 8813.61 56879.1 8898.92 L 56879.1 9197.52 C 56940.4 9229.52 56959.1 9242.84 56959.1 9264.17 C 56959.1 9274.83 56951.1 9282.83 56932.4 9296.16 C 56868.5 9346.81 56847.1 9362.81 56775.1 9410.8 C 56729.8 9362.81 56716.5 9346.81 56671.2 9296.16 L 55820.7 9296.16 C 55906 9349.48 55914 9354.81 56084.7 9509.44 L 57151 9509.44 Z M 55159.5 10061.3 C 55223.5 10069.3 55252.9 10072 55308.8 10072 L 55751.4 10072 C 55764.7 10072 55778.1 10082.6 55778.1 10093.3 C 55778.1 10096 55772.7 10109.3 55767.4 10117.3 C 55692.8 10186.6 55668.8 10207.9 55599.4 10269.3 C 55538.1 10213.3 55519.5 10194.6 55463.5 10133.3 L 55308.8 10133.3 C 55268.8 10133.3 55220.9 10138.6 55146.2 10149.3 L 55159.5 10061.3 Z M 56156.6 10064 C 56226 10069.3 56257.9 10072 56305.9 10072 L 56793.8 10072 C 56809.8 10072 56823.1 10080 56823.1 10090.6 C 56823.1 10096 56817.8 10106.6 56809.8 10114.6 C 56737.8 10186.6 56713.8 10207.9 56636.5 10271.9 C 56580.5 10213.3 56564.5 10194.6 56511.2 10133.3 L 56305.9 10133.3 C 56249.9 10133.3 56249.9 10133.3 56146 10149.3 L 56156.6 10064 Z M 56159.3 9778.7 C 56255.3 9784.05 56284.6 9786.7 56319.3 9786.7 L 56879.1 9786.7 C 56903.1 9786.7 56919.1 9794.7 56919.1 9808.03 C 56919.1 9813.36 56913.8 9818.7 56905.8 9829.36 C 56817.8 9904.02 56788.5 9925.34 56703.2 9994.66 C 56649.8 9933.34 56631.2 9912.02 56580.5 9848.03 L 56319.3 9848.03 C 56247.3 9848.03 56247.3 9848.03 56196.6 9856.02 C 56186 9856.02 56167.3 9858.69 56146 9861.36 L 56159.3 9778.7 Z M 55055.6 9778.7 C 55124.9 9786.7 55151.5 9786.7 55223.5 9786.7 L 55756.7 9786.7 C 55788.7 9786.7 55799.4 9792.03 55799.4 9802.7 C 55799.4 9808.03 55794 9818.7 55783.4 9829.36 C 55708.7 9901.34 55684.8 9922.67 55612.8 9986.66 C 55548.8 9925.34 55527.5 9906.67 55466.1 9848.03 L 55223.5 9848.03 C 55154.2 9848.03 55095.6 9853.36 55039.6 9866.69 L 55055.6 9778.7 " fill="#610b0b"/>
<path transform="matrix(.00359712,0,0,-.00359712,0,147)" d="M 59856 9325.48 C 59872 9325.48 59882.7 9330.81 59882.7 9341.48 C 59882.7 9346.81 59877.4 9354.81 59866.7 9368.14 C 59773.4 9453.45 59741.4 9480.11 59637.4 9562.77 C 59565.5 9490.78 59544.1 9469.45 59472.1 9386.8 L 58427.1 9386.8 C 58467 9445.45 58480.4 9466.78 58536.4 9554.77 C 58619 9565.42 58645.7 9576.09 58645.7 9594.75 C 58645.7 9610.75 58624.3 9621.41 58408.4 9685.39 C 58379.1 9613.42 58341.8 9549.44 58232.4 9386.8 L 57672.6 9386.8 C 57555.3 9386.8 57515.3 9392.14 57435.3 9416.13 L 57451.3 9312.16 C 57499.3 9322.83 57499.3 9322.83 57669.9 9325.48 L 58189.8 9325.48 C 58096.5 9194.86 58045.8 9130.88 57880.5 8928.25 C 57853.9 8896.27 57851.2 8893.59 57851.2 8885.59 C 57851.2 8882.92 57853.9 8877.59 57859.2 8874.94 C 57872.5 8866.94 57965.8 8848.27 57992.5 8848.27 C 58005.8 8848.27 58016.5 8853.61 58029.8 8869.59 C 58075.1 8920.25 58088.5 8936.25 58120.5 8973.58 C 58317.8 8941.58 58395.1 8922.92 58587 8864.27 C 58459 8765.63 58336.4 8693.64 58192.5 8632.33 C 57987.2 8547.02 57811.2 8504.36 57470 8453.7 L 57470 8408.38 C 57760.6 8413.72 57952.5 8443.03 58203.1 8520.36 C 58421.7 8587 58576.4 8669.64 58749.7 8810.95 C 59008.3 8714.97 59162.9 8640.33 59373.5 8509.69 C 59528.1 8413.72 59538.8 8405.72 59557.5 8405.72 C 59584.1 8405.72 59602.8 8432.38 59602.8 8469.7 C 59602.8 8547.02 59541.5 8650.98 59469.5 8693.64 C 59392.2 8738.97 59130.9 8824.28 58851 8898.92 C 58997.6 9040.22 59061.6 9122.88 59178.9 9325.48 L 59856 9325.48 Z M 58976.3 9325.48 C 58883 9149.53 58819 9069.55 58677.7 8938.92 C 58536.4 8965.58 58443.1 8981.58 58157.8 9018.89 C 58243.1 9125.53 58291.1 9192.19 58384.4 9325.48 L 58976.3 9325.48 Z M 58994.9 10610.5 L 59829.4 10610.5 C 59840 10610.5 59848 10618.5 59848 10626.5 C 59848 10631.8 59840 10642.5 59832 10653.2 C 59730.7 10735.8 59698.8 10762.5 59594.8 10839.8 C 59528.1 10770.5 59506.8 10749.1 59437.5 10671.8 L 57712.6 10671.8 C 57605.9 10671.8 57547.3 10679.8 57480.6 10698.5 L 57496.6 10594.5 C 57560.6 10605.2 57632.6 10610.5 57685.9 10610.5 L 58280.4 10610.5 L 58280.4 10271.9 L 57915.2 10271.9 C 57819.2 10319.9 57789.9 10335.9 57699.2 10373.2 C 57699.2 10319.9 57699.2 10266.6 57701.9 10210.6 C 57704.6 10040 57704.6 10040 57704.6 9957.33 C 57704.6 9858.69 57704.6 9776.05 57699.2 9613.42 C 57699.2 9592.09 57709.9 9584.09 57733.9 9584.09 C 57851.2 9584.09 57872.5 9592.09 57872.5 9626.75 L 57872.5 9698.73 L 59416.2 9698.73 L 59416.2 9613.42 C 59416.2 9589.42 59426.8 9578.75 59453.5 9578.75 C 59568.1 9578.75 59600.1 9586.75 59600.1 9618.75 C 59600.1 9618.75 59600.1 9624.08 59600.1 9626.75 C 59589.4 9778.7 59589.4 9778.7 59586.8 10170.6 C 59658.8 10213.3 59666.8 10221.3 59666.8 10237.3 C 59666.8 10245.3 59661.4 10253.3 59640.1 10271.9 C 59576.1 10322.6 59557.5 10338.6 59493.5 10386.6 C 59448.1 10338.6 59432.1 10322.6 59386.8 10271.9 L 58994.9 10271.9 L 58994.9 10610.5 Z M 58829.6 10610.5 L 58829.6 10271.9 L 58443.1 10271.9 L 58443.1 10610.5 L 58829.6 10610.5 Z M 58280.4 10210.6 L 58280.4 9760.05 L 57872.5 9760.05 L 57872.5 10210.6 L 58280.4 10210.6 Z M 58443.1 10210.6 L 58829.6 10210.6 L 58829.6 9760.05 L 58443.1 9760.05 L 58443.1 10210.6 Z M 58994.9 10210.6 L 59416.2 10210.6 L 59416.2 9760.05 L 58994.9 9760.05 L 58994.9 10210.6 " fill="#610b0b"/>
<path transform="matrix(.00359712,0,0,-.00359712,0,147)" d="M 62142.5 8579 L 62142.5 8440.38 C 62145.1 8413.72 62155.8 8408.38 62198.5 8408.38 C 62310.4 8408.38 62339.8 8419.05 62342.4 8461.7 C 62329.1 8725.64 62321.1 9242.84 62321.1 9714.72 L 62321.1 10056 C 62401.1 10098.6 62430.4 10122.6 62430.4 10144 C 62430.4 10154.6 62422.4 10165.3 62401.1 10183.9 C 62323.8 10239.9 62299.8 10258.6 62219.8 10311.9 C 62171.8 10258.6 62155.8 10242.6 62107.8 10183.9 L 61691.9 10183.9 L 61691.9 10647.8 C 61766.6 10671.8 61795.9 10690.5 61795.9 10714.5 C 61795.9 10719.8 61790.6 10727.8 61782.6 10733.1 C 61758.6 10749.1 61758.6 10749.1 61486.6 10783.8 C 61502.6 10679.8 61502.6 10655.8 61502.6 10479.9 L 61502.6 10183.9 L 61073.4 10183.9 L 61073.4 10647.8 C 61150.7 10666.5 61185.4 10687.8 61185.4 10714.5 C 61185.4 10741.1 61113.4 10757.1 60878.8 10778.5 C 60889.4 10666.5 60892.1 10613.2 60892.1 10511.9 L 60892.1 10183.9 L 60484.2 10183.9 C 60398.9 10245.3 60372.2 10261.3 60278.9 10311.9 C 60286.9 10183.9 60292.3 9826.7 60292.3 9453.45 C 60292.3 9093.55 60284.3 8674.98 60273.6 8432.38 C 60276.3 8403.05 60289.6 8392.39 60326.9 8392.39 C 60329.6 8392.39 60332.3 8392.39 60334.9 8392.39 C 60345.6 8392.39 60358.9 8395.05 60377.6 8395.05 C 60452.2 8395.05 60473.5 8405.72 60484.2 8440.38 L 60484.2 8579 L 62142.5 8579 Z M 62142.5 8640.33 L 61691.9 8640.33 L 61691.9 9384.14 L 62142.5 9384.14 L 62142.5 8640.33 Z M 62142.5 9445.45 L 61691.9 9445.45 L 61691.9 10122.6 L 62142.5 10122.6 L 62142.5 9445.45 Z M 61502.6 8640.33 L 61073.4 8640.33 L 61073.4 9384.14 L 61502.6 9384.14 L 61502.6 8640.33 Z M 61502.6 9445.45 L 61073.4 9445.45 L 61073.4 10122.6 L 61502.6 10122.6 L 61502.6 9445.45 Z M 60892.1 8640.33 L 60484.2 8640.33 L 60484.2 9384.14 L 60892.1 9384.14 L 60892.1 8640.33 Z M 60892.1 9445.45 L 60484.2 9445.45 L 60484.2 10122.6 L 60892.1 10122.6 L 60892.1 9445.45 " fill="#610b0b"/>
<path transform="matrix(.00359712,0,0,-.00359712,0,147)" d="M 63194.5 9029.56 C 63194.5 8880.27 63189.2 8650.98 63178.5 8419.05 C 63181.2 8395.05 63189.2 8384.39 63215.9 8384.39 C 63258.5 8384.39 63325.2 8395.05 63341.2 8403.05 C 63354.5 8411.05 63359.8 8419.05 63359.8 8440.38 C 63354.5 8706.97 63354.5 8714.97 63354.5 9058.89 L 63354.5 9594.75 C 63482.5 9621.41 63482.5 9621.41 63597.1 9648.08 C 63615.8 9589.42 63626.4 9554.77 63637.1 9509.44 C 63645.1 9474.78 63658.4 9458.78 63677.1 9458.78 C 63719.7 9458.78 63767.7 9549.44 63767.7 9629.41 C 63767.7 9669.41 63749.1 9712.06 63709.1 9757.38 C 63634.4 9842.69 63557.1 9914.67 63466.5 9983.98 L 63439.8 9957.33 C 63514.5 9842.69 63541.1 9794.7 63581.1 9696.06 C 63407.8 9680.06 63397.2 9680.06 63109.2 9666.73 C 63335.8 9938.67 63437.1 10069.3 63637.1 10354.6 C 63727.7 10357.2 63754.4 10367.9 63754.4 10391.9 C 63754.4 10418.5 63711.7 10439.9 63495.8 10517.2 C 63447.8 10381.2 63362.5 10202.6 63250.5 10002.7 C 63181.2 9882.69 63135.9 9808.03 63034.6 9664.06 C 62930.6 9661.41 62930.6 9661.41 62906.6 9661.41 C 62869.3 9661.41 62842.6 9664.06 62784 9669.41 C 62821.3 9466.78 62834.6 9426.8 62861.3 9426.8 C 62879.9 9426.8 62890.6 9445.45 62911.9 9522.77 C 63109.2 9552.09 63109.2 9552.09 63194.5 9568.09 L 63194.5 9029.56 Z M 62802.6 10381.2 C 62914.6 10255.9 62989.3 10141.3 63029.2 10042.6 C 63066.6 9936 63069.2 9933.34 63095.9 9933.34 C 63133.2 9933.34 63173.2 10018.7 63173.2 10096 C 63173.2 10157.3 63143.9 10197.3 63039.9 10271.9 C 63159.9 10413.2 63205.2 10474.5 63349.2 10695.8 C 63359.8 10693.2 63375.8 10693.2 63378.5 10693.2 C 63450.5 10693.2 63479.8 10703.8 63479.8 10725.1 C 63479.8 10754.5 63479.8 10754.5 63194.5 10855.8 C 63175.9 10735.8 63095.9 10506.5 62999.9 10301.3 C 62935.9 10346.6 62911.9 10362.6 62829.3 10413.2 L 62802.6 10381.2 Z M 64287.6 10559.8 C 64367.6 10623.8 64388.9 10642.5 64471.5 10733.1 C 64559.5 10738.5 64580.9 10746.5 64580.9 10770.5 C 64580.9 10794.5 64551.5 10805.1 64314.3 10871.8 C 64298.3 10773.1 64263.6 10650.5 64223.6 10559.8 L 64050.3 10559.8 C 63973 10610.5 63946.3 10626.5 63861 10674.5 C 63866.4 10567.8 63869 10322.6 63869 10114.6 C 63869 9965.33 63869 9965.33 63861 9648.08 C 63863.7 9624.08 63871.7 9618.75 63893 9618.75 C 63927.7 9618.75 63986.3 9626.75 64005 9634.75 C 64021 9640.08 64026.3 9648.08 64026.3 9669.41 L 64026.3 9741.39 L 64314.3 9741.39 L 64314.3 8653.66 C 64314.3 8626.98 64308.9 8619 64282.3 8619 C 64119.6 8624.33 64063.7 8626.98 63885 8642.98 L 63885 8603 C 64098.3 8552.34 64098.3 8552.34 64127.6 8536.34 C 64183.6 8507.02 64205 8477.7 64213 8413.72 C 64439.6 8459.03 64484.9 8491.03 64484.9 8603 C 64476.9 8797.61 64476.9 8882.92 64474.2 8970.91 C 64474.2 9064.22 64474.2 9125.53 64471.5 9144.2 L 64458.2 9570.77 C 64514.2 9330.81 64570.2 9192.19 64682.2 9005.56 C 64799.5 8813.61 64903.4 8698.97 65098.1 8544.34 C 65135.4 8632.33 65178 8666.98 65268.7 8682.98 L 65279.4 8722.97 C 65146 8776.28 65050.1 8832.28 64916.8 8941.58 C 64815.5 9021.56 64748.8 9090.88 64682.2 9189.52 C 64852.8 9272.17 64908.8 9309.48 65047.4 9418.8 C 65066.1 9416.13 65084.7 9416.13 65090.1 9416.13 C 65151.4 9416.13 65172.7 9424.13 65172.7 9442.8 C 65172.7 9469.45 65151.4 9480.11 64940.8 9589.42 C 64852.8 9442.8 64767.5 9338.81 64652.8 9234.84 C 64543.5 9413.47 64506.2 9517.44 64474.2 9741.39 L 64762.1 9741.39 L 64762.1 9656.08 C 64762.1 9632.08 64772.8 9624.08 64796.8 9624.08 C 64895.5 9624.08 64940.8 9640.08 64940.8 9672.06 C 64940.8 9674.73 64940.8 9677.41 64940.8 9680.06 C 64930.1 9888.02 64927.4 9973.33 64927.4 10128 L 64930.1 10455.9 C 64991.4 10487.9 65015.4 10506.5 65015.4 10525.2 C 65015.4 10538.5 65004.8 10551.8 64980.8 10573.2 C 64924.8 10615.8 64906.1 10629.2 64842.1 10674.5 C 64794.1 10626.5 64780.8 10610.5 64735.5 10559.8 L 64287.6 10559.8 Z M 64026.3 10197.3 L 64026.3 10498.5 L 64762.1 10498.5 L 64762.1 10197.3 L 64026.3 10197.3 Z M 64762.1 10136 L 64762.1 9802.7 L 64026.3 9802.7 L 64026.3 10136 L 64762.1 10136 Z M 62773.3 8501.69 C 62903.9 8720.3 62983.9 8925.58 63053.2 9232.17 C 63125.2 9242.84 63143.9 9253.5 63143.9 9274.83 C 63143.9 9301.5 63111.9 9312.16 62909.3 9362.81 C 62906.6 9264.17 62898.6 9194.86 62866.6 9021.56 C 62832 8832.28 62805.3 8725.64 62733.3 8517.69 L 62773.3 8501.69 Z M 63423.8 9376.14 C 63495.8 9202.84 63525.1 9104.2 63554.4 8922.92 C 63567.8 8840.27 63573.1 8829.61 63591.8 8829.61 C 63631.8 8829.61 63695.8 8936.25 63695.8 9002.91 C 63695.8 9080.22 63610.4 9216.19 63453.1 9386.8 L 63423.8 9376.14 Z M 63818.4 9386.8 C 63765.1 9386.8 63733.1 9389.47 63661.1 9405.47 L 63677.1 9309.48 C 63719.7 9320.16 63775.7 9325.48 63834.4 9325.48 L 64029 9325.48 C 63973 9157.53 63927.7 9066.89 63823.7 8917.59 C 63719.7 8762.95 63639.8 8677.64 63495.8 8557.67 L 63522.5 8517.69 C 63682.4 8619 63770.4 8690.97 63879.7 8810.95 C 64015.7 8952.25 64095.6 9077.55 64191.6 9280.17 C 64239.6 9293.5 64263.6 9306.83 64263.6 9320.16 C 64263.6 9330.81 64258.3 9338.81 64231.6 9368.14 C 64178.3 9418.8 64159.6 9432.13 64103.6 9477.45 C 64066.3 9440.13 64053 9429.45 64018.3 9386.8 L 63818.4 9386.8 " fill="#610b0b"/>
<path transform="matrix(.00359712,0,0,-.00359712,0,147)" stroke-width="110.783" stroke-linecap="butt" stroke-dasharray="110.783,553.929" stroke-miterlimit="10" stroke-linejoin="miter" fill="none" stroke="#000000" d="M 34265.1 20639.8 L 34265.1 4090.77 "/>
<path transform="matrix(.00359712,0,0,-.00359712,0,147)" d="M 26704.2 2233.3 L 26704.2 2827.83 C 26786.8 2851.81 26818.8 2870.48 26818.8 2894.47 C 26818.8 2918.47 26786.8 2929.14 26650.9 2942.47 C 26618.9 2945.13 26570.9 2950.47 26506.9 2958.45 C 26517.5 2817.16 26522.9 2745.17 26522.9 2622.55 L 26522.9 2233.3 L 26341.6 2233.3 C 26298.9 2233.3 26237.6 2241.3 26171 2257.3 L 26187 2153.33 C 26232.3 2163.98 26298.9 2171.98 26341.6 2171.98 L 26522.9 2171.98 L 26522.9 1308.2 C 26285.6 1236.22 26285.6 1236.22 26189.6 1214.89 C 26267 990.938 26290.9 934.953 26314.9 934.953 C 26338.9 934.953 26349.6 966.953 26362.9 1068.27 C 26813.5 1286.88 26954.8 1366.86 27136.1 1492.16 L 27120.1 1534.81 C 26920.1 1446.83 26842.8 1414.84 26704.2 1364.19 L 26704.2 2171.98 L 27098.7 2171.98 C 27010.8 2001.36 26976.1 1945.38 26874.8 1804.08 L 26906.8 1774.75 C 27048.1 1905.39 27114.7 1982.7 27229.4 2158.66 C 27282.7 2241.3 27322.7 2305.28 27365.3 2385.27 L 28263.8 2385.27 C 28263.8 2065.34 28261.1 1921.38 28247.8 1748.09 C 28226.5 1462.83 28183.8 1166.91 28141.2 1022.94 C 28098.5 878.969 28047.8 817.656 27970.5 817.656 C 27970.5 817.656 27967.9 817.656 27962.5 817.656 C 27959.9 817.656 27941.2 820.313 27911.9 820.313 C 27890.5 820.313 27754.6 836.313 27506.6 865.641 L 27501.3 817.656 C 27717.3 756.344 27762.6 740.344 27805.2 711.016 C 27858.5 679.016 27877.2 647.031 27887.9 569.719 C 28058.5 596.375 28133.2 631.031 28199.8 708.344 C 28285.1 812.328 28357.1 1041.59 28402.4 1366.86 C 28434.4 1606.8 28445.1 1780.08 28461.1 2315.95 C 28530.4 2355.94 28554.4 2371.94 28554.4 2395.94 C 28554.4 2406.59 28546.4 2419.92 28525.1 2438.59 C 28458.4 2494.58 28437.1 2513.23 28362.4 2571.89 C 28309.1 2518.56 28293.1 2499.91 28245.1 2446.58 L 27397.3 2446.58 C 27456 2561.22 27488 2638.53 27560 2830.48 C 27650.6 2841.16 27685.3 2854.48 27685.3 2881.14 C 27685.3 2905.14 27658.6 2913.14 27525.3 2947.8 C 27493.3 2955.8 27442.7 2969.13 27376 2985.13 C 27357.3 2854.48 27341.3 2790.5 27280 2606.55 C 27229.4 2451.92 27189.4 2355.94 27114.7 2203.98 L 27112.1 2206.64 C 27032.1 2286.63 27005.4 2310.63 26914.8 2387.94 C 26858.8 2321.28 26842.8 2299.95 26789.5 2233.3 L 26704.2 2233.3 Z M 28135.8 1625.45 C 27743.9 1476.16 27330.7 1358.86 27082.8 1329.53 C 27165.4 1084.25 27189.4 1028.27 27218.7 1028.27 C 27245.4 1028.27 27253.4 1054.92 27264 1161.56 C 27711.9 1340.19 27882.5 1420.17 28154.5 1585.47 L 28135.8 1625.45 Z M 27381.3 1948.05 C 27338.7 1948.05 27277.4 1956.05 27210.7 1972.03 L 27226.7 1868.06 C 27272 1878.72 27336 1886.72 27381.3 1886.72 L 27951.9 1886.72 C 27967.9 1886.72 27981.2 1892.06 27981.2 1900.05 C 27981.2 1905.39 27975.9 1913.39 27970.5 1921.38 C 27890.5 2001.36 27863.9 2025.36 27773.2 2105.34 C 27717.3 2036.02 27701.3 2014.69 27647.9 1948.05 L 27381.3 1948.05 "/>
<path transform="matrix(.00359712,0,0,-.00359712,0,147)" d="M 31014.1 2142.66 L 31304.7 2142.66 C 31323.4 2142.66 31331.4 2148 31331.4 2155.98 C 31331.4 2163.98 31326 2169.33 31315.4 2179.98 C 31230 2273.3 31203.4 2299.95 31110.1 2379.94 C 31043.4 2305.28 31022.1 2281.3 30958.1 2203.98 L 30552.9 2203.98 L 30552.9 2225.31 C 30592.9 2249.3 30608.9 2267.97 30608.9 2283.95 C 30608.9 2294.63 30598.2 2305.28 30576.9 2321.28 C 30526.2 2355.94 30510.2 2366.61 30456.9 2398.59 C 30424.9 2361.27 30414.3 2347.94 30379.6 2307.95 L 30091.7 2307.95 C 30158.3 2382.59 30171.6 2395.94 30304.9 2577.22 C 30328.9 2585.22 30347.6 2590.55 30360.9 2593.22 C 30376.9 2595.88 30390.3 2598.55 30398.3 2603.88 C 30411.6 2606.55 30419.6 2617.2 30419.6 2625.2 C 30419.6 2635.88 30414.3 2643.88 30395.6 2662.53 C 30336.9 2721.19 30318.3 2739.84 30251.6 2795.83 C 30201 2755.84 30185 2742.52 30137 2699.86 L 29923.7 2699.86 C 29950.4 2750.52 29963.7 2777.17 29998.3 2859.81 C 30089 2873.14 30107.7 2881.14 30107.7 2902.47 C 30107.7 2929.14 30054.3 2950.47 29835.7 2998.45 C 29790.4 2737.19 29606.5 2315.95 29427.8 2065.34 L 29465.1 2036.02 C 29515.8 2089.34 29529.1 2105.34 29566.5 2150.66 L 29566.5 1881.39 L 29561.1 1462.83 C 29561.1 1457.5 29561.1 1452.17 29561.1 1449.5 C 29561.1 1436.17 29569.1 1428.17 29585.1 1428.17 C 29673.1 1428.17 29713.1 1444.17 29713.1 1476.16 C 29713.1 1478.83 29713.1 1484.16 29713.1 1492.16 L 29713.1 1572.14 L 30403.6 1572.14 L 30403.6 1492.16 C 30403.6 1468.16 30411.6 1457.5 30432.9 1457.5 C 30459.6 1457.5 30528.9 1468.16 30542.2 1473.5 C 30555.5 1478.83 30560.9 1486.83 30560.9 1508.16 C 30552.9 1977.38 30552.9 1980.03 30552.9 2142.66 L 30838.1 2142.66 L 30838.1 817.656 C 30838.1 796.328 30830.1 788.328 30814.2 788.328 C 30808.8 788.328 30803.5 788.328 30798.2 788.328 C 30680.8 791 30662.2 793.656 30494.2 812.328 C 30488.9 900.297 30470.2 918.969 30350.3 977.609 C 30262.3 1017.61 30161 1060.27 30038.3 1102.92 C 30057 1153.58 30057 1153.58 30073 1204.22 L 30672.8 1204.22 C 30702.2 1204.22 30707.5 1206.89 30707.5 1217.56 C 30707.5 1222.89 30702.2 1233.55 30696.8 1246.88 C 30619.5 1313.53 30592.9 1332.19 30512.9 1398.84 C 30464.9 1342.86 30448.9 1324.2 30403.6 1265.55 L 30089 1265.55 C 30094.3 1302.88 30097 1318.86 30105 1393.52 C 30182.3 1417.5 30209 1433.5 30209 1446.83 C 30209 1465.5 30182.3 1473.5 30059.7 1481.48 L 29955.7 1492.16 C 29955.7 1470.83 29955.7 1454.83 29955.7 1446.83 C 29955.7 1377.52 29950.4 1332.19 29937 1265.55 L 29609.1 1265.55 C 29606.5 1265.55 29547.8 1270.88 29521.1 1270.88 C 29467.8 1276.2 29467.8 1276.2 29422.5 1292.2 L 29443.8 1188.23 C 29521.1 1201.56 29558.5 1204.22 29609.1 1204.22 L 29921 1204.22 C 29846.4 974.953 29662.4 801.656 29361.2 673.688 L 29379.8 633.703 C 29566.5 687.016 29670.4 732.344 29779.7 804.328 C 29891.7 881.641 29961 953.625 30017 1060.27 C 30193 934.953 30315.6 822.984 30392.9 716.344 C 30416.9 684.359 30424.9 676.359 30438.2 676.359 C 30462.2 676.359 30478.2 703.016 30488.9 767 C 30534.2 756.344 30534.2 756.344 30547.5 751 C 30627.5 732.344 30654.2 719.016 30688.8 684.359 C 30715.5 655.031 30726.2 636.359 30734.2 585.719 C 30864.8 609.703 30928.8 631.031 30971.4 663.031 C 31003.4 687.016 31014.1 708.344 31016.8 769.672 C 31014.1 1145.58 31014.1 1145.58 31014.1 1265.55 L 31014.1 2142.66 Z M 29686.4 2313.28 C 29785.1 2459.92 29835.7 2537.23 29891.7 2638.53 L 30150.3 2638.53 C 30086.3 2443.92 30070.3 2395.94 30027.7 2307.95 L 29697.1 2307.95 L 29686.4 2313.28 Z M 30403.6 1977.38 L 30118.3 1977.38 L 30118.3 2246.64 L 30403.6 2246.64 L 30403.6 1977.38 Z M 30403.6 1916.05 L 30403.6 1633.45 L 30118.3 1633.45 L 30118.3 1916.05 L 30403.6 1916.05 Z M 29713.1 1916.05 L 29966.4 1916.05 L 29966.4 1633.45 L 29713.1 1633.45 L 29713.1 1916.05 Z M 29713.1 1977.38 L 29713.1 2246.64 L 29966.4 2246.64 L 29966.4 1977.38 L 29713.1 1977.38 Z M 29099.9 1294.88 C 29099.9 1110.92 29099.9 1094.92 29097.2 918.969 C 29091.9 711.016 29091.9 711.016 29091.9 588.375 C 29099.9 564.391 29110.6 556.391 29134.6 556.391 C 29155.9 556.391 29238.5 567.047 29249.2 572.375 C 29267.9 577.719 29273.2 585.719 29273.2 601.703 C 29273.2 604.375 29273.2 607.047 29273.2 609.703 C 29273.2 655.031 29273.2 687.016 29273.2 713.688 L 29270.5 1324.2 L 29270.5 1798.75 C 29326.5 1814.73 29347.8 1828.08 29347.8 1844.06 C 29347.8 1865.39 29302.5 1881.39 29187.9 1900.05 C 29350.5 2102.67 29390.5 2161.33 29462.5 2307.95 C 29521.1 2307.95 29553.1 2321.28 29553.1 2342.61 C 29553.1 2363.94 29526.5 2379.94 29419.8 2417.27 C 29395.8 2425.25 29361.2 2438.59 29315.9 2457.25 C 29259.9 2307.95 29222.5 2222.64 29150.6 2084.02 C 29019.9 1841.41 28926.6 1705.44 28780 1550.81 L 28806.6 1521.48 C 28929.3 1609.45 28971.9 1652.11 29099.9 1798.75 L 29099.9 1294.88 Z M 28841.3 2246.64 C 29073.3 2403.92 29246.5 2574.55 29425.2 2819.83 C 29521.1 2825.16 29521.1 2825.16 29537.1 2833.16 C 29545.1 2838.48 29550.5 2846.48 29550.5 2857.16 C 29550.5 2865.16 29545.1 2875.81 29537.1 2881.14 C 29510.5 2899.81 29390.5 2950.47 29283.9 2987.78 C 29241.2 2875.81 29203.9 2806.5 29131.9 2691.86 C 29009.3 2491.91 28932 2385.27 28820 2267.97 L 28841.3 2246.64 Z M 30590.2 2649.2 C 30656.9 2662.53 30683.5 2665.2 30750.2 2665.2 L 31259.4 2665.2 C 31288.7 2665.2 31294 2667.86 31294 2683.86 C 31294 2689.19 31288.7 2697.19 31280.7 2707.86 C 31192.7 2793.17 31166.1 2819.83 31070.1 2902.47 L 30928.8 2726.52 L 30736.8 2726.52 C 30675.5 2726.52 30619.5 2734.52 30571.5 2747.84 L 30590.2 2649.2 "/>
<path transform="matrix(.00359712,0,0,-.00359712,0,147)" d="M 32588.7 2782.5 L 33009.9 2782.5 C 33020.6 2782.5 33028.6 2790.5 33028.6 2798.5 C 33028.6 2801.17 33023.3 2809.16 33015.3 2814.5 C 32919.3 2905.14 32887.3 2934.47 32788.7 3014.44 C 32727.3 2942.47 32708.7 2918.47 32644.7 2843.83 L 31684.9 2843.83 C 31626.3 2843.83 31541 2854.48 31482.3 2867.81 L 31498.3 2763.84 C 31578.3 2777.17 31618.3 2782.5 31668.9 2782.5 L 31751.6 2782.5 L 31751.6 1185.56 C 31636.9 1161.56 31594.3 1153.58 31482.3 1137.58 C 31514.3 1038.94 31554.3 918.969 31570.3 886.969 C 31581 868.313 31589 860.313 31599.6 860.313 C 31618.3 860.313 31628.9 876.313 31631.6 913.625 C 31634.3 926.953 31636.9 948.281 31639.6 972.281 C 32119.5 1158.91 32127.5 1164.23 32412.8 1297.53 L 32412.8 1214.89 C 32412.8 1084.25 32410.1 748.344 32407.4 620.375 C 32410.1 591.047 32423.4 585.719 32471.4 585.719 C 32570 585.719 32602 596.375 32607.4 628.375 C 32591.4 1217.56 32588.7 1308.2 32588.7 1401.52 L 32588.7 2782.5 Z M 32412.8 2782.5 L 32412.8 2315.95 L 31935.5 2315.95 L 31935.5 2782.5 L 32412.8 2782.5 Z M 32412.8 2254.63 L 32412.8 1814.73 L 31935.5 1814.73 L 31935.5 2254.63 L 32412.8 2254.63 Z M 32412.8 1753.42 L 32412.8 1353.52 C 32095.5 1265.55 32095.5 1265.55 31935.5 1225.55 L 31935.5 1753.42 L 32412.8 1753.42 Z M 32839.3 2571.89 C 32786 2571.89 32730 2579.89 32652.7 2598.55 L 32666 2499.91 C 32735.3 2510.56 32748.7 2510.56 32839.3 2510.56 L 32855.3 2510.56 C 32887.3 2028.02 32996.6 1644.11 33199.2 1289.53 C 33039.3 1033.59 32879.3 849.641 32639.4 647.031 L 32666 615.031 C 32908.6 759 33076.6 913.625 33276.5 1161.56 C 33428.5 937.625 33572.5 796.328 33833.7 617.703 C 33895 737.672 33929.7 767 34015 767 L 34028.3 804.328 C 33801.7 902.969 33681.8 982.953 33524.5 1134.91 C 33468.5 1188.23 33428.5 1233.55 33375.2 1297.53 C 33559.1 1582.8 33668.4 1884.06 33785.7 2441.25 C 33905.7 2497.23 33905.7 2497.23 33905.7 2515.91 C 33905.7 2526.56 33897.7 2537.23 33873.7 2555.89 C 33799.1 2617.2 33772.4 2635.88 33692.4 2697.19 C 33639.1 2643.88 33623.1 2627.88 33569.8 2571.89 L 32839.3 2571.89 Z M 33593.8 2510.56 C 33535.1 2060.02 33444.5 1745.42 33279.2 1430.84 C 33172.6 1593.47 33097.9 1756.09 33031.3 1958.7 C 32969.9 2148 32940.6 2275.95 32914 2510.56 L 33593.8 2510.56 "/>
<path transform="matrix(.00359712,0,0,-.00359712,0,147)" d="M 34555.2 1702.77 C 34611.2 1980.03 34611.2 1980.03 34653.8 2222.64 L 35176.4 2222.64 L 35176.4 2052.02 C 35176.4 2030.69 35187 2022.69 35213.7 2022.69 C 35323 2022.69 35349.7 2033.36 35355 2073.34 C 35352.3 2283.95 35349.7 2411.92 35349.7 2534.56 C 35349.7 2593.22 35349.7 2643.88 35349.7 2729.19 C 35435 2777.17 35451 2787.83 35451 2803.83 C 35451 2811.83 35445.7 2822.5 35429.7 2841.16 C 35363 2894.47 35341.7 2913.14 35269.7 2971.78 C 35221.7 2921.14 35205.7 2905.14 35163.1 2851.81 L 34589.9 2851.81 C 34507.2 2851.81 34421.9 2859.81 34355.3 2875.81 L 34376.6 2769.17 C 34461.9 2785.17 34507.2 2790.5 34589.9 2790.5 L 35176.4 2790.5 L 35176.4 2283.95 L 34680.5 2283.95 C 34608.5 2345.28 34584.5 2363.94 34504.5 2425.25 C 34472.6 2113.33 34411.3 1785.42 34331.3 1489.48 C 34325.9 1478.83 34323.3 1468.16 34323.3 1462.83 C 34323.3 1454.83 34328.6 1446.83 34339.3 1441.5 C 34349.9 1436.17 34416.6 1428.17 34453.9 1428.17 C 34483.2 1428.17 34496.6 1436.17 34504.5 1462.83 C 34523.2 1548.14 34531.2 1580.13 34541.9 1641.45 L 35176.4 1641.45 C 35168.4 1497.48 35163.1 1438.83 35147.1 1332.19 C 35123.1 1174.91 35085.8 1001.61 35064.4 937.625 C 35037.8 868.313 35016.4 846.984 34971.1 846.984 C 34925.8 846.984 34739.2 865.641 34387.3 902.969 L 34387.3 854.984 C 34792.5 772.328 34792.5 772.328 34811.1 612.375 C 35048.4 636.359 35131.1 676.359 35187 791 C 35256.4 926.953 35309.7 1185.56 35344.3 1564.14 C 35432.3 1601.45 35451 1612.13 35451 1630.78 C 35451 1641.45 35445.7 1649.45 35427 1670.78 C 35360.3 1732.09 35339 1750.75 35269.7 1809.41 C 35229.7 1772.08 35192.4 1734.77 35157.7 1702.77 L 34555.2 1702.77 Z M 36024.2 641.703 C 36029.5 623.031 36037.5 615.031 36058.8 615.031 C 36098.8 615.031 36160.1 623.031 36192.1 631.031 C 36213.5 636.359 36221.5 644.359 36224.1 671.031 C 36216.1 1044.27 36216.1 1044.27 36216.1 2835.83 C 36280.1 2851.81 36314.8 2873.14 36314.8 2897.14 C 36314.8 2902.47 36306.8 2910.47 36296.1 2915.8 C 36261.5 2929.14 36245.5 2931.8 36018.8 2950.47 C 36032.2 2766.5 36034.8 2481.25 36034.8 1300.2 L 36024.2 641.703 "/>
<path transform="matrix(.00359712,0,0,-.00359712,0,147)" d="M 38108 1217.56 L 38657.2 1217.56 L 38657.2 1190.89 C 38659.9 1172.23 38665.2 1166.91 38681.2 1166.91 C 38721.2 1166.91 38801.2 1177.56 38817.1 1182.89 C 38830.5 1188.23 38835.8 1198.89 38835.8 1209.56 C 38835.8 1212.22 38835.8 1212.22 38835.8 1214.89 C 38833.1 1353.52 38833.1 1396.17 38833.1 1542.81 L 38833.1 1742.77 C 38894.5 1782.75 38910.5 1796.08 38910.5 1814.73 C 38910.5 1822.73 38902.5 1833.41 38881.1 1849.41 C 38835.8 1884.06 38785.2 1918.72 38734.5 1956.05 C 38689.2 1910.72 38678.5 1894.72 38635.9 1849.41 L 37449.5 1849.41 C 37372.2 1897.39 37348.2 1910.72 37265.5 1956.05 C 37270.9 1860.06 37273.5 1793.41 37273.5 1673.44 C 37273.5 1476.16 37270.9 1305.53 37265.5 1137.58 C 37265.5 1116.25 37270.9 1110.92 37294.9 1110.92 C 37342.8 1110.92 37398.8 1116.25 37417.5 1121.58 C 37433.5 1126.91 37438.8 1134.91 37438.8 1153.58 L 37438.8 1217.56 L 37945.4 1217.56 L 37945.4 1020.27 L 37342.8 1020.27 C 37212.2 1020.27 37174.9 1022.94 37084.2 1044.27 L 37100.2 942.953 C 37182.9 956.281 37238.9 958.953 37342.8 958.953 L 37945.4 958.953 L 37945.4 735.016 L 37134.9 735.016 C 37006.9 735.016 36950.9 740.344 36847 761.672 L 36865.6 655.031 C 36942.9 668.359 37012.3 673.688 37134.9 673.688 L 39267.7 673.688 C 39283.7 673.688 39291.7 679.016 39291.7 687.016 C 39291.7 692.359 39289 697.688 39281 705.688 C 39177.1 785.656 39142.4 812.328 39035.8 894.969 L 38881.1 735.016 L 38108 735.016 L 38108 958.953 L 39051.8 958.953 C 39067.8 958.953 39078.4 964.281 39078.4 974.953 C 39078.4 977.609 39075.8 982.953 39065.1 993.609 C 38974.4 1068.27 38947.8 1089.59 38854.5 1161.56 C 38795.8 1102.92 38774.5 1081.59 38715.8 1020.27 L 38108 1020.27 L 38108 1217.56 Z M 38108 1278.88 L 38108 1510.81 L 38657.2 1510.81 L 38657.2 1278.88 L 38108 1278.88 Z M 37945.4 1278.88 L 37438.8 1278.88 L 37438.8 1510.81 L 37945.4 1510.81 L 37945.4 1278.88 Z M 38108 1572.14 L 38108 1788.08 L 38657.2 1788.08 L 38657.2 1572.14 L 38108 1572.14 Z M 37945.4 1572.14 L 37438.8 1572.14 L 37438.8 1788.08 L 37945.4 1788.08 L 37945.4 1572.14 Z M 37425.5 2270.63 L 38689.2 2270.63 L 38689.2 2209.31 C 38689.2 2206.64 38689.2 2201.31 38689.2 2201.31 C 38689.2 2182.66 38694.5 2179.98 38726.5 2179.98 C 38819.8 2179.98 38859.8 2190.66 38859.8 2211.98 C 38859.8 2214.64 38859.8 2217.31 38859.8 2217.31 C 38854.5 2350.61 38854.5 2409.27 38854.5 2489.23 L 38857.1 2761.17 C 38934.5 2809.16 38947.8 2819.83 38947.8 2835.83 C 38947.8 2841.16 38942.5 2849.16 38926.5 2865.16 C 38859.8 2915.8 38838.5 2931.8 38769.2 2979.78 C 38734.5 2942.47 38699.8 2902.47 38667.8 2865.16 L 37449.5 2865.16 C 37364.2 2918.47 37334.8 2934.47 37246.9 2979.78 C 37254.9 2737.19 37254.9 2731.84 37254.9 2617.2 C 37254.9 2513.23 37254.9 2502.58 37249.5 2203.98 C 37249.5 2201.31 37249.5 2198.64 37249.5 2198.64 C 37249.5 2171.98 37254.9 2169.33 37292.2 2169.33 C 37396.2 2169.33 37425.5 2177.31 37425.5 2203.98 C 37425.5 2203.98 37425.5 2206.64 37425.5 2209.31 L 37425.5 2270.63 Z M 38689.2 2603.88 L 37425.5 2603.88 L 37425.5 2803.83 L 38689.2 2803.83 L 38689.2 2603.88 Z M 38689.2 2542.56 L 38689.2 2331.95 L 37425.5 2331.95 L 37425.5 2542.56 L 38689.2 2542.56 Z M 36868.3 2006.69 C 36950.9 2022.69 36996.3 2025.36 37102.9 2025.36 L 39251.7 2025.36 C 39270.4 2025.36 39278.4 2028.02 39278.4 2036.02 C 39278.4 2041.36 39275.7 2049.34 39270.4 2054.69 C 39169.1 2145.33 39137.1 2171.98 39030.4 2259.97 C 38966.4 2187.98 38945.1 2163.98 38875.8 2086.67 L 37102.9 2086.67 C 36974.9 2086.67 36934.9 2089.34 36855 2110.67 L 36868.3 2006.69 "/>
<path transform="matrix(.00359712,0,0,-.00359712,0,147)" d="M 41126.9 237.5 L 41079.8 237.5 C 40977.2 237.5 40919 265.234 40921.8 317.906 C 40921.8 326.219 40924.6 337.313 40927.3 348.391 L 41382 1947.97 L 41179.6 1947.97 L 41138 1817.67 C 41093.7 1945.19 41038.2 1989.55 40924.6 1989.55 C 40558.6 1989.55 40112.3 1479.47 40112.3 1058.08 C 40112.3 861.25 40220.4 736.5 40395.1 736.5 C 40591.9 736.5 40719.4 839.078 40966.2 1191.16 L 40719.4 378.891 C 40683.4 268 40639 245.828 40458.8 231.953 L 40458.8 187.609 L 41126.9 187.609 L 41126.9 237.5 Z M 40932.9 1928.56 C 41024.4 1928.56 41096.4 1853.72 41096.4 1759.45 C 41096.4 1529.36 40907.9 1135.7 40719.4 977.688 C 40647.3 916.703 40572.5 883.438 40506 883.438 C 40411.7 883.438 40350.7 966.594 40350.7 1096.89 C 40350.7 1302.05 40494.9 1609.75 40675.1 1792.72 C 40761 1878.66 40852.5 1928.56 40932.9 1928.56 "/>
<path transform="matrix(.00359712,0,0,-.00359712,0,147)" d="M 42220.8 2420.44 C 42220.8 2453.39 42193.7 2488.28 42158.8 2488.28 C 42114.2 2488.28 41955.3 2329.33 41899 2296.38 C 41899 2404.92 41953.3 2513.48 41953.3 2579.39 C 41953.3 2620.09 41926.2 2645.3 41885.5 2645.3 C 41846.7 2645.3 41823.4 2618.16 41823.4 2579.39 C 41823.4 2503.78 41870 2401.05 41870 2296.38 C 41807.9 2333.2 41656.7 2496.03 41616 2496.03 C 41581.1 2496.03 41550.1 2463.08 41550.1 2428.19 C 41550.1 2360.34 41778.9 2313.83 41854.5 2271.17 C 41773 2224.66 41621.8 2201.39 41583.1 2176.19 C 41563.7 2162.63 41548.2 2145.17 41548.2 2119.98 C 41548.2 2085.09 41575.3 2054.08 41610.2 2054.08 C 41654.8 2054.08 41811.8 2211.08 41870 2244.05 C 41870 2137.42 41815.7 2028.88 41815.7 1961.03 C 41815.7 1922.27 41844.8 1895.13 41883.5 1895.13 C 41922.3 1895.13 41945.6 1924.2 41945.6 1961.03 C 41945.6 2040.5 41901 2141.3 41901 2244.05 C 41961.1 2209.14 42114.2 2046.31 42153 2046.31 C 42187.9 2046.31 42218.9 2079.27 42218.9 2114.17 C 42218.9 2139.36 42201.4 2156.81 42182 2168.44 C 42131.7 2201.39 41997.9 2222.72 41914.5 2271.17 C 42005.7 2325.45 42129.7 2333.2 42185.9 2366.16 C 42207.3 2377.8 42220.8 2395.23 42220.8 2420.44 "/>
<path transform="matrix(.00359712,0,0,-.00359712,0,147)" stroke-width="110.783" stroke-linecap="butt" stroke-dasharray="110.783,553.929" stroke-miterlimit="10" stroke-linejoin="miter" fill="none" stroke="#000000" d="M 34265.1 20639.8 L 14957.8 20639.8 "/>
<path transform="matrix(.00359712,0,0,-.00359712,0,147)" d="M 662.172 21218.3 L 662.172 21812.8 C 744.813 21836.8 776.813 21855.5 776.813 21879.5 C 776.813 21903.5 744.813 21914.1 608.859 21927.5 C 576.859 21930.1 528.875 21935.5 464.891 21943.5 C 475.547 21802.2 480.891 21730.2 480.891 21607.5 L 480.891 21218.3 L 299.594 21218.3 C 256.938 21218.3 195.625 21226.3 128.969 21242.3 L 144.969 21138.3 C 190.281 21149 256.938 21157 299.594 21157 L 480.891 21157 L 480.891 20293.2 C 243.609 20221.2 243.609 20221.2 147.625 20199.9 C 224.953 19975.9 248.938 19920 272.938 19920 C 296.922 19920 307.594 19952 320.922 20053.3 C 771.484 20271.9 912.781 20351.9 1094.06 20477.2 L 1078.06 20519.8 C 878.125 20431.8 800.797 20399.8 662.172 20349.2 L 662.172 21157 L 1056.73 21157 C 968.766 20986.4 934.109 20930.4 832.797 20789.1 L 864.781 20759.8 C 1006.09 20890.4 1072.73 20967.7 1187.38 21143.7 C 1240.7 21226.3 1280.69 21290.3 1323.34 21370.3 L 2221.78 21370.3 C 2221.78 21050.3 2219.13 20906.4 2205.8 20733.1 C 2184.47 20447.8 2141.81 20151.9 2099.16 20007.9 C 2056.5 19864 2005.84 19802.7 1928.53 19802.7 C 1928.53 19802.7 1925.86 19802.7 1920.53 19802.7 C 1917.86 19802.7 1899.2 19805.3 1869.88 19805.3 C 1848.55 19805.3 1712.58 19821.3 1464.64 19850.6 L 1459.31 19802.7 C 1675.25 19741.3 1720.58 19725.3 1763.23 19696 C 1816.55 19664 1835.22 19632 1845.88 19554.7 C 2016.5 19581.4 2091.16 19616 2157.8 19693.3 C 2243.11 19797.3 2315.09 20026.6 2360.42 20351.9 C 2392.41 20591.8 2403.08 20765.1 2419.08 21301 C 2488.39 21340.9 2512.38 21356.9 2512.38 21380.9 C 2512.38 21391.6 2504.39 21404.9 2483.06 21423.6 C 2416.41 21479.6 2395.08 21498.2 2320.42 21556.9 C 2267.11 21503.6 2251.11 21484.9 2203.13 21431.6 L 1355.33 21431.6 C 1413.98 21546.2 1445.98 21623.5 1517.95 21815.5 C 1608.61 21826.2 1643.27 21839.5 1643.27 21866.1 C 1643.27 21890.1 1616.61 21898.1 1483.3 21932.8 C 1451.31 21940.8 1400.66 21954.1 1334 21970.1 C 1315.34 21839.5 1299.34 21775.5 1238.03 21591.5 C 1187.38 21436.9 1147.39 21340.9 1072.73 21189 L 1070.08 21191.6 C 990.094 21271.6 963.438 21295.6 872.781 21372.9 C 816.797 21306.3 800.797 21285 747.484 21218.3 L 662.172 21218.3 Z M 2093.81 20610.5 C 1701.92 20461.2 1288.69 20343.9 1040.75 20314.5 C 1123.39 20069.3 1147.39 20013.3 1176.72 20013.3 C 1203.38 20013.3 1211.38 20039.9 1222.03 20146.6 C 1669.92 20325.2 1840.55 20405.2 2112.48 20570.5 L 2093.81 20610.5 Z M 1339.34 20933 C 1296.69 20933 1235.36 20941 1168.72 20957 L 1184.7 20853.1 C 1230.03 20863.7 1294.02 20871.7 1339.34 20871.7 L 1909.86 20871.7 C 1925.86 20871.7 1939.19 20877.1 1939.19 20885 C 1939.19 20890.4 1933.86 20898.4 1928.53 20906.4 C 1848.55 20986.4 1821.89 21010.4 1731.23 21090.3 C 1675.25 21021 1659.27 20999.7 1605.94 20933 L 1339.34 20933 "/>
<path transform="matrix(.00359712,0,0,-.00359712,0,147)" d="M 4972.09 21127.7 L 5262.69 21127.7 C 5281.36 21127.7 5289.36 21133 5289.36 21141 C 5289.36 21149 5284.02 21154.3 5273.36 21165 C 5188.05 21258.3 5161.39 21285 5068.08 21364.9 C 5001.42 21290.3 4980.09 21266.3 4916.11 21189 L 4510.88 21189 L 4510.88 21210.3 C 4550.88 21234.3 4566.86 21253 4566.86 21269 C 4566.86 21279.6 4556.2 21290.3 4534.88 21306.3 C 4484.22 21340.9 4468.22 21351.6 4414.91 21383.6 C 4382.91 21346.3 4372.25 21332.9 4337.59 21293 L 4049.66 21293 C 4116.31 21367.6 4129.64 21380.9 4262.94 21562.2 C 4286.94 21570.2 4305.59 21575.5 4318.92 21578.2 C 4334.92 21580.9 4348.25 21583.5 4356.25 21588.9 C 4369.58 21591.5 4377.58 21602.2 4377.58 21610.2 C 4377.58 21620.9 4372.25 21628.9 4353.58 21647.5 C 4294.94 21706.2 4276.27 21724.8 4209.63 21780.8 C 4158.97 21740.8 4142.97 21727.5 4094.98 21684.9 L 3881.7 21684.9 C 3908.36 21735.5 3921.69 21762.2 3956.34 21844.8 C 4047 21858.1 4065.66 21866.1 4065.66 21887.5 C 4065.66 21914.1 4012.34 21935.5 3793.72 21983.5 C 3748.41 21722.2 3564.45 21301 3385.83 21050.3 L 3423.14 21021 C 3473.8 21074.3 3487.13 21090.3 3524.45 21135.7 L 3524.45 20866.4 L 3519.13 20447.8 C 3519.13 20442.5 3519.13 20437.2 3519.13 20434.5 C 3519.13 20421.2 3527.13 20413.2 3543.13 20413.2 C 3631.09 20413.2 3671.09 20429.2 3671.09 20461.2 C 3671.09 20463.8 3671.09 20469.2 3671.09 20477.2 L 3671.09 20557.1 L 4361.58 20557.1 L 4361.58 20477.2 C 4361.58 20453.2 4369.58 20442.5 4390.91 20442.5 C 4417.56 20442.5 4486.89 20453.2 4500.22 20458.5 C 4513.55 20463.8 4518.88 20471.8 4518.88 20493.2 C 4510.88 20962.4 4510.88 20965 4510.88 21127.7 L 4796.14 21127.7 L 4796.14 19802.7 C 4796.14 19781.3 4788.14 19773.3 4772.16 19773.3 C 4766.81 19773.3 4761.48 19773.3 4756.16 19773.3 C 4638.84 19776 4620.19 19778.7 4452.23 19797.3 C 4446.89 19885.3 4428.23 19904 4308.27 19962.6 C 4220.28 20002.6 4118.98 20045.3 3996.34 20087.9 C 4015 20138.6 4015 20138.6 4031 20189.2 L 4630.84 20189.2 C 4660.17 20189.2 4665.52 20191.9 4665.52 20202.6 C 4665.52 20207.9 4660.17 20218.5 4654.84 20231.9 C 4577.53 20298.5 4550.88 20317.2 4470.89 20383.8 C 4422.91 20327.9 4406.91 20309.2 4361.58 20250.5 L 4047 20250.5 C 4052.33 20287.9 4055 20303.9 4062.98 20378.5 C 4140.3 20402.5 4166.97 20418.5 4166.97 20431.8 C 4166.97 20450.5 4140.3 20458.5 4017.67 20466.5 L 3913.69 20477.2 C 3913.69 20455.8 3913.69 20439.8 3913.69 20431.8 C 3913.69 20362.5 3908.36 20317.2 3895.03 20250.5 L 3567.11 20250.5 C 3564.45 20250.5 3505.8 20255.9 3479.14 20255.9 C 3425.81 20261.2 3425.81 20261.2 3380.5 20277.2 L 3401.83 20173.2 C 3479.14 20186.6 3516.45 20189.2 3567.11 20189.2 L 3879.03 20189.2 C 3804.39 19960 3620.44 19786.7 3319.17 19658.7 L 3337.84 19618.7 C 3524.45 19672 3628.44 19717.3 3737.73 19789.3 C 3849.7 19866.6 3919.03 19938.6 3975.02 20045.3 C 4150.97 19920 4273.61 19808 4350.92 19701.3 C 4374.91 19669.4 4382.91 19661.4 4396.23 19661.4 C 4420.23 19661.4 4436.23 19688 4446.89 19752 C 4492.22 19741.3 4492.22 19741.3 4505.55 19736 C 4585.53 19717.3 4612.19 19704 4646.84 19669.4 C 4673.5 19640 4684.17 19621.4 4692.17 19570.7 C 4822.8 19594.7 4886.78 19616 4929.44 19648 C 4961.44 19672 4972.09 19693.3 4974.77 19754.7 C 4972.09 20130.6 4972.09 20130.6 4972.09 20250.5 L 4972.09 21127.7 Z M 3644.42 21298.3 C 3743.06 21444.9 3793.72 21522.2 3849.7 21623.5 L 4108.31 21623.5 C 4044.33 21428.9 4028.33 21380.9 3985.67 21293 L 3655.09 21293 L 3644.42 21298.3 Z M 4361.58 20962.4 L 4076.33 20962.4 L 4076.33 21231.6 L 4361.58 21231.6 L 4361.58 20962.4 Z M 4361.58 20901 L 4361.58 20618.5 L 4076.33 20618.5 L 4076.33 20901 L 4361.58 20901 Z M 3671.09 20901 L 3924.36 20901 L 3924.36 20618.5 L 3671.09 20618.5 L 3671.09 20901 Z M 3671.09 20962.4 L 3671.09 21231.6 L 3924.36 21231.6 L 3924.36 20962.4 L 3671.09 20962.4 Z M 3057.91 20279.9 C 3057.91 20095.9 3057.91 20079.9 3055.23 19904 C 3049.91 19696 3049.91 19696 3049.91 19573.4 C 3057.91 19549.4 3068.56 19541.4 3092.56 19541.4 C 3113.89 19541.4 3196.53 19552 3207.2 19557.4 C 3225.86 19562.7 3231.2 19570.7 3231.2 19586.7 C 3231.2 19589.4 3231.2 19592 3231.2 19594.7 C 3231.2 19640 3231.2 19672 3231.2 19698.7 L 3228.53 20309.2 L 3228.53 20783.8 C 3284.52 20799.7 3305.84 20813.1 3305.84 20829.1 C 3305.84 20850.4 3260.52 20866.4 3145.89 20885 C 3308.52 21087.7 3348.5 21146.3 3420.48 21293 C 3479.14 21293 3511.13 21306.3 3511.13 21327.6 C 3511.13 21348.9 3484.47 21364.9 3377.83 21402.3 C 3353.83 21410.3 3319.17 21423.6 3273.86 21442.3 C 3217.86 21293 3180.55 21207.6 3108.56 21069 C 2977.92 20826.4 2884.61 20690.4 2737.98 20535.8 L 2764.64 20506.5 C 2887.28 20594.5 2929.94 20637.1 3057.91 20783.8 L 3057.91 20279.9 Z M 2799.3 21231.6 C 3031.25 21388.9 3204.53 21559.5 3383.16 21804.8 C 3479.14 21810.2 3479.14 21810.2 3495.13 21818.2 C 3503.13 21823.5 3508.45 21831.5 3508.45 21842.2 C 3508.45 21850.2 3503.13 21860.8 3495.13 21866.1 C 3468.47 21884.8 3348.5 21935.5 3241.86 21972.8 C 3199.2 21860.8 3161.88 21791.5 3089.89 21676.9 C 2967.27 21476.9 2889.95 21370.3 2777.97 21253 L 2799.3 21231.6 Z M 4548.2 21634.2 C 4614.86 21647.5 4641.52 21650.2 4708.17 21650.2 L 5217.38 21650.2 C 5246.7 21650.2 5252.03 21652.9 5252.03 21668.9 C 5252.03 21674.2 5246.7 21682.2 5238.7 21692.9 C 5150.72 21778.2 5124.06 21804.8 5028.08 21887.5 L 4886.78 21711.5 L 4694.83 21711.5 C 4633.52 21711.5 4577.53 21719.5 4529.55 21732.8 L 4548.2 21634.2 "/>
<path transform="matrix(.00359712,0,0,-.00359712,0,147)" d="M 7557.13 19762.7 L 7557.13 19632 C 7557.13 19629.4 7557.13 19624 7557.13 19624 C 7557.13 19605.4 7567.78 19594.7 7591.78 19594.7 C 7703.75 19602.7 7717.08 19602.7 7730.41 19610.7 C 7743.73 19616 7751.73 19629.4 7751.73 19642.7 C 7751.73 19648 7751.73 19653.4 7749.08 19661.4 C 7743.73 20101.3 7741.08 20391.8 7741.08 20535.8 L 7741.08 21010.4 C 7818.39 21061 7831.72 21071.7 7831.72 21085 C 7831.72 21093 7826.39 21101 7807.72 21119.7 C 7743.73 21175.7 7722.41 21191.6 7642.44 21245 C 7594.44 21191.6 7581.11 21173 7535.8 21119.7 L 7245.2 21119.7 L 7245.2 21634.2 L 7917.03 21634.2 C 7922.36 21634.2 7933.03 21642.2 7933.03 21650.2 C 7933.03 21658.2 7927.69 21666.2 7917.03 21676.9 C 7818.39 21772.8 7786.39 21802.2 7669.09 21895.5 C 7599.78 21812.8 7578.45 21786.2 7509.13 21695.5 L 6354.75 21695.5 C 6264.11 21695.5 6192.13 21703.5 6122.81 21722.2 L 6141.47 21618.2 C 6234.78 21631.5 6277.44 21634.2 6354.75 21634.2 L 6610.69 21634.2 L 6610.69 21119.7 L 6354.75 21119.7 C 6264.11 21178.3 6234.78 21197 6141.47 21247.6 C 6152.13 21090.3 6154.8 20967.7 6154.8 20759.8 C 6154.8 20445.2 6149.47 19952 6141.47 19605.4 C 6141.47 19602.7 6141.47 19600 6141.47 19600 C 6141.47 19581.4 6154.8 19570.7 6181.45 19570.7 C 6213.45 19570.7 6277.44 19576 6296.09 19581.4 C 6317.42 19589.4 6322.75 19594.7 6322.75 19618.7 C 6325.42 19621.4 6325.42 19626.7 6325.42 19632 L 6325.42 19762.7 L 7557.13 19762.7 Z M 7082.56 19824 L 6783.98 19824 L 6783.98 21058.3 L 7082.56 21058.3 L 7082.56 19824 Z M 7245.2 19824 L 7245.2 21058.3 L 7557.13 21058.3 L 7557.13 19824 L 7245.2 19824 Z M 6325.42 19824 L 6325.42 21058.3 L 6610.69 21058.3 L 6610.69 19824 L 6325.42 19824 Z M 6783.98 21634.2 L 7082.56 21634.2 L 7082.56 21119.7 L 6783.98 21119.7 L 6783.98 21634.2 Z M 5424.31 20583.8 C 5552.28 20738.4 5600.27 20805.1 5730.91 21029 L 5730.91 20487.8 C 5730.91 20394.5 5722.91 19885.3 5717.58 19597.4 C 5717.58 19568 5728.23 19560 5760.23 19560 C 5848.2 19560 5901.53 19573.4 5901.53 19600 C 5901.53 19602.7 5901.53 19608 5898.86 19610.7 L 5898.86 21005 C 5946.84 21029 5970.84 21047.7 5970.84 21061 C 5970.84 21085 5920.19 21098.3 5781.56 21117 C 5901.53 21330.3 5960.19 21458.3 6101.48 21818.2 C 6181.45 21823.5 6208.13 21834.2 6208.13 21858.1 C 6208.13 21866.1 6197.45 21876.8 6189.45 21882.1 C 6170.8 21892.8 6152.13 21900.8 6045.5 21927.5 C 6016.17 21935.5 5968.17 21948.8 5909.53 21964.8 C 5898.86 21818.2 5840.2 21599.5 5736.23 21327.6 C 5629.59 21045 5525.63 20834.4 5381.66 20610.5 L 5424.31 20583.8 "/>
<path transform="matrix(.00359712,0,0,-.00359712,0,147)" d="M 9472.97 21596.9 C 9515.63 21674.2 9515.63 21674.2 9595.61 21823.5 C 9680.92 21831.5 9715.58 21844.8 9715.58 21868.8 C 9715.58 21887.5 9683.58 21900.8 9550.28 21938.1 C 9520.95 21943.5 9475.64 21956.8 9419.66 21972.8 C 9395.66 21855.5 9339.67 21695.5 9259.69 21514.2 C 9161.05 21290.3 9065.08 21122.3 8950.44 20973 L 8974.42 20951.7 C 9139.72 21090.3 9249.03 21221 9390.33 21447.6 C 9462.31 21274.3 9536.95 21149 9662.25 20999.7 C 9568.95 20906.4 9488.97 20829.1 9395.66 20754.4 C 9241.03 20623.8 9166.38 20575.8 8835.8 20389.2 L 8854.45 20357.2 C 9003.75 20418.5 9067.73 20445.2 9163.72 20490.5 C 9169.05 20271.9 9169.05 20271.9 9169.05 20178.6 C 9169.05 20077.3 9169.05 19968 9163.72 19586.7 C 9163.72 19562.7 9171.72 19554.7 9203.7 19554.7 C 9318.34 19554.7 9339.67 19560 9342.34 19594.7 L 9342.34 19706.7 L 10070.2 19706.7 L 10070.2 19584 C 10070.2 19562.7 10078.2 19560 10112.8 19560 C 10155.5 19560 10216.8 19565.4 10235.5 19570.7 C 10246.1 19576 10251.4 19581.4 10251.4 19597.4 C 10243.5 19938.6 10243.5 20007.9 10243.5 20109.3 C 10243.5 20165.2 10243.5 20229.2 10243.5 20325.2 C 10299.4 20359.8 10315.4 20373.2 10315.4 20389.2 C 10315.4 20397.2 10304.8 20410.5 10278.1 20431.8 C 10219.5 20474.5 10200.8 20485.2 10139.5 20527.8 C 10102.2 20487.8 10091.5 20474.5 10054.2 20431.8 L 9342.34 20431.8 C 9281.02 20471.8 9265.02 20482.5 9214.38 20514.5 C 9408.98 20610.5 9587.61 20730.4 9766.23 20885 C 9950.19 20698.4 10131.5 20578.5 10448.7 20431.8 C 10494 20543.8 10523.4 20573.1 10627.4 20610.5 L 10627.4 20650.4 C 10296.8 20695.8 10091.5 20778.4 9851.55 20962.4 C 9990.17 21098.3 10080.8 21215.6 10243.5 21468.9 C 10350.1 21482.2 10379.4 21490.2 10379.4 21514.2 C 10379.4 21522.2 10371.4 21532.9 10352.8 21554.2 C 10278.1 21623.5 10256.8 21647.5 10179.5 21716.8 C 10126.1 21668.9 10110.1 21652.9 10059.5 21596.9 L 9472.97 21596.9 Z M 10046.2 21535.6 C 9928.86 21322.3 9859.55 21223.6 9726.23 21071.7 C 9595.61 21197 9520.95 21298.3 9414.31 21492.9 C 9427.66 21514.2 9427.66 21514.2 9440.98 21535.6 L 10046.2 21535.6 Z M 9342.34 20370.5 L 10070.2 20370.5 L 10070.2 19768 L 9342.34 19768 L 9342.34 20370.5 Z M 8675.83 21378.3 L 8675.83 21855.5 C 8782.47 21895.5 8798.47 21906.1 8798.47 21924.8 C 8798.47 21954.1 8742.48 21964.8 8491.88 21986.1 C 8499.88 21890.1 8502.55 21842.2 8502.55 21652.9 L 8502.55 21378.3 L 8289.27 21378.3 C 8219.95 21378.3 8174.63 21383.6 8115.97 21396.9 L 8131.97 21301 C 8195.95 21314.3 8225.28 21317 8289.27 21317 L 8483.88 21317 C 8371.91 20807.7 8291.92 20573.1 8086.64 20157.2 L 8121.3 20138.6 C 8302.59 20402.5 8419.89 20642.5 8523.88 20973 L 8507.88 20618.5 C 8502.55 20527.8 8497.22 20053.3 8494.55 19573.4 C 8494.55 19549.4 8505.2 19541.4 8529.2 19541.4 C 8643.84 19541.4 8678.5 19549.4 8678.5 19581.4 C 8675.83 19800 8675.83 19800 8675.83 21026.4 C 8745.16 20954.4 8806.47 20855.7 8859.78 20730.4 C 8894.45 20650.4 8905.11 20631.8 8929.11 20631.8 C 8963.77 20631.8 9009.08 20727.8 9009.08 20799.7 C 9009.08 20858.4 8969.09 20903.7 8854.45 20978.4 C 8782.47 21023.7 8731.83 21050.3 8675.83 21082.3 L 8675.83 21317 L 9094.39 21317 C 9102.39 21317 9110.39 21322.3 9110.39 21327.6 C 9110.39 21332.9 9107.73 21338.3 9102.39 21346.3 C 9022.42 21428.9 8998.42 21455.6 8913.11 21535.6 C 8862.45 21468.9 8846.45 21447.6 8795.8 21378.3 L 8675.83 21378.3 "/>
<path transform="matrix(.00359712,0,0,-.00359712,0,147)" d="M 11698.3 20872 L 11762 20872 C 11762 20872 11767.5 20872 11770.3 20874.8 C 11806.4 20891.4 11878.4 20838.7 11878.4 20797.1 C 11878.4 20772.2 11778.6 20378.5 11681.6 20012.6 C 11606.8 19735.4 11540.2 19472 11520.8 19391.6 C 11490.3 19264.1 11454.3 19230.8 11335.1 19228 L 11335.1 19183.7 L 11903.4 19183.7 L 11903.4 19225.3 C 11773.1 19225.3 11726 19250.2 11726 19308.4 C 11726 19347.3 11773.1 19563.5 11828.5 19768.6 C 11897.8 19732.6 11947.8 19721.5 12011.5 19721.5 C 12416.3 19721.5 12843.2 20187.2 12843.2 20628 C 12843.2 20844.3 12721.2 20974.5 12524.4 20974.5 C 12344.2 20974.5 12211.1 20885.8 12050.3 20661.3 L 12130.7 20938.5 L 12139 20963.5 C 12139 20963.5 12136.3 20966.2 12133.5 20971.8 L 12127.9 20974.5 C 12127.9 20977.3 12125.2 20977.3 12125.2 20977.3 L 12119.6 20974.5 L 11692.7 20913.6 L 11698.3 20872 Z M 12421.8 20855.3 C 12541 20849.8 12593.7 20777.7 12593.7 20616.9 C 12593.7 20434 12513.3 20195.6 12394.1 20023.7 C 12277.6 19860.1 12144.6 19774.2 12000.4 19774.2 C 11922.8 19774.2 11867.3 19815.8 11867.3 19876.8 C 11867.3 19971 11967.2 20334.2 12047.5 20539.3 C 12122.4 20727.8 12283.2 20863.7 12421.8 20855.3 "/>
<path transform="matrix(.00359712,0,0,-.00359712,0,147)" d="M 13720.8 21405.4 C 13720.8 21438.4 13693.7 21473.3 13658.8 21473.3 C 13614.2 21473.3 13455.3 21314.3 13399 21281.4 C 13399 21389.9 13453.3 21498.5 13453.3 21564.4 C 13453.3 21605.1 13426.2 21630.3 13385.5 21630.3 C 13346.7 21630.3 13323.4 21603.2 13323.4 21564.4 C 13323.4 21488.8 13370 21386 13370 21281.4 C 13307.9 21318.2 13156.7 21481 13116 21481 C 13081.1 21481 13050.1 21448.1 13050.1 21413.2 C 13050.1 21345.3 13278.9 21298.8 13354.5 21256.2 C 13273 21209.7 13121.8 21186.4 13083.1 21161.2 C 13063.7 21147.6 13048.2 21130.2 13048.2 21105 C 13048.2 21070.1 13075.3 21039.1 13110.2 21039.1 C 13154.8 21039.1 13311.8 21196.1 13370 21229 C 13370 21122.4 13315.7 21013.9 13315.7 20946 C 13315.7 20907.3 13344.8 20880.1 13383.5 20880.1 C 13422.3 20880.1 13445.6 20909.2 13445.6 20946 C 13445.6 21025.5 13401 21126.3 13401 21229 C 13461.1 21194.1 13614.2 21031.3 13653 21031.3 C 13687.9 21031.3 13718.9 21064.3 13718.9 21099.2 C 13718.9 21124.4 13701.4 21141.8 13682 21153.4 C 13631.7 21186.4 13497.9 21207.7 13414.5 21256.2 C 13505.7 21310.5 13629.7 21318.2 13685.9 21351.2 C 13707.3 21362.8 13720.8 21380.2 13720.8 21405.4 "/>
<path transform="matrix(.00359712,0,0,-.00359712,0,147)" d="M 34816.4 20639.8 C 34816.4 20944.3 34569.6 21191.1 34265.1 21191.1 C 33960.6 21191.1 33713.8 20944.3 33713.8 20639.8 C 33713.8 20335.3 33960.6 20088.5 34265.1 20088.5 C 34569.6 20088.5 34816.4 20335.3 34816.4 20639.8 Z M 34265.1 20639.8 "/>
<path transform="matrix(.00359712,0,0,-.00359712,0,147)" d="M 14957.8 31672.2 L 34265.1 20639.8 L 14957.8 20639.8 " fill="#610b0b" fill-opacity=".6"/>
<path transform="matrix(.00359712,0,0,-.00359712,0,147)" d="M 14957.8 9607.38 L 34265.1 20639.8 L 14957.8 20639.8 " fill="#2e67b5" fill-opacity=".6"/>
</g>
</svg>
