<?xml version="1.0" encoding="UTF-8" standalone="no"?>
<!DOCTYPE svg PUBLIC "-//W3C//DTD SVG 1.1//EN" "http://www.w3.org/Graphics/SVG/1.1/DTD/svg11.dtd">
<svg xmlns="http://www.w3.org/2000/svg" xmlns:xlink="http://www.w3.org/1999/xlink" version="1.1" width="334pt" height="241pt" viewBox="0 0 334 241">
<g enable-background="new">
<path transform="matrix(.00359712,0,0,-.00359712,0,241)" stroke-width="110.783" stroke-linecap="butt" stroke-miterlimit="10" stroke-linejoin="miter" fill="none" stroke="#000000" d="M 3011.57 35828.8 L 3011.57 66592.5 "/>
<path transform="matrix(.00359712,0,0,-.00359712,0,241)" stroke-width="88.6236" stroke-linecap="round" stroke-linejoin="round" fill="none" stroke="#000000" d="M 2568.44 66260.2 C 2734.61 66287.9 2983.88 66592.5 3011.57 66675.6 C 3039.27 66592.5 3288.54 66287.9 3454.71 66260.2 "/>
<path transform="matrix(.00359712,0,0,-.00359712,0,241)" stroke-width="110.783" stroke-linecap="butt" stroke-miterlimit="10" stroke-linejoin="miter" fill="none" stroke="#000000" d="M 2459.92 36380.5 L 44256.2 36380.5 "/>
<path transform="matrix(.00359712,0,0,-.00359712,0,241)" stroke-width="88.6236" stroke-linecap="round" stroke-linejoin="round" fill="none" stroke="#000000" d="M 43923.8 36823.6 C 43951.5 36657.4 44256.2 36408.2 44339.2 36380.5 C 44256.2 36352.8 43951.5 36103.5 43923.8 35937.3 "/>
<path transform="matrix(.00359712,0,0,-.00359712,0,241)" stroke-width="110.783" stroke-linecap="butt" stroke-miterlimit="10" stroke-linejoin="miter" fill="none" stroke="#000000" d="M 42177.1 63961.8 L 380.848 63961.8 "/>
<path transform="matrix(.00359712,0,0,-.00359712,0,241)" stroke-width="88.6236" stroke-linecap="round" stroke-linejoin="round" fill="none" stroke="#000000" d="M 713.199 63518.7 C 685.5 63684.8 380.848 63934.1 297.766 63961.8 C 380.848 63989.5 685.5 64238.8 713.199 64404.9 "/>
<path transform="matrix(.00359712,0,0,-.00359712,0,241)" stroke-width="110.783" stroke-linecap="butt" stroke-miterlimit="10" stroke-linejoin="miter" fill="none" stroke="#000000" d="M 41625.4 64513.5 L 41625.4 33749.7 "/>
<path transform="matrix(.00359712,0,0,-.00359712,0,241)" stroke-width="88.6236" stroke-linecap="round" stroke-linejoin="round" fill="none" stroke="#000000" d="M 42068.6 34082.1 C 41902.4 34054.4 41653.1 33749.8 41625.4 33666.7 C 41597.7 33749.8 41348.5 34054.4 41182.3 34082.1 "/>
<path transform="matrix(.00359712,0,0,-.00359712,0,241)" stroke-width="110.783" stroke-linecap="butt" stroke-miterlimit="10" stroke-linejoin="miter" fill="none" stroke="#000000" d="M 3011.57 52929.3 L 36109.2 36380.5 "/>
<path transform="matrix(.00359712,0,0,-.00359712,0,241)" d="M 14595.8 47413 C 14595.8 47717.7 14348.8 47964.6 14044.1 47964.6 C 13739.4 47964.6 13492.4 47717.7 13492.4 47413 C 13492.4 47108.3 13739.4 46861.3 14044.1 46861.3 C 14348.8 46861.3 14595.8 47108.3 14595.8 47413 Z M 14044.1 47413 "/>
<path transform="matrix(.00359712,0,0,-.00359712,0,241)" d="M 16678 48859.5 L 16600.4 48859.5 C 16461.8 48560.1 16342.6 48493.6 15946.2 48493.6 L 15871.3 48493.6 C 15735.5 48493.6 15619 48507.4 15599.6 48526.8 C 15585.8 48535.2 15580.2 48565.7 15580.2 48612.8 L 15580.2 49297.5 L 16007.1 49297.5 C 16234.5 49297.5 16276 49261.5 16312.1 49031.4 L 16375.8 49031.4 L 16375.8 49674.5 L 16312.1 49674.5 C 16292.7 49560.9 16281.6 49519.3 16251.1 49480.5 C 16215.1 49433.4 16137.4 49411.2 16007.1 49411.2 L 15580.2 49411.2 L 15580.2 50026.6 C 15580.2 50104.2 15596.8 50120.9 15671.7 50120.9 L 16046 50120.9 C 16359.2 50120.9 16420.2 50079.3 16467.3 49829.8 L 16536.6 49829.8 L 16528.3 50226.2 L 15056.3 50226.2 L 15056.3 50173.5 C 15261.4 50156.9 15297.5 50118.1 15297.5 49924 L 15297.5 48693.2 C 15297.5 48499.1 15258.6 48457.5 15056.3 48443.7 L 15056.3 48391 L 16553.3 48391 L 16678 48859.5 "/>
<path transform="matrix(.00359712,0,0,-.00359712,0,241)" d="M 25628.3 41896.7 C 25628.3 42201.4 25381.3 42448.4 25076.6 42448.4 C 24772 42448.4 24525 42201.4 24525 41896.7 C 24525 41592.1 24772 41345.1 25076.6 41345.1 C 25381.3 41345.1 25628.3 41592.1 25628.3 41896.7 Z M 25076.6 41896.7 "/>
<path transform="matrix(.00359712,0,0,-.00359712,0,241)" d="M 27998.3 42926.2 C 27682.3 42934.5 27460.5 43056.5 27236 43347.6 C 27424.5 43383.6 27524.3 43430.8 27651.8 43541.7 C 27857 43724.6 27962.3 43976.9 27962.3 44284.6 C 27962.3 44841.8 27585.3 45241 27055.8 45241 C 26526.3 45241 26149.3 44841.8 26149.3 44279.1 C 26149.3 44007.4 26232.4 43780.1 26396 43602.6 C 26504.1 43486.2 26592.8 43430.8 26789.6 43364.2 L 26919.9 43211.8 C 27108.4 42992.8 27443.9 42873.5 27884.7 42873.5 C 27926.3 42873.5 27951.2 42873.5 27981.7 42876.3 L 27998.3 42876.3 L 27998.3 42926.2 Z M 27064.1 45141.2 C 27183.3 45141.2 27310.8 45088.5 27407.8 45002.6 C 27557.5 44869.5 27646.3 44603.4 27646.3 44290.2 C 27646.3 44015.7 27565.9 43732.9 27455 43605.4 C 27352.4 43491.8 27208.3 43428 27055.8 43428 C 26922.7 43428 26800.7 43475.1 26700.9 43563.8 C 26554 43694.1 26465.3 43971.3 26465.3 44295.7 C 26465.3 44561.8 26545.7 44833.5 26659.3 44961 C 26773 45083 26903.3 45141.2 27064.1 45141.2 "/>
<path transform="matrix(.00359712,0,0,-.00359712,0,241)" stroke-width="110.783" stroke-linecap="butt" stroke-miterlimit="10" stroke-linejoin="miter" fill="none" stroke="#000000" d="M 51313.5 35828.8 L 51313.5 66592.5 "/>
<path transform="matrix(.00359712,0,0,-.00359712,0,241)" stroke-width="88.6236" stroke-linecap="round" stroke-linejoin="round" fill="none" stroke="#000000" d="M 50870.4 66260.2 C 51036.6 66287.9 51285.8 66592.5 51313.5 66675.6 C 51341.2 66592.5 51590.5 66287.9 51756.7 66260.2 "/>
<path transform="matrix(.00359712,0,0,-.00359712,0,241)" stroke-width="110.783" stroke-linecap="butt" stroke-miterlimit="10" stroke-linejoin="miter" fill="none" stroke="#000000" d="M 50761.9 36380.5 L 92558.1 36380.5 "/>
<path transform="matrix(.00359712,0,0,-.00359712,0,241)" stroke-width="88.6236" stroke-linecap="round" stroke-linejoin="round" fill="none" stroke="#000000" d="M 92225.8 36823.6 C 92253.5 36657.4 92558.1 36408.2 92641.2 36380.5 C 92558.1 36352.8 92253.5 36103.5 92225.8 35937.3 "/>
<path transform="matrix(.00359712,0,0,-.00359712,0,241)" stroke-width="110.783" stroke-linecap="butt" stroke-miterlimit="10" stroke-linejoin="miter" fill="none" stroke="#000000" d="M 90479 63961.8 L 48682.8 63961.8 "/>
<path transform="matrix(.00359712,0,0,-.00359712,0,241)" stroke-width="88.6236" stroke-linecap="round" stroke-linejoin="round" fill="none" stroke="#000000" d="M 49015.2 63518.7 C 48987.5 63684.8 48682.8 63934.1 48599.7 63961.8 C 48682.8 63989.5 48987.5 64238.8 49015.2 64404.9 "/>
<path transform="matrix(.00359712,0,0,-.00359712,0,241)" stroke-width="110.783" stroke-linecap="butt" stroke-miterlimit="10" stroke-linejoin="miter" fill="none" stroke="#000000" d="M 89927.4 64513.5 L 89927.4 33749.7 "/>
<path transform="matrix(.00359712,0,0,-.00359712,0,241)" stroke-width="88.6236" stroke-linecap="round" stroke-linejoin="round" fill="none" stroke="#000000" d="M 90370.5 34082.1 C 90204.3 34054.4 89955.1 33749.8 89927.4 33666.7 C 89899.7 33749.8 89650.4 34054.4 89484.3 34082.1 "/>
<path transform="matrix(.00359712,0,0,-.00359712,0,241)" stroke-width="110.783" stroke-linecap="butt" stroke-miterlimit="10" stroke-linejoin="miter" fill="none" stroke="#000000" d="M 51313.5 52929.3 L 84411.1 36380.5 "/>
<path transform="matrix(.00359712,0,0,-.00359712,0,241)" d="M 62897.7 47413 C 62897.7 47717.7 62650.7 47964.6 62346.1 47964.6 C 62041.4 47964.6 61794.4 47717.7 61794.4 47413 C 61794.4 47108.3 62041.4 46861.3 62346.1 46861.3 C 62650.7 46861.3 62897.7 47108.3 62897.7 47413 Z M 62346.1 47413 "/>
<path transform="matrix(.00359712,0,0,-.00359712,0,241)" d="M 64980 48859.5 L 64902.4 48859.5 C 64763.8 48560.1 64644.6 48493.6 64248.2 48493.6 L 64173.3 48493.6 C 64037.5 48493.6 63921 48507.4 63901.6 48526.8 C 63887.8 48535.2 63882.2 48565.7 63882.2 48612.8 L 63882.2 49297.5 L 64309.1 49297.5 C 64536.5 49297.5 64578 49261.5 64614.1 49031.4 L 64677.8 49031.4 L 64677.8 49674.5 L 64614.1 49674.5 C 64594.7 49560.9 64583.6 49519.3 64553.1 49480.5 C 64517.1 49433.4 64439.4 49411.2 64309.1 49411.2 L 63882.2 49411.2 L 63882.2 50026.6 C 63882.2 50104.2 63898.8 50120.9 63973.7 50120.9 L 64348 50120.9 C 64661.2 50120.9 64722.2 50079.3 64769.3 49829.8 L 64838.6 49829.8 L 64830.3 50226.2 L 63358.3 50226.2 L 63358.3 50173.5 C 63563.4 50156.9 63599.5 50118.1 63599.5 49924 L 63599.5 48693.2 C 63599.5 48499.1 63560.6 48457.5 63358.3 48443.7 L 63358.3 48391 L 64855.3 48391 L 64980 48859.5 "/>
<path transform="matrix(.00359712,0,0,-.00359712,0,241)" stroke-width="332.357" stroke-linecap="butt" stroke-miterlimit="10" stroke-linejoin="miter" fill="none" stroke="#ec008c" d="M 67862.3 47413 C 69389.5 44767.8 70733.3 43424 73378.6 41896.7 C 75469.3 40689.6 77687.7 42564.1 78894.8 44654.9 "/>
<path transform="matrix(.00359712,0,0,-.00359712,0,241)" d="M 73930.2 41896.7 C 73930.2 42201.4 73683.2 42448.4 73378.6 42448.4 C 73073.9 42448.4 72826.9 42201.4 72826.9 41896.7 C 72826.9 41592.1 73073.9 41345.1 73378.6 41345.1 C 73683.2 41345.1 73930.2 41592.1 73930.2 41896.7 Z M 73378.6 41896.7 "/>
<path transform="matrix(.00359712,0,0,-.00359712,0,241)" d="M 76300.3 42926.2 C 75984.3 42934.5 75762.5 43056.5 75538 43347.6 C 75726.5 43383.6 75826.3 43430.8 75953.8 43541.7 C 76159 43724.6 76264.3 43976.9 76264.3 44284.6 C 76264.3 44841.8 75887.3 45241 75357.8 45241 C 74828.3 45241 74451.3 44841.8 74451.3 44279.1 C 74451.3 44007.4 74534.4 43780.1 74698 43602.6 C 74806.1 43486.2 74894.8 43430.8 75091.6 43364.2 L 75221.9 43211.8 C 75410.4 42992.8 75745.9 42873.5 76186.7 42873.5 C 76228.3 42873.5 76253.2 42873.5 76283.7 42876.3 L 76300.3 42876.3 L 76300.3 42926.2 Z M 75366.1 45141.2 C 75485.3 45141.2 75612.8 45088.5 75709.8 45002.6 C 75859.5 44869.5 75948.3 44603.4 75948.3 44290.2 C 75948.3 44015.7 75867.9 43732.9 75757 43605.4 C 75654.4 43491.8 75510.3 43428 75357.8 43428 C 75224.7 43428 75102.7 43475.1 75002.9 43563.8 C 74856 43694.1 74767.3 43971.3 74767.3 44295.7 C 74767.3 44561.8 74847.7 44833.5 74961.3 44961 C 75075 45083 75205.3 45141.2 75366.1 45141.2 "/>
<path transform="matrix(.00359712,0,0,-.00359712,0,241)" stroke-width="110.783" stroke-linecap="butt" stroke-miterlimit="10" stroke-linejoin="miter" fill="none" stroke="#000000" d="M 3011.57 2343.99 L 3011.57 33107.7 "/>
<path transform="matrix(.00359712,0,0,-.00359712,0,241)" stroke-width="88.6236" stroke-linecap="round" stroke-linejoin="round" fill="none" stroke="#000000" d="M 2568.44 32775.3 C 2734.61 32803 2983.88 33107.7 3011.57 33190.8 C 3039.27 33107.7 3288.54 32803 3454.71 32775.3 "/>
<path transform="matrix(.00359712,0,0,-.00359712,0,241)" stroke-width="110.783" stroke-linecap="butt" stroke-miterlimit="10" stroke-linejoin="miter" fill="none" stroke="#000000" d="M 2459.92 2895.65 L 44256.2 2895.65 "/>
<path transform="matrix(.00359712,0,0,-.00359712,0,241)" stroke-width="88.6236" stroke-linecap="round" stroke-linejoin="round" fill="none" stroke="#000000" d="M 43923.8 3338.78 C 43951.5 3172.61 44256.2 2923.34 44339.2 2895.65 C 44256.2 2867.96 43951.5 2618.69 43923.8 2452.51 "/>
<path transform="matrix(.00359712,0,0,-.00359712,0,241)" stroke-width="110.783" stroke-linecap="butt" stroke-miterlimit="10" stroke-linejoin="miter" fill="none" stroke="#000000" d="M 42177.1 30477 L 380.848 30477 "/>
<path transform="matrix(.00359712,0,0,-.00359712,0,241)" stroke-width="88.6236" stroke-linecap="round" stroke-linejoin="round" fill="none" stroke="#000000" d="M 713.199 30033.8 C 685.5 30200 380.848 30449.3 297.766 30477 C 380.848 30504.7 685.5 30753.9 713.199 30920.1 "/>
<path transform="matrix(.00359712,0,0,-.00359712,0,241)" stroke-width="110.783" stroke-linecap="butt" stroke-miterlimit="10" stroke-linejoin="miter" fill="none" stroke="#000000" d="M 41625.4 31028.6 L 41625.4 264.922 "/>
<path transform="matrix(.00359712,0,0,-.00359712,0,241)" stroke-width="88.6236" stroke-linecap="round" stroke-linejoin="round" fill="none" stroke="#000000" d="M 42068.6 597.273 C 41902.4 569.574 41653.1 264.922 41625.4 181.84 C 41597.7 264.922 41348.5 569.574 41182.3 597.273 "/>
<path transform="matrix(.00359712,0,0,-.00359712,0,241)" stroke-width="110.783" stroke-linecap="butt" stroke-miterlimit="10" stroke-linejoin="miter" fill="none" stroke="#000000" d="M 3011.57 19444.4 L 36109.2 2895.65 "/>
<path transform="matrix(.00359712,0,0,-.00359712,0,241)" d="M 14595.8 13928.2 C 14595.8 14232.9 14348.8 14479.8 14044.1 14479.8 C 13739.4 14479.8 13492.4 14232.9 13492.4 13928.2 C 13492.4 13623.5 13739.4 13376.5 14044.1 13376.5 C 14348.8 13376.5 14595.8 13623.5 14595.8 13928.2 Z M 14044.1 13928.2 "/>
<path transform="matrix(.00359712,0,0,-.00359712,0,241)" d="M 16678 15375.5 L 16600.4 15375.5 C 16461.8 15076.1 16342.6 15009.6 15946.2 15009.6 L 15871.3 15009.6 C 15735.5 15009.6 15619 15023.4 15599.6 15042.8 C 15585.8 15051.2 15580.2 15081.7 15580.2 15128.8 L 15580.2 15813.5 L 16007.1 15813.5 C 16234.5 15813.5 16276 15777.5 16312.1 15547.4 L 16375.8 15547.4 L 16375.8 16190.5 L 16312.1 16190.5 C 16292.7 16076.9 16281.6 16035.3 16251.1 15996.5 C 16215.1 15949.4 16137.4 15927.2 16007.1 15927.2 L 15580.2 15927.2 L 15580.2 16542.6 C 15580.2 16620.2 15596.8 16636.9 15671.7 16636.9 L 16046 16636.9 C 16359.2 16636.9 16420.2 16595.3 16467.3 16345.8 L 16536.6 16345.8 L 16528.3 16742.2 L 15056.3 16742.2 L 15056.3 16689.5 C 15261.4 16672.9 15297.5 16634.1 15297.5 16440 L 15297.5 15209.2 C 15297.5 15015.1 15258.6 14973.5 15056.3 14959.7 L 15056.3 14907 L 16553.3 14907 L 16678 15375.5 "/>
<path transform="matrix(.00359712,0,0,-.00359712,0,241)" stroke-width="332.357" stroke-linecap="butt" stroke-miterlimit="10" stroke-linejoin="miter" fill="none" stroke="#ec008c" d="M 19560.4 13928.2 C 21087.6 11282.9 22431.4 9939.13 25076.6 8411.91 C 27167.4 7204.8 29385.8 9079.27 30592.9 11170 "/>
<path transform="matrix(.00359712,0,0,-.00359712,0,241)" stroke-width="332.357" stroke-linecap="butt" stroke-dasharray="332.357,553.929" stroke-miterlimit="10" stroke-linejoin="miter" fill="none" stroke="#00aeef" d="M 19560.4 6757.01 C 20684 8703.29 23130.4 9535.59 25076.6 8411.91 C 27583.4 6964.65 29145.6 5954.04 30592.9 3447.3 "/>
<path transform="matrix(.00359712,0,0,-.00359712,0,241)" d="M 25628.3 8411.91 C 25628.3 8716.58 25381.3 8963.57 25076.6 8963.57 C 24772 8963.57 24525 8716.58 24525 8411.91 C 24525 8107.24 24772 7860.25 25076.6 7860.25 C 25381.3 7860.25 25628.3 8107.24 25628.3 8411.91 Z M 25076.6 8411.91 "/>
<path transform="matrix(.00359712,0,0,-.00359712,0,241)" d="M 27998.3 9441.22 C 27682.3 9449.53 27460.5 9571.52 27236 9862.59 C 27424.5 9898.64 27524.3 9945.77 27651.8 10056.7 C 27857 10239.6 27962.3 10491.9 27962.3 10799.6 C 27962.3 11356.8 27585.3 11756 27055.8 11756 C 26526.3 11756 26149.3 11356.8 26149.3 10794.1 C 26149.3 10522.4 26232.4 10295.1 26396 10117.6 C 26504.1 10001.2 26592.8 9945.77 26789.6 9879.23 L 26919.9 9726.75 C 27108.4 9507.75 27443.9 9388.55 27884.7 9388.55 C 27926.3 9388.55 27951.2 9388.55 27981.7 9391.31 L 27998.3 9391.31 L 27998.3 9441.22 Z M 27064.1 11656.2 C 27183.3 11656.2 27310.8 11603.5 27407.8 11517.6 C 27557.5 11384.5 27646.3 11118.4 27646.3 10805.2 C 27646.3 10530.7 27565.9 10247.9 27455 10120.4 C 27352.4 10006.8 27208.3 9942.98 27055.8 9942.98 C 26922.7 9942.98 26800.7 9990.11 26700.9 10078.8 C 26554 10209.1 26465.3 10486.3 26465.3 10810.7 C 26465.3 11076.8 26545.7 11348.5 26659.3 11476 C 26773 11598 26903.3 11656.2 27064.1 11656.2 "/>
</g>
</svg>
